%TF.GenerationSoftware,KiCad,Pcbnew,(5.1.10)-1*%
%TF.CreationDate,2021-10-13T22:05:38-03:00*%
%TF.ProjectId,kicad,6b696361-642e-46b6-9963-61645f706362,rev?*%
%TF.SameCoordinates,Original*%
%TF.FileFunction,Soldermask,Bot*%
%TF.FilePolarity,Negative*%
%FSLAX46Y46*%
G04 Gerber Fmt 4.6, Leading zero omitted, Abs format (unit mm)*
G04 Created by KiCad (PCBNEW (5.1.10)-1) date 2021-10-13 22:05:38*
%MOMM*%
%LPD*%
G01*
G04 APERTURE LIST*
%ADD10C,7.000000*%
%ADD11C,3.000000*%
%ADD12R,3.000000X3.000000*%
%ADD13O,2.200000X4.000000*%
%ADD14O,4.000000X2.200000*%
%ADD15R,4.000000X2.200000*%
%ADD16R,2.000000X2.000000*%
%ADD17C,2.000000*%
%ADD18O,1.740000X2.190000*%
%ADD19O,2.190000X1.740000*%
%ADD20C,2.500000*%
%ADD21O,1.700000X1.700000*%
%ADD22R,1.700000X1.700000*%
G04 APERTURE END LIST*
D10*
%TO.C,REF\u002A\u002A*%
X165000000Y-130000000D03*
%TD*%
%TO.C,REF\u002A\u002A*%
X195000000Y-130000000D03*
%TD*%
%TO.C,REF\u002A\u002A*%
X195000000Y-70000000D03*
%TD*%
%TO.C,REF\u002A\u002A*%
X105000000Y-70000000D03*
%TD*%
%TO.C,REF\u002A\u002A*%
X105000000Y-130000000D03*
%TD*%
D11*
%TO.C,J5*%
X126095000Y-123825000D03*
D12*
X126095000Y-118745000D03*
%TD*%
D11*
%TO.C,J8*%
X193405000Y-112395000D03*
X193405000Y-117475000D03*
D12*
X193405000Y-122555000D03*
%TD*%
D11*
%TO.C,PS1*%
X135175000Y-92115000D03*
X105775000Y-86915000D03*
D12*
X105775000Y-81915000D03*
D11*
X135175000Y-76715000D03*
%TD*%
%TO.C,T1*%
X132365000Y-111125000D03*
X122365000Y-111125000D03*
X132365000Y-98425000D03*
D12*
X122365000Y-98425000D03*
%TD*%
D13*
%TO.C,J4*%
X108225000Y-121765000D03*
D14*
X116225000Y-116565000D03*
X115025000Y-119265000D03*
D13*
X119425000Y-125865000D03*
D15*
X112125000Y-126365000D03*
%TD*%
D11*
%TO.C,J2*%
X107045000Y-102235000D03*
D12*
X107045000Y-107315000D03*
%TD*%
D16*
%TO.C,C8*%
X144510000Y-95245000D03*
D17*
X144510000Y-91445000D03*
%TD*%
D16*
%TO.C,C3*%
X144510000Y-78745000D03*
D17*
X144510000Y-82545000D03*
%TD*%
D18*
%TO.C,J1*%
X128270000Y-69850000D03*
X125730000Y-69850000D03*
G36*
G01*
X122320000Y-70695001D02*
X122320000Y-69004999D01*
G75*
G02*
X122569999Y-68755000I249999J0D01*
G01*
X123810001Y-68755000D01*
G75*
G02*
X124060000Y-69004999I0J-249999D01*
G01*
X124060000Y-70695001D01*
G75*
G02*
X123810001Y-70945000I-249999J0D01*
G01*
X122569999Y-70945000D01*
G75*
G02*
X122320000Y-70695001I0J249999D01*
G01*
G37*
%TD*%
D19*
%TO.C,J3*%
X192024000Y-87884000D03*
X192024000Y-85344000D03*
X192024000Y-82804000D03*
X192024000Y-80264000D03*
G36*
G01*
X191178999Y-76854000D02*
X192869001Y-76854000D01*
G75*
G02*
X193119000Y-77103999I0J-249999D01*
G01*
X193119000Y-78344001D01*
G75*
G02*
X192869001Y-78594000I-249999J0D01*
G01*
X191178999Y-78594000D01*
G75*
G02*
X190929000Y-78344001I0J249999D01*
G01*
X190929000Y-77103999D01*
G75*
G02*
X191178999Y-76854000I249999J0D01*
G01*
G37*
%TD*%
D17*
%TO.C,SW1*%
X151495000Y-125040000D03*
X151495000Y-129540000D03*
X144995000Y-125040000D03*
X144995000Y-129540000D03*
%TD*%
%TO.C,SW2*%
X140065000Y-125040000D03*
X140065000Y-129540000D03*
X133565000Y-125040000D03*
X133565000Y-129540000D03*
%TD*%
D11*
%TO.C,K1*%
X169910000Y-100330000D03*
D20*
X171860000Y-94380000D03*
D11*
X184110000Y-94330000D03*
X184060000Y-106380000D03*
D20*
X171860000Y-106380000D03*
%TD*%
D11*
%TO.C,J7*%
X193405000Y-95250000D03*
X193405000Y-100330000D03*
D12*
X193405000Y-105410000D03*
%TD*%
D21*
%TO.C,J6*%
X154035000Y-69850000D03*
X151495000Y-69850000D03*
X148955000Y-69850000D03*
X146415000Y-69850000D03*
X143875000Y-69850000D03*
D22*
X141335000Y-69850000D03*
%TD*%
D11*
%TO.C,K2*%
X169910000Y-117475000D03*
D20*
X171860000Y-111525000D03*
D11*
X184110000Y-111475000D03*
X184060000Y-123525000D03*
D20*
X171860000Y-123525000D03*
%TD*%
M02*
