M48
; DRILL file {KiCad (5.1.10)-1} date 10/14/21 01:28:30
; FORMAT={-:-/ absolute / metric / decimal}
; #@! TF.CreationDate,2021-10-14T01:28:30-03:00
; #@! TF.GenerationSoftware,Kicad,Pcbnew,(5.1.10)-1
; #@! TF.FileFunction,Plated,1,2,PTH
FMAT,2
METRIC
T1C0.450
T2C1.000
T3C1.100
T4C1.190
T5C1.300
T6C1.500
T7C1.520
T8C3.500
%
G90
G05
T1
X130.445Y-71.485
X134.112Y-72.898
X150.368Y-83.566
X150.368Y-84.582
X150.368Y-85.598
X151.13Y-107.315
X151.13Y-108.585
X151.13Y-109.855
X151.13Y-111.125
X151.13Y-114.3
X151.13Y-119.38
X152.146Y-87.63
X152.4Y-109.22
X152.4Y-114.3
X152.4Y-119.38
X153.416Y-87.63
X153.67Y-114.3
X153.67Y-119.38
X154.686Y-87.63
X154.94Y-105.41
X154.94Y-114.3
X154.94Y-119.38
X155.702Y-93.218
X155.956Y-87.63
X156.972Y-94.742
X156.972Y-98.044
X157.48Y-114.3
X158.75Y-74.93
X158.75Y-81.026
X158.75Y-83.058
X158.75Y-85.09
X159.004Y-109.22
X159.004Y-111.76
X159.512Y-94.742
X159.766Y-109.982
X159.766Y-110.998
X162.56Y-105.41
X162.56Y-106.68
X162.56Y-107.95
X163.576Y-74.422
X163.83Y-105.41
X163.83Y-106.68
X164.846Y-74.422
X164.846Y-77.724
X164.846Y-79.502
X166.116Y-86.868
X166.116Y-107.188
X166.116Y-108.204
X167.132Y-74.422
X167.64Y-93.98
X168.148Y-86.868
X168.656Y-74.422
X168.656Y-93.98
X170.18Y-74.422
X170.18Y-86.868
X171.704Y-74.422
X172.212Y-86.868
X173.228Y-74.422
X174.244Y-86.868
X179.07Y-89.154
X179.736Y-79.66
X179.768Y-77.66
X180.086Y-89.154
X180.848Y-81.788
X181.102Y-89.154
X181.864Y-78.994
X182.372Y-81.788
X182.372Y-86.868
X188.96Y-73.66
X188.976Y-75.438
X188.976Y-78.994
X188.976Y-86.868
X188.976Y-87.884
X188.976Y-88.9
T2
X140.065Y-69.85
X142.605Y-69.85
X144.51Y-78.745
X144.51Y-82.545
X144.51Y-91.445
X144.51Y-95.245
X145.145Y-69.85
X147.685Y-69.85
X150.225Y-69.85
X152.765Y-69.85
X171.86Y-94.38
X171.86Y-106.38
X171.86Y-111.525
X171.86Y-123.525
T3
X133.565Y-125.04
X133.565Y-129.54
X140.065Y-125.04
X140.065Y-129.54
X144.995Y-125.04
X144.995Y-129.54
X151.495Y-125.04
X151.495Y-129.54
T4
X123.19Y-69.85
X125.73Y-69.85
X128.27Y-69.85
X192.024Y-77.724
X192.024Y-80.264
X192.024Y-82.804
X192.024Y-85.344
X192.024Y-87.884
T5
X102.465Y-119.225
X106.365Y-123.825
X109.265Y-116.725
X110.465Y-114.025
X113.665Y-123.325
X169.91Y-100.33
X169.91Y-117.475
X184.06Y-106.38
X184.06Y-123.525
X184.11Y-94.33
X184.11Y-111.475
T6
X105.775Y-81.915
X105.775Y-86.915
X120.015Y-117.475
X120.015Y-122.555
X122.365Y-98.425
X122.365Y-111.125
X132.365Y-98.425
X132.365Y-111.125
X135.175Y-76.715
X135.175Y-92.115
X193.405Y-112.395
X193.405Y-117.475
X193.405Y-122.555
T7
X107.045Y-102.235
X107.045Y-107.315
X193.405Y-95.25
X193.405Y-100.33
X193.405Y-105.41
T8
X105.0Y-70.0
X105.0Y-130.0
X165.0Y-130.0
X195.0Y-70.0
X195.0Y-130.0
T0
M30
