%TF.GenerationSoftware,KiCad,Pcbnew,(5.1.10)-1*%
%TF.CreationDate,2021-10-13T22:05:38-03:00*%
%TF.ProjectId,kicad,6b696361-642e-46b6-9963-61645f706362,rev?*%
%TF.SameCoordinates,Original*%
%TF.FileFunction,Copper,L2,Bot*%
%TF.FilePolarity,Positive*%
%FSLAX46Y46*%
G04 Gerber Fmt 4.6, Leading zero omitted, Abs format (unit mm)*
G04 Created by KiCad (PCBNEW (5.1.10)-1) date 2021-10-13 22:05:38*
%MOMM*%
%LPD*%
G01*
G04 APERTURE LIST*
%TA.AperFunction,ComponentPad*%
%ADD10C,7.000000*%
%TD*%
%TA.AperFunction,ComponentPad*%
%ADD11C,3.000000*%
%TD*%
%TA.AperFunction,ComponentPad*%
%ADD12R,3.000000X3.000000*%
%TD*%
%TA.AperFunction,ComponentPad*%
%ADD13O,2.200000X4.000000*%
%TD*%
%TA.AperFunction,ComponentPad*%
%ADD14O,4.000000X2.200000*%
%TD*%
%TA.AperFunction,ComponentPad*%
%ADD15R,4.000000X2.200000*%
%TD*%
%TA.AperFunction,ComponentPad*%
%ADD16R,2.000000X2.000000*%
%TD*%
%TA.AperFunction,ComponentPad*%
%ADD17C,2.000000*%
%TD*%
%TA.AperFunction,ComponentPad*%
%ADD18O,1.740000X2.190000*%
%TD*%
%TA.AperFunction,ComponentPad*%
%ADD19O,2.190000X1.740000*%
%TD*%
%TA.AperFunction,ComponentPad*%
%ADD20C,2.500000*%
%TD*%
%TA.AperFunction,ComponentPad*%
%ADD21O,1.700000X1.700000*%
%TD*%
%TA.AperFunction,ComponentPad*%
%ADD22R,1.700000X1.700000*%
%TD*%
%TA.AperFunction,ViaPad*%
%ADD23C,0.800000*%
%TD*%
%TA.AperFunction,Conductor*%
%ADD24C,0.254000*%
%TD*%
%TA.AperFunction,Conductor*%
%ADD25C,0.100000*%
%TD*%
G04 APERTURE END LIST*
D10*
%TO.P,REF\u002A\u002A,1*%
%TO.N,GND*%
X165000000Y-130000000D03*
%TD*%
%TO.P,REF\u002A\u002A,1*%
%TO.N,GND*%
X195000000Y-130000000D03*
%TD*%
%TO.P,REF\u002A\u002A,1*%
%TO.N,GND*%
X195000000Y-70000000D03*
%TD*%
%TO.P,REF\u002A\u002A,1*%
%TO.N,GND*%
X105000000Y-70000000D03*
%TD*%
%TO.P,REF\u002A\u002A,1*%
%TO.N,GND*%
X105000000Y-130000000D03*
%TD*%
D11*
%TO.P,J5,2*%
%TO.N,Net-(C7-Pad1)*%
X126095000Y-123825000D03*
D12*
%TO.P,J5,1*%
%TO.N,Net-(J4-PadS)*%
X126095000Y-118745000D03*
%TD*%
D11*
%TO.P,J8,3*%
%TO.N,Net-(J8-Pad3)*%
X193405000Y-112395000D03*
%TO.P,J8,2*%
%TO.N,Net-(J8-Pad2)*%
X193405000Y-117475000D03*
D12*
%TO.P,J8,1*%
%TO.N,Net-(J8-Pad1)*%
X193405000Y-122555000D03*
%TD*%
D11*
%TO.P,PS1,4*%
%TO.N,+5V*%
X135175000Y-92115000D03*
%TO.P,PS1,2*%
%TO.N,Net-(J2-Pad1)*%
X105775000Y-86915000D03*
D12*
%TO.P,PS1,1*%
%TO.N,Net-(J2-Pad2)*%
X105775000Y-81915000D03*
D11*
%TO.P,PS1,3*%
%TO.N,GND*%
X135175000Y-76715000D03*
%TD*%
%TO.P,T1,3*%
%TO.N,Net-(R10-Pad2)*%
X132365000Y-111125000D03*
%TO.P,T1,2*%
%TO.N,Net-(J2-Pad2)*%
X122365000Y-111125000D03*
%TO.P,T1,4*%
%TO.N,Net-(C7-Pad1)*%
X132365000Y-98425000D03*
D12*
%TO.P,T1,1*%
%TO.N,Net-(R3-Pad1)*%
X122365000Y-98425000D03*
%TD*%
D13*
%TO.P,J4,S*%
%TO.N,Net-(J4-PadS)*%
X108225000Y-121765000D03*
D14*
%TO.P,J4,R*%
%TO.N,Net-(J4-PadR)*%
X116225000Y-116565000D03*
%TO.P,J4,RN*%
%TO.N,N/C*%
X115025000Y-119265000D03*
D13*
%TO.P,J4,TN*%
X119425000Y-125865000D03*
D15*
%TO.P,J4,T*%
%TO.N,Net-(C7-Pad1)*%
X112125000Y-126365000D03*
%TD*%
D11*
%TO.P,J2,2*%
%TO.N,Net-(J2-Pad2)*%
X107045000Y-102235000D03*
D12*
%TO.P,J2,1*%
%TO.N,Net-(J2-Pad1)*%
X107045000Y-107315000D03*
%TD*%
D16*
%TO.P,C8,1*%
%TO.N,+3V3*%
X144510000Y-95245000D03*
D17*
%TO.P,C8,2*%
%TO.N,GND*%
X144510000Y-91445000D03*
%TD*%
D16*
%TO.P,C3,1*%
%TO.N,+5V*%
X144510000Y-78745000D03*
D17*
%TO.P,C3,2*%
%TO.N,GND*%
X144510000Y-82545000D03*
%TD*%
D18*
%TO.P,J1,3*%
%TO.N,GND*%
X128270000Y-69850000D03*
%TO.P,J1,2*%
%TO.N,TEMP*%
X125730000Y-69850000D03*
%TO.P,J1,1*%
%TO.N,+3V3*%
%TA.AperFunction,ComponentPad*%
G36*
G01*
X122320000Y-70695001D02*
X122320000Y-69004999D01*
G75*
G02*
X122569999Y-68755000I249999J0D01*
G01*
X123810001Y-68755000D01*
G75*
G02*
X124060000Y-69004999I0J-249999D01*
G01*
X124060000Y-70695001D01*
G75*
G02*
X123810001Y-70945000I-249999J0D01*
G01*
X122569999Y-70945000D01*
G75*
G02*
X122320000Y-70695001I0J249999D01*
G01*
G37*
%TD.AperFunction*%
%TD*%
D19*
%TO.P,J3,5*%
%TO.N,GND*%
X192024000Y-87884000D03*
%TO.P,J3,4*%
%TO.N,+5V*%
X192024000Y-85344000D03*
%TO.P,J3,3*%
%TO.N,+3V3*%
X192024000Y-82804000D03*
%TO.P,J3,2*%
%TO.N,SDA*%
X192024000Y-80264000D03*
%TO.P,J3,1*%
%TO.N,SCL*%
%TA.AperFunction,ComponentPad*%
G36*
G01*
X191178999Y-76854000D02*
X192869001Y-76854000D01*
G75*
G02*
X193119000Y-77103999I0J-249999D01*
G01*
X193119000Y-78344001D01*
G75*
G02*
X192869001Y-78594000I-249999J0D01*
G01*
X191178999Y-78594000D01*
G75*
G02*
X190929000Y-78344001I0J249999D01*
G01*
X190929000Y-77103999D01*
G75*
G02*
X191178999Y-76854000I249999J0D01*
G01*
G37*
%TD.AperFunction*%
%TD*%
D17*
%TO.P,SW1,1*%
%TO.N,GND*%
X151495000Y-125040000D03*
%TO.P,SW1,2*%
%TO.N,Net-(R6-Pad2)*%
X151495000Y-129540000D03*
%TO.P,SW1,1*%
%TO.N,GND*%
X144995000Y-125040000D03*
%TO.P,SW1,2*%
%TO.N,Net-(R6-Pad2)*%
X144995000Y-129540000D03*
%TD*%
%TO.P,SW2,1*%
%TO.N,GND*%
X140065000Y-125040000D03*
%TO.P,SW2,2*%
%TO.N,Net-(R7-Pad2)*%
X140065000Y-129540000D03*
%TO.P,SW2,1*%
%TO.N,GND*%
X133565000Y-125040000D03*
%TO.P,SW2,2*%
%TO.N,Net-(R7-Pad2)*%
X133565000Y-129540000D03*
%TD*%
D11*
%TO.P,K1,1*%
%TO.N,Net-(J7-Pad2)*%
X169910000Y-100330000D03*
D20*
%TO.P,K1,5*%
%TO.N,+5V*%
X171860000Y-94380000D03*
D11*
%TO.P,K1,4*%
%TO.N,Net-(J7-Pad3)*%
X184110000Y-94330000D03*
%TO.P,K1,3*%
%TO.N,Net-(J7-Pad1)*%
X184060000Y-106380000D03*
D20*
%TO.P,K1,2*%
%TO.N,Net-(D4-Pad2)*%
X171860000Y-106380000D03*
%TD*%
D11*
%TO.P,J7,3*%
%TO.N,Net-(J7-Pad3)*%
X193405000Y-95250000D03*
%TO.P,J7,2*%
%TO.N,Net-(J7-Pad2)*%
X193405000Y-100330000D03*
D12*
%TO.P,J7,1*%
%TO.N,Net-(J7-Pad1)*%
X193405000Y-105410000D03*
%TD*%
D21*
%TO.P,J6,6*%
%TO.N,+3V3*%
X154035000Y-69850000D03*
%TO.P,J6,5*%
%TO.N,GND*%
X151495000Y-69850000D03*
%TO.P,J6,4*%
%TO.N,GPIO0*%
X148955000Y-69850000D03*
%TO.P,J6,3*%
%TO.N,Net-(J6-Pad3)*%
X146415000Y-69850000D03*
%TO.P,J6,2*%
%TO.N,Net-(J6-Pad2)*%
X143875000Y-69850000D03*
D22*
%TO.P,J6,1*%
%TO.N,RESET*%
X141335000Y-69850000D03*
%TD*%
D11*
%TO.P,K2,1*%
%TO.N,Net-(J8-Pad2)*%
X169910000Y-117475000D03*
D20*
%TO.P,K2,5*%
%TO.N,+5V*%
X171860000Y-111525000D03*
D11*
%TO.P,K2,4*%
%TO.N,Net-(J8-Pad3)*%
X184110000Y-111475000D03*
%TO.P,K2,3*%
%TO.N,Net-(J8-Pad1)*%
X184060000Y-123525000D03*
D20*
%TO.P,K2,2*%
%TO.N,Net-(D5-Pad2)*%
X171860000Y-123525000D03*
%TD*%
D23*
%TO.N,GND*%
X162560000Y-106680000D03*
X163830000Y-106680000D03*
X163830000Y-107950000D03*
X162560000Y-107950000D03*
X162560000Y-105410000D03*
X163830000Y-105410000D03*
X152400000Y-114300000D03*
X153670000Y-114300000D03*
X154940000Y-114300000D03*
X157480000Y-114300000D03*
X154940000Y-115570000D03*
X151130000Y-114300000D03*
X151130000Y-115570000D03*
X151130000Y-118110000D03*
X151130000Y-119380000D03*
X152400000Y-119380000D03*
X153670000Y-119380000D03*
X154940000Y-119380000D03*
X154940000Y-118110000D03*
X151130000Y-111125000D03*
X151130000Y-109855000D03*
X151130000Y-108585000D03*
X151130000Y-107315000D03*
X152400000Y-109220000D03*
X157480000Y-109220000D03*
X158115000Y-107950000D03*
X122555000Y-120015000D03*
X122555000Y-121285000D03*
X121285000Y-121285000D03*
X121285000Y-120015000D03*
X128905000Y-121285000D03*
X130175000Y-121285000D03*
%TD*%
D24*
%TO.N,GND*%
X161200197Y-73749803D02*
X161219443Y-73765597D01*
X161241399Y-73777333D01*
X161265224Y-73784560D01*
X161290000Y-73787000D01*
X177165000Y-73787000D01*
X177189776Y-73784560D01*
X177213601Y-73777333D01*
X177235557Y-73765597D01*
X177254803Y-73749803D01*
X184877606Y-66127000D01*
X194996882Y-66127000D01*
X195379610Y-66145802D01*
X195755549Y-66201568D01*
X196124231Y-66293918D01*
X196482069Y-66421954D01*
X196825657Y-66584459D01*
X197151636Y-66779844D01*
X197456905Y-67006247D01*
X197738516Y-67261484D01*
X197993753Y-67543095D01*
X198220156Y-67848364D01*
X198415541Y-68174343D01*
X198578046Y-68517931D01*
X198706082Y-68875769D01*
X198798432Y-69244451D01*
X198854198Y-69620390D01*
X198873000Y-70003118D01*
X198873000Y-91313000D01*
X167005000Y-91313000D01*
X166980224Y-91315440D01*
X166956399Y-91322667D01*
X166934443Y-91334403D01*
X166915197Y-91350197D01*
X166899403Y-91369443D01*
X166887667Y-91391399D01*
X166880440Y-91415224D01*
X166878000Y-91440000D01*
X166878000Y-126365000D01*
X166880440Y-126389776D01*
X166887667Y-126413601D01*
X166899403Y-126435557D01*
X166915197Y-126454803D01*
X166934443Y-126470597D01*
X166956399Y-126482333D01*
X166980224Y-126489560D01*
X167005000Y-126492000D01*
X198873000Y-126492000D01*
X198873000Y-129996882D01*
X198854198Y-130379610D01*
X198798432Y-130755549D01*
X198706082Y-131124231D01*
X198578046Y-131482069D01*
X198415541Y-131825657D01*
X198220156Y-132151636D01*
X197993753Y-132456905D01*
X197738516Y-132738516D01*
X197456905Y-132993753D01*
X197151636Y-133220156D01*
X196825657Y-133415541D01*
X196482069Y-133578046D01*
X196124231Y-133706082D01*
X195755549Y-133798432D01*
X195379610Y-133854198D01*
X194996882Y-133873000D01*
X105003118Y-133873000D01*
X104620390Y-133854198D01*
X104244451Y-133798432D01*
X103875769Y-133706082D01*
X103517931Y-133578046D01*
X103174343Y-133415541D01*
X102848364Y-133220156D01*
X102543095Y-132993753D01*
X102261484Y-132738516D01*
X102006247Y-132456905D01*
X101779844Y-132151636D01*
X101584459Y-131825657D01*
X101421954Y-131482069D01*
X101293918Y-131124231D01*
X101201568Y-130755549D01*
X101145802Y-130379610D01*
X101127000Y-129996882D01*
X101127000Y-129378967D01*
X131930000Y-129378967D01*
X131930000Y-129701033D01*
X131992832Y-130016912D01*
X132116082Y-130314463D01*
X132295013Y-130582252D01*
X132522748Y-130809987D01*
X132790537Y-130988918D01*
X133088088Y-131112168D01*
X133403967Y-131175000D01*
X133726033Y-131175000D01*
X134041912Y-131112168D01*
X134339463Y-130988918D01*
X134607252Y-130809987D01*
X134834987Y-130582252D01*
X135013918Y-130314463D01*
X135137168Y-130016912D01*
X135200000Y-129701033D01*
X135200000Y-129378967D01*
X138430000Y-129378967D01*
X138430000Y-129701033D01*
X138492832Y-130016912D01*
X138616082Y-130314463D01*
X138795013Y-130582252D01*
X139022748Y-130809987D01*
X139290537Y-130988918D01*
X139588088Y-131112168D01*
X139903967Y-131175000D01*
X140226033Y-131175000D01*
X140541912Y-131112168D01*
X140839463Y-130988918D01*
X141107252Y-130809987D01*
X141334987Y-130582252D01*
X141513918Y-130314463D01*
X141637168Y-130016912D01*
X141700000Y-129701033D01*
X141700000Y-129378967D01*
X143360000Y-129378967D01*
X143360000Y-129701033D01*
X143422832Y-130016912D01*
X143546082Y-130314463D01*
X143725013Y-130582252D01*
X143952748Y-130809987D01*
X144220537Y-130988918D01*
X144518088Y-131112168D01*
X144833967Y-131175000D01*
X145156033Y-131175000D01*
X145471912Y-131112168D01*
X145769463Y-130988918D01*
X146037252Y-130809987D01*
X146264987Y-130582252D01*
X146443918Y-130314463D01*
X146567168Y-130016912D01*
X146630000Y-129701033D01*
X146630000Y-129378967D01*
X149860000Y-129378967D01*
X149860000Y-129701033D01*
X149922832Y-130016912D01*
X150046082Y-130314463D01*
X150225013Y-130582252D01*
X150452748Y-130809987D01*
X150720537Y-130988918D01*
X151018088Y-131112168D01*
X151333967Y-131175000D01*
X151656033Y-131175000D01*
X151971912Y-131112168D01*
X152269463Y-130988918D01*
X152537252Y-130809987D01*
X152764987Y-130582252D01*
X152943918Y-130314463D01*
X153067168Y-130016912D01*
X153130000Y-129701033D01*
X153130000Y-129378967D01*
X153067168Y-129063088D01*
X152943918Y-128765537D01*
X152764987Y-128497748D01*
X152537252Y-128270013D01*
X152269463Y-128091082D01*
X151971912Y-127967832D01*
X151656033Y-127905000D01*
X151333967Y-127905000D01*
X151018088Y-127967832D01*
X150720537Y-128091082D01*
X150452748Y-128270013D01*
X150225013Y-128497748D01*
X150046082Y-128765537D01*
X149922832Y-129063088D01*
X149860000Y-129378967D01*
X146630000Y-129378967D01*
X146567168Y-129063088D01*
X146443918Y-128765537D01*
X146264987Y-128497748D01*
X146037252Y-128270013D01*
X145769463Y-128091082D01*
X145471912Y-127967832D01*
X145156033Y-127905000D01*
X144833967Y-127905000D01*
X144518088Y-127967832D01*
X144220537Y-128091082D01*
X143952748Y-128270013D01*
X143725013Y-128497748D01*
X143546082Y-128765537D01*
X143422832Y-129063088D01*
X143360000Y-129378967D01*
X141700000Y-129378967D01*
X141637168Y-129063088D01*
X141513918Y-128765537D01*
X141334987Y-128497748D01*
X141107252Y-128270013D01*
X140839463Y-128091082D01*
X140541912Y-127967832D01*
X140226033Y-127905000D01*
X139903967Y-127905000D01*
X139588088Y-127967832D01*
X139290537Y-128091082D01*
X139022748Y-128270013D01*
X138795013Y-128497748D01*
X138616082Y-128765537D01*
X138492832Y-129063088D01*
X138430000Y-129378967D01*
X135200000Y-129378967D01*
X135137168Y-129063088D01*
X135013918Y-128765537D01*
X134834987Y-128497748D01*
X134607252Y-128270013D01*
X134339463Y-128091082D01*
X134041912Y-127967832D01*
X133726033Y-127905000D01*
X133403967Y-127905000D01*
X133088088Y-127967832D01*
X132790537Y-128091082D01*
X132522748Y-128270013D01*
X132295013Y-128497748D01*
X132116082Y-128765537D01*
X131992832Y-129063088D01*
X131930000Y-129378967D01*
X101127000Y-129378967D01*
X101127000Y-125265000D01*
X109486928Y-125265000D01*
X109486928Y-127465000D01*
X109499188Y-127589482D01*
X109535498Y-127709180D01*
X109594463Y-127819494D01*
X109673815Y-127916185D01*
X109770506Y-127995537D01*
X109880820Y-128054502D01*
X110000518Y-128090812D01*
X110125000Y-128103072D01*
X114125000Y-128103072D01*
X114249482Y-128090812D01*
X114369180Y-128054502D01*
X114479494Y-127995537D01*
X114576185Y-127916185D01*
X114655537Y-127819494D01*
X114714502Y-127709180D01*
X114750812Y-127589482D01*
X114763072Y-127465000D01*
X114763072Y-125265000D01*
X114750812Y-125140518D01*
X114714502Y-125020820D01*
X114655537Y-124910506D01*
X114630318Y-124879776D01*
X117690000Y-124879776D01*
X117690000Y-126850225D01*
X117715106Y-127105119D01*
X117814315Y-127432168D01*
X117975422Y-127733578D01*
X118192235Y-127997766D01*
X118456423Y-128214579D01*
X118757833Y-128375686D01*
X119084882Y-128474895D01*
X119425000Y-128508394D01*
X119765119Y-128474895D01*
X120092168Y-128375686D01*
X120393578Y-128214579D01*
X120657766Y-127997766D01*
X120874579Y-127733578D01*
X121035686Y-127432168D01*
X121134895Y-127105119D01*
X121160000Y-126850225D01*
X121160000Y-126175413D01*
X132609192Y-126175413D01*
X132704956Y-126439814D01*
X132994571Y-126580704D01*
X133306108Y-126662384D01*
X133627595Y-126681718D01*
X133946675Y-126637961D01*
X134251088Y-126532795D01*
X134425044Y-126439814D01*
X134520808Y-126175413D01*
X139109192Y-126175413D01*
X139204956Y-126439814D01*
X139494571Y-126580704D01*
X139806108Y-126662384D01*
X140127595Y-126681718D01*
X140446675Y-126637961D01*
X140751088Y-126532795D01*
X140925044Y-126439814D01*
X141020808Y-126175413D01*
X144039192Y-126175413D01*
X144134956Y-126439814D01*
X144424571Y-126580704D01*
X144736108Y-126662384D01*
X145057595Y-126681718D01*
X145376675Y-126637961D01*
X145681088Y-126532795D01*
X145855044Y-126439814D01*
X145950808Y-126175413D01*
X150539192Y-126175413D01*
X150634956Y-126439814D01*
X150924571Y-126580704D01*
X151236108Y-126662384D01*
X151557595Y-126681718D01*
X151876675Y-126637961D01*
X152181088Y-126532795D01*
X152355044Y-126439814D01*
X152450808Y-126175413D01*
X151495000Y-125219605D01*
X150539192Y-126175413D01*
X145950808Y-126175413D01*
X144995000Y-125219605D01*
X144039192Y-126175413D01*
X141020808Y-126175413D01*
X140065000Y-125219605D01*
X139109192Y-126175413D01*
X134520808Y-126175413D01*
X133565000Y-125219605D01*
X132609192Y-126175413D01*
X121160000Y-126175413D01*
X121160000Y-124879775D01*
X121134895Y-124624881D01*
X121035686Y-124297832D01*
X120874579Y-123996422D01*
X120657766Y-123732234D01*
X120514576Y-123614721D01*
X123960000Y-123614721D01*
X123960000Y-124035279D01*
X124042047Y-124447756D01*
X124202988Y-124836302D01*
X124436637Y-125185983D01*
X124734017Y-125483363D01*
X125083698Y-125717012D01*
X125472244Y-125877953D01*
X125884721Y-125960000D01*
X126305279Y-125960000D01*
X126717756Y-125877953D01*
X127106302Y-125717012D01*
X127455983Y-125483363D01*
X127753363Y-125185983D01*
X127809080Y-125102595D01*
X131923282Y-125102595D01*
X131967039Y-125421675D01*
X132072205Y-125726088D01*
X132165186Y-125900044D01*
X132429587Y-125995808D01*
X133385395Y-125040000D01*
X133744605Y-125040000D01*
X134700413Y-125995808D01*
X134964814Y-125900044D01*
X135105704Y-125610429D01*
X135187384Y-125298892D01*
X135199189Y-125102595D01*
X138423282Y-125102595D01*
X138467039Y-125421675D01*
X138572205Y-125726088D01*
X138665186Y-125900044D01*
X138929587Y-125995808D01*
X139885395Y-125040000D01*
X140244605Y-125040000D01*
X141200413Y-125995808D01*
X141464814Y-125900044D01*
X141605704Y-125610429D01*
X141687384Y-125298892D01*
X141699189Y-125102595D01*
X143353282Y-125102595D01*
X143397039Y-125421675D01*
X143502205Y-125726088D01*
X143595186Y-125900044D01*
X143859587Y-125995808D01*
X144815395Y-125040000D01*
X145174605Y-125040000D01*
X146130413Y-125995808D01*
X146394814Y-125900044D01*
X146535704Y-125610429D01*
X146617384Y-125298892D01*
X146629189Y-125102595D01*
X149853282Y-125102595D01*
X149897039Y-125421675D01*
X150002205Y-125726088D01*
X150095186Y-125900044D01*
X150359587Y-125995808D01*
X151315395Y-125040000D01*
X151674605Y-125040000D01*
X152630413Y-125995808D01*
X152894814Y-125900044D01*
X153035704Y-125610429D01*
X153117384Y-125298892D01*
X153136718Y-124977405D01*
X153092961Y-124658325D01*
X152987795Y-124353912D01*
X152894814Y-124179956D01*
X152630413Y-124084192D01*
X151674605Y-125040000D01*
X151315395Y-125040000D01*
X150359587Y-124084192D01*
X150095186Y-124179956D01*
X149954296Y-124469571D01*
X149872616Y-124781108D01*
X149853282Y-125102595D01*
X146629189Y-125102595D01*
X146636718Y-124977405D01*
X146592961Y-124658325D01*
X146487795Y-124353912D01*
X146394814Y-124179956D01*
X146130413Y-124084192D01*
X145174605Y-125040000D01*
X144815395Y-125040000D01*
X143859587Y-124084192D01*
X143595186Y-124179956D01*
X143454296Y-124469571D01*
X143372616Y-124781108D01*
X143353282Y-125102595D01*
X141699189Y-125102595D01*
X141706718Y-124977405D01*
X141662961Y-124658325D01*
X141557795Y-124353912D01*
X141464814Y-124179956D01*
X141200413Y-124084192D01*
X140244605Y-125040000D01*
X139885395Y-125040000D01*
X138929587Y-124084192D01*
X138665186Y-124179956D01*
X138524296Y-124469571D01*
X138442616Y-124781108D01*
X138423282Y-125102595D01*
X135199189Y-125102595D01*
X135206718Y-124977405D01*
X135162961Y-124658325D01*
X135057795Y-124353912D01*
X134964814Y-124179956D01*
X134700413Y-124084192D01*
X133744605Y-125040000D01*
X133385395Y-125040000D01*
X132429587Y-124084192D01*
X132165186Y-124179956D01*
X132024296Y-124469571D01*
X131942616Y-124781108D01*
X131923282Y-125102595D01*
X127809080Y-125102595D01*
X127987012Y-124836302D01*
X128147953Y-124447756D01*
X128230000Y-124035279D01*
X128230000Y-123904587D01*
X132609192Y-123904587D01*
X133565000Y-124860395D01*
X134520808Y-123904587D01*
X139109192Y-123904587D01*
X140065000Y-124860395D01*
X141020808Y-123904587D01*
X144039192Y-123904587D01*
X144995000Y-124860395D01*
X145950808Y-123904587D01*
X150539192Y-123904587D01*
X151495000Y-124860395D01*
X152450808Y-123904587D01*
X152355044Y-123640186D01*
X152065429Y-123499296D01*
X151753892Y-123417616D01*
X151432405Y-123398282D01*
X151113325Y-123442039D01*
X150808912Y-123547205D01*
X150634956Y-123640186D01*
X150539192Y-123904587D01*
X145950808Y-123904587D01*
X145855044Y-123640186D01*
X145565429Y-123499296D01*
X145253892Y-123417616D01*
X144932405Y-123398282D01*
X144613325Y-123442039D01*
X144308912Y-123547205D01*
X144134956Y-123640186D01*
X144039192Y-123904587D01*
X141020808Y-123904587D01*
X140925044Y-123640186D01*
X140635429Y-123499296D01*
X140323892Y-123417616D01*
X140002405Y-123398282D01*
X139683325Y-123442039D01*
X139378912Y-123547205D01*
X139204956Y-123640186D01*
X139109192Y-123904587D01*
X134520808Y-123904587D01*
X134425044Y-123640186D01*
X134135429Y-123499296D01*
X133823892Y-123417616D01*
X133502405Y-123398282D01*
X133183325Y-123442039D01*
X132878912Y-123547205D01*
X132704956Y-123640186D01*
X132609192Y-123904587D01*
X128230000Y-123904587D01*
X128230000Y-123614721D01*
X128147953Y-123202244D01*
X127987012Y-122813698D01*
X127753363Y-122464017D01*
X127455983Y-122166637D01*
X127106302Y-121932988D01*
X126717756Y-121772047D01*
X126305279Y-121690000D01*
X125884721Y-121690000D01*
X125472244Y-121772047D01*
X125083698Y-121932988D01*
X124734017Y-122166637D01*
X124436637Y-122464017D01*
X124202988Y-122813698D01*
X124042047Y-123202244D01*
X123960000Y-123614721D01*
X120514576Y-123614721D01*
X120393577Y-123515421D01*
X120092167Y-123354314D01*
X119765118Y-123255105D01*
X119425000Y-123221606D01*
X119084881Y-123255105D01*
X118757832Y-123354314D01*
X118456422Y-123515421D01*
X118192234Y-123732234D01*
X117975421Y-123996423D01*
X117814314Y-124297833D01*
X117715105Y-124624882D01*
X117690000Y-124879776D01*
X114630318Y-124879776D01*
X114576185Y-124813815D01*
X114479494Y-124734463D01*
X114369180Y-124675498D01*
X114249482Y-124639188D01*
X114125000Y-124626928D01*
X110125000Y-124626928D01*
X110000518Y-124639188D01*
X109880820Y-124675498D01*
X109770506Y-124734463D01*
X109673815Y-124813815D01*
X109594463Y-124910506D01*
X109535498Y-125020820D01*
X109499188Y-125140518D01*
X109486928Y-125265000D01*
X101127000Y-125265000D01*
X101127000Y-120779776D01*
X106490000Y-120779776D01*
X106490000Y-122750225D01*
X106515106Y-123005119D01*
X106614315Y-123332168D01*
X106775422Y-123633578D01*
X106992235Y-123897766D01*
X107256423Y-124114579D01*
X107557833Y-124275686D01*
X107884882Y-124374895D01*
X108225000Y-124408394D01*
X108565119Y-124374895D01*
X108892168Y-124275686D01*
X109193578Y-124114579D01*
X109457766Y-123897766D01*
X109674579Y-123633578D01*
X109835686Y-123332168D01*
X109934895Y-123005119D01*
X109960000Y-122750225D01*
X109960000Y-120779775D01*
X109934895Y-120524881D01*
X109835686Y-120197832D01*
X109674579Y-119896422D01*
X109457766Y-119632234D01*
X109193577Y-119415421D01*
X108912160Y-119265000D01*
X112381606Y-119265000D01*
X112415105Y-119605119D01*
X112514314Y-119932168D01*
X112675421Y-120233578D01*
X112892234Y-120497766D01*
X113156422Y-120714579D01*
X113457832Y-120875686D01*
X113784881Y-120974895D01*
X114039775Y-121000000D01*
X116010225Y-121000000D01*
X116265119Y-120974895D01*
X116592168Y-120875686D01*
X116893578Y-120714579D01*
X117157766Y-120497766D01*
X117374579Y-120233578D01*
X117535686Y-119932168D01*
X117634895Y-119605119D01*
X117668394Y-119265000D01*
X117634895Y-118924881D01*
X117535686Y-118597832D01*
X117374579Y-118296422D01*
X117365005Y-118284755D01*
X117465119Y-118274895D01*
X117792168Y-118175686D01*
X118093578Y-118014579D01*
X118357766Y-117797766D01*
X118574579Y-117533578D01*
X118728827Y-117245000D01*
X123956928Y-117245000D01*
X123956928Y-120245000D01*
X123969188Y-120369482D01*
X124005498Y-120489180D01*
X124064463Y-120599494D01*
X124143815Y-120696185D01*
X124240506Y-120775537D01*
X124350820Y-120834502D01*
X124470518Y-120870812D01*
X124595000Y-120883072D01*
X127595000Y-120883072D01*
X127719482Y-120870812D01*
X127839180Y-120834502D01*
X127949494Y-120775537D01*
X128046185Y-120696185D01*
X128125537Y-120599494D01*
X128184502Y-120489180D01*
X128220812Y-120369482D01*
X128233072Y-120245000D01*
X128233072Y-117245000D01*
X128220812Y-117120518D01*
X128184502Y-117000820D01*
X128125537Y-116890506D01*
X128046185Y-116793815D01*
X127949494Y-116714463D01*
X127839180Y-116655498D01*
X127719482Y-116619188D01*
X127595000Y-116606928D01*
X124595000Y-116606928D01*
X124470518Y-116619188D01*
X124350820Y-116655498D01*
X124240506Y-116714463D01*
X124143815Y-116793815D01*
X124064463Y-116890506D01*
X124005498Y-117000820D01*
X123969188Y-117120518D01*
X123956928Y-117245000D01*
X118728827Y-117245000D01*
X118735686Y-117232168D01*
X118834895Y-116905119D01*
X118868394Y-116565000D01*
X118834895Y-116224881D01*
X118735686Y-115897832D01*
X118574579Y-115596422D01*
X118357766Y-115332234D01*
X118093578Y-115115421D01*
X117792168Y-114954314D01*
X117465119Y-114855105D01*
X117210225Y-114830000D01*
X115239775Y-114830000D01*
X114984881Y-114855105D01*
X114657832Y-114954314D01*
X114356422Y-115115421D01*
X114092234Y-115332234D01*
X113875421Y-115596422D01*
X113714314Y-115897832D01*
X113615105Y-116224881D01*
X113581606Y-116565000D01*
X113615105Y-116905119D01*
X113714314Y-117232168D01*
X113875421Y-117533578D01*
X113884995Y-117545245D01*
X113784881Y-117555105D01*
X113457832Y-117654314D01*
X113156422Y-117815421D01*
X112892234Y-118032234D01*
X112675421Y-118296422D01*
X112514314Y-118597832D01*
X112415105Y-118924881D01*
X112381606Y-119265000D01*
X108912160Y-119265000D01*
X108892167Y-119254314D01*
X108565118Y-119155105D01*
X108225000Y-119121606D01*
X107884881Y-119155105D01*
X107557832Y-119254314D01*
X107256422Y-119415421D01*
X106992234Y-119632234D01*
X106775421Y-119896423D01*
X106614314Y-120197833D01*
X106515105Y-120524882D01*
X106490000Y-120779776D01*
X101127000Y-120779776D01*
X101127000Y-115059146D01*
X128942886Y-114426967D01*
X128964776Y-114424560D01*
X128988601Y-114417333D01*
X129010557Y-114405597D01*
X129029803Y-114389803D01*
X129045597Y-114370557D01*
X129057333Y-114348601D01*
X129064560Y-114324776D01*
X129067000Y-114300000D01*
X129067000Y-110914721D01*
X130230000Y-110914721D01*
X130230000Y-111335279D01*
X130312047Y-111747756D01*
X130472988Y-112136302D01*
X130706637Y-112485983D01*
X131004017Y-112783363D01*
X131353698Y-113017012D01*
X131742244Y-113177953D01*
X132154721Y-113260000D01*
X132575279Y-113260000D01*
X132987756Y-113177953D01*
X133376302Y-113017012D01*
X133725983Y-112783363D01*
X134023363Y-112485983D01*
X134257012Y-112136302D01*
X134417953Y-111747756D01*
X134500000Y-111335279D01*
X134500000Y-110914721D01*
X134417953Y-110502244D01*
X134257012Y-110113698D01*
X134023363Y-109764017D01*
X133725983Y-109466637D01*
X133376302Y-109232988D01*
X132987756Y-109072047D01*
X132575279Y-108990000D01*
X132154721Y-108990000D01*
X131742244Y-109072047D01*
X131353698Y-109232988D01*
X131004017Y-109466637D01*
X130706637Y-109764017D01*
X130472988Y-110113698D01*
X130312047Y-110502244D01*
X130230000Y-110914721D01*
X129067000Y-110914721D01*
X129067000Y-98214721D01*
X130230000Y-98214721D01*
X130230000Y-98635279D01*
X130312047Y-99047756D01*
X130472988Y-99436302D01*
X130706637Y-99785983D01*
X131004017Y-100083363D01*
X131353698Y-100317012D01*
X131742244Y-100477953D01*
X132154721Y-100560000D01*
X132575279Y-100560000D01*
X132987756Y-100477953D01*
X133376302Y-100317012D01*
X133725983Y-100083363D01*
X134023363Y-99785983D01*
X134257012Y-99436302D01*
X134417953Y-99047756D01*
X134500000Y-98635279D01*
X134500000Y-98214721D01*
X134417953Y-97802244D01*
X134257012Y-97413698D01*
X134023363Y-97064017D01*
X133725983Y-96766637D01*
X133376302Y-96532988D01*
X132987756Y-96372047D01*
X132575279Y-96290000D01*
X132154721Y-96290000D01*
X131742244Y-96372047D01*
X131353698Y-96532988D01*
X131004017Y-96766637D01*
X130706637Y-97064017D01*
X130472988Y-97413698D01*
X130312047Y-97802244D01*
X130230000Y-98214721D01*
X129067000Y-98214721D01*
X129067000Y-91904721D01*
X133040000Y-91904721D01*
X133040000Y-92325279D01*
X133122047Y-92737756D01*
X133282988Y-93126302D01*
X133516637Y-93475983D01*
X133814017Y-93773363D01*
X134163698Y-94007012D01*
X134552244Y-94167953D01*
X134964721Y-94250000D01*
X135385279Y-94250000D01*
X135410415Y-94245000D01*
X142871928Y-94245000D01*
X142871928Y-96245000D01*
X142884188Y-96369482D01*
X142920498Y-96489180D01*
X142979463Y-96599494D01*
X143058815Y-96696185D01*
X143155506Y-96775537D01*
X143265820Y-96834502D01*
X143385518Y-96870812D01*
X143510000Y-96883072D01*
X145510000Y-96883072D01*
X145634482Y-96870812D01*
X145754180Y-96834502D01*
X145864494Y-96775537D01*
X145961185Y-96696185D01*
X146040537Y-96599494D01*
X146099502Y-96489180D01*
X146135812Y-96369482D01*
X146148072Y-96245000D01*
X146148072Y-94245000D01*
X146135812Y-94120518D01*
X146099502Y-94000820D01*
X146040537Y-93890506D01*
X145961185Y-93793815D01*
X145864494Y-93714463D01*
X145754180Y-93655498D01*
X145634482Y-93619188D01*
X145510000Y-93606928D01*
X143510000Y-93606928D01*
X143385518Y-93619188D01*
X143265820Y-93655498D01*
X143155506Y-93714463D01*
X143058815Y-93793815D01*
X142979463Y-93890506D01*
X142920498Y-94000820D01*
X142884188Y-94120518D01*
X142871928Y-94245000D01*
X135410415Y-94245000D01*
X135797756Y-94167953D01*
X136186302Y-94007012D01*
X136535983Y-93773363D01*
X136833363Y-93475983D01*
X137067012Y-93126302D01*
X137227953Y-92737756D01*
X137259250Y-92580413D01*
X143554192Y-92580413D01*
X143649956Y-92844814D01*
X143939571Y-92985704D01*
X144251108Y-93067384D01*
X144572595Y-93086718D01*
X144891675Y-93042961D01*
X145196088Y-92937795D01*
X145370044Y-92844814D01*
X145465808Y-92580413D01*
X144510000Y-91624605D01*
X143554192Y-92580413D01*
X137259250Y-92580413D01*
X137310000Y-92325279D01*
X137310000Y-91904721D01*
X137231007Y-91507595D01*
X142868282Y-91507595D01*
X142912039Y-91826675D01*
X143017205Y-92131088D01*
X143110186Y-92305044D01*
X143374587Y-92400808D01*
X144330395Y-91445000D01*
X144689605Y-91445000D01*
X145645413Y-92400808D01*
X145909814Y-92305044D01*
X146050704Y-92015429D01*
X146132384Y-91703892D01*
X146151718Y-91382405D01*
X146107961Y-91063325D01*
X146002795Y-90758912D01*
X145909814Y-90584956D01*
X145645413Y-90489192D01*
X144689605Y-91445000D01*
X144330395Y-91445000D01*
X143374587Y-90489192D01*
X143110186Y-90584956D01*
X142969296Y-90874571D01*
X142887616Y-91186108D01*
X142868282Y-91507595D01*
X137231007Y-91507595D01*
X137227953Y-91492244D01*
X137067012Y-91103698D01*
X136833363Y-90754017D01*
X136535983Y-90456637D01*
X136315907Y-90309587D01*
X143554192Y-90309587D01*
X144510000Y-91265395D01*
X145465808Y-90309587D01*
X145370044Y-90045186D01*
X145080429Y-89904296D01*
X144768892Y-89822616D01*
X144447405Y-89803282D01*
X144128325Y-89847039D01*
X143823912Y-89952205D01*
X143649956Y-90045186D01*
X143554192Y-90309587D01*
X136315907Y-90309587D01*
X136186302Y-90222988D01*
X135797756Y-90062047D01*
X135385279Y-89980000D01*
X134964721Y-89980000D01*
X134552244Y-90062047D01*
X134163698Y-90222988D01*
X133814017Y-90456637D01*
X133516637Y-90754017D01*
X133282988Y-91103698D01*
X133122047Y-91492244D01*
X133040000Y-91904721D01*
X129067000Y-91904721D01*
X129067000Y-88244031D01*
X190337698Y-88244031D01*
X190354449Y-88331591D01*
X190469526Y-88604809D01*
X190635694Y-88850326D01*
X190846567Y-89058708D01*
X191094042Y-89221947D01*
X191368608Y-89333769D01*
X191659714Y-89389877D01*
X191897000Y-89234376D01*
X191897000Y-88011000D01*
X192151000Y-88011000D01*
X192151000Y-89234376D01*
X192388286Y-89389877D01*
X192679392Y-89333769D01*
X192953958Y-89221947D01*
X193201433Y-89058708D01*
X193412306Y-88850326D01*
X193578474Y-88604809D01*
X193693551Y-88331591D01*
X193710302Y-88244031D01*
X193589246Y-88011000D01*
X192151000Y-88011000D01*
X191897000Y-88011000D01*
X190458754Y-88011000D01*
X190337698Y-88244031D01*
X129067000Y-88244031D01*
X129067000Y-83680413D01*
X143554192Y-83680413D01*
X143649956Y-83944814D01*
X143939571Y-84085704D01*
X144251108Y-84167384D01*
X144572595Y-84186718D01*
X144891675Y-84142961D01*
X145196088Y-84037795D01*
X145370044Y-83944814D01*
X145465808Y-83680413D01*
X144510000Y-82724605D01*
X143554192Y-83680413D01*
X129067000Y-83680413D01*
X129067000Y-82607595D01*
X142868282Y-82607595D01*
X142912039Y-82926675D01*
X143017205Y-83231088D01*
X143110186Y-83405044D01*
X143374587Y-83500808D01*
X144330395Y-82545000D01*
X144689605Y-82545000D01*
X145645413Y-83500808D01*
X145909814Y-83405044D01*
X146050704Y-83115429D01*
X146132384Y-82803892D01*
X146151718Y-82482405D01*
X146107961Y-82163325D01*
X146002795Y-81858912D01*
X145909814Y-81684956D01*
X145645413Y-81589192D01*
X144689605Y-82545000D01*
X144330395Y-82545000D01*
X143374587Y-81589192D01*
X143110186Y-81684956D01*
X142969296Y-81974571D01*
X142887616Y-82286108D01*
X142868282Y-82607595D01*
X129067000Y-82607595D01*
X129067000Y-81409587D01*
X143554192Y-81409587D01*
X144510000Y-82365395D01*
X145465808Y-81409587D01*
X145370044Y-81145186D01*
X145080429Y-81004296D01*
X144768892Y-80922616D01*
X144447405Y-80903282D01*
X144128325Y-80947039D01*
X143823912Y-81052205D01*
X143649956Y-81145186D01*
X143554192Y-81409587D01*
X129067000Y-81409587D01*
X129067000Y-78206653D01*
X133862952Y-78206653D01*
X134018962Y-78522214D01*
X134393745Y-78713020D01*
X134798551Y-78827044D01*
X135217824Y-78859902D01*
X135635451Y-78810334D01*
X136035383Y-78680243D01*
X136331038Y-78522214D01*
X136487048Y-78206653D01*
X135175000Y-76894605D01*
X133862952Y-78206653D01*
X129067000Y-78206653D01*
X129067000Y-76757824D01*
X133030098Y-76757824D01*
X133079666Y-77175451D01*
X133209757Y-77575383D01*
X133367786Y-77871038D01*
X133683347Y-78027048D01*
X134995395Y-76715000D01*
X135354605Y-76715000D01*
X136666653Y-78027048D01*
X136982214Y-77871038D01*
X137046381Y-77745000D01*
X142871928Y-77745000D01*
X142871928Y-79745000D01*
X142884188Y-79869482D01*
X142920498Y-79989180D01*
X142979463Y-80099494D01*
X143058815Y-80196185D01*
X143155506Y-80275537D01*
X143265820Y-80334502D01*
X143385518Y-80370812D01*
X143510000Y-80383072D01*
X145510000Y-80383072D01*
X145634482Y-80370812D01*
X145754180Y-80334502D01*
X145864494Y-80275537D01*
X145878551Y-80264000D01*
X190286718Y-80264000D01*
X190315776Y-80559032D01*
X190401834Y-80842725D01*
X190541583Y-81104179D01*
X190729655Y-81333345D01*
X190958821Y-81521417D01*
X190982362Y-81534000D01*
X190958821Y-81546583D01*
X190729655Y-81734655D01*
X190541583Y-81963821D01*
X190401834Y-82225275D01*
X190315776Y-82508968D01*
X190286718Y-82804000D01*
X190315776Y-83099032D01*
X190401834Y-83382725D01*
X190541583Y-83644179D01*
X190729655Y-83873345D01*
X190958821Y-84061417D01*
X190982362Y-84074000D01*
X190958821Y-84086583D01*
X190729655Y-84274655D01*
X190541583Y-84503821D01*
X190401834Y-84765275D01*
X190315776Y-85048968D01*
X190286718Y-85344000D01*
X190315776Y-85639032D01*
X190401834Y-85922725D01*
X190541583Y-86184179D01*
X190729655Y-86413345D01*
X190958821Y-86601417D01*
X190987152Y-86616560D01*
X190846567Y-86709292D01*
X190635694Y-86917674D01*
X190469526Y-87163191D01*
X190354449Y-87436409D01*
X190337698Y-87523969D01*
X190458754Y-87757000D01*
X191897000Y-87757000D01*
X191897000Y-87737000D01*
X192151000Y-87737000D01*
X192151000Y-87757000D01*
X193589246Y-87757000D01*
X193710302Y-87523969D01*
X193693551Y-87436409D01*
X193578474Y-87163191D01*
X193412306Y-86917674D01*
X193201433Y-86709292D01*
X193060848Y-86616560D01*
X193089179Y-86601417D01*
X193318345Y-86413345D01*
X193506417Y-86184179D01*
X193646166Y-85922725D01*
X193732224Y-85639032D01*
X193761282Y-85344000D01*
X193732224Y-85048968D01*
X193646166Y-84765275D01*
X193506417Y-84503821D01*
X193318345Y-84274655D01*
X193089179Y-84086583D01*
X193065638Y-84074000D01*
X193089179Y-84061417D01*
X193318345Y-83873345D01*
X193506417Y-83644179D01*
X193646166Y-83382725D01*
X193732224Y-83099032D01*
X193761282Y-82804000D01*
X193732224Y-82508968D01*
X193646166Y-82225275D01*
X193506417Y-81963821D01*
X193318345Y-81734655D01*
X193089179Y-81546583D01*
X193065638Y-81534000D01*
X193089179Y-81521417D01*
X193318345Y-81333345D01*
X193506417Y-81104179D01*
X193646166Y-80842725D01*
X193732224Y-80559032D01*
X193761282Y-80264000D01*
X193732224Y-79968968D01*
X193646166Y-79685275D01*
X193506417Y-79423821D01*
X193318345Y-79194655D01*
X193252886Y-79140934D01*
X193362387Y-79082405D01*
X193496962Y-78971962D01*
X193607405Y-78837387D01*
X193689472Y-78683851D01*
X193740008Y-78517255D01*
X193757072Y-78344001D01*
X193757072Y-77103999D01*
X193740008Y-76930745D01*
X193689472Y-76764149D01*
X193607405Y-76610613D01*
X193496962Y-76476038D01*
X193362387Y-76365595D01*
X193208851Y-76283528D01*
X193042255Y-76232992D01*
X192869001Y-76215928D01*
X191178999Y-76215928D01*
X191005745Y-76232992D01*
X190839149Y-76283528D01*
X190685613Y-76365595D01*
X190551038Y-76476038D01*
X190440595Y-76610613D01*
X190358528Y-76764149D01*
X190307992Y-76930745D01*
X190290928Y-77103999D01*
X190290928Y-78344001D01*
X190307992Y-78517255D01*
X190358528Y-78683851D01*
X190440595Y-78837387D01*
X190551038Y-78971962D01*
X190685613Y-79082405D01*
X190795114Y-79140934D01*
X190729655Y-79194655D01*
X190541583Y-79423821D01*
X190401834Y-79685275D01*
X190315776Y-79968968D01*
X190286718Y-80264000D01*
X145878551Y-80264000D01*
X145961185Y-80196185D01*
X146040537Y-80099494D01*
X146099502Y-79989180D01*
X146135812Y-79869482D01*
X146148072Y-79745000D01*
X146148072Y-77745000D01*
X146135812Y-77620518D01*
X146099502Y-77500820D01*
X146040537Y-77390506D01*
X145961185Y-77293815D01*
X145864494Y-77214463D01*
X145754180Y-77155498D01*
X145634482Y-77119188D01*
X145510000Y-77106928D01*
X143510000Y-77106928D01*
X143385518Y-77119188D01*
X143265820Y-77155498D01*
X143155506Y-77214463D01*
X143058815Y-77293815D01*
X142979463Y-77390506D01*
X142920498Y-77500820D01*
X142884188Y-77620518D01*
X142871928Y-77745000D01*
X137046381Y-77745000D01*
X137173020Y-77496255D01*
X137287044Y-77091449D01*
X137319902Y-76672176D01*
X137270334Y-76254549D01*
X137140243Y-75854617D01*
X136982214Y-75558962D01*
X136666653Y-75402952D01*
X135354605Y-76715000D01*
X134995395Y-76715000D01*
X133683347Y-75402952D01*
X133367786Y-75558962D01*
X133176980Y-75933745D01*
X133062956Y-76338551D01*
X133030098Y-76757824D01*
X129067000Y-76757824D01*
X129067000Y-75223347D01*
X133862952Y-75223347D01*
X135175000Y-76535395D01*
X136487048Y-75223347D01*
X136331038Y-74907786D01*
X135956255Y-74716980D01*
X135551449Y-74602956D01*
X135132176Y-74570098D01*
X134714549Y-74619666D01*
X134314617Y-74749757D01*
X134018962Y-74907786D01*
X133862952Y-75223347D01*
X129067000Y-75223347D01*
X129067000Y-74295000D01*
X129064560Y-74270224D01*
X129057333Y-74246399D01*
X129045597Y-74224443D01*
X129029803Y-74205197D01*
X129010557Y-74189403D01*
X128988601Y-74177667D01*
X128964776Y-74170440D01*
X128940000Y-74168000D01*
X101127000Y-74168000D01*
X101127000Y-70003118D01*
X101145802Y-69620390D01*
X101201568Y-69244451D01*
X101261547Y-69004999D01*
X121681928Y-69004999D01*
X121681928Y-70695001D01*
X121698992Y-70868255D01*
X121749528Y-71034851D01*
X121831595Y-71188387D01*
X121942038Y-71322962D01*
X122076613Y-71433405D01*
X122230149Y-71515472D01*
X122396745Y-71566008D01*
X122569999Y-71583072D01*
X123810001Y-71583072D01*
X123983255Y-71566008D01*
X124149851Y-71515472D01*
X124303387Y-71433405D01*
X124437962Y-71322962D01*
X124548405Y-71188387D01*
X124606934Y-71078886D01*
X124660655Y-71144345D01*
X124889822Y-71332417D01*
X125151276Y-71472166D01*
X125434969Y-71558224D01*
X125730000Y-71587282D01*
X126025032Y-71558224D01*
X126308725Y-71472166D01*
X126570179Y-71332417D01*
X126799345Y-71144345D01*
X126987417Y-70915179D01*
X127002560Y-70886848D01*
X127095292Y-71027433D01*
X127303674Y-71238306D01*
X127549191Y-71404474D01*
X127822409Y-71519551D01*
X127909969Y-71536302D01*
X128143000Y-71415246D01*
X128143000Y-69977000D01*
X128397000Y-69977000D01*
X128397000Y-71415246D01*
X128630031Y-71536302D01*
X128717591Y-71519551D01*
X128990809Y-71404474D01*
X129236326Y-71238306D01*
X129444708Y-71027433D01*
X129607947Y-70779958D01*
X129719769Y-70505392D01*
X129775877Y-70214286D01*
X129620376Y-69977000D01*
X128397000Y-69977000D01*
X128143000Y-69977000D01*
X128123000Y-69977000D01*
X128123000Y-69723000D01*
X128143000Y-69723000D01*
X128143000Y-68284754D01*
X128397000Y-68284754D01*
X128397000Y-69723000D01*
X129620376Y-69723000D01*
X129775877Y-69485714D01*
X129719769Y-69194608D01*
X129640512Y-69000000D01*
X139846928Y-69000000D01*
X139846928Y-70700000D01*
X139859188Y-70824482D01*
X139895498Y-70944180D01*
X139954463Y-71054494D01*
X140033815Y-71151185D01*
X140130506Y-71230537D01*
X140240820Y-71289502D01*
X140360518Y-71325812D01*
X140485000Y-71338072D01*
X142185000Y-71338072D01*
X142309482Y-71325812D01*
X142429180Y-71289502D01*
X142539494Y-71230537D01*
X142636185Y-71151185D01*
X142715537Y-71054494D01*
X142774502Y-70944180D01*
X142796513Y-70871620D01*
X142928368Y-71003475D01*
X143171589Y-71165990D01*
X143441842Y-71277932D01*
X143728740Y-71335000D01*
X144021260Y-71335000D01*
X144308158Y-71277932D01*
X144578411Y-71165990D01*
X144821632Y-71003475D01*
X145028475Y-70796632D01*
X145145000Y-70622240D01*
X145261525Y-70796632D01*
X145468368Y-71003475D01*
X145711589Y-71165990D01*
X145981842Y-71277932D01*
X146268740Y-71335000D01*
X146561260Y-71335000D01*
X146848158Y-71277932D01*
X147118411Y-71165990D01*
X147361632Y-71003475D01*
X147568475Y-70796632D01*
X147685000Y-70622240D01*
X147801525Y-70796632D01*
X148008368Y-71003475D01*
X148251589Y-71165990D01*
X148521842Y-71277932D01*
X148808740Y-71335000D01*
X149101260Y-71335000D01*
X149388158Y-71277932D01*
X149658411Y-71165990D01*
X149901632Y-71003475D01*
X150108475Y-70796632D01*
X150230195Y-70614466D01*
X150299822Y-70731355D01*
X150494731Y-70947588D01*
X150728080Y-71121641D01*
X150990901Y-71246825D01*
X151138110Y-71291476D01*
X151368000Y-71170155D01*
X151368000Y-69977000D01*
X151348000Y-69977000D01*
X151348000Y-69723000D01*
X151368000Y-69723000D01*
X151368000Y-68529845D01*
X151622000Y-68529845D01*
X151622000Y-69723000D01*
X151642000Y-69723000D01*
X151642000Y-69977000D01*
X151622000Y-69977000D01*
X151622000Y-71170155D01*
X151851890Y-71291476D01*
X151999099Y-71246825D01*
X152261920Y-71121641D01*
X152495269Y-70947588D01*
X152690178Y-70731355D01*
X152759805Y-70614466D01*
X152881525Y-70796632D01*
X153088368Y-71003475D01*
X153331589Y-71165990D01*
X153601842Y-71277932D01*
X153888740Y-71335000D01*
X154181260Y-71335000D01*
X154468158Y-71277932D01*
X154738411Y-71165990D01*
X154981632Y-71003475D01*
X155188475Y-70796632D01*
X155350990Y-70553411D01*
X155462932Y-70283158D01*
X155520000Y-69996260D01*
X155520000Y-69703740D01*
X155462932Y-69416842D01*
X155350990Y-69146589D01*
X155188475Y-68903368D01*
X154981632Y-68696525D01*
X154738411Y-68534010D01*
X154468158Y-68422068D01*
X154181260Y-68365000D01*
X153888740Y-68365000D01*
X153601842Y-68422068D01*
X153331589Y-68534010D01*
X153088368Y-68696525D01*
X152881525Y-68903368D01*
X152759805Y-69085534D01*
X152690178Y-68968645D01*
X152495269Y-68752412D01*
X152261920Y-68578359D01*
X151999099Y-68453175D01*
X151851890Y-68408524D01*
X151622000Y-68529845D01*
X151368000Y-68529845D01*
X151138110Y-68408524D01*
X150990901Y-68453175D01*
X150728080Y-68578359D01*
X150494731Y-68752412D01*
X150299822Y-68968645D01*
X150230195Y-69085534D01*
X150108475Y-68903368D01*
X149901632Y-68696525D01*
X149658411Y-68534010D01*
X149388158Y-68422068D01*
X149101260Y-68365000D01*
X148808740Y-68365000D01*
X148521842Y-68422068D01*
X148251589Y-68534010D01*
X148008368Y-68696525D01*
X147801525Y-68903368D01*
X147685000Y-69077760D01*
X147568475Y-68903368D01*
X147361632Y-68696525D01*
X147118411Y-68534010D01*
X146848158Y-68422068D01*
X146561260Y-68365000D01*
X146268740Y-68365000D01*
X145981842Y-68422068D01*
X145711589Y-68534010D01*
X145468368Y-68696525D01*
X145261525Y-68903368D01*
X145145000Y-69077760D01*
X145028475Y-68903368D01*
X144821632Y-68696525D01*
X144578411Y-68534010D01*
X144308158Y-68422068D01*
X144021260Y-68365000D01*
X143728740Y-68365000D01*
X143441842Y-68422068D01*
X143171589Y-68534010D01*
X142928368Y-68696525D01*
X142796513Y-68828380D01*
X142774502Y-68755820D01*
X142715537Y-68645506D01*
X142636185Y-68548815D01*
X142539494Y-68469463D01*
X142429180Y-68410498D01*
X142309482Y-68374188D01*
X142185000Y-68361928D01*
X140485000Y-68361928D01*
X140360518Y-68374188D01*
X140240820Y-68410498D01*
X140130506Y-68469463D01*
X140033815Y-68548815D01*
X139954463Y-68645506D01*
X139895498Y-68755820D01*
X139859188Y-68875518D01*
X139846928Y-69000000D01*
X129640512Y-69000000D01*
X129607947Y-68920042D01*
X129444708Y-68672567D01*
X129236326Y-68461694D01*
X128990809Y-68295526D01*
X128717591Y-68180449D01*
X128630031Y-68163698D01*
X128397000Y-68284754D01*
X128143000Y-68284754D01*
X127909969Y-68163698D01*
X127822409Y-68180449D01*
X127549191Y-68295526D01*
X127303674Y-68461694D01*
X127095292Y-68672567D01*
X127002560Y-68813152D01*
X126987417Y-68784821D01*
X126799345Y-68555655D01*
X126570178Y-68367583D01*
X126308724Y-68227834D01*
X126025031Y-68141776D01*
X125730000Y-68112718D01*
X125434968Y-68141776D01*
X125151275Y-68227834D01*
X124889821Y-68367583D01*
X124660655Y-68555655D01*
X124606935Y-68621114D01*
X124548405Y-68511613D01*
X124437962Y-68377038D01*
X124303387Y-68266595D01*
X124149851Y-68184528D01*
X123983255Y-68133992D01*
X123810001Y-68116928D01*
X122569999Y-68116928D01*
X122396745Y-68133992D01*
X122230149Y-68184528D01*
X122076613Y-68266595D01*
X121942038Y-68377038D01*
X121831595Y-68511613D01*
X121749528Y-68665149D01*
X121698992Y-68831745D01*
X121681928Y-69004999D01*
X101261547Y-69004999D01*
X101293918Y-68875769D01*
X101421954Y-68517931D01*
X101584459Y-68174343D01*
X101779844Y-67848364D01*
X102006247Y-67543095D01*
X102261484Y-67261484D01*
X102543095Y-67006247D01*
X102848364Y-66779844D01*
X103174343Y-66584459D01*
X103517931Y-66421954D01*
X103875769Y-66293918D01*
X104244451Y-66201568D01*
X104620390Y-66145802D01*
X105003118Y-66127000D01*
X153577394Y-66127000D01*
X161200197Y-73749803D01*
%TA.AperFunction,Conductor*%
D25*
G36*
X161200197Y-73749803D02*
G01*
X161219443Y-73765597D01*
X161241399Y-73777333D01*
X161265224Y-73784560D01*
X161290000Y-73787000D01*
X177165000Y-73787000D01*
X177189776Y-73784560D01*
X177213601Y-73777333D01*
X177235557Y-73765597D01*
X177254803Y-73749803D01*
X184877606Y-66127000D01*
X194996882Y-66127000D01*
X195379610Y-66145802D01*
X195755549Y-66201568D01*
X196124231Y-66293918D01*
X196482069Y-66421954D01*
X196825657Y-66584459D01*
X197151636Y-66779844D01*
X197456905Y-67006247D01*
X197738516Y-67261484D01*
X197993753Y-67543095D01*
X198220156Y-67848364D01*
X198415541Y-68174343D01*
X198578046Y-68517931D01*
X198706082Y-68875769D01*
X198798432Y-69244451D01*
X198854198Y-69620390D01*
X198873000Y-70003118D01*
X198873000Y-91313000D01*
X167005000Y-91313000D01*
X166980224Y-91315440D01*
X166956399Y-91322667D01*
X166934443Y-91334403D01*
X166915197Y-91350197D01*
X166899403Y-91369443D01*
X166887667Y-91391399D01*
X166880440Y-91415224D01*
X166878000Y-91440000D01*
X166878000Y-126365000D01*
X166880440Y-126389776D01*
X166887667Y-126413601D01*
X166899403Y-126435557D01*
X166915197Y-126454803D01*
X166934443Y-126470597D01*
X166956399Y-126482333D01*
X166980224Y-126489560D01*
X167005000Y-126492000D01*
X198873000Y-126492000D01*
X198873000Y-129996882D01*
X198854198Y-130379610D01*
X198798432Y-130755549D01*
X198706082Y-131124231D01*
X198578046Y-131482069D01*
X198415541Y-131825657D01*
X198220156Y-132151636D01*
X197993753Y-132456905D01*
X197738516Y-132738516D01*
X197456905Y-132993753D01*
X197151636Y-133220156D01*
X196825657Y-133415541D01*
X196482069Y-133578046D01*
X196124231Y-133706082D01*
X195755549Y-133798432D01*
X195379610Y-133854198D01*
X194996882Y-133873000D01*
X105003118Y-133873000D01*
X104620390Y-133854198D01*
X104244451Y-133798432D01*
X103875769Y-133706082D01*
X103517931Y-133578046D01*
X103174343Y-133415541D01*
X102848364Y-133220156D01*
X102543095Y-132993753D01*
X102261484Y-132738516D01*
X102006247Y-132456905D01*
X101779844Y-132151636D01*
X101584459Y-131825657D01*
X101421954Y-131482069D01*
X101293918Y-131124231D01*
X101201568Y-130755549D01*
X101145802Y-130379610D01*
X101127000Y-129996882D01*
X101127000Y-129378967D01*
X131930000Y-129378967D01*
X131930000Y-129701033D01*
X131992832Y-130016912D01*
X132116082Y-130314463D01*
X132295013Y-130582252D01*
X132522748Y-130809987D01*
X132790537Y-130988918D01*
X133088088Y-131112168D01*
X133403967Y-131175000D01*
X133726033Y-131175000D01*
X134041912Y-131112168D01*
X134339463Y-130988918D01*
X134607252Y-130809987D01*
X134834987Y-130582252D01*
X135013918Y-130314463D01*
X135137168Y-130016912D01*
X135200000Y-129701033D01*
X135200000Y-129378967D01*
X138430000Y-129378967D01*
X138430000Y-129701033D01*
X138492832Y-130016912D01*
X138616082Y-130314463D01*
X138795013Y-130582252D01*
X139022748Y-130809987D01*
X139290537Y-130988918D01*
X139588088Y-131112168D01*
X139903967Y-131175000D01*
X140226033Y-131175000D01*
X140541912Y-131112168D01*
X140839463Y-130988918D01*
X141107252Y-130809987D01*
X141334987Y-130582252D01*
X141513918Y-130314463D01*
X141637168Y-130016912D01*
X141700000Y-129701033D01*
X141700000Y-129378967D01*
X143360000Y-129378967D01*
X143360000Y-129701033D01*
X143422832Y-130016912D01*
X143546082Y-130314463D01*
X143725013Y-130582252D01*
X143952748Y-130809987D01*
X144220537Y-130988918D01*
X144518088Y-131112168D01*
X144833967Y-131175000D01*
X145156033Y-131175000D01*
X145471912Y-131112168D01*
X145769463Y-130988918D01*
X146037252Y-130809987D01*
X146264987Y-130582252D01*
X146443918Y-130314463D01*
X146567168Y-130016912D01*
X146630000Y-129701033D01*
X146630000Y-129378967D01*
X149860000Y-129378967D01*
X149860000Y-129701033D01*
X149922832Y-130016912D01*
X150046082Y-130314463D01*
X150225013Y-130582252D01*
X150452748Y-130809987D01*
X150720537Y-130988918D01*
X151018088Y-131112168D01*
X151333967Y-131175000D01*
X151656033Y-131175000D01*
X151971912Y-131112168D01*
X152269463Y-130988918D01*
X152537252Y-130809987D01*
X152764987Y-130582252D01*
X152943918Y-130314463D01*
X153067168Y-130016912D01*
X153130000Y-129701033D01*
X153130000Y-129378967D01*
X153067168Y-129063088D01*
X152943918Y-128765537D01*
X152764987Y-128497748D01*
X152537252Y-128270013D01*
X152269463Y-128091082D01*
X151971912Y-127967832D01*
X151656033Y-127905000D01*
X151333967Y-127905000D01*
X151018088Y-127967832D01*
X150720537Y-128091082D01*
X150452748Y-128270013D01*
X150225013Y-128497748D01*
X150046082Y-128765537D01*
X149922832Y-129063088D01*
X149860000Y-129378967D01*
X146630000Y-129378967D01*
X146567168Y-129063088D01*
X146443918Y-128765537D01*
X146264987Y-128497748D01*
X146037252Y-128270013D01*
X145769463Y-128091082D01*
X145471912Y-127967832D01*
X145156033Y-127905000D01*
X144833967Y-127905000D01*
X144518088Y-127967832D01*
X144220537Y-128091082D01*
X143952748Y-128270013D01*
X143725013Y-128497748D01*
X143546082Y-128765537D01*
X143422832Y-129063088D01*
X143360000Y-129378967D01*
X141700000Y-129378967D01*
X141637168Y-129063088D01*
X141513918Y-128765537D01*
X141334987Y-128497748D01*
X141107252Y-128270013D01*
X140839463Y-128091082D01*
X140541912Y-127967832D01*
X140226033Y-127905000D01*
X139903967Y-127905000D01*
X139588088Y-127967832D01*
X139290537Y-128091082D01*
X139022748Y-128270013D01*
X138795013Y-128497748D01*
X138616082Y-128765537D01*
X138492832Y-129063088D01*
X138430000Y-129378967D01*
X135200000Y-129378967D01*
X135137168Y-129063088D01*
X135013918Y-128765537D01*
X134834987Y-128497748D01*
X134607252Y-128270013D01*
X134339463Y-128091082D01*
X134041912Y-127967832D01*
X133726033Y-127905000D01*
X133403967Y-127905000D01*
X133088088Y-127967832D01*
X132790537Y-128091082D01*
X132522748Y-128270013D01*
X132295013Y-128497748D01*
X132116082Y-128765537D01*
X131992832Y-129063088D01*
X131930000Y-129378967D01*
X101127000Y-129378967D01*
X101127000Y-125265000D01*
X109486928Y-125265000D01*
X109486928Y-127465000D01*
X109499188Y-127589482D01*
X109535498Y-127709180D01*
X109594463Y-127819494D01*
X109673815Y-127916185D01*
X109770506Y-127995537D01*
X109880820Y-128054502D01*
X110000518Y-128090812D01*
X110125000Y-128103072D01*
X114125000Y-128103072D01*
X114249482Y-128090812D01*
X114369180Y-128054502D01*
X114479494Y-127995537D01*
X114576185Y-127916185D01*
X114655537Y-127819494D01*
X114714502Y-127709180D01*
X114750812Y-127589482D01*
X114763072Y-127465000D01*
X114763072Y-125265000D01*
X114750812Y-125140518D01*
X114714502Y-125020820D01*
X114655537Y-124910506D01*
X114630318Y-124879776D01*
X117690000Y-124879776D01*
X117690000Y-126850225D01*
X117715106Y-127105119D01*
X117814315Y-127432168D01*
X117975422Y-127733578D01*
X118192235Y-127997766D01*
X118456423Y-128214579D01*
X118757833Y-128375686D01*
X119084882Y-128474895D01*
X119425000Y-128508394D01*
X119765119Y-128474895D01*
X120092168Y-128375686D01*
X120393578Y-128214579D01*
X120657766Y-127997766D01*
X120874579Y-127733578D01*
X121035686Y-127432168D01*
X121134895Y-127105119D01*
X121160000Y-126850225D01*
X121160000Y-126175413D01*
X132609192Y-126175413D01*
X132704956Y-126439814D01*
X132994571Y-126580704D01*
X133306108Y-126662384D01*
X133627595Y-126681718D01*
X133946675Y-126637961D01*
X134251088Y-126532795D01*
X134425044Y-126439814D01*
X134520808Y-126175413D01*
X139109192Y-126175413D01*
X139204956Y-126439814D01*
X139494571Y-126580704D01*
X139806108Y-126662384D01*
X140127595Y-126681718D01*
X140446675Y-126637961D01*
X140751088Y-126532795D01*
X140925044Y-126439814D01*
X141020808Y-126175413D01*
X144039192Y-126175413D01*
X144134956Y-126439814D01*
X144424571Y-126580704D01*
X144736108Y-126662384D01*
X145057595Y-126681718D01*
X145376675Y-126637961D01*
X145681088Y-126532795D01*
X145855044Y-126439814D01*
X145950808Y-126175413D01*
X150539192Y-126175413D01*
X150634956Y-126439814D01*
X150924571Y-126580704D01*
X151236108Y-126662384D01*
X151557595Y-126681718D01*
X151876675Y-126637961D01*
X152181088Y-126532795D01*
X152355044Y-126439814D01*
X152450808Y-126175413D01*
X151495000Y-125219605D01*
X150539192Y-126175413D01*
X145950808Y-126175413D01*
X144995000Y-125219605D01*
X144039192Y-126175413D01*
X141020808Y-126175413D01*
X140065000Y-125219605D01*
X139109192Y-126175413D01*
X134520808Y-126175413D01*
X133565000Y-125219605D01*
X132609192Y-126175413D01*
X121160000Y-126175413D01*
X121160000Y-124879775D01*
X121134895Y-124624881D01*
X121035686Y-124297832D01*
X120874579Y-123996422D01*
X120657766Y-123732234D01*
X120514576Y-123614721D01*
X123960000Y-123614721D01*
X123960000Y-124035279D01*
X124042047Y-124447756D01*
X124202988Y-124836302D01*
X124436637Y-125185983D01*
X124734017Y-125483363D01*
X125083698Y-125717012D01*
X125472244Y-125877953D01*
X125884721Y-125960000D01*
X126305279Y-125960000D01*
X126717756Y-125877953D01*
X127106302Y-125717012D01*
X127455983Y-125483363D01*
X127753363Y-125185983D01*
X127809080Y-125102595D01*
X131923282Y-125102595D01*
X131967039Y-125421675D01*
X132072205Y-125726088D01*
X132165186Y-125900044D01*
X132429587Y-125995808D01*
X133385395Y-125040000D01*
X133744605Y-125040000D01*
X134700413Y-125995808D01*
X134964814Y-125900044D01*
X135105704Y-125610429D01*
X135187384Y-125298892D01*
X135199189Y-125102595D01*
X138423282Y-125102595D01*
X138467039Y-125421675D01*
X138572205Y-125726088D01*
X138665186Y-125900044D01*
X138929587Y-125995808D01*
X139885395Y-125040000D01*
X140244605Y-125040000D01*
X141200413Y-125995808D01*
X141464814Y-125900044D01*
X141605704Y-125610429D01*
X141687384Y-125298892D01*
X141699189Y-125102595D01*
X143353282Y-125102595D01*
X143397039Y-125421675D01*
X143502205Y-125726088D01*
X143595186Y-125900044D01*
X143859587Y-125995808D01*
X144815395Y-125040000D01*
X145174605Y-125040000D01*
X146130413Y-125995808D01*
X146394814Y-125900044D01*
X146535704Y-125610429D01*
X146617384Y-125298892D01*
X146629189Y-125102595D01*
X149853282Y-125102595D01*
X149897039Y-125421675D01*
X150002205Y-125726088D01*
X150095186Y-125900044D01*
X150359587Y-125995808D01*
X151315395Y-125040000D01*
X151674605Y-125040000D01*
X152630413Y-125995808D01*
X152894814Y-125900044D01*
X153035704Y-125610429D01*
X153117384Y-125298892D01*
X153136718Y-124977405D01*
X153092961Y-124658325D01*
X152987795Y-124353912D01*
X152894814Y-124179956D01*
X152630413Y-124084192D01*
X151674605Y-125040000D01*
X151315395Y-125040000D01*
X150359587Y-124084192D01*
X150095186Y-124179956D01*
X149954296Y-124469571D01*
X149872616Y-124781108D01*
X149853282Y-125102595D01*
X146629189Y-125102595D01*
X146636718Y-124977405D01*
X146592961Y-124658325D01*
X146487795Y-124353912D01*
X146394814Y-124179956D01*
X146130413Y-124084192D01*
X145174605Y-125040000D01*
X144815395Y-125040000D01*
X143859587Y-124084192D01*
X143595186Y-124179956D01*
X143454296Y-124469571D01*
X143372616Y-124781108D01*
X143353282Y-125102595D01*
X141699189Y-125102595D01*
X141706718Y-124977405D01*
X141662961Y-124658325D01*
X141557795Y-124353912D01*
X141464814Y-124179956D01*
X141200413Y-124084192D01*
X140244605Y-125040000D01*
X139885395Y-125040000D01*
X138929587Y-124084192D01*
X138665186Y-124179956D01*
X138524296Y-124469571D01*
X138442616Y-124781108D01*
X138423282Y-125102595D01*
X135199189Y-125102595D01*
X135206718Y-124977405D01*
X135162961Y-124658325D01*
X135057795Y-124353912D01*
X134964814Y-124179956D01*
X134700413Y-124084192D01*
X133744605Y-125040000D01*
X133385395Y-125040000D01*
X132429587Y-124084192D01*
X132165186Y-124179956D01*
X132024296Y-124469571D01*
X131942616Y-124781108D01*
X131923282Y-125102595D01*
X127809080Y-125102595D01*
X127987012Y-124836302D01*
X128147953Y-124447756D01*
X128230000Y-124035279D01*
X128230000Y-123904587D01*
X132609192Y-123904587D01*
X133565000Y-124860395D01*
X134520808Y-123904587D01*
X139109192Y-123904587D01*
X140065000Y-124860395D01*
X141020808Y-123904587D01*
X144039192Y-123904587D01*
X144995000Y-124860395D01*
X145950808Y-123904587D01*
X150539192Y-123904587D01*
X151495000Y-124860395D01*
X152450808Y-123904587D01*
X152355044Y-123640186D01*
X152065429Y-123499296D01*
X151753892Y-123417616D01*
X151432405Y-123398282D01*
X151113325Y-123442039D01*
X150808912Y-123547205D01*
X150634956Y-123640186D01*
X150539192Y-123904587D01*
X145950808Y-123904587D01*
X145855044Y-123640186D01*
X145565429Y-123499296D01*
X145253892Y-123417616D01*
X144932405Y-123398282D01*
X144613325Y-123442039D01*
X144308912Y-123547205D01*
X144134956Y-123640186D01*
X144039192Y-123904587D01*
X141020808Y-123904587D01*
X140925044Y-123640186D01*
X140635429Y-123499296D01*
X140323892Y-123417616D01*
X140002405Y-123398282D01*
X139683325Y-123442039D01*
X139378912Y-123547205D01*
X139204956Y-123640186D01*
X139109192Y-123904587D01*
X134520808Y-123904587D01*
X134425044Y-123640186D01*
X134135429Y-123499296D01*
X133823892Y-123417616D01*
X133502405Y-123398282D01*
X133183325Y-123442039D01*
X132878912Y-123547205D01*
X132704956Y-123640186D01*
X132609192Y-123904587D01*
X128230000Y-123904587D01*
X128230000Y-123614721D01*
X128147953Y-123202244D01*
X127987012Y-122813698D01*
X127753363Y-122464017D01*
X127455983Y-122166637D01*
X127106302Y-121932988D01*
X126717756Y-121772047D01*
X126305279Y-121690000D01*
X125884721Y-121690000D01*
X125472244Y-121772047D01*
X125083698Y-121932988D01*
X124734017Y-122166637D01*
X124436637Y-122464017D01*
X124202988Y-122813698D01*
X124042047Y-123202244D01*
X123960000Y-123614721D01*
X120514576Y-123614721D01*
X120393577Y-123515421D01*
X120092167Y-123354314D01*
X119765118Y-123255105D01*
X119425000Y-123221606D01*
X119084881Y-123255105D01*
X118757832Y-123354314D01*
X118456422Y-123515421D01*
X118192234Y-123732234D01*
X117975421Y-123996423D01*
X117814314Y-124297833D01*
X117715105Y-124624882D01*
X117690000Y-124879776D01*
X114630318Y-124879776D01*
X114576185Y-124813815D01*
X114479494Y-124734463D01*
X114369180Y-124675498D01*
X114249482Y-124639188D01*
X114125000Y-124626928D01*
X110125000Y-124626928D01*
X110000518Y-124639188D01*
X109880820Y-124675498D01*
X109770506Y-124734463D01*
X109673815Y-124813815D01*
X109594463Y-124910506D01*
X109535498Y-125020820D01*
X109499188Y-125140518D01*
X109486928Y-125265000D01*
X101127000Y-125265000D01*
X101127000Y-120779776D01*
X106490000Y-120779776D01*
X106490000Y-122750225D01*
X106515106Y-123005119D01*
X106614315Y-123332168D01*
X106775422Y-123633578D01*
X106992235Y-123897766D01*
X107256423Y-124114579D01*
X107557833Y-124275686D01*
X107884882Y-124374895D01*
X108225000Y-124408394D01*
X108565119Y-124374895D01*
X108892168Y-124275686D01*
X109193578Y-124114579D01*
X109457766Y-123897766D01*
X109674579Y-123633578D01*
X109835686Y-123332168D01*
X109934895Y-123005119D01*
X109960000Y-122750225D01*
X109960000Y-120779775D01*
X109934895Y-120524881D01*
X109835686Y-120197832D01*
X109674579Y-119896422D01*
X109457766Y-119632234D01*
X109193577Y-119415421D01*
X108912160Y-119265000D01*
X112381606Y-119265000D01*
X112415105Y-119605119D01*
X112514314Y-119932168D01*
X112675421Y-120233578D01*
X112892234Y-120497766D01*
X113156422Y-120714579D01*
X113457832Y-120875686D01*
X113784881Y-120974895D01*
X114039775Y-121000000D01*
X116010225Y-121000000D01*
X116265119Y-120974895D01*
X116592168Y-120875686D01*
X116893578Y-120714579D01*
X117157766Y-120497766D01*
X117374579Y-120233578D01*
X117535686Y-119932168D01*
X117634895Y-119605119D01*
X117668394Y-119265000D01*
X117634895Y-118924881D01*
X117535686Y-118597832D01*
X117374579Y-118296422D01*
X117365005Y-118284755D01*
X117465119Y-118274895D01*
X117792168Y-118175686D01*
X118093578Y-118014579D01*
X118357766Y-117797766D01*
X118574579Y-117533578D01*
X118728827Y-117245000D01*
X123956928Y-117245000D01*
X123956928Y-120245000D01*
X123969188Y-120369482D01*
X124005498Y-120489180D01*
X124064463Y-120599494D01*
X124143815Y-120696185D01*
X124240506Y-120775537D01*
X124350820Y-120834502D01*
X124470518Y-120870812D01*
X124595000Y-120883072D01*
X127595000Y-120883072D01*
X127719482Y-120870812D01*
X127839180Y-120834502D01*
X127949494Y-120775537D01*
X128046185Y-120696185D01*
X128125537Y-120599494D01*
X128184502Y-120489180D01*
X128220812Y-120369482D01*
X128233072Y-120245000D01*
X128233072Y-117245000D01*
X128220812Y-117120518D01*
X128184502Y-117000820D01*
X128125537Y-116890506D01*
X128046185Y-116793815D01*
X127949494Y-116714463D01*
X127839180Y-116655498D01*
X127719482Y-116619188D01*
X127595000Y-116606928D01*
X124595000Y-116606928D01*
X124470518Y-116619188D01*
X124350820Y-116655498D01*
X124240506Y-116714463D01*
X124143815Y-116793815D01*
X124064463Y-116890506D01*
X124005498Y-117000820D01*
X123969188Y-117120518D01*
X123956928Y-117245000D01*
X118728827Y-117245000D01*
X118735686Y-117232168D01*
X118834895Y-116905119D01*
X118868394Y-116565000D01*
X118834895Y-116224881D01*
X118735686Y-115897832D01*
X118574579Y-115596422D01*
X118357766Y-115332234D01*
X118093578Y-115115421D01*
X117792168Y-114954314D01*
X117465119Y-114855105D01*
X117210225Y-114830000D01*
X115239775Y-114830000D01*
X114984881Y-114855105D01*
X114657832Y-114954314D01*
X114356422Y-115115421D01*
X114092234Y-115332234D01*
X113875421Y-115596422D01*
X113714314Y-115897832D01*
X113615105Y-116224881D01*
X113581606Y-116565000D01*
X113615105Y-116905119D01*
X113714314Y-117232168D01*
X113875421Y-117533578D01*
X113884995Y-117545245D01*
X113784881Y-117555105D01*
X113457832Y-117654314D01*
X113156422Y-117815421D01*
X112892234Y-118032234D01*
X112675421Y-118296422D01*
X112514314Y-118597832D01*
X112415105Y-118924881D01*
X112381606Y-119265000D01*
X108912160Y-119265000D01*
X108892167Y-119254314D01*
X108565118Y-119155105D01*
X108225000Y-119121606D01*
X107884881Y-119155105D01*
X107557832Y-119254314D01*
X107256422Y-119415421D01*
X106992234Y-119632234D01*
X106775421Y-119896423D01*
X106614314Y-120197833D01*
X106515105Y-120524882D01*
X106490000Y-120779776D01*
X101127000Y-120779776D01*
X101127000Y-115059146D01*
X128942886Y-114426967D01*
X128964776Y-114424560D01*
X128988601Y-114417333D01*
X129010557Y-114405597D01*
X129029803Y-114389803D01*
X129045597Y-114370557D01*
X129057333Y-114348601D01*
X129064560Y-114324776D01*
X129067000Y-114300000D01*
X129067000Y-110914721D01*
X130230000Y-110914721D01*
X130230000Y-111335279D01*
X130312047Y-111747756D01*
X130472988Y-112136302D01*
X130706637Y-112485983D01*
X131004017Y-112783363D01*
X131353698Y-113017012D01*
X131742244Y-113177953D01*
X132154721Y-113260000D01*
X132575279Y-113260000D01*
X132987756Y-113177953D01*
X133376302Y-113017012D01*
X133725983Y-112783363D01*
X134023363Y-112485983D01*
X134257012Y-112136302D01*
X134417953Y-111747756D01*
X134500000Y-111335279D01*
X134500000Y-110914721D01*
X134417953Y-110502244D01*
X134257012Y-110113698D01*
X134023363Y-109764017D01*
X133725983Y-109466637D01*
X133376302Y-109232988D01*
X132987756Y-109072047D01*
X132575279Y-108990000D01*
X132154721Y-108990000D01*
X131742244Y-109072047D01*
X131353698Y-109232988D01*
X131004017Y-109466637D01*
X130706637Y-109764017D01*
X130472988Y-110113698D01*
X130312047Y-110502244D01*
X130230000Y-110914721D01*
X129067000Y-110914721D01*
X129067000Y-98214721D01*
X130230000Y-98214721D01*
X130230000Y-98635279D01*
X130312047Y-99047756D01*
X130472988Y-99436302D01*
X130706637Y-99785983D01*
X131004017Y-100083363D01*
X131353698Y-100317012D01*
X131742244Y-100477953D01*
X132154721Y-100560000D01*
X132575279Y-100560000D01*
X132987756Y-100477953D01*
X133376302Y-100317012D01*
X133725983Y-100083363D01*
X134023363Y-99785983D01*
X134257012Y-99436302D01*
X134417953Y-99047756D01*
X134500000Y-98635279D01*
X134500000Y-98214721D01*
X134417953Y-97802244D01*
X134257012Y-97413698D01*
X134023363Y-97064017D01*
X133725983Y-96766637D01*
X133376302Y-96532988D01*
X132987756Y-96372047D01*
X132575279Y-96290000D01*
X132154721Y-96290000D01*
X131742244Y-96372047D01*
X131353698Y-96532988D01*
X131004017Y-96766637D01*
X130706637Y-97064017D01*
X130472988Y-97413698D01*
X130312047Y-97802244D01*
X130230000Y-98214721D01*
X129067000Y-98214721D01*
X129067000Y-91904721D01*
X133040000Y-91904721D01*
X133040000Y-92325279D01*
X133122047Y-92737756D01*
X133282988Y-93126302D01*
X133516637Y-93475983D01*
X133814017Y-93773363D01*
X134163698Y-94007012D01*
X134552244Y-94167953D01*
X134964721Y-94250000D01*
X135385279Y-94250000D01*
X135410415Y-94245000D01*
X142871928Y-94245000D01*
X142871928Y-96245000D01*
X142884188Y-96369482D01*
X142920498Y-96489180D01*
X142979463Y-96599494D01*
X143058815Y-96696185D01*
X143155506Y-96775537D01*
X143265820Y-96834502D01*
X143385518Y-96870812D01*
X143510000Y-96883072D01*
X145510000Y-96883072D01*
X145634482Y-96870812D01*
X145754180Y-96834502D01*
X145864494Y-96775537D01*
X145961185Y-96696185D01*
X146040537Y-96599494D01*
X146099502Y-96489180D01*
X146135812Y-96369482D01*
X146148072Y-96245000D01*
X146148072Y-94245000D01*
X146135812Y-94120518D01*
X146099502Y-94000820D01*
X146040537Y-93890506D01*
X145961185Y-93793815D01*
X145864494Y-93714463D01*
X145754180Y-93655498D01*
X145634482Y-93619188D01*
X145510000Y-93606928D01*
X143510000Y-93606928D01*
X143385518Y-93619188D01*
X143265820Y-93655498D01*
X143155506Y-93714463D01*
X143058815Y-93793815D01*
X142979463Y-93890506D01*
X142920498Y-94000820D01*
X142884188Y-94120518D01*
X142871928Y-94245000D01*
X135410415Y-94245000D01*
X135797756Y-94167953D01*
X136186302Y-94007012D01*
X136535983Y-93773363D01*
X136833363Y-93475983D01*
X137067012Y-93126302D01*
X137227953Y-92737756D01*
X137259250Y-92580413D01*
X143554192Y-92580413D01*
X143649956Y-92844814D01*
X143939571Y-92985704D01*
X144251108Y-93067384D01*
X144572595Y-93086718D01*
X144891675Y-93042961D01*
X145196088Y-92937795D01*
X145370044Y-92844814D01*
X145465808Y-92580413D01*
X144510000Y-91624605D01*
X143554192Y-92580413D01*
X137259250Y-92580413D01*
X137310000Y-92325279D01*
X137310000Y-91904721D01*
X137231007Y-91507595D01*
X142868282Y-91507595D01*
X142912039Y-91826675D01*
X143017205Y-92131088D01*
X143110186Y-92305044D01*
X143374587Y-92400808D01*
X144330395Y-91445000D01*
X144689605Y-91445000D01*
X145645413Y-92400808D01*
X145909814Y-92305044D01*
X146050704Y-92015429D01*
X146132384Y-91703892D01*
X146151718Y-91382405D01*
X146107961Y-91063325D01*
X146002795Y-90758912D01*
X145909814Y-90584956D01*
X145645413Y-90489192D01*
X144689605Y-91445000D01*
X144330395Y-91445000D01*
X143374587Y-90489192D01*
X143110186Y-90584956D01*
X142969296Y-90874571D01*
X142887616Y-91186108D01*
X142868282Y-91507595D01*
X137231007Y-91507595D01*
X137227953Y-91492244D01*
X137067012Y-91103698D01*
X136833363Y-90754017D01*
X136535983Y-90456637D01*
X136315907Y-90309587D01*
X143554192Y-90309587D01*
X144510000Y-91265395D01*
X145465808Y-90309587D01*
X145370044Y-90045186D01*
X145080429Y-89904296D01*
X144768892Y-89822616D01*
X144447405Y-89803282D01*
X144128325Y-89847039D01*
X143823912Y-89952205D01*
X143649956Y-90045186D01*
X143554192Y-90309587D01*
X136315907Y-90309587D01*
X136186302Y-90222988D01*
X135797756Y-90062047D01*
X135385279Y-89980000D01*
X134964721Y-89980000D01*
X134552244Y-90062047D01*
X134163698Y-90222988D01*
X133814017Y-90456637D01*
X133516637Y-90754017D01*
X133282988Y-91103698D01*
X133122047Y-91492244D01*
X133040000Y-91904721D01*
X129067000Y-91904721D01*
X129067000Y-88244031D01*
X190337698Y-88244031D01*
X190354449Y-88331591D01*
X190469526Y-88604809D01*
X190635694Y-88850326D01*
X190846567Y-89058708D01*
X191094042Y-89221947D01*
X191368608Y-89333769D01*
X191659714Y-89389877D01*
X191897000Y-89234376D01*
X191897000Y-88011000D01*
X192151000Y-88011000D01*
X192151000Y-89234376D01*
X192388286Y-89389877D01*
X192679392Y-89333769D01*
X192953958Y-89221947D01*
X193201433Y-89058708D01*
X193412306Y-88850326D01*
X193578474Y-88604809D01*
X193693551Y-88331591D01*
X193710302Y-88244031D01*
X193589246Y-88011000D01*
X192151000Y-88011000D01*
X191897000Y-88011000D01*
X190458754Y-88011000D01*
X190337698Y-88244031D01*
X129067000Y-88244031D01*
X129067000Y-83680413D01*
X143554192Y-83680413D01*
X143649956Y-83944814D01*
X143939571Y-84085704D01*
X144251108Y-84167384D01*
X144572595Y-84186718D01*
X144891675Y-84142961D01*
X145196088Y-84037795D01*
X145370044Y-83944814D01*
X145465808Y-83680413D01*
X144510000Y-82724605D01*
X143554192Y-83680413D01*
X129067000Y-83680413D01*
X129067000Y-82607595D01*
X142868282Y-82607595D01*
X142912039Y-82926675D01*
X143017205Y-83231088D01*
X143110186Y-83405044D01*
X143374587Y-83500808D01*
X144330395Y-82545000D01*
X144689605Y-82545000D01*
X145645413Y-83500808D01*
X145909814Y-83405044D01*
X146050704Y-83115429D01*
X146132384Y-82803892D01*
X146151718Y-82482405D01*
X146107961Y-82163325D01*
X146002795Y-81858912D01*
X145909814Y-81684956D01*
X145645413Y-81589192D01*
X144689605Y-82545000D01*
X144330395Y-82545000D01*
X143374587Y-81589192D01*
X143110186Y-81684956D01*
X142969296Y-81974571D01*
X142887616Y-82286108D01*
X142868282Y-82607595D01*
X129067000Y-82607595D01*
X129067000Y-81409587D01*
X143554192Y-81409587D01*
X144510000Y-82365395D01*
X145465808Y-81409587D01*
X145370044Y-81145186D01*
X145080429Y-81004296D01*
X144768892Y-80922616D01*
X144447405Y-80903282D01*
X144128325Y-80947039D01*
X143823912Y-81052205D01*
X143649956Y-81145186D01*
X143554192Y-81409587D01*
X129067000Y-81409587D01*
X129067000Y-78206653D01*
X133862952Y-78206653D01*
X134018962Y-78522214D01*
X134393745Y-78713020D01*
X134798551Y-78827044D01*
X135217824Y-78859902D01*
X135635451Y-78810334D01*
X136035383Y-78680243D01*
X136331038Y-78522214D01*
X136487048Y-78206653D01*
X135175000Y-76894605D01*
X133862952Y-78206653D01*
X129067000Y-78206653D01*
X129067000Y-76757824D01*
X133030098Y-76757824D01*
X133079666Y-77175451D01*
X133209757Y-77575383D01*
X133367786Y-77871038D01*
X133683347Y-78027048D01*
X134995395Y-76715000D01*
X135354605Y-76715000D01*
X136666653Y-78027048D01*
X136982214Y-77871038D01*
X137046381Y-77745000D01*
X142871928Y-77745000D01*
X142871928Y-79745000D01*
X142884188Y-79869482D01*
X142920498Y-79989180D01*
X142979463Y-80099494D01*
X143058815Y-80196185D01*
X143155506Y-80275537D01*
X143265820Y-80334502D01*
X143385518Y-80370812D01*
X143510000Y-80383072D01*
X145510000Y-80383072D01*
X145634482Y-80370812D01*
X145754180Y-80334502D01*
X145864494Y-80275537D01*
X145878551Y-80264000D01*
X190286718Y-80264000D01*
X190315776Y-80559032D01*
X190401834Y-80842725D01*
X190541583Y-81104179D01*
X190729655Y-81333345D01*
X190958821Y-81521417D01*
X190982362Y-81534000D01*
X190958821Y-81546583D01*
X190729655Y-81734655D01*
X190541583Y-81963821D01*
X190401834Y-82225275D01*
X190315776Y-82508968D01*
X190286718Y-82804000D01*
X190315776Y-83099032D01*
X190401834Y-83382725D01*
X190541583Y-83644179D01*
X190729655Y-83873345D01*
X190958821Y-84061417D01*
X190982362Y-84074000D01*
X190958821Y-84086583D01*
X190729655Y-84274655D01*
X190541583Y-84503821D01*
X190401834Y-84765275D01*
X190315776Y-85048968D01*
X190286718Y-85344000D01*
X190315776Y-85639032D01*
X190401834Y-85922725D01*
X190541583Y-86184179D01*
X190729655Y-86413345D01*
X190958821Y-86601417D01*
X190987152Y-86616560D01*
X190846567Y-86709292D01*
X190635694Y-86917674D01*
X190469526Y-87163191D01*
X190354449Y-87436409D01*
X190337698Y-87523969D01*
X190458754Y-87757000D01*
X191897000Y-87757000D01*
X191897000Y-87737000D01*
X192151000Y-87737000D01*
X192151000Y-87757000D01*
X193589246Y-87757000D01*
X193710302Y-87523969D01*
X193693551Y-87436409D01*
X193578474Y-87163191D01*
X193412306Y-86917674D01*
X193201433Y-86709292D01*
X193060848Y-86616560D01*
X193089179Y-86601417D01*
X193318345Y-86413345D01*
X193506417Y-86184179D01*
X193646166Y-85922725D01*
X193732224Y-85639032D01*
X193761282Y-85344000D01*
X193732224Y-85048968D01*
X193646166Y-84765275D01*
X193506417Y-84503821D01*
X193318345Y-84274655D01*
X193089179Y-84086583D01*
X193065638Y-84074000D01*
X193089179Y-84061417D01*
X193318345Y-83873345D01*
X193506417Y-83644179D01*
X193646166Y-83382725D01*
X193732224Y-83099032D01*
X193761282Y-82804000D01*
X193732224Y-82508968D01*
X193646166Y-82225275D01*
X193506417Y-81963821D01*
X193318345Y-81734655D01*
X193089179Y-81546583D01*
X193065638Y-81534000D01*
X193089179Y-81521417D01*
X193318345Y-81333345D01*
X193506417Y-81104179D01*
X193646166Y-80842725D01*
X193732224Y-80559032D01*
X193761282Y-80264000D01*
X193732224Y-79968968D01*
X193646166Y-79685275D01*
X193506417Y-79423821D01*
X193318345Y-79194655D01*
X193252886Y-79140934D01*
X193362387Y-79082405D01*
X193496962Y-78971962D01*
X193607405Y-78837387D01*
X193689472Y-78683851D01*
X193740008Y-78517255D01*
X193757072Y-78344001D01*
X193757072Y-77103999D01*
X193740008Y-76930745D01*
X193689472Y-76764149D01*
X193607405Y-76610613D01*
X193496962Y-76476038D01*
X193362387Y-76365595D01*
X193208851Y-76283528D01*
X193042255Y-76232992D01*
X192869001Y-76215928D01*
X191178999Y-76215928D01*
X191005745Y-76232992D01*
X190839149Y-76283528D01*
X190685613Y-76365595D01*
X190551038Y-76476038D01*
X190440595Y-76610613D01*
X190358528Y-76764149D01*
X190307992Y-76930745D01*
X190290928Y-77103999D01*
X190290928Y-78344001D01*
X190307992Y-78517255D01*
X190358528Y-78683851D01*
X190440595Y-78837387D01*
X190551038Y-78971962D01*
X190685613Y-79082405D01*
X190795114Y-79140934D01*
X190729655Y-79194655D01*
X190541583Y-79423821D01*
X190401834Y-79685275D01*
X190315776Y-79968968D01*
X190286718Y-80264000D01*
X145878551Y-80264000D01*
X145961185Y-80196185D01*
X146040537Y-80099494D01*
X146099502Y-79989180D01*
X146135812Y-79869482D01*
X146148072Y-79745000D01*
X146148072Y-77745000D01*
X146135812Y-77620518D01*
X146099502Y-77500820D01*
X146040537Y-77390506D01*
X145961185Y-77293815D01*
X145864494Y-77214463D01*
X145754180Y-77155498D01*
X145634482Y-77119188D01*
X145510000Y-77106928D01*
X143510000Y-77106928D01*
X143385518Y-77119188D01*
X143265820Y-77155498D01*
X143155506Y-77214463D01*
X143058815Y-77293815D01*
X142979463Y-77390506D01*
X142920498Y-77500820D01*
X142884188Y-77620518D01*
X142871928Y-77745000D01*
X137046381Y-77745000D01*
X137173020Y-77496255D01*
X137287044Y-77091449D01*
X137319902Y-76672176D01*
X137270334Y-76254549D01*
X137140243Y-75854617D01*
X136982214Y-75558962D01*
X136666653Y-75402952D01*
X135354605Y-76715000D01*
X134995395Y-76715000D01*
X133683347Y-75402952D01*
X133367786Y-75558962D01*
X133176980Y-75933745D01*
X133062956Y-76338551D01*
X133030098Y-76757824D01*
X129067000Y-76757824D01*
X129067000Y-75223347D01*
X133862952Y-75223347D01*
X135175000Y-76535395D01*
X136487048Y-75223347D01*
X136331038Y-74907786D01*
X135956255Y-74716980D01*
X135551449Y-74602956D01*
X135132176Y-74570098D01*
X134714549Y-74619666D01*
X134314617Y-74749757D01*
X134018962Y-74907786D01*
X133862952Y-75223347D01*
X129067000Y-75223347D01*
X129067000Y-74295000D01*
X129064560Y-74270224D01*
X129057333Y-74246399D01*
X129045597Y-74224443D01*
X129029803Y-74205197D01*
X129010557Y-74189403D01*
X128988601Y-74177667D01*
X128964776Y-74170440D01*
X128940000Y-74168000D01*
X101127000Y-74168000D01*
X101127000Y-70003118D01*
X101145802Y-69620390D01*
X101201568Y-69244451D01*
X101261547Y-69004999D01*
X121681928Y-69004999D01*
X121681928Y-70695001D01*
X121698992Y-70868255D01*
X121749528Y-71034851D01*
X121831595Y-71188387D01*
X121942038Y-71322962D01*
X122076613Y-71433405D01*
X122230149Y-71515472D01*
X122396745Y-71566008D01*
X122569999Y-71583072D01*
X123810001Y-71583072D01*
X123983255Y-71566008D01*
X124149851Y-71515472D01*
X124303387Y-71433405D01*
X124437962Y-71322962D01*
X124548405Y-71188387D01*
X124606934Y-71078886D01*
X124660655Y-71144345D01*
X124889822Y-71332417D01*
X125151276Y-71472166D01*
X125434969Y-71558224D01*
X125730000Y-71587282D01*
X126025032Y-71558224D01*
X126308725Y-71472166D01*
X126570179Y-71332417D01*
X126799345Y-71144345D01*
X126987417Y-70915179D01*
X127002560Y-70886848D01*
X127095292Y-71027433D01*
X127303674Y-71238306D01*
X127549191Y-71404474D01*
X127822409Y-71519551D01*
X127909969Y-71536302D01*
X128143000Y-71415246D01*
X128143000Y-69977000D01*
X128397000Y-69977000D01*
X128397000Y-71415246D01*
X128630031Y-71536302D01*
X128717591Y-71519551D01*
X128990809Y-71404474D01*
X129236326Y-71238306D01*
X129444708Y-71027433D01*
X129607947Y-70779958D01*
X129719769Y-70505392D01*
X129775877Y-70214286D01*
X129620376Y-69977000D01*
X128397000Y-69977000D01*
X128143000Y-69977000D01*
X128123000Y-69977000D01*
X128123000Y-69723000D01*
X128143000Y-69723000D01*
X128143000Y-68284754D01*
X128397000Y-68284754D01*
X128397000Y-69723000D01*
X129620376Y-69723000D01*
X129775877Y-69485714D01*
X129719769Y-69194608D01*
X129640512Y-69000000D01*
X139846928Y-69000000D01*
X139846928Y-70700000D01*
X139859188Y-70824482D01*
X139895498Y-70944180D01*
X139954463Y-71054494D01*
X140033815Y-71151185D01*
X140130506Y-71230537D01*
X140240820Y-71289502D01*
X140360518Y-71325812D01*
X140485000Y-71338072D01*
X142185000Y-71338072D01*
X142309482Y-71325812D01*
X142429180Y-71289502D01*
X142539494Y-71230537D01*
X142636185Y-71151185D01*
X142715537Y-71054494D01*
X142774502Y-70944180D01*
X142796513Y-70871620D01*
X142928368Y-71003475D01*
X143171589Y-71165990D01*
X143441842Y-71277932D01*
X143728740Y-71335000D01*
X144021260Y-71335000D01*
X144308158Y-71277932D01*
X144578411Y-71165990D01*
X144821632Y-71003475D01*
X145028475Y-70796632D01*
X145145000Y-70622240D01*
X145261525Y-70796632D01*
X145468368Y-71003475D01*
X145711589Y-71165990D01*
X145981842Y-71277932D01*
X146268740Y-71335000D01*
X146561260Y-71335000D01*
X146848158Y-71277932D01*
X147118411Y-71165990D01*
X147361632Y-71003475D01*
X147568475Y-70796632D01*
X147685000Y-70622240D01*
X147801525Y-70796632D01*
X148008368Y-71003475D01*
X148251589Y-71165990D01*
X148521842Y-71277932D01*
X148808740Y-71335000D01*
X149101260Y-71335000D01*
X149388158Y-71277932D01*
X149658411Y-71165990D01*
X149901632Y-71003475D01*
X150108475Y-70796632D01*
X150230195Y-70614466D01*
X150299822Y-70731355D01*
X150494731Y-70947588D01*
X150728080Y-71121641D01*
X150990901Y-71246825D01*
X151138110Y-71291476D01*
X151368000Y-71170155D01*
X151368000Y-69977000D01*
X151348000Y-69977000D01*
X151348000Y-69723000D01*
X151368000Y-69723000D01*
X151368000Y-68529845D01*
X151622000Y-68529845D01*
X151622000Y-69723000D01*
X151642000Y-69723000D01*
X151642000Y-69977000D01*
X151622000Y-69977000D01*
X151622000Y-71170155D01*
X151851890Y-71291476D01*
X151999099Y-71246825D01*
X152261920Y-71121641D01*
X152495269Y-70947588D01*
X152690178Y-70731355D01*
X152759805Y-70614466D01*
X152881525Y-70796632D01*
X153088368Y-71003475D01*
X153331589Y-71165990D01*
X153601842Y-71277932D01*
X153888740Y-71335000D01*
X154181260Y-71335000D01*
X154468158Y-71277932D01*
X154738411Y-71165990D01*
X154981632Y-71003475D01*
X155188475Y-70796632D01*
X155350990Y-70553411D01*
X155462932Y-70283158D01*
X155520000Y-69996260D01*
X155520000Y-69703740D01*
X155462932Y-69416842D01*
X155350990Y-69146589D01*
X155188475Y-68903368D01*
X154981632Y-68696525D01*
X154738411Y-68534010D01*
X154468158Y-68422068D01*
X154181260Y-68365000D01*
X153888740Y-68365000D01*
X153601842Y-68422068D01*
X153331589Y-68534010D01*
X153088368Y-68696525D01*
X152881525Y-68903368D01*
X152759805Y-69085534D01*
X152690178Y-68968645D01*
X152495269Y-68752412D01*
X152261920Y-68578359D01*
X151999099Y-68453175D01*
X151851890Y-68408524D01*
X151622000Y-68529845D01*
X151368000Y-68529845D01*
X151138110Y-68408524D01*
X150990901Y-68453175D01*
X150728080Y-68578359D01*
X150494731Y-68752412D01*
X150299822Y-68968645D01*
X150230195Y-69085534D01*
X150108475Y-68903368D01*
X149901632Y-68696525D01*
X149658411Y-68534010D01*
X149388158Y-68422068D01*
X149101260Y-68365000D01*
X148808740Y-68365000D01*
X148521842Y-68422068D01*
X148251589Y-68534010D01*
X148008368Y-68696525D01*
X147801525Y-68903368D01*
X147685000Y-69077760D01*
X147568475Y-68903368D01*
X147361632Y-68696525D01*
X147118411Y-68534010D01*
X146848158Y-68422068D01*
X146561260Y-68365000D01*
X146268740Y-68365000D01*
X145981842Y-68422068D01*
X145711589Y-68534010D01*
X145468368Y-68696525D01*
X145261525Y-68903368D01*
X145145000Y-69077760D01*
X145028475Y-68903368D01*
X144821632Y-68696525D01*
X144578411Y-68534010D01*
X144308158Y-68422068D01*
X144021260Y-68365000D01*
X143728740Y-68365000D01*
X143441842Y-68422068D01*
X143171589Y-68534010D01*
X142928368Y-68696525D01*
X142796513Y-68828380D01*
X142774502Y-68755820D01*
X142715537Y-68645506D01*
X142636185Y-68548815D01*
X142539494Y-68469463D01*
X142429180Y-68410498D01*
X142309482Y-68374188D01*
X142185000Y-68361928D01*
X140485000Y-68361928D01*
X140360518Y-68374188D01*
X140240820Y-68410498D01*
X140130506Y-68469463D01*
X140033815Y-68548815D01*
X139954463Y-68645506D01*
X139895498Y-68755820D01*
X139859188Y-68875518D01*
X139846928Y-69000000D01*
X129640512Y-69000000D01*
X129607947Y-68920042D01*
X129444708Y-68672567D01*
X129236326Y-68461694D01*
X128990809Y-68295526D01*
X128717591Y-68180449D01*
X128630031Y-68163698D01*
X128397000Y-68284754D01*
X128143000Y-68284754D01*
X127909969Y-68163698D01*
X127822409Y-68180449D01*
X127549191Y-68295526D01*
X127303674Y-68461694D01*
X127095292Y-68672567D01*
X127002560Y-68813152D01*
X126987417Y-68784821D01*
X126799345Y-68555655D01*
X126570178Y-68367583D01*
X126308724Y-68227834D01*
X126025031Y-68141776D01*
X125730000Y-68112718D01*
X125434968Y-68141776D01*
X125151275Y-68227834D01*
X124889821Y-68367583D01*
X124660655Y-68555655D01*
X124606935Y-68621114D01*
X124548405Y-68511613D01*
X124437962Y-68377038D01*
X124303387Y-68266595D01*
X124149851Y-68184528D01*
X123983255Y-68133992D01*
X123810001Y-68116928D01*
X122569999Y-68116928D01*
X122396745Y-68133992D01*
X122230149Y-68184528D01*
X122076613Y-68266595D01*
X121942038Y-68377038D01*
X121831595Y-68511613D01*
X121749528Y-68665149D01*
X121698992Y-68831745D01*
X121681928Y-69004999D01*
X101261547Y-69004999D01*
X101293918Y-68875769D01*
X101421954Y-68517931D01*
X101584459Y-68174343D01*
X101779844Y-67848364D01*
X102006247Y-67543095D01*
X102261484Y-67261484D01*
X102543095Y-67006247D01*
X102848364Y-66779844D01*
X103174343Y-66584459D01*
X103517931Y-66421954D01*
X103875769Y-66293918D01*
X104244451Y-66201568D01*
X104620390Y-66145802D01*
X105003118Y-66127000D01*
X153577394Y-66127000D01*
X161200197Y-73749803D01*
G37*
%TD.AperFunction*%
%TD*%
M02*
