%TF.GenerationSoftware,KiCad,Pcbnew,(5.1.10)-1*%
%TF.CreationDate,2021-10-13T22:05:38-03:00*%
%TF.ProjectId,kicad,6b696361-642e-46b6-9963-61645f706362,rev?*%
%TF.SameCoordinates,Original*%
%TF.FileFunction,Soldermask,Top*%
%TF.FilePolarity,Negative*%
%FSLAX46Y46*%
G04 Gerber Fmt 4.6, Leading zero omitted, Abs format (unit mm)*
G04 Created by KiCad (PCBNEW (5.1.10)-1) date 2021-10-13 22:05:38*
%MOMM*%
%LPD*%
G01*
G04 APERTURE LIST*
%ADD10C,0.250000*%
%ADD11C,0.100000*%
%ADD12C,7.000000*%
%ADD13R,0.900000X0.800000*%
%ADD14C,3.000000*%
%ADD15R,3.000000X3.000000*%
%ADD16O,2.200000X4.000000*%
%ADD17O,4.000000X2.200000*%
%ADD18R,4.000000X2.200000*%
%ADD19R,2.000000X2.000000*%
%ADD20C,2.000000*%
%ADD21O,1.740000X2.190000*%
%ADD22O,2.190000X1.740000*%
%ADD23R,1.100000X2.500000*%
%ADD24R,2.500000X1.100000*%
%ADD25R,1.100000X0.250000*%
%ADD26C,2.500000*%
%ADD27O,1.700000X1.700000*%
%ADD28R,1.700000X1.700000*%
%ADD29R,1.800000X3.500000*%
G04 APERTURE END LIST*
D10*
X196342095Y-87384000D02*
X196246857Y-87336380D01*
X196104000Y-87336380D01*
X195961142Y-87384000D01*
X195865904Y-87479238D01*
X195818285Y-87574476D01*
X195770666Y-87764952D01*
X195770666Y-87907809D01*
X195818285Y-88098285D01*
X195865904Y-88193523D01*
X195961142Y-88288761D01*
X196104000Y-88336380D01*
X196199238Y-88336380D01*
X196342095Y-88288761D01*
X196389714Y-88241142D01*
X196389714Y-87907809D01*
X196199238Y-87907809D01*
X196818285Y-88336380D02*
X196818285Y-87336380D01*
X197389714Y-88336380D01*
X197389714Y-87336380D01*
X197865904Y-88336380D02*
X197865904Y-87336380D01*
X198104000Y-87336380D01*
X198246857Y-87384000D01*
X198342095Y-87479238D01*
X198389714Y-87574476D01*
X198437333Y-87764952D01*
X198437333Y-87907809D01*
X198389714Y-88098285D01*
X198342095Y-88193523D01*
X198246857Y-88288761D01*
X198104000Y-88336380D01*
X197865904Y-88336380D01*
X196437333Y-84796380D02*
X195961142Y-84796380D01*
X195913523Y-85272571D01*
X195961142Y-85224952D01*
X196056380Y-85177333D01*
X196294476Y-85177333D01*
X196389714Y-85224952D01*
X196437333Y-85272571D01*
X196484952Y-85367809D01*
X196484952Y-85605904D01*
X196437333Y-85701142D01*
X196389714Y-85748761D01*
X196294476Y-85796380D01*
X196056380Y-85796380D01*
X195961142Y-85748761D01*
X195913523Y-85701142D01*
X196770666Y-84796380D02*
X197104000Y-85796380D01*
X197437333Y-84796380D01*
X197961142Y-84796380D02*
X198056380Y-84796380D01*
X198151619Y-84844000D01*
X198199238Y-84891619D01*
X198246857Y-84986857D01*
X198294476Y-85177333D01*
X198294476Y-85415428D01*
X198246857Y-85605904D01*
X198199238Y-85701142D01*
X198151619Y-85748761D01*
X198056380Y-85796380D01*
X197961142Y-85796380D01*
X197865904Y-85748761D01*
X197818285Y-85701142D01*
X197770666Y-85605904D01*
X197723047Y-85415428D01*
X197723047Y-85177333D01*
X197770666Y-84986857D01*
X197818285Y-84891619D01*
X197865904Y-84844000D01*
X197961142Y-84796380D01*
X195865904Y-82256380D02*
X196484952Y-82256380D01*
X196151619Y-82637333D01*
X196294476Y-82637333D01*
X196389714Y-82684952D01*
X196437333Y-82732571D01*
X196484952Y-82827809D01*
X196484952Y-83065904D01*
X196437333Y-83161142D01*
X196389714Y-83208761D01*
X196294476Y-83256380D01*
X196008761Y-83256380D01*
X195913523Y-83208761D01*
X195865904Y-83161142D01*
X196770666Y-82256380D02*
X197104000Y-83256380D01*
X197437333Y-82256380D01*
X197675428Y-82256380D02*
X198294476Y-82256380D01*
X197961142Y-82637333D01*
X198104000Y-82637333D01*
X198199238Y-82684952D01*
X198246857Y-82732571D01*
X198294476Y-82827809D01*
X198294476Y-83065904D01*
X198246857Y-83161142D01*
X198199238Y-83208761D01*
X198104000Y-83256380D01*
X197818285Y-83256380D01*
X197723047Y-83208761D01*
X197675428Y-83161142D01*
X195889714Y-80668761D02*
X196032571Y-80716380D01*
X196270666Y-80716380D01*
X196365904Y-80668761D01*
X196413523Y-80621142D01*
X196461142Y-80525904D01*
X196461142Y-80430666D01*
X196413523Y-80335428D01*
X196365904Y-80287809D01*
X196270666Y-80240190D01*
X196080190Y-80192571D01*
X195984952Y-80144952D01*
X195937333Y-80097333D01*
X195889714Y-80002095D01*
X195889714Y-79906857D01*
X195937333Y-79811619D01*
X195984952Y-79764000D01*
X196080190Y-79716380D01*
X196318285Y-79716380D01*
X196461142Y-79764000D01*
X196889714Y-80716380D02*
X196889714Y-79716380D01*
X197127809Y-79716380D01*
X197270666Y-79764000D01*
X197365904Y-79859238D01*
X197413523Y-79954476D01*
X197461142Y-80144952D01*
X197461142Y-80287809D01*
X197413523Y-80478285D01*
X197365904Y-80573523D01*
X197270666Y-80668761D01*
X197127809Y-80716380D01*
X196889714Y-80716380D01*
X197842095Y-80430666D02*
X198318285Y-80430666D01*
X197746857Y-80716380D02*
X198080190Y-79716380D01*
X198413523Y-80716380D01*
X195913523Y-78128761D02*
X196056380Y-78176380D01*
X196294476Y-78176380D01*
X196389714Y-78128761D01*
X196437333Y-78081142D01*
X196484952Y-77985904D01*
X196484952Y-77890666D01*
X196437333Y-77795428D01*
X196389714Y-77747809D01*
X196294476Y-77700190D01*
X196104000Y-77652571D01*
X196008761Y-77604952D01*
X195961142Y-77557333D01*
X195913523Y-77462095D01*
X195913523Y-77366857D01*
X195961142Y-77271619D01*
X196008761Y-77224000D01*
X196104000Y-77176380D01*
X196342095Y-77176380D01*
X196484952Y-77224000D01*
X197484952Y-78081142D02*
X197437333Y-78128761D01*
X197294476Y-78176380D01*
X197199238Y-78176380D01*
X197056380Y-78128761D01*
X196961142Y-78033523D01*
X196913523Y-77938285D01*
X196865904Y-77747809D01*
X196865904Y-77604952D01*
X196913523Y-77414476D01*
X196961142Y-77319238D01*
X197056380Y-77224000D01*
X197199238Y-77176380D01*
X197294476Y-77176380D01*
X197437333Y-77224000D01*
X197484952Y-77271619D01*
X198389714Y-78176380D02*
X197913523Y-78176380D01*
X197913523Y-77176380D01*
D11*
G36*
X168500000Y-135000000D02*
G01*
X161500000Y-135000000D01*
X161500000Y-130000000D01*
X168500000Y-130000000D01*
X168500000Y-135000000D01*
G37*
X168500000Y-135000000D02*
X161500000Y-135000000D01*
X161500000Y-130000000D01*
X168500000Y-130000000D01*
X168500000Y-135000000D01*
G36*
X108500000Y-70000000D02*
G01*
X105000000Y-73500000D01*
X100000000Y-73500000D01*
X100000000Y-65000000D01*
X108500000Y-65000000D01*
X108500000Y-70000000D01*
G37*
X108500000Y-70000000D02*
X105000000Y-73500000D01*
X100000000Y-73500000D01*
X100000000Y-65000000D01*
X108500000Y-65000000D01*
X108500000Y-70000000D01*
G36*
X200000000Y-73500000D02*
G01*
X195000000Y-73500000D01*
X191500000Y-70000000D01*
X191500000Y-65000000D01*
X200000000Y-65000000D01*
X200000000Y-73500000D01*
G37*
X200000000Y-73500000D02*
X195000000Y-73500000D01*
X191500000Y-70000000D01*
X191500000Y-65000000D01*
X200000000Y-65000000D01*
X200000000Y-73500000D01*
G36*
X200000000Y-135000000D02*
G01*
X191500000Y-135000000D01*
X191500000Y-130000000D01*
X195000000Y-126500000D01*
X200000000Y-126500000D01*
X200000000Y-135000000D01*
G37*
X200000000Y-135000000D02*
X191500000Y-135000000D01*
X191500000Y-130000000D01*
X195000000Y-126500000D01*
X200000000Y-126500000D01*
X200000000Y-135000000D01*
G36*
X108500000Y-130000000D02*
G01*
X108500000Y-135000000D01*
X100000000Y-135000000D01*
X100000000Y-126500000D01*
X105000000Y-126500000D01*
X108500000Y-130000000D01*
G37*
X108500000Y-130000000D02*
X108500000Y-135000000D01*
X100000000Y-135000000D01*
X100000000Y-126500000D01*
X105000000Y-126500000D01*
X108500000Y-130000000D01*
D12*
%TO.C,REF\u002A\u002A*%
X165000000Y-130000000D03*
%TD*%
%TO.C,REF\u002A\u002A*%
X195000000Y-130000000D03*
%TD*%
D13*
%TO.C,Q2*%
X163290000Y-120015000D03*
X161290000Y-120965000D03*
X161290000Y-119065000D03*
%TD*%
D12*
%TO.C,REF\u002A\u002A*%
X195000000Y-70000000D03*
%TD*%
%TO.C,REF\u002A\u002A*%
X105000000Y-70000000D03*
%TD*%
%TO.C,REF\u002A\u002A*%
X105000000Y-130000000D03*
%TD*%
D14*
%TO.C,J5*%
X126095000Y-123825000D03*
D15*
X126095000Y-118745000D03*
%TD*%
D14*
%TO.C,J8*%
X193405000Y-112395000D03*
X193405000Y-117475000D03*
D15*
X193405000Y-122555000D03*
%TD*%
D14*
%TO.C,PS1*%
X135175000Y-92115000D03*
X105775000Y-86915000D03*
D15*
X105775000Y-81915000D03*
D14*
X135175000Y-76715000D03*
%TD*%
%TO.C,T1*%
X132365000Y-111125000D03*
X122365000Y-111125000D03*
X132365000Y-98425000D03*
D15*
X122365000Y-98425000D03*
%TD*%
%TO.C,R11*%
G36*
G01*
X140627500Y-116214999D02*
X140627500Y-117465001D01*
G75*
G02*
X140377501Y-117715000I-249999J0D01*
G01*
X139752499Y-117715000D01*
G75*
G02*
X139502500Y-117465001I0J249999D01*
G01*
X139502500Y-116214999D01*
G75*
G02*
X139752499Y-115965000I249999J0D01*
G01*
X140377501Y-115965000D01*
G75*
G02*
X140627500Y-116214999I0J-249999D01*
G01*
G37*
G36*
G01*
X143552500Y-116214999D02*
X143552500Y-117465001D01*
G75*
G02*
X143302501Y-117715000I-249999J0D01*
G01*
X142677499Y-117715000D01*
G75*
G02*
X142427500Y-117465001I0J249999D01*
G01*
X142427500Y-116214999D01*
G75*
G02*
X142677499Y-115965000I249999J0D01*
G01*
X143302501Y-115965000D01*
G75*
G02*
X143552500Y-116214999I0J-249999D01*
G01*
G37*
%TD*%
%TO.C,R10*%
G36*
G01*
X140627500Y-104784999D02*
X140627500Y-106035001D01*
G75*
G02*
X140377501Y-106285000I-249999J0D01*
G01*
X139752499Y-106285000D01*
G75*
G02*
X139502500Y-106035001I0J249999D01*
G01*
X139502500Y-104784999D01*
G75*
G02*
X139752499Y-104535000I249999J0D01*
G01*
X140377501Y-104535000D01*
G75*
G02*
X140627500Y-104784999I0J-249999D01*
G01*
G37*
G36*
G01*
X143552500Y-104784999D02*
X143552500Y-106035001D01*
G75*
G02*
X143302501Y-106285000I-249999J0D01*
G01*
X142677499Y-106285000D01*
G75*
G02*
X142427500Y-106035001I0J249999D01*
G01*
X142427500Y-104784999D01*
G75*
G02*
X142677499Y-104535000I249999J0D01*
G01*
X143302501Y-104535000D01*
G75*
G02*
X143552500Y-104784999I0J-249999D01*
G01*
G37*
%TD*%
%TO.C,R13*%
G36*
G01*
X146977500Y-112404999D02*
X146977500Y-113655001D01*
G75*
G02*
X146727501Y-113905000I-249999J0D01*
G01*
X146102499Y-113905000D01*
G75*
G02*
X145852500Y-113655001I0J249999D01*
G01*
X145852500Y-112404999D01*
G75*
G02*
X146102499Y-112155000I249999J0D01*
G01*
X146727501Y-112155000D01*
G75*
G02*
X146977500Y-112404999I0J-249999D01*
G01*
G37*
G36*
G01*
X149902500Y-112404999D02*
X149902500Y-113655001D01*
G75*
G02*
X149652501Y-113905000I-249999J0D01*
G01*
X149027499Y-113905000D01*
G75*
G02*
X148777500Y-113655001I0J249999D01*
G01*
X148777500Y-112404999D01*
G75*
G02*
X149027499Y-112155000I249999J0D01*
G01*
X149652501Y-112155000D01*
G75*
G02*
X149902500Y-112404999I0J-249999D01*
G01*
G37*
%TD*%
%TO.C,R12*%
G36*
G01*
X146977500Y-108594999D02*
X146977500Y-109845001D01*
G75*
G02*
X146727501Y-110095000I-249999J0D01*
G01*
X146102499Y-110095000D01*
G75*
G02*
X145852500Y-109845001I0J249999D01*
G01*
X145852500Y-108594999D01*
G75*
G02*
X146102499Y-108345000I249999J0D01*
G01*
X146727501Y-108345000D01*
G75*
G02*
X146977500Y-108594999I0J-249999D01*
G01*
G37*
G36*
G01*
X149902500Y-108594999D02*
X149902500Y-109845001D01*
G75*
G02*
X149652501Y-110095000I-249999J0D01*
G01*
X149027499Y-110095000D01*
G75*
G02*
X148777500Y-109845001I0J249999D01*
G01*
X148777500Y-108594999D01*
G75*
G02*
X149027499Y-108345000I249999J0D01*
G01*
X149652501Y-108345000D01*
G75*
G02*
X149902500Y-108594999I0J-249999D01*
G01*
G37*
%TD*%
%TO.C,C4*%
G36*
G01*
X140727500Y-108569999D02*
X140727500Y-109870001D01*
G75*
G02*
X140477501Y-110120000I-249999J0D01*
G01*
X139652499Y-110120000D01*
G75*
G02*
X139402500Y-109870001I0J249999D01*
G01*
X139402500Y-108569999D01*
G75*
G02*
X139652499Y-108320000I249999J0D01*
G01*
X140477501Y-108320000D01*
G75*
G02*
X140727500Y-108569999I0J-249999D01*
G01*
G37*
G36*
G01*
X143852500Y-108569999D02*
X143852500Y-109870001D01*
G75*
G02*
X143602501Y-110120000I-249999J0D01*
G01*
X142777499Y-110120000D01*
G75*
G02*
X142527500Y-109870001I0J249999D01*
G01*
X142527500Y-108569999D01*
G75*
G02*
X142777499Y-108320000I249999J0D01*
G01*
X143602501Y-108320000D01*
G75*
G02*
X143852500Y-108569999I0J-249999D01*
G01*
G37*
%TD*%
%TO.C,C5*%
G36*
G01*
X140727500Y-112379999D02*
X140727500Y-113680001D01*
G75*
G02*
X140477501Y-113930000I-249999J0D01*
G01*
X139652499Y-113930000D01*
G75*
G02*
X139402500Y-113680001I0J249999D01*
G01*
X139402500Y-112379999D01*
G75*
G02*
X139652499Y-112130000I249999J0D01*
G01*
X140477501Y-112130000D01*
G75*
G02*
X140727500Y-112379999I0J-249999D01*
G01*
G37*
G36*
G01*
X143852500Y-112379999D02*
X143852500Y-113680001D01*
G75*
G02*
X143602501Y-113930000I-249999J0D01*
G01*
X142777499Y-113930000D01*
G75*
G02*
X142527500Y-113680001I0J249999D01*
G01*
X142527500Y-112379999D01*
G75*
G02*
X142777499Y-112130000I249999J0D01*
G01*
X143602501Y-112130000D01*
G75*
G02*
X143852500Y-112379999I0J-249999D01*
G01*
G37*
%TD*%
D16*
%TO.C,J4*%
X108225000Y-121765000D03*
D17*
X116225000Y-116565000D03*
X115025000Y-119265000D03*
D16*
X119425000Y-125865000D03*
D18*
X112125000Y-126365000D03*
%TD*%
D14*
%TO.C,J2*%
X107045000Y-102235000D03*
D15*
X107045000Y-107315000D03*
%TD*%
D19*
%TO.C,C8*%
X144510000Y-95245000D03*
D20*
X144510000Y-91445000D03*
G36*
G01*
X145510000Y-99345000D02*
X143510000Y-99345000D01*
G75*
G02*
X143260000Y-99095000I0J250000D01*
G01*
X143260000Y-95595000D01*
G75*
G02*
X143510000Y-95345000I250000J0D01*
G01*
X145510000Y-95345000D01*
G75*
G02*
X145760000Y-95595000I0J-250000D01*
G01*
X145760000Y-99095000D01*
G75*
G02*
X145510000Y-99345000I-250000J0D01*
G01*
G37*
G36*
G01*
X145510000Y-91345000D02*
X143510000Y-91345000D01*
G75*
G02*
X143260000Y-91095000I0J250000D01*
G01*
X143260000Y-87595000D01*
G75*
G02*
X143510000Y-87345000I250000J0D01*
G01*
X145510000Y-87345000D01*
G75*
G02*
X145760000Y-87595000I0J-250000D01*
G01*
X145760000Y-91095000D01*
G75*
G02*
X145510000Y-91345000I-250000J0D01*
G01*
G37*
%TD*%
D19*
%TO.C,C3*%
X144510000Y-78745000D03*
D20*
X144510000Y-82545000D03*
G36*
G01*
X143510000Y-74645000D02*
X145510000Y-74645000D01*
G75*
G02*
X145760000Y-74895000I0J-250000D01*
G01*
X145760000Y-78395000D01*
G75*
G02*
X145510000Y-78645000I-250000J0D01*
G01*
X143510000Y-78645000D01*
G75*
G02*
X143260000Y-78395000I0J250000D01*
G01*
X143260000Y-74895000D01*
G75*
G02*
X143510000Y-74645000I250000J0D01*
G01*
G37*
G36*
G01*
X143510000Y-82645000D02*
X145510000Y-82645000D01*
G75*
G02*
X145760000Y-82895000I0J-250000D01*
G01*
X145760000Y-86395000D01*
G75*
G02*
X145510000Y-86645000I-250000J0D01*
G01*
X143510000Y-86645000D01*
G75*
G02*
X143260000Y-86395000I0J250000D01*
G01*
X143260000Y-82895000D01*
G75*
G02*
X143510000Y-82645000I250000J0D01*
G01*
G37*
%TD*%
%TO.C,C1*%
G36*
G01*
X133365001Y-69022500D02*
X132064999Y-69022500D01*
G75*
G02*
X131815000Y-68772501I0J249999D01*
G01*
X131815000Y-67947499D01*
G75*
G02*
X132064999Y-67697500I249999J0D01*
G01*
X133365001Y-67697500D01*
G75*
G02*
X133615000Y-67947499I0J-249999D01*
G01*
X133615000Y-68772501D01*
G75*
G02*
X133365001Y-69022500I-249999J0D01*
G01*
G37*
G36*
G01*
X133365001Y-72147500D02*
X132064999Y-72147500D01*
G75*
G02*
X131815000Y-71897501I0J249999D01*
G01*
X131815000Y-71072499D01*
G75*
G02*
X132064999Y-70822500I249999J0D01*
G01*
X133365001Y-70822500D01*
G75*
G02*
X133615000Y-71072499I0J-249999D01*
G01*
X133615000Y-71897501D01*
G75*
G02*
X133365001Y-72147500I-249999J0D01*
G01*
G37*
%TD*%
D21*
%TO.C,J1*%
X128270000Y-69850000D03*
X125730000Y-69850000D03*
G36*
G01*
X122320000Y-70695001D02*
X122320000Y-69004999D01*
G75*
G02*
X122569999Y-68755000I249999J0D01*
G01*
X123810001Y-68755000D01*
G75*
G02*
X124060000Y-69004999I0J-249999D01*
G01*
X124060000Y-70695001D01*
G75*
G02*
X123810001Y-70945000I-249999J0D01*
G01*
X122569999Y-70945000D01*
G75*
G02*
X122320000Y-70695001I0J249999D01*
G01*
G37*
%TD*%
D22*
%TO.C,J3*%
X192024000Y-87884000D03*
X192024000Y-85344000D03*
X192024000Y-82804000D03*
X192024000Y-80264000D03*
G36*
G01*
X191178999Y-76854000D02*
X192869001Y-76854000D01*
G75*
G02*
X193119000Y-77103999I0J-249999D01*
G01*
X193119000Y-78344001D01*
G75*
G02*
X192869001Y-78594000I-249999J0D01*
G01*
X191178999Y-78594000D01*
G75*
G02*
X190929000Y-78344001I0J249999D01*
G01*
X190929000Y-77103999D01*
G75*
G02*
X191178999Y-76854000I249999J0D01*
G01*
G37*
%TD*%
%TO.C,R25*%
G36*
G01*
X186492500Y-88890001D02*
X186492500Y-87639999D01*
G75*
G02*
X186742499Y-87390000I249999J0D01*
G01*
X187367501Y-87390000D01*
G75*
G02*
X187617500Y-87639999I0J-249999D01*
G01*
X187617500Y-88890001D01*
G75*
G02*
X187367501Y-89140000I-249999J0D01*
G01*
X186742499Y-89140000D01*
G75*
G02*
X186492500Y-88890001I0J249999D01*
G01*
G37*
G36*
G01*
X183567500Y-88890001D02*
X183567500Y-87639999D01*
G75*
G02*
X183817499Y-87390000I249999J0D01*
G01*
X184442501Y-87390000D01*
G75*
G02*
X184692500Y-87639999I0J-249999D01*
G01*
X184692500Y-88890001D01*
G75*
G02*
X184442501Y-89140000I-249999J0D01*
G01*
X183817499Y-89140000D01*
G75*
G02*
X183567500Y-88890001I0J249999D01*
G01*
G37*
%TD*%
%TO.C,R24*%
G36*
G01*
X184692500Y-85099999D02*
X184692500Y-86350001D01*
G75*
G02*
X184442501Y-86600000I-249999J0D01*
G01*
X183817499Y-86600000D01*
G75*
G02*
X183567500Y-86350001I0J249999D01*
G01*
X183567500Y-85099999D01*
G75*
G02*
X183817499Y-84850000I249999J0D01*
G01*
X184442501Y-84850000D01*
G75*
G02*
X184692500Y-85099999I0J-249999D01*
G01*
G37*
G36*
G01*
X187617500Y-85099999D02*
X187617500Y-86350001D01*
G75*
G02*
X187367501Y-86600000I-249999J0D01*
G01*
X186742499Y-86600000D01*
G75*
G02*
X186492500Y-86350001I0J249999D01*
G01*
X186492500Y-85099999D01*
G75*
G02*
X186742499Y-84850000I249999J0D01*
G01*
X187367501Y-84850000D01*
G75*
G02*
X187617500Y-85099999I0J-249999D01*
G01*
G37*
%TD*%
%TO.C,R23*%
G36*
G01*
X157597001Y-97082500D02*
X156346999Y-97082500D01*
G75*
G02*
X156097000Y-96832501I0J249999D01*
G01*
X156097000Y-96207499D01*
G75*
G02*
X156346999Y-95957500I249999J0D01*
G01*
X157597001Y-95957500D01*
G75*
G02*
X157847000Y-96207499I0J-249999D01*
G01*
X157847000Y-96832501D01*
G75*
G02*
X157597001Y-97082500I-249999J0D01*
G01*
G37*
G36*
G01*
X157597001Y-100007500D02*
X156346999Y-100007500D01*
G75*
G02*
X156097000Y-99757501I0J249999D01*
G01*
X156097000Y-99132499D01*
G75*
G02*
X156346999Y-98882500I249999J0D01*
G01*
X157597001Y-98882500D01*
G75*
G02*
X157847000Y-99132499I0J-249999D01*
G01*
X157847000Y-99757501D01*
G75*
G02*
X157597001Y-100007500I-249999J0D01*
G01*
G37*
%TD*%
%TO.C,R22*%
G36*
G01*
X160137001Y-97082500D02*
X158886999Y-97082500D01*
G75*
G02*
X158637000Y-96832501I0J249999D01*
G01*
X158637000Y-96207499D01*
G75*
G02*
X158886999Y-95957500I249999J0D01*
G01*
X160137001Y-95957500D01*
G75*
G02*
X160387000Y-96207499I0J-249999D01*
G01*
X160387000Y-96832501D01*
G75*
G02*
X160137001Y-97082500I-249999J0D01*
G01*
G37*
G36*
G01*
X160137001Y-100007500D02*
X158886999Y-100007500D01*
G75*
G02*
X158637000Y-99757501I0J249999D01*
G01*
X158637000Y-99132499D01*
G75*
G02*
X158886999Y-98882500I249999J0D01*
G01*
X160137001Y-98882500D01*
G75*
G02*
X160387000Y-99132499I0J-249999D01*
G01*
X160387000Y-99757501D01*
G75*
G02*
X160137001Y-100007500I-249999J0D01*
G01*
G37*
%TD*%
%TO.C,R21*%
G36*
G01*
X161664999Y-116027500D02*
X162915001Y-116027500D01*
G75*
G02*
X163165000Y-116277499I0J-249999D01*
G01*
X163165000Y-116902501D01*
G75*
G02*
X162915001Y-117152500I-249999J0D01*
G01*
X161664999Y-117152500D01*
G75*
G02*
X161415000Y-116902501I0J249999D01*
G01*
X161415000Y-116277499D01*
G75*
G02*
X161664999Y-116027500I249999J0D01*
G01*
G37*
G36*
G01*
X161664999Y-113102500D02*
X162915001Y-113102500D01*
G75*
G02*
X163165000Y-113352499I0J-249999D01*
G01*
X163165000Y-113977501D01*
G75*
G02*
X162915001Y-114227500I-249999J0D01*
G01*
X161664999Y-114227500D01*
G75*
G02*
X161415000Y-113977501I0J249999D01*
G01*
X161415000Y-113352499D01*
G75*
G02*
X161664999Y-113102500I249999J0D01*
G01*
G37*
%TD*%
%TO.C,R20*%
G36*
G01*
X161664999Y-98882500D02*
X162915001Y-98882500D01*
G75*
G02*
X163165000Y-99132499I0J-249999D01*
G01*
X163165000Y-99757501D01*
G75*
G02*
X162915001Y-100007500I-249999J0D01*
G01*
X161664999Y-100007500D01*
G75*
G02*
X161415000Y-99757501I0J249999D01*
G01*
X161415000Y-99132499D01*
G75*
G02*
X161664999Y-98882500I249999J0D01*
G01*
G37*
G36*
G01*
X161664999Y-95957500D02*
X162915001Y-95957500D01*
G75*
G02*
X163165000Y-96207499I0J-249999D01*
G01*
X163165000Y-96832501D01*
G75*
G02*
X162915001Y-97082500I-249999J0D01*
G01*
X161664999Y-97082500D01*
G75*
G02*
X161415000Y-96832501I0J249999D01*
G01*
X161415000Y-96207499D01*
G75*
G02*
X161664999Y-95957500I249999J0D01*
G01*
G37*
%TD*%
%TO.C,R19*%
G36*
G01*
X146977500Y-116214999D02*
X146977500Y-117465001D01*
G75*
G02*
X146727501Y-117715000I-249999J0D01*
G01*
X146102499Y-117715000D01*
G75*
G02*
X145852500Y-117465001I0J249999D01*
G01*
X145852500Y-116214999D01*
G75*
G02*
X146102499Y-115965000I249999J0D01*
G01*
X146727501Y-115965000D01*
G75*
G02*
X146977500Y-116214999I0J-249999D01*
G01*
G37*
G36*
G01*
X149902500Y-116214999D02*
X149902500Y-117465001D01*
G75*
G02*
X149652501Y-117715000I-249999J0D01*
G01*
X149027499Y-117715000D01*
G75*
G02*
X148777500Y-117465001I0J249999D01*
G01*
X148777500Y-116214999D01*
G75*
G02*
X149027499Y-115965000I249999J0D01*
G01*
X149652501Y-115965000D01*
G75*
G02*
X149902500Y-116214999I0J-249999D01*
G01*
G37*
%TD*%
%TO.C,R18*%
G36*
G01*
X153962500Y-116214999D02*
X153962500Y-117465001D01*
G75*
G02*
X153712501Y-117715000I-249999J0D01*
G01*
X153087499Y-117715000D01*
G75*
G02*
X152837500Y-117465001I0J249999D01*
G01*
X152837500Y-116214999D01*
G75*
G02*
X153087499Y-115965000I249999J0D01*
G01*
X153712501Y-115965000D01*
G75*
G02*
X153962500Y-116214999I0J-249999D01*
G01*
G37*
G36*
G01*
X156887500Y-116214999D02*
X156887500Y-117465001D01*
G75*
G02*
X156637501Y-117715000I-249999J0D01*
G01*
X156012499Y-117715000D01*
G75*
G02*
X155762500Y-117465001I0J249999D01*
G01*
X155762500Y-116214999D01*
G75*
G02*
X156012499Y-115965000I249999J0D01*
G01*
X156637501Y-115965000D01*
G75*
G02*
X156887500Y-116214999I0J-249999D01*
G01*
G37*
%TD*%
%TO.C,C11*%
G36*
G01*
X153019999Y-95857500D02*
X154320001Y-95857500D01*
G75*
G02*
X154570000Y-96107499I0J-249999D01*
G01*
X154570000Y-96932501D01*
G75*
G02*
X154320001Y-97182500I-249999J0D01*
G01*
X153019999Y-97182500D01*
G75*
G02*
X152770000Y-96932501I0J249999D01*
G01*
X152770000Y-96107499D01*
G75*
G02*
X153019999Y-95857500I249999J0D01*
G01*
G37*
G36*
G01*
X153019999Y-92732500D02*
X154320001Y-92732500D01*
G75*
G02*
X154570000Y-92982499I0J-249999D01*
G01*
X154570000Y-93807501D01*
G75*
G02*
X154320001Y-94057500I-249999J0D01*
G01*
X153019999Y-94057500D01*
G75*
G02*
X152770000Y-93807501I0J249999D01*
G01*
X152770000Y-92982499D01*
G75*
G02*
X153019999Y-92732500I249999J0D01*
G01*
G37*
%TD*%
%TO.C,C10*%
G36*
G01*
X150479999Y-95857500D02*
X151780001Y-95857500D01*
G75*
G02*
X152030000Y-96107499I0J-249999D01*
G01*
X152030000Y-96932501D01*
G75*
G02*
X151780001Y-97182500I-249999J0D01*
G01*
X150479999Y-97182500D01*
G75*
G02*
X150230000Y-96932501I0J249999D01*
G01*
X150230000Y-96107499D01*
G75*
G02*
X150479999Y-95857500I249999J0D01*
G01*
G37*
G36*
G01*
X150479999Y-92732500D02*
X151780001Y-92732500D01*
G75*
G02*
X152030000Y-92982499I0J-249999D01*
G01*
X152030000Y-93807501D01*
G75*
G02*
X151780001Y-94057500I-249999J0D01*
G01*
X150479999Y-94057500D01*
G75*
G02*
X150230000Y-93807501I0J249999D01*
G01*
X150230000Y-92982499D01*
G75*
G02*
X150479999Y-92732500I249999J0D01*
G01*
G37*
%TD*%
D23*
%TO.C,U3*%
X174280000Y-89360000D03*
X172280000Y-89360000D03*
X170280000Y-89360000D03*
X168280000Y-89360000D03*
X166280000Y-89360000D03*
X164280000Y-89360000D03*
D24*
X176990000Y-73660000D03*
X176990000Y-75660000D03*
X176990000Y-77660000D03*
X176990000Y-79660000D03*
X176990000Y-81660000D03*
X176990000Y-83660000D03*
X176990000Y-85660000D03*
X176990000Y-87660000D03*
X161590000Y-87660000D03*
X161590000Y-85660000D03*
X161590000Y-83660000D03*
X161590000Y-81660000D03*
X161590000Y-79660000D03*
X161590000Y-77660000D03*
X161590000Y-75660000D03*
X161590000Y-73660000D03*
%TD*%
D25*
%TO.C,U2*%
X157455000Y-110760000D03*
X157455000Y-111260000D03*
X157455000Y-111760000D03*
X157455000Y-112260000D03*
X157455000Y-112760000D03*
X153155000Y-112760000D03*
X153155000Y-112260000D03*
X153155000Y-111760000D03*
X153155000Y-111260000D03*
X153155000Y-110760000D03*
%TD*%
%TO.C,U1*%
G36*
G01*
X152280000Y-85930000D02*
X151980000Y-85930000D01*
G75*
G02*
X151830000Y-85780000I0J150000D01*
G01*
X151830000Y-84330000D01*
G75*
G02*
X151980000Y-84180000I150000J0D01*
G01*
X152280000Y-84180000D01*
G75*
G02*
X152430000Y-84330000I0J-150000D01*
G01*
X152430000Y-85780000D01*
G75*
G02*
X152280000Y-85930000I-150000J0D01*
G01*
G37*
G36*
G01*
X153550000Y-85930000D02*
X153250000Y-85930000D01*
G75*
G02*
X153100000Y-85780000I0J150000D01*
G01*
X153100000Y-84330000D01*
G75*
G02*
X153250000Y-84180000I150000J0D01*
G01*
X153550000Y-84180000D01*
G75*
G02*
X153700000Y-84330000I0J-150000D01*
G01*
X153700000Y-85780000D01*
G75*
G02*
X153550000Y-85930000I-150000J0D01*
G01*
G37*
G36*
G01*
X154820000Y-85930000D02*
X154520000Y-85930000D01*
G75*
G02*
X154370000Y-85780000I0J150000D01*
G01*
X154370000Y-84330000D01*
G75*
G02*
X154520000Y-84180000I150000J0D01*
G01*
X154820000Y-84180000D01*
G75*
G02*
X154970000Y-84330000I0J-150000D01*
G01*
X154970000Y-85780000D01*
G75*
G02*
X154820000Y-85930000I-150000J0D01*
G01*
G37*
G36*
G01*
X156090000Y-85930000D02*
X155790000Y-85930000D01*
G75*
G02*
X155640000Y-85780000I0J150000D01*
G01*
X155640000Y-84330000D01*
G75*
G02*
X155790000Y-84180000I150000J0D01*
G01*
X156090000Y-84180000D01*
G75*
G02*
X156240000Y-84330000I0J-150000D01*
G01*
X156240000Y-85780000D01*
G75*
G02*
X156090000Y-85930000I-150000J0D01*
G01*
G37*
G36*
G01*
X156090000Y-91080000D02*
X155790000Y-91080000D01*
G75*
G02*
X155640000Y-90930000I0J150000D01*
G01*
X155640000Y-89480000D01*
G75*
G02*
X155790000Y-89330000I150000J0D01*
G01*
X156090000Y-89330000D01*
G75*
G02*
X156240000Y-89480000I0J-150000D01*
G01*
X156240000Y-90930000D01*
G75*
G02*
X156090000Y-91080000I-150000J0D01*
G01*
G37*
G36*
G01*
X154820000Y-91080000D02*
X154520000Y-91080000D01*
G75*
G02*
X154370000Y-90930000I0J150000D01*
G01*
X154370000Y-89480000D01*
G75*
G02*
X154520000Y-89330000I150000J0D01*
G01*
X154820000Y-89330000D01*
G75*
G02*
X154970000Y-89480000I0J-150000D01*
G01*
X154970000Y-90930000D01*
G75*
G02*
X154820000Y-91080000I-150000J0D01*
G01*
G37*
G36*
G01*
X153550000Y-91080000D02*
X153250000Y-91080000D01*
G75*
G02*
X153100000Y-90930000I0J150000D01*
G01*
X153100000Y-89480000D01*
G75*
G02*
X153250000Y-89330000I150000J0D01*
G01*
X153550000Y-89330000D01*
G75*
G02*
X153700000Y-89480000I0J-150000D01*
G01*
X153700000Y-90930000D01*
G75*
G02*
X153550000Y-91080000I-150000J0D01*
G01*
G37*
G36*
G01*
X152280000Y-91080000D02*
X151980000Y-91080000D01*
G75*
G02*
X151830000Y-90930000I0J150000D01*
G01*
X151830000Y-89480000D01*
G75*
G02*
X151980000Y-89330000I150000J0D01*
G01*
X152280000Y-89330000D01*
G75*
G02*
X152430000Y-89480000I0J-150000D01*
G01*
X152430000Y-90930000D01*
G75*
G02*
X152280000Y-91080000I-150000J0D01*
G01*
G37*
%TD*%
D20*
%TO.C,SW1*%
X151495000Y-125040000D03*
X151495000Y-129540000D03*
X144995000Y-125040000D03*
X144995000Y-129540000D03*
%TD*%
%TO.C,R9*%
G36*
G01*
X157219999Y-124282500D02*
X158470001Y-124282500D01*
G75*
G02*
X158720000Y-124532499I0J-249999D01*
G01*
X158720000Y-125157501D01*
G75*
G02*
X158470001Y-125407500I-249999J0D01*
G01*
X157219999Y-125407500D01*
G75*
G02*
X156970000Y-125157501I0J249999D01*
G01*
X156970000Y-124532499D01*
G75*
G02*
X157219999Y-124282500I249999J0D01*
G01*
G37*
G36*
G01*
X157219999Y-121357500D02*
X158470001Y-121357500D01*
G75*
G02*
X158720000Y-121607499I0J-249999D01*
G01*
X158720000Y-122232501D01*
G75*
G02*
X158470001Y-122482500I-249999J0D01*
G01*
X157219999Y-122482500D01*
G75*
G02*
X156970000Y-122232501I0J249999D01*
G01*
X156970000Y-121607499D01*
G75*
G02*
X157219999Y-121357500I249999J0D01*
G01*
G37*
%TD*%
%TO.C,R6*%
G36*
G01*
X154044999Y-129612500D02*
X155295001Y-129612500D01*
G75*
G02*
X155545000Y-129862499I0J-249999D01*
G01*
X155545000Y-130487501D01*
G75*
G02*
X155295001Y-130737500I-249999J0D01*
G01*
X154044999Y-130737500D01*
G75*
G02*
X153795000Y-130487501I0J249999D01*
G01*
X153795000Y-129862499D01*
G75*
G02*
X154044999Y-129612500I249999J0D01*
G01*
G37*
G36*
G01*
X154044999Y-126687500D02*
X155295001Y-126687500D01*
G75*
G02*
X155545000Y-126937499I0J-249999D01*
G01*
X155545000Y-127562501D01*
G75*
G02*
X155295001Y-127812500I-249999J0D01*
G01*
X154044999Y-127812500D01*
G75*
G02*
X153795000Y-127562501I0J249999D01*
G01*
X153795000Y-126937499D01*
G75*
G02*
X154044999Y-126687500I249999J0D01*
G01*
G37*
%TD*%
%TO.C,R5*%
G36*
G01*
X142427500Y-121275001D02*
X142427500Y-120024999D01*
G75*
G02*
X142677499Y-119775000I249999J0D01*
G01*
X143302501Y-119775000D01*
G75*
G02*
X143552500Y-120024999I0J-249999D01*
G01*
X143552500Y-121275001D01*
G75*
G02*
X143302501Y-121525000I-249999J0D01*
G01*
X142677499Y-121525000D01*
G75*
G02*
X142427500Y-121275001I0J249999D01*
G01*
G37*
G36*
G01*
X139502500Y-121275001D02*
X139502500Y-120024999D01*
G75*
G02*
X139752499Y-119775000I249999J0D01*
G01*
X140377501Y-119775000D01*
G75*
G02*
X140627500Y-120024999I0J-249999D01*
G01*
X140627500Y-121275001D01*
G75*
G02*
X140377501Y-121525000I-249999J0D01*
G01*
X139752499Y-121525000D01*
G75*
G02*
X139502500Y-121275001I0J249999D01*
G01*
G37*
%TD*%
%TO.C,R17*%
G36*
G01*
X153962500Y-106689999D02*
X153962500Y-107940001D01*
G75*
G02*
X153712501Y-108190000I-249999J0D01*
G01*
X153087499Y-108190000D01*
G75*
G02*
X152837500Y-107940001I0J249999D01*
G01*
X152837500Y-106689999D01*
G75*
G02*
X153087499Y-106440000I249999J0D01*
G01*
X153712501Y-106440000D01*
G75*
G02*
X153962500Y-106689999I0J-249999D01*
G01*
G37*
G36*
G01*
X156887500Y-106689999D02*
X156887500Y-107940001D01*
G75*
G02*
X156637501Y-108190000I-249999J0D01*
G01*
X156012499Y-108190000D01*
G75*
G02*
X155762500Y-107940001I0J249999D01*
G01*
X155762500Y-106689999D01*
G75*
G02*
X156012499Y-106440000I249999J0D01*
G01*
X156637501Y-106440000D01*
G75*
G02*
X156887500Y-106689999I0J-249999D01*
G01*
G37*
%TD*%
%TO.C,R15*%
G36*
G01*
X186492500Y-76190001D02*
X186492500Y-74939999D01*
G75*
G02*
X186742499Y-74690000I249999J0D01*
G01*
X187367501Y-74690000D01*
G75*
G02*
X187617500Y-74939999I0J-249999D01*
G01*
X187617500Y-76190001D01*
G75*
G02*
X187367501Y-76440000I-249999J0D01*
G01*
X186742499Y-76440000D01*
G75*
G02*
X186492500Y-76190001I0J249999D01*
G01*
G37*
G36*
G01*
X183567500Y-76190001D02*
X183567500Y-74939999D01*
G75*
G02*
X183817499Y-74690000I249999J0D01*
G01*
X184442501Y-74690000D01*
G75*
G02*
X184692500Y-74939999I0J-249999D01*
G01*
X184692500Y-76190001D01*
G75*
G02*
X184442501Y-76440000I-249999J0D01*
G01*
X183817499Y-76440000D01*
G75*
G02*
X183567500Y-76190001I0J249999D01*
G01*
G37*
%TD*%
%TO.C,R16*%
G36*
G01*
X186492500Y-78730001D02*
X186492500Y-77479999D01*
G75*
G02*
X186742499Y-77230000I249999J0D01*
G01*
X187367501Y-77230000D01*
G75*
G02*
X187617500Y-77479999I0J-249999D01*
G01*
X187617500Y-78730001D01*
G75*
G02*
X187367501Y-78980000I-249999J0D01*
G01*
X186742499Y-78980000D01*
G75*
G02*
X186492500Y-78730001I0J249999D01*
G01*
G37*
G36*
G01*
X183567500Y-78730001D02*
X183567500Y-77479999D01*
G75*
G02*
X183817499Y-77230000I249999J0D01*
G01*
X184442501Y-77230000D01*
G75*
G02*
X184692500Y-77479999I0J-249999D01*
G01*
X184692500Y-78730001D01*
G75*
G02*
X184442501Y-78980000I-249999J0D01*
G01*
X183817499Y-78980000D01*
G75*
G02*
X183567500Y-78730001I0J249999D01*
G01*
G37*
%TD*%
%TO.C,SW2*%
X140065000Y-125040000D03*
X140065000Y-129540000D03*
X133565000Y-125040000D03*
X133565000Y-129540000D03*
%TD*%
%TO.C,R3*%
G36*
G01*
X112687500Y-96529999D02*
X112687500Y-97780001D01*
G75*
G02*
X112437501Y-98030000I-249999J0D01*
G01*
X111812499Y-98030000D01*
G75*
G02*
X111562500Y-97780001I0J249999D01*
G01*
X111562500Y-96529999D01*
G75*
G02*
X111812499Y-96280000I249999J0D01*
G01*
X112437501Y-96280000D01*
G75*
G02*
X112687500Y-96529999I0J-249999D01*
G01*
G37*
G36*
G01*
X115612500Y-96529999D02*
X115612500Y-97780001D01*
G75*
G02*
X115362501Y-98030000I-249999J0D01*
G01*
X114737499Y-98030000D01*
G75*
G02*
X114487500Y-97780001I0J249999D01*
G01*
X114487500Y-96529999D01*
G75*
G02*
X114737499Y-96280000I249999J0D01*
G01*
X115362501Y-96280000D01*
G75*
G02*
X115612500Y-96529999I0J-249999D01*
G01*
G37*
%TD*%
%TO.C,R14*%
G36*
G01*
X152692500Y-74304999D02*
X152692500Y-75555001D01*
G75*
G02*
X152442501Y-75805000I-249999J0D01*
G01*
X151817499Y-75805000D01*
G75*
G02*
X151567500Y-75555001I0J249999D01*
G01*
X151567500Y-74304999D01*
G75*
G02*
X151817499Y-74055000I249999J0D01*
G01*
X152442501Y-74055000D01*
G75*
G02*
X152692500Y-74304999I0J-249999D01*
G01*
G37*
G36*
G01*
X155617500Y-74304999D02*
X155617500Y-75555001D01*
G75*
G02*
X155367501Y-75805000I-249999J0D01*
G01*
X154742499Y-75805000D01*
G75*
G02*
X154492500Y-75555001I0J249999D01*
G01*
X154492500Y-74304999D01*
G75*
G02*
X154742499Y-74055000I249999J0D01*
G01*
X155367501Y-74055000D01*
G75*
G02*
X155617500Y-74304999I0J-249999D01*
G01*
G37*
%TD*%
%TO.C,R8*%
G36*
G01*
X154044999Y-124282500D02*
X155295001Y-124282500D01*
G75*
G02*
X155545000Y-124532499I0J-249999D01*
G01*
X155545000Y-125157501D01*
G75*
G02*
X155295001Y-125407500I-249999J0D01*
G01*
X154044999Y-125407500D01*
G75*
G02*
X153795000Y-125157501I0J249999D01*
G01*
X153795000Y-124532499D01*
G75*
G02*
X154044999Y-124282500I249999J0D01*
G01*
G37*
G36*
G01*
X154044999Y-121357500D02*
X155295001Y-121357500D01*
G75*
G02*
X155545000Y-121607499I0J-249999D01*
G01*
X155545000Y-122232501D01*
G75*
G02*
X155295001Y-122482500I-249999J0D01*
G01*
X154044999Y-122482500D01*
G75*
G02*
X153795000Y-122232501I0J249999D01*
G01*
X153795000Y-121607499D01*
G75*
G02*
X154044999Y-121357500I249999J0D01*
G01*
G37*
%TD*%
%TO.C,R2*%
G36*
G01*
X186492500Y-81270001D02*
X186492500Y-80019999D01*
G75*
G02*
X186742499Y-79770000I249999J0D01*
G01*
X187367501Y-79770000D01*
G75*
G02*
X187617500Y-80019999I0J-249999D01*
G01*
X187617500Y-81270001D01*
G75*
G02*
X187367501Y-81520000I-249999J0D01*
G01*
X186742499Y-81520000D01*
G75*
G02*
X186492500Y-81270001I0J249999D01*
G01*
G37*
G36*
G01*
X183567500Y-81270001D02*
X183567500Y-80019999D01*
G75*
G02*
X183817499Y-79770000I249999J0D01*
G01*
X184442501Y-79770000D01*
G75*
G02*
X184692500Y-80019999I0J-249999D01*
G01*
X184692500Y-81270001D01*
G75*
G02*
X184442501Y-81520000I-249999J0D01*
G01*
X183817499Y-81520000D01*
G75*
G02*
X183567500Y-81270001I0J249999D01*
G01*
G37*
%TD*%
%TO.C,R7*%
G36*
G01*
X157219999Y-129612500D02*
X158470001Y-129612500D01*
G75*
G02*
X158720000Y-129862499I0J-249999D01*
G01*
X158720000Y-130487501D01*
G75*
G02*
X158470001Y-130737500I-249999J0D01*
G01*
X157219999Y-130737500D01*
G75*
G02*
X156970000Y-130487501I0J249999D01*
G01*
X156970000Y-129862499D01*
G75*
G02*
X157219999Y-129612500I249999J0D01*
G01*
G37*
G36*
G01*
X157219999Y-126687500D02*
X158470001Y-126687500D01*
G75*
G02*
X158720000Y-126937499I0J-249999D01*
G01*
X158720000Y-127562501D01*
G75*
G02*
X158470001Y-127812500I-249999J0D01*
G01*
X157219999Y-127812500D01*
G75*
G02*
X156970000Y-127562501I0J249999D01*
G01*
X156970000Y-126937499D01*
G75*
G02*
X157219999Y-126687500I249999J0D01*
G01*
G37*
%TD*%
%TO.C,R4*%
G36*
G01*
X140627500Y-100974999D02*
X140627500Y-102225001D01*
G75*
G02*
X140377501Y-102475000I-249999J0D01*
G01*
X139752499Y-102475000D01*
G75*
G02*
X139502500Y-102225001I0J249999D01*
G01*
X139502500Y-100974999D01*
G75*
G02*
X139752499Y-100725000I249999J0D01*
G01*
X140377501Y-100725000D01*
G75*
G02*
X140627500Y-100974999I0J-249999D01*
G01*
G37*
G36*
G01*
X143552500Y-100974999D02*
X143552500Y-102225001D01*
G75*
G02*
X143302501Y-102475000I-249999J0D01*
G01*
X142677499Y-102475000D01*
G75*
G02*
X142427500Y-102225001I0J249999D01*
G01*
X142427500Y-100974999D01*
G75*
G02*
X142677499Y-100725000I249999J0D01*
G01*
X143302501Y-100725000D01*
G75*
G02*
X143552500Y-100974999I0J-249999D01*
G01*
G37*
%TD*%
%TO.C,C9*%
G36*
G01*
X154062500Y-102854999D02*
X154062500Y-104155001D01*
G75*
G02*
X153812501Y-104405000I-249999J0D01*
G01*
X152987499Y-104405000D01*
G75*
G02*
X152737500Y-104155001I0J249999D01*
G01*
X152737500Y-102854999D01*
G75*
G02*
X152987499Y-102605000I249999J0D01*
G01*
X153812501Y-102605000D01*
G75*
G02*
X154062500Y-102854999I0J-249999D01*
G01*
G37*
G36*
G01*
X157187500Y-102854999D02*
X157187500Y-104155001D01*
G75*
G02*
X156937501Y-104405000I-249999J0D01*
G01*
X156112499Y-104405000D01*
G75*
G02*
X155862500Y-104155001I0J249999D01*
G01*
X155862500Y-102854999D01*
G75*
G02*
X156112499Y-102605000I249999J0D01*
G01*
X156937501Y-102605000D01*
G75*
G02*
X157187500Y-102854999I0J-249999D01*
G01*
G37*
%TD*%
%TO.C,C6*%
G36*
G01*
X154642500Y-81930001D02*
X154642500Y-80629999D01*
G75*
G02*
X154892499Y-80380000I249999J0D01*
G01*
X155717501Y-80380000D01*
G75*
G02*
X155967500Y-80629999I0J-249999D01*
G01*
X155967500Y-81930001D01*
G75*
G02*
X155717501Y-82180000I-249999J0D01*
G01*
X154892499Y-82180000D01*
G75*
G02*
X154642500Y-81930001I0J249999D01*
G01*
G37*
G36*
G01*
X151517500Y-81930001D02*
X151517500Y-80629999D01*
G75*
G02*
X151767499Y-80380000I249999J0D01*
G01*
X152592501Y-80380000D01*
G75*
G02*
X152842500Y-80629999I0J-249999D01*
G01*
X152842500Y-81930001D01*
G75*
G02*
X152592501Y-82180000I-249999J0D01*
G01*
X151767499Y-82180000D01*
G75*
G02*
X151517500Y-81930001I0J249999D01*
G01*
G37*
%TD*%
%TO.C,C7*%
G36*
G01*
X147077500Y-119999999D02*
X147077500Y-121300001D01*
G75*
G02*
X146827501Y-121550000I-249999J0D01*
G01*
X146002499Y-121550000D01*
G75*
G02*
X145752500Y-121300001I0J249999D01*
G01*
X145752500Y-119999999D01*
G75*
G02*
X146002499Y-119750000I249999J0D01*
G01*
X146827501Y-119750000D01*
G75*
G02*
X147077500Y-119999999I0J-249999D01*
G01*
G37*
G36*
G01*
X150202500Y-119999999D02*
X150202500Y-121300001D01*
G75*
G02*
X149952501Y-121550000I-249999J0D01*
G01*
X149127499Y-121550000D01*
G75*
G02*
X148877500Y-121300001I0J249999D01*
G01*
X148877500Y-119999999D01*
G75*
G02*
X149127499Y-119750000I249999J0D01*
G01*
X149952501Y-119750000D01*
G75*
G02*
X150202500Y-119999999I0J-249999D01*
G01*
G37*
%TD*%
%TO.C,D1*%
G36*
G01*
X152755000Y-77480000D02*
X152755000Y-78730000D01*
G75*
G02*
X152505000Y-78980000I-250000J0D01*
G01*
X151755000Y-78980000D01*
G75*
G02*
X151505000Y-78730000I0J250000D01*
G01*
X151505000Y-77480000D01*
G75*
G02*
X151755000Y-77230000I250000J0D01*
G01*
X152505000Y-77230000D01*
G75*
G02*
X152755000Y-77480000I0J-250000D01*
G01*
G37*
G36*
G01*
X155555000Y-77480000D02*
X155555000Y-78730000D01*
G75*
G02*
X155305000Y-78980000I-250000J0D01*
G01*
X154555000Y-78980000D01*
G75*
G02*
X154305000Y-78730000I0J250000D01*
G01*
X154305000Y-77480000D01*
G75*
G02*
X154555000Y-77230000I250000J0D01*
G01*
X155305000Y-77230000D01*
G75*
G02*
X155555000Y-77480000I0J-250000D01*
G01*
G37*
%TD*%
%TO.C,C2*%
G36*
G01*
X135905001Y-69022500D02*
X134604999Y-69022500D01*
G75*
G02*
X134355000Y-68772501I0J249999D01*
G01*
X134355000Y-67947499D01*
G75*
G02*
X134604999Y-67697500I249999J0D01*
G01*
X135905001Y-67697500D01*
G75*
G02*
X136155000Y-67947499I0J-249999D01*
G01*
X136155000Y-68772501D01*
G75*
G02*
X135905001Y-69022500I-249999J0D01*
G01*
G37*
G36*
G01*
X135905001Y-72147500D02*
X134604999Y-72147500D01*
G75*
G02*
X134355000Y-71897501I0J249999D01*
G01*
X134355000Y-71072499D01*
G75*
G02*
X134604999Y-70822500I249999J0D01*
G01*
X135905001Y-70822500D01*
G75*
G02*
X136155000Y-71072499I0J-249999D01*
G01*
X136155000Y-71897501D01*
G75*
G02*
X135905001Y-72147500I-249999J0D01*
G01*
G37*
%TD*%
%TO.C,R1*%
G36*
G01*
X186492500Y-83810001D02*
X186492500Y-82559999D01*
G75*
G02*
X186742499Y-82310000I249999J0D01*
G01*
X187367501Y-82310000D01*
G75*
G02*
X187617500Y-82559999I0J-249999D01*
G01*
X187617500Y-83810001D01*
G75*
G02*
X187367501Y-84060000I-249999J0D01*
G01*
X186742499Y-84060000D01*
G75*
G02*
X186492500Y-83810001I0J249999D01*
G01*
G37*
G36*
G01*
X183567500Y-83810001D02*
X183567500Y-82559999D01*
G75*
G02*
X183817499Y-82310000I249999J0D01*
G01*
X184442501Y-82310000D01*
G75*
G02*
X184692500Y-82559999I0J-249999D01*
G01*
X184692500Y-83810001D01*
G75*
G02*
X184442501Y-84060000I-249999J0D01*
G01*
X183817499Y-84060000D01*
G75*
G02*
X183567500Y-83810001I0J249999D01*
G01*
G37*
%TD*%
D14*
%TO.C,K1*%
X169910000Y-100330000D03*
D26*
X171860000Y-94380000D03*
D14*
X184110000Y-94330000D03*
X184060000Y-106380000D03*
D26*
X171860000Y-106380000D03*
%TD*%
D13*
%TO.C,Q1*%
X163290000Y-102870000D03*
X161290000Y-103820000D03*
X161290000Y-101920000D03*
%TD*%
D14*
%TO.C,J7*%
X193405000Y-95250000D03*
X193405000Y-100330000D03*
D15*
X193405000Y-105410000D03*
%TD*%
D27*
%TO.C,J6*%
X154035000Y-69850000D03*
X151495000Y-69850000D03*
X148955000Y-69850000D03*
X146415000Y-69850000D03*
X143875000Y-69850000D03*
D28*
X141335000Y-69850000D03*
%TD*%
D14*
%TO.C,K2*%
X169910000Y-117475000D03*
D26*
X171860000Y-111525000D03*
D14*
X184110000Y-111475000D03*
X184060000Y-123525000D03*
D26*
X171860000Y-123525000D03*
%TD*%
D29*
%TO.C,D5*%
X166100000Y-119975000D03*
X166100000Y-114975000D03*
%TD*%
%TO.C,D4*%
X166100000Y-102830000D03*
X166100000Y-97830000D03*
%TD*%
%TO.C,D3*%
G36*
G01*
X165475000Y-111750000D02*
X165475000Y-110500000D01*
G75*
G02*
X165725000Y-110250000I250000J0D01*
G01*
X166475000Y-110250000D01*
G75*
G02*
X166725000Y-110500000I0J-250000D01*
G01*
X166725000Y-111750000D01*
G75*
G02*
X166475000Y-112000000I-250000J0D01*
G01*
X165725000Y-112000000D01*
G75*
G02*
X165475000Y-111750000I0J250000D01*
G01*
G37*
G36*
G01*
X162675000Y-111750000D02*
X162675000Y-110500000D01*
G75*
G02*
X162925000Y-110250000I250000J0D01*
G01*
X163675000Y-110250000D01*
G75*
G02*
X163925000Y-110500000I0J-250000D01*
G01*
X163925000Y-111750000D01*
G75*
G02*
X163675000Y-112000000I-250000J0D01*
G01*
X162925000Y-112000000D01*
G75*
G02*
X162675000Y-111750000I0J250000D01*
G01*
G37*
%TD*%
%TO.C,D2*%
G36*
G01*
X165475000Y-94605000D02*
X165475000Y-93355000D01*
G75*
G02*
X165725000Y-93105000I250000J0D01*
G01*
X166475000Y-93105000D01*
G75*
G02*
X166725000Y-93355000I0J-250000D01*
G01*
X166725000Y-94605000D01*
G75*
G02*
X166475000Y-94855000I-250000J0D01*
G01*
X165725000Y-94855000D01*
G75*
G02*
X165475000Y-94605000I0J250000D01*
G01*
G37*
G36*
G01*
X162675000Y-94605000D02*
X162675000Y-93355000D01*
G75*
G02*
X162925000Y-93105000I250000J0D01*
G01*
X163675000Y-93105000D01*
G75*
G02*
X163925000Y-93355000I0J-250000D01*
G01*
X163925000Y-94605000D01*
G75*
G02*
X163675000Y-94855000I-250000J0D01*
G01*
X162925000Y-94855000D01*
G75*
G02*
X162675000Y-94605000I0J250000D01*
G01*
G37*
%TD*%
M02*
