%TF.GenerationSoftware,KiCad,Pcbnew,(5.1.10)-1*%
%TF.CreationDate,2021-10-14T01:28:28-03:00*%
%TF.ProjectId,kicad,6b696361-642e-46b6-9963-61645f706362,rev?*%
%TF.SameCoordinates,Original*%
%TF.FileFunction,Legend,Top*%
%TF.FilePolarity,Positive*%
%FSLAX46Y46*%
G04 Gerber Fmt 4.6, Leading zero omitted, Abs format (unit mm)*
G04 Created by KiCad (PCBNEW (5.1.10)-1) date 2021-10-14 01:28:28*
%MOMM*%
%LPD*%
G01*
G04 APERTURE LIST*
%ADD10C,0.350000*%
%ADD11C,0.200000*%
%ADD12C,0.250000*%
%ADD13C,0.600000*%
%ADD14C,0.100000*%
%ADD15C,0.120000*%
%ADD16C,0.150000*%
%ADD17C,0.127000*%
%ADD18C,0.152400*%
%ADD19O,2.200000X4.000000*%
%ADD20O,4.000000X2.200000*%
%ADD21R,4.000000X2.200000*%
%ADD22C,7.000000*%
%ADD23R,0.900000X0.800000*%
%ADD24C,3.000000*%
%ADD25R,3.000000X3.000000*%
%ADD26R,2.000000X2.000000*%
%ADD27C,2.000000*%
%ADD28O,1.740000X2.190000*%
%ADD29O,2.190000X1.740000*%
%ADD30R,1.100000X2.500000*%
%ADD31R,2.500000X1.100000*%
%ADD32R,1.100000X0.250000*%
%ADD33C,2.500000*%
%ADD34O,1.700000X1.700000*%
%ADD35R,1.700000X1.700000*%
%ADD36R,1.800000X3.500000*%
G04 APERTURE END LIST*
D10*
X134752000Y-131972857D02*
X134952000Y-132044285D01*
X135018666Y-132115714D01*
X135085333Y-132258571D01*
X135085333Y-132472857D01*
X135018666Y-132615714D01*
X134952000Y-132687142D01*
X134818666Y-132758571D01*
X134285333Y-132758571D01*
X134285333Y-131258571D01*
X134752000Y-131258571D01*
X134885333Y-131330000D01*
X134952000Y-131401428D01*
X135018666Y-131544285D01*
X135018666Y-131687142D01*
X134952000Y-131830000D01*
X134885333Y-131901428D01*
X134752000Y-131972857D01*
X134285333Y-131972857D01*
X135952000Y-131258571D02*
X136218666Y-131258571D01*
X136352000Y-131330000D01*
X136485333Y-131472857D01*
X136552000Y-131758571D01*
X136552000Y-132258571D01*
X136485333Y-132544285D01*
X136352000Y-132687142D01*
X136218666Y-132758571D01*
X135952000Y-132758571D01*
X135818666Y-132687142D01*
X135685333Y-132544285D01*
X135618666Y-132258571D01*
X135618666Y-131758571D01*
X135685333Y-131472857D01*
X135818666Y-131330000D01*
X135952000Y-131258571D01*
X137418666Y-131258571D02*
X137685333Y-131258571D01*
X137818666Y-131330000D01*
X137952000Y-131472857D01*
X138018666Y-131758571D01*
X138018666Y-132258571D01*
X137952000Y-132544285D01*
X137818666Y-132687142D01*
X137685333Y-132758571D01*
X137418666Y-132758571D01*
X137285333Y-132687142D01*
X137152000Y-132544285D01*
X137085333Y-132258571D01*
X137085333Y-131758571D01*
X137152000Y-131472857D01*
X137285333Y-131330000D01*
X137418666Y-131258571D01*
X138418666Y-131258571D02*
X139218666Y-131258571D01*
X138818666Y-132758571D02*
X138818666Y-131258571D01*
X146048666Y-132758571D02*
X145582000Y-132044285D01*
X145248666Y-132758571D02*
X145248666Y-131258571D01*
X145782000Y-131258571D01*
X145915333Y-131330000D01*
X145982000Y-131401428D01*
X146048666Y-131544285D01*
X146048666Y-131758571D01*
X145982000Y-131901428D01*
X145915333Y-131972857D01*
X145782000Y-132044285D01*
X145248666Y-132044285D01*
X146648666Y-131972857D02*
X147115333Y-131972857D01*
X147315333Y-132758571D02*
X146648666Y-132758571D01*
X146648666Y-131258571D01*
X147315333Y-131258571D01*
X147848666Y-132687142D02*
X148048666Y-132758571D01*
X148382000Y-132758571D01*
X148515333Y-132687142D01*
X148582000Y-132615714D01*
X148648666Y-132472857D01*
X148648666Y-132330000D01*
X148582000Y-132187142D01*
X148515333Y-132115714D01*
X148382000Y-132044285D01*
X148115333Y-131972857D01*
X147982000Y-131901428D01*
X147915333Y-131830000D01*
X147848666Y-131687142D01*
X147848666Y-131544285D01*
X147915333Y-131401428D01*
X147982000Y-131330000D01*
X148115333Y-131258571D01*
X148448666Y-131258571D01*
X148648666Y-131330000D01*
X149248666Y-131972857D02*
X149715333Y-131972857D01*
X149915333Y-132758571D02*
X149248666Y-132758571D01*
X149248666Y-131258571D01*
X149915333Y-131258571D01*
X150315333Y-131258571D02*
X151115333Y-131258571D01*
X150715333Y-132758571D02*
X150715333Y-131258571D01*
D11*
X152249380Y-68106785D02*
X152249380Y-67549642D01*
X152630333Y-67849642D01*
X152630333Y-67721071D01*
X152677952Y-67635357D01*
X152725571Y-67592500D01*
X152820809Y-67549642D01*
X153058904Y-67549642D01*
X153154142Y-67592500D01*
X153201761Y-67635357D01*
X153249380Y-67721071D01*
X153249380Y-67978214D01*
X153201761Y-68063928D01*
X153154142Y-68106785D01*
X152249380Y-67292500D02*
X153249380Y-66992500D01*
X152249380Y-66692500D01*
X152249380Y-66478214D02*
X152249380Y-65921071D01*
X152630333Y-66221071D01*
X152630333Y-66092500D01*
X152677952Y-66006785D01*
X152725571Y-65963928D01*
X152820809Y-65921071D01*
X153058904Y-65921071D01*
X153154142Y-65963928D01*
X153201761Y-66006785D01*
X153249380Y-66092500D01*
X153249380Y-66349642D01*
X153201761Y-66435357D01*
X153154142Y-66478214D01*
X149757000Y-67678214D02*
X149709380Y-67763928D01*
X149709380Y-67892500D01*
X149757000Y-68021071D01*
X149852238Y-68106785D01*
X149947476Y-68149642D01*
X150137952Y-68192500D01*
X150280809Y-68192500D01*
X150471285Y-68149642D01*
X150566523Y-68106785D01*
X150661761Y-68021071D01*
X150709380Y-67892500D01*
X150709380Y-67806785D01*
X150661761Y-67678214D01*
X150614142Y-67635357D01*
X150280809Y-67635357D01*
X150280809Y-67806785D01*
X150709380Y-67249642D02*
X149709380Y-67249642D01*
X150709380Y-66735357D01*
X149709380Y-66735357D01*
X150709380Y-66306785D02*
X149709380Y-66306785D01*
X149709380Y-66092500D01*
X149757000Y-65963928D01*
X149852238Y-65878214D01*
X149947476Y-65835357D01*
X150137952Y-65792500D01*
X150280809Y-65792500D01*
X150471285Y-65835357D01*
X150566523Y-65878214D01*
X150661761Y-65963928D01*
X150709380Y-66092500D01*
X150709380Y-66306785D01*
X148169380Y-67892500D02*
X147169380Y-67892500D01*
X147169380Y-67292500D02*
X147169380Y-67121071D01*
X147217000Y-67035357D01*
X147312238Y-66949642D01*
X147502714Y-66906785D01*
X147836047Y-66906785D01*
X148026523Y-66949642D01*
X148121761Y-67035357D01*
X148169380Y-67121071D01*
X148169380Y-67292500D01*
X148121761Y-67378214D01*
X148026523Y-67463928D01*
X147836047Y-67506785D01*
X147502714Y-67506785D01*
X147312238Y-67463928D01*
X147217000Y-67378214D01*
X147169380Y-67292500D01*
X147169380Y-66349642D02*
X147169380Y-66263928D01*
X147217000Y-66178214D01*
X147264619Y-66135357D01*
X147359857Y-66092500D01*
X147550333Y-66049642D01*
X147788428Y-66049642D01*
X147978904Y-66092500D01*
X148074142Y-66135357D01*
X148121761Y-66178214D01*
X148169380Y-66263928D01*
X148169380Y-66349642D01*
X148121761Y-66435357D01*
X148074142Y-66478214D01*
X147978904Y-66521071D01*
X147788428Y-66563928D01*
X147550333Y-66563928D01*
X147359857Y-66521071D01*
X147264619Y-66478214D01*
X147217000Y-66435357D01*
X147169380Y-66349642D01*
X145629380Y-67592500D02*
X145153190Y-67892500D01*
X145629380Y-68106785D02*
X144629380Y-68106785D01*
X144629380Y-67763928D01*
X144677000Y-67678214D01*
X144724619Y-67635357D01*
X144819857Y-67592500D01*
X144962714Y-67592500D01*
X145057952Y-67635357D01*
X145105571Y-67678214D01*
X145153190Y-67763928D01*
X145153190Y-68106785D01*
X144629380Y-67292500D02*
X145629380Y-66692500D01*
X144629380Y-66692500D02*
X145629380Y-67292500D01*
X145629380Y-66349642D02*
X144629380Y-66349642D01*
X144629380Y-66135357D01*
X144677000Y-66006785D01*
X144772238Y-65921071D01*
X144867476Y-65878214D01*
X145057952Y-65835357D01*
X145200809Y-65835357D01*
X145391285Y-65878214D01*
X145486523Y-65921071D01*
X145581761Y-66006785D01*
X145629380Y-66135357D01*
X145629380Y-66349642D01*
X142089380Y-68128214D02*
X142089380Y-67613928D01*
X143089380Y-67871071D02*
X142089380Y-67871071D01*
X142089380Y-67399642D02*
X143089380Y-66799642D01*
X142089380Y-66799642D02*
X143089380Y-67399642D01*
X143089380Y-66456785D02*
X142089380Y-66456785D01*
X142089380Y-66242500D01*
X142137000Y-66113928D01*
X142232238Y-66028214D01*
X142327476Y-65985357D01*
X142517952Y-65942500D01*
X142660809Y-65942500D01*
X142851285Y-65985357D01*
X142946523Y-66028214D01*
X143041761Y-66113928D01*
X143089380Y-66242500D01*
X143089380Y-66456785D01*
X140533380Y-67485357D02*
X140057190Y-67785357D01*
X140533380Y-67999642D02*
X139533380Y-67999642D01*
X139533380Y-67656785D01*
X139581000Y-67571071D01*
X139628619Y-67528214D01*
X139723857Y-67485357D01*
X139866714Y-67485357D01*
X139961952Y-67528214D01*
X140009571Y-67571071D01*
X140057190Y-67656785D01*
X140057190Y-67999642D01*
X140485761Y-67142500D02*
X140533380Y-67013928D01*
X140533380Y-66799642D01*
X140485761Y-66713928D01*
X140438142Y-66671071D01*
X140342904Y-66628214D01*
X140247666Y-66628214D01*
X140152428Y-66671071D01*
X140104809Y-66713928D01*
X140057190Y-66799642D01*
X140009571Y-66971071D01*
X139961952Y-67056785D01*
X139914333Y-67099642D01*
X139819095Y-67142500D01*
X139723857Y-67142500D01*
X139628619Y-67099642D01*
X139581000Y-67056785D01*
X139533380Y-66971071D01*
X139533380Y-66756785D01*
X139581000Y-66628214D01*
X139533380Y-66371071D02*
X139533380Y-65856785D01*
X140533380Y-66113928D02*
X139533380Y-66113928D01*
D12*
X178859404Y-68068095D02*
X178859404Y-66768095D01*
X179121309Y-66768095D01*
X179278452Y-66830000D01*
X179383214Y-66953809D01*
X179435595Y-67077619D01*
X179487976Y-67325238D01*
X179487976Y-67510952D01*
X179435595Y-67758571D01*
X179383214Y-67882380D01*
X179278452Y-68006190D01*
X179121309Y-68068095D01*
X178859404Y-68068095D01*
X180378452Y-68006190D02*
X180273690Y-68068095D01*
X180064166Y-68068095D01*
X179959404Y-68006190D01*
X179907023Y-67882380D01*
X179907023Y-67387142D01*
X179959404Y-67263333D01*
X180064166Y-67201428D01*
X180273690Y-67201428D01*
X180378452Y-67263333D01*
X180430833Y-67387142D01*
X180430833Y-67510952D01*
X179907023Y-67634761D01*
X180849880Y-68006190D02*
X180954642Y-68068095D01*
X181164166Y-68068095D01*
X181268928Y-68006190D01*
X181321309Y-67882380D01*
X181321309Y-67820476D01*
X181268928Y-67696666D01*
X181164166Y-67634761D01*
X181007023Y-67634761D01*
X180902261Y-67572857D01*
X180849880Y-67449047D01*
X180849880Y-67387142D01*
X180902261Y-67263333D01*
X181007023Y-67201428D01*
X181164166Y-67201428D01*
X181268928Y-67263333D01*
X181792738Y-68068095D02*
X181792738Y-67201428D01*
X181792738Y-66768095D02*
X181740357Y-66830000D01*
X181792738Y-66891904D01*
X181845119Y-66830000D01*
X181792738Y-66768095D01*
X181792738Y-66891904D01*
X182787976Y-67201428D02*
X182787976Y-68253809D01*
X182735595Y-68377619D01*
X182683214Y-68439523D01*
X182578452Y-68501428D01*
X182421309Y-68501428D01*
X182316547Y-68439523D01*
X182787976Y-68006190D02*
X182683214Y-68068095D01*
X182473690Y-68068095D01*
X182368928Y-68006190D01*
X182316547Y-67944285D01*
X182264166Y-67820476D01*
X182264166Y-67449047D01*
X182316547Y-67325238D01*
X182368928Y-67263333D01*
X182473690Y-67201428D01*
X182683214Y-67201428D01*
X182787976Y-67263333D01*
X183311785Y-67201428D02*
X183311785Y-68068095D01*
X183311785Y-67325238D02*
X183364166Y-67263333D01*
X183468928Y-67201428D01*
X183626071Y-67201428D01*
X183730833Y-67263333D01*
X183783214Y-67387142D01*
X183783214Y-68068095D01*
X185511785Y-67387142D02*
X185668928Y-67449047D01*
X185721309Y-67510952D01*
X185773690Y-67634761D01*
X185773690Y-67820476D01*
X185721309Y-67944285D01*
X185668928Y-68006190D01*
X185564166Y-68068095D01*
X185145119Y-68068095D01*
X185145119Y-66768095D01*
X185511785Y-66768095D01*
X185616547Y-66830000D01*
X185668928Y-66891904D01*
X185721309Y-67015714D01*
X185721309Y-67139523D01*
X185668928Y-67263333D01*
X185616547Y-67325238D01*
X185511785Y-67387142D01*
X185145119Y-67387142D01*
X186140357Y-67201428D02*
X186402261Y-68068095D01*
X186664166Y-67201428D02*
X186402261Y-68068095D01*
X186297500Y-68377619D01*
X186245119Y-68439523D01*
X186140357Y-68501428D01*
X187921309Y-67387142D02*
X188287976Y-67387142D01*
X188445119Y-68068095D02*
X187921309Y-68068095D01*
X187921309Y-66768095D01*
X188445119Y-66768095D01*
X188916547Y-67944285D02*
X188968928Y-68006190D01*
X188916547Y-68068095D01*
X188864166Y-68006190D01*
X188916547Y-67944285D01*
X188916547Y-68068095D01*
X189335595Y-66768095D02*
X189597500Y-68068095D01*
X189807023Y-67139523D01*
X190016547Y-68068095D01*
X190278452Y-66768095D01*
X190697500Y-67944285D02*
X190749880Y-68006190D01*
X190697500Y-68068095D01*
X190645119Y-68006190D01*
X190697500Y-67944285D01*
X190697500Y-68068095D01*
X178859404Y-70268095D02*
X178859404Y-68968095D01*
X179278452Y-68968095D01*
X179383214Y-69030000D01*
X179435595Y-69091904D01*
X179487976Y-69215714D01*
X179487976Y-69401428D01*
X179435595Y-69525238D01*
X179383214Y-69587142D01*
X179278452Y-69649047D01*
X178859404Y-69649047D01*
X179959404Y-70268095D02*
X179959404Y-68968095D01*
X180430833Y-70268095D02*
X180430833Y-69587142D01*
X180378452Y-69463333D01*
X180273690Y-69401428D01*
X180116547Y-69401428D01*
X180011785Y-69463333D01*
X179959404Y-69525238D01*
X180954642Y-70268095D02*
X180954642Y-69401428D01*
X180954642Y-68968095D02*
X180902261Y-69030000D01*
X180954642Y-69091904D01*
X181007023Y-69030000D01*
X180954642Y-68968095D01*
X180954642Y-69091904D01*
X181635595Y-70268095D02*
X181530833Y-70206190D01*
X181478452Y-70082380D01*
X181478452Y-68968095D01*
X182054642Y-70268095D02*
X182054642Y-69401428D01*
X182054642Y-68968095D02*
X182002261Y-69030000D01*
X182054642Y-69091904D01*
X182107023Y-69030000D01*
X182054642Y-68968095D01*
X182054642Y-69091904D01*
X182578452Y-69401428D02*
X182578452Y-70701428D01*
X182578452Y-69463333D02*
X182683214Y-69401428D01*
X182892738Y-69401428D01*
X182997500Y-69463333D01*
X183049880Y-69525238D01*
X183102261Y-69649047D01*
X183102261Y-70020476D01*
X183049880Y-70144285D01*
X182997500Y-70206190D01*
X182892738Y-70268095D01*
X182683214Y-70268095D01*
X182578452Y-70206190D01*
X183573690Y-69401428D02*
X183573690Y-70701428D01*
X183573690Y-69463333D02*
X183678452Y-69401428D01*
X183887976Y-69401428D01*
X183992738Y-69463333D01*
X184045119Y-69525238D01*
X184097500Y-69649047D01*
X184097500Y-70020476D01*
X184045119Y-70144285D01*
X183992738Y-70206190D01*
X183887976Y-70268095D01*
X183678452Y-70268095D01*
X183573690Y-70206190D01*
X184987976Y-70206190D02*
X184883214Y-70268095D01*
X184673690Y-70268095D01*
X184568928Y-70206190D01*
X184516547Y-70082380D01*
X184516547Y-69587142D01*
X184568928Y-69463333D01*
X184673690Y-69401428D01*
X184883214Y-69401428D01*
X184987976Y-69463333D01*
X185040357Y-69587142D01*
X185040357Y-69710952D01*
X184516547Y-69834761D01*
X185983214Y-70268095D02*
X185983214Y-69587142D01*
X185930833Y-69463333D01*
X185826071Y-69401428D01*
X185616547Y-69401428D01*
X185511785Y-69463333D01*
X185983214Y-70206190D02*
X185878452Y-70268095D01*
X185616547Y-70268095D01*
X185511785Y-70206190D01*
X185459404Y-70082380D01*
X185459404Y-69958571D01*
X185511785Y-69834761D01*
X185616547Y-69772857D01*
X185878452Y-69772857D01*
X185983214Y-69710952D01*
X186978452Y-69401428D02*
X186978452Y-70268095D01*
X186507023Y-69401428D02*
X186507023Y-70082380D01*
X186559404Y-70206190D01*
X186664166Y-70268095D01*
X186821309Y-70268095D01*
X186926071Y-70206190D01*
X186978452Y-70144285D01*
X187397500Y-70268095D02*
X187973690Y-69401428D01*
X187397500Y-69401428D02*
X187973690Y-70268095D01*
X110256285Y-131996571D02*
X110256285Y-130496571D01*
X110770571Y-131996571D02*
X110770571Y-131210857D01*
X110713428Y-131068000D01*
X110599142Y-130996571D01*
X110427714Y-130996571D01*
X110313428Y-131068000D01*
X110256285Y-131139428D01*
X111170571Y-130996571D02*
X111627714Y-130996571D01*
X111342000Y-130496571D02*
X111342000Y-131782285D01*
X111399142Y-131925142D01*
X111513428Y-131996571D01*
X111627714Y-131996571D01*
X111856285Y-130996571D02*
X112313428Y-130996571D01*
X112027714Y-130496571D02*
X112027714Y-131782285D01*
X112084857Y-131925142D01*
X112199142Y-131996571D01*
X112313428Y-131996571D01*
X112713428Y-130996571D02*
X112713428Y-132496571D01*
X112713428Y-131068000D02*
X112827714Y-130996571D01*
X113056285Y-130996571D01*
X113170571Y-131068000D01*
X113227714Y-131139428D01*
X113284857Y-131282285D01*
X113284857Y-131710857D01*
X113227714Y-131853714D01*
X113170571Y-131925142D01*
X113056285Y-131996571D01*
X112827714Y-131996571D01*
X112713428Y-131925142D01*
X113742000Y-131925142D02*
X113856285Y-131996571D01*
X114084857Y-131996571D01*
X114199142Y-131925142D01*
X114256285Y-131782285D01*
X114256285Y-131710857D01*
X114199142Y-131568000D01*
X114084857Y-131496571D01*
X113913428Y-131496571D01*
X113799142Y-131425142D01*
X113742000Y-131282285D01*
X113742000Y-131210857D01*
X113799142Y-131068000D01*
X113913428Y-130996571D01*
X114084857Y-130996571D01*
X114199142Y-131068000D01*
X114770571Y-131853714D02*
X114827714Y-131925142D01*
X114770571Y-131996571D01*
X114713428Y-131925142D01*
X114770571Y-131853714D01*
X114770571Y-131996571D01*
X114770571Y-131068000D02*
X114827714Y-131139428D01*
X114770571Y-131210857D01*
X114713428Y-131139428D01*
X114770571Y-131068000D01*
X114770571Y-131210857D01*
X116199142Y-130425142D02*
X115170571Y-132353714D01*
X117456285Y-130425142D02*
X116427714Y-132353714D01*
X117856285Y-131996571D02*
X117856285Y-130496571D01*
X117856285Y-131068000D02*
X117970571Y-130996571D01*
X118199142Y-130996571D01*
X118313428Y-131068000D01*
X118370571Y-131139428D01*
X118427714Y-131282285D01*
X118427714Y-131710857D01*
X118370571Y-131853714D01*
X118313428Y-131925142D01*
X118199142Y-131996571D01*
X117970571Y-131996571D01*
X117856285Y-131925142D01*
X118942000Y-131996571D02*
X118942000Y-130996571D01*
X118942000Y-130496571D02*
X118884857Y-130568000D01*
X118942000Y-130639428D01*
X118999142Y-130568000D01*
X118942000Y-130496571D01*
X118942000Y-130639428D01*
X119342000Y-130996571D02*
X119799142Y-130996571D01*
X119513428Y-130496571D02*
X119513428Y-131782285D01*
X119570571Y-131925142D01*
X119684857Y-131996571D01*
X119799142Y-131996571D01*
X120199142Y-131853714D02*
X120256285Y-131925142D01*
X120199142Y-131996571D01*
X120142000Y-131925142D01*
X120199142Y-131853714D01*
X120199142Y-131996571D01*
X120942000Y-131996571D02*
X120827714Y-131925142D01*
X120770571Y-131782285D01*
X120770571Y-130496571D01*
X121284857Y-130996571D02*
X121570571Y-131996571D01*
X121856285Y-130996571D02*
X121570571Y-131996571D01*
X121456285Y-132353714D01*
X121399142Y-132425142D01*
X121284857Y-132496571D01*
X123170571Y-130425142D02*
X122142000Y-132353714D01*
X123456285Y-130496571D02*
X124199142Y-130496571D01*
X123799142Y-131068000D01*
X123970571Y-131068000D01*
X124084857Y-131139428D01*
X124142000Y-131210857D01*
X124199142Y-131353714D01*
X124199142Y-131710857D01*
X124142000Y-131853714D01*
X124084857Y-131925142D01*
X123970571Y-131996571D01*
X123627714Y-131996571D01*
X123513428Y-131925142D01*
X123456285Y-131853714D01*
X125227714Y-131996571D02*
X125227714Y-131210857D01*
X125170571Y-131068000D01*
X125056285Y-130996571D01*
X124827714Y-130996571D01*
X124713428Y-131068000D01*
X125227714Y-131925142D02*
X125113428Y-131996571D01*
X124827714Y-131996571D01*
X124713428Y-131925142D01*
X124656285Y-131782285D01*
X124656285Y-131639428D01*
X124713428Y-131496571D01*
X124827714Y-131425142D01*
X125113428Y-131425142D01*
X125227714Y-131353714D01*
X125684857Y-130996571D02*
X125970571Y-131996571D01*
X126256285Y-130996571D02*
X125970571Y-131996571D01*
X125856285Y-132353714D01*
X125799142Y-132425142D01*
X125684857Y-132496571D01*
X126713428Y-131996571D02*
X126713428Y-130996571D01*
X126713428Y-130496571D02*
X126656285Y-130568000D01*
X126713428Y-130639428D01*
X126770571Y-130568000D01*
X126713428Y-130496571D01*
X126713428Y-130639428D01*
X127799142Y-130996571D02*
X127799142Y-132210857D01*
X127742000Y-132353714D01*
X127684857Y-132425142D01*
X127570571Y-132496571D01*
X127399142Y-132496571D01*
X127284857Y-132425142D01*
X127799142Y-131925142D02*
X127684857Y-131996571D01*
X127456285Y-131996571D01*
X127342000Y-131925142D01*
X127284857Y-131853714D01*
X127227714Y-131710857D01*
X127227714Y-131282285D01*
X127284857Y-131139428D01*
X127342000Y-131068000D01*
X127456285Y-130996571D01*
X127684857Y-130996571D01*
X127799142Y-131068000D01*
X128884857Y-130996571D02*
X128884857Y-131996571D01*
X128370571Y-130996571D02*
X128370571Y-131782285D01*
X128427714Y-131925142D01*
X128542000Y-131996571D01*
X128713428Y-131996571D01*
X128827714Y-131925142D01*
X128884857Y-131853714D01*
X129342000Y-130496571D02*
X130142000Y-131996571D01*
X130142000Y-130496571D02*
X129342000Y-131996571D01*
D13*
X170784380Y-131405142D02*
X170784380Y-128405142D01*
X171736761Y-128405142D01*
X171974857Y-128548000D01*
X172093904Y-128690857D01*
X172212952Y-128976571D01*
X172212952Y-129405142D01*
X172093904Y-129690857D01*
X171974857Y-129833714D01*
X171736761Y-129976571D01*
X170784380Y-129976571D01*
X173641523Y-131405142D02*
X173403428Y-131262285D01*
X173284380Y-131119428D01*
X173165333Y-130833714D01*
X173165333Y-129976571D01*
X173284380Y-129690857D01*
X173403428Y-129548000D01*
X173641523Y-129405142D01*
X173998666Y-129405142D01*
X174236761Y-129548000D01*
X174355809Y-129690857D01*
X174474857Y-129976571D01*
X174474857Y-130833714D01*
X174355809Y-131119428D01*
X174236761Y-131262285D01*
X173998666Y-131405142D01*
X173641523Y-131405142D01*
X175308190Y-129405142D02*
X175784380Y-131405142D01*
X176260571Y-129976571D01*
X176736761Y-131405142D01*
X177212952Y-129405142D01*
X179117714Y-131262285D02*
X178879619Y-131405142D01*
X178403428Y-131405142D01*
X178165333Y-131262285D01*
X178046285Y-130976571D01*
X178046285Y-129833714D01*
X178165333Y-129548000D01*
X178403428Y-129405142D01*
X178879619Y-129405142D01*
X179117714Y-129548000D01*
X179236761Y-129833714D01*
X179236761Y-130119428D01*
X178046285Y-130405142D01*
X180308190Y-131405142D02*
X180308190Y-129405142D01*
X180308190Y-129976571D02*
X180427238Y-129690857D01*
X180546285Y-129548000D01*
X180784380Y-129405142D01*
X181022476Y-129405142D01*
X181855809Y-131405142D02*
X181855809Y-128405142D01*
X182689142Y-130548000D01*
X183522476Y-128405142D01*
X183522476Y-131405142D01*
X184712952Y-131405142D02*
X184712952Y-129405142D01*
X184712952Y-128405142D02*
X184593904Y-128548000D01*
X184712952Y-128690857D01*
X184832000Y-128548000D01*
X184712952Y-128405142D01*
X184712952Y-128690857D01*
X185903428Y-131405142D02*
X185903428Y-128405142D01*
X186141523Y-130262285D02*
X186855809Y-131405142D01*
X186855809Y-129405142D02*
X185903428Y-130548000D01*
X188879619Y-131262285D02*
X188641523Y-131405142D01*
X188165333Y-131405142D01*
X187927238Y-131262285D01*
X187808190Y-130976571D01*
X187808190Y-129833714D01*
X187927238Y-129548000D01*
X188165333Y-129405142D01*
X188641523Y-129405142D01*
X188879619Y-129548000D01*
X188998666Y-129833714D01*
X188998666Y-130119428D01*
X187808190Y-130405142D01*
D12*
X196342095Y-87384000D02*
X196246857Y-87336380D01*
X196104000Y-87336380D01*
X195961142Y-87384000D01*
X195865904Y-87479238D01*
X195818285Y-87574476D01*
X195770666Y-87764952D01*
X195770666Y-87907809D01*
X195818285Y-88098285D01*
X195865904Y-88193523D01*
X195961142Y-88288761D01*
X196104000Y-88336380D01*
X196199238Y-88336380D01*
X196342095Y-88288761D01*
X196389714Y-88241142D01*
X196389714Y-87907809D01*
X196199238Y-87907809D01*
X196818285Y-88336380D02*
X196818285Y-87336380D01*
X197389714Y-88336380D01*
X197389714Y-87336380D01*
X197865904Y-88336380D02*
X197865904Y-87336380D01*
X198104000Y-87336380D01*
X198246857Y-87384000D01*
X198342095Y-87479238D01*
X198389714Y-87574476D01*
X198437333Y-87764952D01*
X198437333Y-87907809D01*
X198389714Y-88098285D01*
X198342095Y-88193523D01*
X198246857Y-88288761D01*
X198104000Y-88336380D01*
X197865904Y-88336380D01*
X196437333Y-84796380D02*
X195961142Y-84796380D01*
X195913523Y-85272571D01*
X195961142Y-85224952D01*
X196056380Y-85177333D01*
X196294476Y-85177333D01*
X196389714Y-85224952D01*
X196437333Y-85272571D01*
X196484952Y-85367809D01*
X196484952Y-85605904D01*
X196437333Y-85701142D01*
X196389714Y-85748761D01*
X196294476Y-85796380D01*
X196056380Y-85796380D01*
X195961142Y-85748761D01*
X195913523Y-85701142D01*
X196770666Y-84796380D02*
X197104000Y-85796380D01*
X197437333Y-84796380D01*
X197961142Y-84796380D02*
X198056380Y-84796380D01*
X198151619Y-84844000D01*
X198199238Y-84891619D01*
X198246857Y-84986857D01*
X198294476Y-85177333D01*
X198294476Y-85415428D01*
X198246857Y-85605904D01*
X198199238Y-85701142D01*
X198151619Y-85748761D01*
X198056380Y-85796380D01*
X197961142Y-85796380D01*
X197865904Y-85748761D01*
X197818285Y-85701142D01*
X197770666Y-85605904D01*
X197723047Y-85415428D01*
X197723047Y-85177333D01*
X197770666Y-84986857D01*
X197818285Y-84891619D01*
X197865904Y-84844000D01*
X197961142Y-84796380D01*
X195865904Y-82256380D02*
X196484952Y-82256380D01*
X196151619Y-82637333D01*
X196294476Y-82637333D01*
X196389714Y-82684952D01*
X196437333Y-82732571D01*
X196484952Y-82827809D01*
X196484952Y-83065904D01*
X196437333Y-83161142D01*
X196389714Y-83208761D01*
X196294476Y-83256380D01*
X196008761Y-83256380D01*
X195913523Y-83208761D01*
X195865904Y-83161142D01*
X196770666Y-82256380D02*
X197104000Y-83256380D01*
X197437333Y-82256380D01*
X197675428Y-82256380D02*
X198294476Y-82256380D01*
X197961142Y-82637333D01*
X198104000Y-82637333D01*
X198199238Y-82684952D01*
X198246857Y-82732571D01*
X198294476Y-82827809D01*
X198294476Y-83065904D01*
X198246857Y-83161142D01*
X198199238Y-83208761D01*
X198104000Y-83256380D01*
X197818285Y-83256380D01*
X197723047Y-83208761D01*
X197675428Y-83161142D01*
X195889714Y-80668761D02*
X196032571Y-80716380D01*
X196270666Y-80716380D01*
X196365904Y-80668761D01*
X196413523Y-80621142D01*
X196461142Y-80525904D01*
X196461142Y-80430666D01*
X196413523Y-80335428D01*
X196365904Y-80287809D01*
X196270666Y-80240190D01*
X196080190Y-80192571D01*
X195984952Y-80144952D01*
X195937333Y-80097333D01*
X195889714Y-80002095D01*
X195889714Y-79906857D01*
X195937333Y-79811619D01*
X195984952Y-79764000D01*
X196080190Y-79716380D01*
X196318285Y-79716380D01*
X196461142Y-79764000D01*
X196889714Y-80716380D02*
X196889714Y-79716380D01*
X197127809Y-79716380D01*
X197270666Y-79764000D01*
X197365904Y-79859238D01*
X197413523Y-79954476D01*
X197461142Y-80144952D01*
X197461142Y-80287809D01*
X197413523Y-80478285D01*
X197365904Y-80573523D01*
X197270666Y-80668761D01*
X197127809Y-80716380D01*
X196889714Y-80716380D01*
X197842095Y-80430666D02*
X198318285Y-80430666D01*
X197746857Y-80716380D02*
X198080190Y-79716380D01*
X198413523Y-80716380D01*
X195913523Y-78128761D02*
X196056380Y-78176380D01*
X196294476Y-78176380D01*
X196389714Y-78128761D01*
X196437333Y-78081142D01*
X196484952Y-77985904D01*
X196484952Y-77890666D01*
X196437333Y-77795428D01*
X196389714Y-77747809D01*
X196294476Y-77700190D01*
X196104000Y-77652571D01*
X196008761Y-77604952D01*
X195961142Y-77557333D01*
X195913523Y-77462095D01*
X195913523Y-77366857D01*
X195961142Y-77271619D01*
X196008761Y-77224000D01*
X196104000Y-77176380D01*
X196342095Y-77176380D01*
X196484952Y-77224000D01*
X197484952Y-78081142D02*
X197437333Y-78128761D01*
X197294476Y-78176380D01*
X197199238Y-78176380D01*
X197056380Y-78128761D01*
X196961142Y-78033523D01*
X196913523Y-77938285D01*
X196865904Y-77747809D01*
X196865904Y-77604952D01*
X196913523Y-77414476D01*
X196961142Y-77319238D01*
X197056380Y-77224000D01*
X197199238Y-77176380D01*
X197294476Y-77176380D01*
X197437333Y-77224000D01*
X197484952Y-77271619D01*
X198389714Y-78176380D02*
X197913523Y-78176380D01*
X197913523Y-77176380D01*
D10*
X144491333Y-73068571D02*
X144491333Y-71568571D01*
X145958000Y-72925714D02*
X145891333Y-72997142D01*
X145691333Y-73068571D01*
X145558000Y-73068571D01*
X145358000Y-72997142D01*
X145224666Y-72854285D01*
X145158000Y-72711428D01*
X145091333Y-72425714D01*
X145091333Y-72211428D01*
X145158000Y-71925714D01*
X145224666Y-71782857D01*
X145358000Y-71640000D01*
X145558000Y-71568571D01*
X145691333Y-71568571D01*
X145891333Y-71640000D01*
X145958000Y-71711428D01*
X146491333Y-72997142D02*
X146691333Y-73068571D01*
X147024666Y-73068571D01*
X147158000Y-72997142D01*
X147224666Y-72925714D01*
X147291333Y-72782857D01*
X147291333Y-72640000D01*
X147224666Y-72497142D01*
X147158000Y-72425714D01*
X147024666Y-72354285D01*
X146758000Y-72282857D01*
X146624666Y-72211428D01*
X146558000Y-72140000D01*
X146491333Y-71997142D01*
X146491333Y-71854285D01*
X146558000Y-71711428D01*
X146624666Y-71640000D01*
X146758000Y-71568571D01*
X147091333Y-71568571D01*
X147291333Y-71640000D01*
X147891333Y-73068571D02*
X147891333Y-71568571D01*
X148424666Y-71568571D01*
X148558000Y-71640000D01*
X148624666Y-71711428D01*
X148691333Y-71854285D01*
X148691333Y-72068571D01*
X148624666Y-72211428D01*
X148558000Y-72282857D01*
X148424666Y-72354285D01*
X147891333Y-72354285D01*
D14*
G36*
X141224000Y-73406000D02*
G01*
X138684000Y-73406000D01*
X139954000Y-71374000D01*
X141224000Y-73406000D01*
G37*
X141224000Y-73406000D02*
X138684000Y-73406000D01*
X139954000Y-71374000D01*
X141224000Y-73406000D01*
D15*
%TO.C,J4*%
X106865000Y-125875000D02*
X106365000Y-125325000D01*
X105865000Y-125875000D02*
X106865000Y-125875000D01*
X106365000Y-125325000D02*
X105865000Y-125875000D01*
D16*
X100565000Y-113025000D02*
X108315000Y-113025000D01*
X112665000Y-113025000D02*
X115065000Y-113025000D01*
X115065000Y-113025000D02*
X115065000Y-124825000D01*
X115065000Y-124825000D02*
X114965000Y-124825000D01*
X112365000Y-124825000D02*
X108615000Y-124825000D01*
X104115000Y-124825000D02*
X100565000Y-124825000D01*
X100565000Y-124825000D02*
X100565000Y-113025000D01*
D15*
%TO.C,Q2*%
X163050000Y-121595000D02*
X161590000Y-121595000D01*
X163050000Y-118435000D02*
X160890000Y-118435000D01*
X163050000Y-118435000D02*
X163050000Y-119365000D01*
X163050000Y-121595000D02*
X163050000Y-120665000D01*
%TO.C,J5*%
X117475000Y-125095000D02*
X117475000Y-114935000D01*
X116205000Y-125095000D02*
X123825000Y-125095000D01*
X123825000Y-125095000D02*
X123825000Y-114935000D01*
X123825000Y-114935000D02*
X116205000Y-114935000D01*
X116205000Y-114935000D02*
X116205000Y-125095000D01*
%TO.C,J8*%
X197215000Y-125095000D02*
X197215000Y-109855000D01*
X189595000Y-125095000D02*
X189595000Y-109855000D01*
X195945000Y-125095000D02*
X195945000Y-109855000D01*
X197215000Y-109855000D02*
X189595000Y-109855000D01*
X197215000Y-125095000D02*
X189595000Y-125095000D01*
%TO.C,PS1*%
X102985000Y-80915000D02*
X102985000Y-82925000D01*
X137575000Y-74315000D02*
X103375000Y-74315000D01*
X137575000Y-94515000D02*
X137575000Y-74315000D01*
X103375000Y-94515000D02*
X137575000Y-94515000D01*
X103375000Y-74315000D02*
X103375000Y-94515000D01*
D11*
%TO.C,T1*%
X117265000Y-98375000D02*
G75*
G03*
X117265000Y-98375000I-100000J0D01*
G01*
D17*
X136965000Y-96425000D02*
X136965000Y-113125000D01*
X136965000Y-113125000D02*
X117765000Y-113125000D01*
X117765000Y-113125000D02*
X117765000Y-96425000D01*
X117765000Y-96425000D02*
X136965000Y-96425000D01*
D15*
%TO.C,R11*%
X142254564Y-115930000D02*
X140800436Y-115930000D01*
X142254564Y-117750000D02*
X140800436Y-117750000D01*
%TO.C,R10*%
X142254564Y-104500000D02*
X140800436Y-104500000D01*
X142254564Y-106320000D02*
X140800436Y-106320000D01*
%TO.C,R13*%
X148604564Y-112120000D02*
X147150436Y-112120000D01*
X148604564Y-113940000D02*
X147150436Y-113940000D01*
%TO.C,R12*%
X148604564Y-108310000D02*
X147150436Y-108310000D01*
X148604564Y-110130000D02*
X147150436Y-110130000D01*
%TO.C,C4*%
X142338752Y-108310000D02*
X140916248Y-108310000D01*
X142338752Y-110130000D02*
X140916248Y-110130000D01*
%TO.C,C5*%
X142338752Y-113940000D02*
X140916248Y-113940000D01*
X142338752Y-112120000D02*
X140916248Y-112120000D01*
%TO.C,J2*%
X109585000Y-99695000D02*
X109585000Y-109855000D01*
X110855000Y-99695000D02*
X103235000Y-99695000D01*
X103235000Y-99695000D02*
X103235000Y-109855000D01*
X103235000Y-109855000D02*
X110855000Y-109855000D01*
X110855000Y-109855000D02*
X110855000Y-99695000D01*
%TO.C,C8*%
X140314437Y-98605000D02*
X139250000Y-97540563D01*
X140314437Y-98605000D02*
X143000000Y-98605000D01*
X148705563Y-98605000D02*
X146020000Y-98605000D01*
X149770000Y-97540563D02*
X149770000Y-88085000D01*
X139250000Y-97540563D02*
X139250000Y-88085000D01*
X141125000Y-99470000D02*
X142375000Y-99470000D01*
X139250000Y-88085000D02*
X143000000Y-88085000D01*
X149770000Y-88085000D02*
X146020000Y-88085000D01*
X141750000Y-100095000D02*
X141750000Y-98845000D01*
X148705563Y-98605000D02*
X149770000Y-97540563D01*
%TO.C,C3*%
X148705563Y-75385000D02*
X149770000Y-76449437D01*
X148705563Y-75385000D02*
X146020000Y-75385000D01*
X140314437Y-75385000D02*
X143000000Y-75385000D01*
X139250000Y-76449437D02*
X139250000Y-85905000D01*
X149770000Y-76449437D02*
X149770000Y-85905000D01*
X147895000Y-74520000D02*
X146645000Y-74520000D01*
X149770000Y-85905000D02*
X146020000Y-85905000D01*
X139250000Y-85905000D02*
X143000000Y-85905000D01*
X147270000Y-73895000D02*
X147270000Y-75145000D01*
X140314437Y-75385000D02*
X139250000Y-76449437D01*
%TO.C,C1*%
X131805000Y-70633752D02*
X131805000Y-69211248D01*
X133625000Y-70633752D02*
X133625000Y-69211248D01*
%TO.C,J1*%
X121810000Y-66820000D02*
X121810000Y-72840000D01*
X121810000Y-72840000D02*
X129650000Y-72840000D01*
X129650000Y-72840000D02*
X129650000Y-66820000D01*
X129650000Y-66820000D02*
X121810000Y-66820000D01*
X121520000Y-67850000D02*
X121520000Y-71850000D01*
X123190000Y-72840000D02*
X123190000Y-71840000D01*
X123190000Y-71840000D02*
X128270000Y-71840000D01*
X128270000Y-71840000D02*
X128270000Y-72840000D01*
X123190000Y-71840000D02*
X123440000Y-71310000D01*
X123440000Y-71310000D02*
X128020000Y-71310000D01*
X128020000Y-71310000D02*
X128270000Y-71840000D01*
X123440000Y-72840000D02*
X123440000Y-71840000D01*
X128020000Y-72840000D02*
X128020000Y-71840000D01*
X122390000Y-66820000D02*
X122390000Y-67420000D01*
X122390000Y-67420000D02*
X123990000Y-67420000D01*
X123990000Y-67420000D02*
X123990000Y-66820000D01*
X124930000Y-66820000D02*
X124930000Y-67420000D01*
X124930000Y-67420000D02*
X126530000Y-67420000D01*
X126530000Y-67420000D02*
X126530000Y-66820000D01*
X127470000Y-66820000D02*
X127470000Y-67420000D01*
X127470000Y-67420000D02*
X129070000Y-67420000D01*
X129070000Y-67420000D02*
X129070000Y-66820000D01*
%TO.C,J3*%
X195054000Y-76344000D02*
X189034000Y-76344000D01*
X189034000Y-76344000D02*
X189034000Y-89264000D01*
X189034000Y-89264000D02*
X195054000Y-89264000D01*
X195054000Y-89264000D02*
X195054000Y-76344000D01*
X194024000Y-76054000D02*
X190024000Y-76054000D01*
X189034000Y-77724000D02*
X190034000Y-77724000D01*
X190034000Y-77724000D02*
X190034000Y-87884000D01*
X190034000Y-87884000D02*
X189034000Y-87884000D01*
X190034000Y-77724000D02*
X190564000Y-77974000D01*
X190564000Y-77974000D02*
X190564000Y-87634000D01*
X190564000Y-87634000D02*
X190034000Y-87884000D01*
X189034000Y-77974000D02*
X190034000Y-77974000D01*
X189034000Y-87634000D02*
X190034000Y-87634000D01*
X195054000Y-76924000D02*
X194454000Y-76924000D01*
X194454000Y-76924000D02*
X194454000Y-78524000D01*
X194454000Y-78524000D02*
X195054000Y-78524000D01*
X195054000Y-79464000D02*
X194454000Y-79464000D01*
X194454000Y-79464000D02*
X194454000Y-81064000D01*
X194454000Y-81064000D02*
X195054000Y-81064000D01*
X195054000Y-82004000D02*
X194454000Y-82004000D01*
X194454000Y-82004000D02*
X194454000Y-83604000D01*
X194454000Y-83604000D02*
X195054000Y-83604000D01*
X195054000Y-84544000D02*
X194454000Y-84544000D01*
X194454000Y-84544000D02*
X194454000Y-86144000D01*
X194454000Y-86144000D02*
X195054000Y-86144000D01*
X195054000Y-87084000D02*
X194454000Y-87084000D01*
X194454000Y-87084000D02*
X194454000Y-88684000D01*
X194454000Y-88684000D02*
X195054000Y-88684000D01*
%TO.C,R25*%
X184865436Y-87355000D02*
X186319564Y-87355000D01*
X184865436Y-89175000D02*
X186319564Y-89175000D01*
%TO.C,R24*%
X186319564Y-86635000D02*
X184865436Y-86635000D01*
X186319564Y-84815000D02*
X184865436Y-84815000D01*
%TO.C,R23*%
X156062000Y-98709564D02*
X156062000Y-97255436D01*
X157882000Y-98709564D02*
X157882000Y-97255436D01*
%TO.C,R22*%
X158602000Y-98709564D02*
X158602000Y-97255436D01*
X160422000Y-98709564D02*
X160422000Y-97255436D01*
%TO.C,R21*%
X163200000Y-114400436D02*
X163200000Y-115854564D01*
X161380000Y-114400436D02*
X161380000Y-115854564D01*
%TO.C,R20*%
X163200000Y-97255436D02*
X163200000Y-98709564D01*
X161380000Y-97255436D02*
X161380000Y-98709564D01*
%TO.C,R19*%
X148604564Y-117750000D02*
X147150436Y-117750000D01*
X148604564Y-115930000D02*
X147150436Y-115930000D01*
%TO.C,R18*%
X155589564Y-117750000D02*
X154135436Y-117750000D01*
X155589564Y-115930000D02*
X154135436Y-115930000D01*
%TO.C,C11*%
X154580000Y-94246248D02*
X154580000Y-95668752D01*
X152760000Y-94246248D02*
X152760000Y-95668752D01*
%TO.C,C10*%
X152040000Y-94246248D02*
X152040000Y-95668752D01*
X150220000Y-94246248D02*
X150220000Y-95668752D01*
D18*
%TO.C,U3*%
X177276000Y-89281000D02*
X177276000Y-88519000D01*
X161274000Y-89281000D02*
X177276000Y-89281000D01*
X161274000Y-88519000D02*
X161274000Y-89281000D01*
D16*
%TO.C,U2*%
X153680000Y-110135000D02*
X153680000Y-110310000D01*
X156930000Y-110135000D02*
X156930000Y-110410000D01*
X156930000Y-113385000D02*
X156930000Y-113110000D01*
X153680000Y-113385000D02*
X153680000Y-113110000D01*
X153680000Y-110135000D02*
X156930000Y-110135000D01*
X153680000Y-113385000D02*
X156930000Y-113385000D01*
X153680000Y-110310000D02*
X152605000Y-110310000D01*
D15*
%TO.C,U1*%
X151475000Y-87630000D02*
X151475000Y-91080000D01*
X151475000Y-87630000D02*
X151475000Y-85680000D01*
X156595000Y-87630000D02*
X156595000Y-89580000D01*
X156595000Y-87630000D02*
X156595000Y-85680000D01*
%TO.C,SW1*%
X151745000Y-128040000D02*
X151745000Y-126540000D01*
X150495000Y-124040000D02*
X145995000Y-124040000D01*
X144745000Y-126540000D02*
X144745000Y-128040000D01*
X145995000Y-130540000D02*
X150495000Y-130540000D01*
%TO.C,R9*%
X156935000Y-122655436D02*
X156935000Y-124109564D01*
X158755000Y-122655436D02*
X158755000Y-124109564D01*
%TO.C,R6*%
X153760000Y-127985436D02*
X153760000Y-129439564D01*
X155580000Y-127985436D02*
X155580000Y-129439564D01*
%TO.C,R5*%
X140800436Y-121560000D02*
X142254564Y-121560000D01*
X140800436Y-119740000D02*
X142254564Y-119740000D01*
%TO.C,R17*%
X155589564Y-106405000D02*
X154135436Y-106405000D01*
X155589564Y-108225000D02*
X154135436Y-108225000D01*
%TO.C,R15*%
X184865436Y-76475000D02*
X186319564Y-76475000D01*
X184865436Y-74655000D02*
X186319564Y-74655000D01*
%TO.C,R16*%
X184865436Y-79015000D02*
X186319564Y-79015000D01*
X184865436Y-77195000D02*
X186319564Y-77195000D01*
%TO.C,SW2*%
X140315000Y-128040000D02*
X140315000Y-126540000D01*
X139065000Y-124040000D02*
X134565000Y-124040000D01*
X133315000Y-126540000D02*
X133315000Y-128040000D01*
X134565000Y-130540000D02*
X139065000Y-130540000D01*
%TO.C,R3*%
X114314564Y-96245000D02*
X112860436Y-96245000D01*
X114314564Y-98065000D02*
X112860436Y-98065000D01*
%TO.C,R14*%
X154319564Y-74020000D02*
X152865436Y-74020000D01*
X154319564Y-75840000D02*
X152865436Y-75840000D01*
%TO.C,R8*%
X153760000Y-122655436D02*
X153760000Y-124109564D01*
X155580000Y-122655436D02*
X155580000Y-124109564D01*
%TO.C,R2*%
X184865436Y-81555000D02*
X186319564Y-81555000D01*
X184865436Y-79735000D02*
X186319564Y-79735000D01*
%TO.C,R7*%
X156935000Y-127985436D02*
X156935000Y-129439564D01*
X158755000Y-127985436D02*
X158755000Y-129439564D01*
%TO.C,R4*%
X142254564Y-100690000D02*
X140800436Y-100690000D01*
X142254564Y-102510000D02*
X140800436Y-102510000D01*
%TO.C,C9*%
X155673752Y-102595000D02*
X154251248Y-102595000D01*
X155673752Y-104415000D02*
X154251248Y-104415000D01*
%TO.C,C6*%
X153031248Y-82190000D02*
X154453752Y-82190000D01*
X153031248Y-80370000D02*
X154453752Y-80370000D01*
%TO.C,C7*%
X148688752Y-119740000D02*
X147266248Y-119740000D01*
X148688752Y-121560000D02*
X147266248Y-121560000D01*
%TO.C,D1*%
X155815000Y-76970000D02*
X151930000Y-76970000D01*
X155815000Y-79240000D02*
X155815000Y-76970000D01*
X151930000Y-79240000D02*
X155815000Y-79240000D01*
%TO.C,C2*%
X136165000Y-70633752D02*
X136165000Y-69211248D01*
X134345000Y-70633752D02*
X134345000Y-69211248D01*
%TO.C,R1*%
X184865436Y-84095000D02*
X186319564Y-84095000D01*
X184865436Y-82275000D02*
X186319564Y-82275000D01*
%TO.C,K1*%
X177960000Y-102180000D02*
X173960000Y-102180000D01*
X177960000Y-98580000D02*
X177960000Y-102180000D01*
X173960000Y-98580000D02*
X177960000Y-98580000D01*
X173960000Y-102180000D02*
X173960000Y-98580000D01*
X177960000Y-102180000D02*
X173960000Y-98580000D01*
X175960000Y-102180000D02*
X175960000Y-106380000D01*
X175960000Y-94380000D02*
X175960000Y-98580000D01*
X172560000Y-100380000D02*
X172560000Y-103980000D01*
X179360000Y-100380000D02*
X179360000Y-103980000D01*
X179360000Y-103980000D02*
X172560000Y-103980000D01*
X180860000Y-100380000D02*
X185460000Y-97880000D01*
X179360000Y-100380000D02*
X180860000Y-100380000D01*
X175960000Y-94380000D02*
X173460000Y-94380000D01*
X172560000Y-100380000D02*
X171760000Y-100380000D01*
X173460000Y-106380000D02*
X175960000Y-106380000D01*
X184060000Y-96130000D02*
X184060000Y-98630000D01*
X184060000Y-104530000D02*
X184060000Y-102080000D01*
X188310000Y-108130000D02*
X168510000Y-108130000D01*
X188310000Y-92530000D02*
X188310000Y-108130000D01*
X168510000Y-92530000D02*
X188310000Y-92530000D01*
X168510000Y-92530000D02*
X168510000Y-99130000D01*
X168510000Y-101530000D02*
X168510000Y-108130000D01*
%TO.C,Q1*%
X163050000Y-104450000D02*
X161590000Y-104450000D01*
X163050000Y-101290000D02*
X160890000Y-101290000D01*
X163050000Y-101290000D02*
X163050000Y-102220000D01*
X163050000Y-104450000D02*
X163050000Y-103520000D01*
%TO.C,J7*%
X197215000Y-107950000D02*
X197215000Y-92710000D01*
X189595000Y-107950000D02*
X189595000Y-92710000D01*
X195945000Y-107950000D02*
X195945000Y-92710000D01*
X197215000Y-92710000D02*
X189595000Y-92710000D01*
X197215000Y-107950000D02*
X189595000Y-107950000D01*
%TO.C,J6*%
X138735000Y-69850000D02*
X138735000Y-68520000D01*
X138735000Y-68520000D02*
X140065000Y-68520000D01*
X141335000Y-68520000D02*
X154095000Y-68520000D01*
X154095000Y-71180000D02*
X154095000Y-68520000D01*
X141335000Y-71180000D02*
X154095000Y-71180000D01*
X141335000Y-71180000D02*
X141335000Y-68520000D01*
%TO.C,K2*%
X177960000Y-119325000D02*
X173960000Y-119325000D01*
X177960000Y-115725000D02*
X177960000Y-119325000D01*
X173960000Y-115725000D02*
X177960000Y-115725000D01*
X173960000Y-119325000D02*
X173960000Y-115725000D01*
X177960000Y-119325000D02*
X173960000Y-115725000D01*
X175960000Y-119325000D02*
X175960000Y-123525000D01*
X175960000Y-111525000D02*
X175960000Y-115725000D01*
X172560000Y-117525000D02*
X172560000Y-121125000D01*
X179360000Y-117525000D02*
X179360000Y-121125000D01*
X179360000Y-121125000D02*
X172560000Y-121125000D01*
X180860000Y-117525000D02*
X185460000Y-115025000D01*
X179360000Y-117525000D02*
X180860000Y-117525000D01*
X175960000Y-111525000D02*
X173460000Y-111525000D01*
X172560000Y-117525000D02*
X171760000Y-117525000D01*
X173460000Y-123525000D02*
X175960000Y-123525000D01*
X184060000Y-113275000D02*
X184060000Y-115775000D01*
X184060000Y-121675000D02*
X184060000Y-119225000D01*
X188310000Y-125275000D02*
X168510000Y-125275000D01*
X188310000Y-109675000D02*
X188310000Y-125275000D01*
X168510000Y-109675000D02*
X188310000Y-109675000D01*
X168510000Y-109675000D02*
X168510000Y-116275000D01*
X168510000Y-118675000D02*
X168510000Y-125275000D01*
%TO.C,D5*%
X167750000Y-113075000D02*
X167750000Y-119975000D01*
X164450000Y-113075000D02*
X164450000Y-119975000D01*
X167750000Y-113075000D02*
X164450000Y-113075000D01*
%TO.C,D4*%
X167750000Y-95930000D02*
X167750000Y-102830000D01*
X164450000Y-95930000D02*
X164450000Y-102830000D01*
X167750000Y-95930000D02*
X164450000Y-95930000D01*
%TO.C,D3*%
X162415000Y-112260000D02*
X166300000Y-112260000D01*
X162415000Y-109990000D02*
X162415000Y-112260000D01*
X166300000Y-109990000D02*
X162415000Y-109990000D01*
%TO.C,D2*%
X162415000Y-95115000D02*
X166300000Y-95115000D01*
X162415000Y-92845000D02*
X162415000Y-95115000D01*
X166300000Y-92845000D02*
X162415000Y-92845000D01*
%TO.C,J4*%
D16*
X101666666Y-111452380D02*
X101666666Y-112166666D01*
X101619047Y-112309523D01*
X101523809Y-112404761D01*
X101380952Y-112452380D01*
X101285714Y-112452380D01*
X102571428Y-111785714D02*
X102571428Y-112452380D01*
X102333333Y-111404761D02*
X102095238Y-112119047D01*
X102714285Y-112119047D01*
%TO.C,Q2*%
X159416761Y-119419619D02*
X159321523Y-119372000D01*
X159226285Y-119276761D01*
X159083428Y-119133904D01*
X158988190Y-119086285D01*
X158892952Y-119086285D01*
X158940571Y-119324380D02*
X158845333Y-119276761D01*
X158750095Y-119181523D01*
X158702476Y-118991047D01*
X158702476Y-118657714D01*
X158750095Y-118467238D01*
X158845333Y-118372000D01*
X158940571Y-118324380D01*
X159131047Y-118324380D01*
X159226285Y-118372000D01*
X159321523Y-118467238D01*
X159369142Y-118657714D01*
X159369142Y-118991047D01*
X159321523Y-119181523D01*
X159226285Y-119276761D01*
X159131047Y-119324380D01*
X158940571Y-119324380D01*
X159750095Y-118419619D02*
X159797714Y-118372000D01*
X159892952Y-118324380D01*
X160131047Y-118324380D01*
X160226285Y-118372000D01*
X160273904Y-118419619D01*
X160321523Y-118514857D01*
X160321523Y-118610095D01*
X160273904Y-118752952D01*
X159702476Y-119324380D01*
X160321523Y-119324380D01*
%TO.C,J5*%
X124547380Y-120348333D02*
X125261666Y-120348333D01*
X125404523Y-120395952D01*
X125499761Y-120491190D01*
X125547380Y-120634047D01*
X125547380Y-120729285D01*
X124547380Y-119395952D02*
X124547380Y-119872142D01*
X125023571Y-119919761D01*
X124975952Y-119872142D01*
X124928333Y-119776904D01*
X124928333Y-119538809D01*
X124975952Y-119443571D01*
X125023571Y-119395952D01*
X125118809Y-119348333D01*
X125356904Y-119348333D01*
X125452142Y-119395952D01*
X125499761Y-119443571D01*
X125547380Y-119538809D01*
X125547380Y-119776904D01*
X125499761Y-119872142D01*
X125452142Y-119919761D01*
%TO.C,J8*%
X189952380Y-111458333D02*
X190666666Y-111458333D01*
X190809523Y-111505952D01*
X190904761Y-111601190D01*
X190952380Y-111744047D01*
X190952380Y-111839285D01*
X190380952Y-110839285D02*
X190333333Y-110934523D01*
X190285714Y-110982142D01*
X190190476Y-111029761D01*
X190142857Y-111029761D01*
X190047619Y-110982142D01*
X190000000Y-110934523D01*
X189952380Y-110839285D01*
X189952380Y-110648809D01*
X190000000Y-110553571D01*
X190047619Y-110505952D01*
X190142857Y-110458333D01*
X190190476Y-110458333D01*
X190285714Y-110505952D01*
X190333333Y-110553571D01*
X190380952Y-110648809D01*
X190380952Y-110839285D01*
X190428571Y-110934523D01*
X190476190Y-110982142D01*
X190571428Y-111029761D01*
X190761904Y-111029761D01*
X190857142Y-110982142D01*
X190904761Y-110934523D01*
X190952380Y-110839285D01*
X190952380Y-110648809D01*
X190904761Y-110553571D01*
X190857142Y-110505952D01*
X190761904Y-110458333D01*
X190571428Y-110458333D01*
X190476190Y-110505952D01*
X190428571Y-110553571D01*
X190380952Y-110648809D01*
%TO.C,PS1*%
X102287380Y-82579285D02*
X101287380Y-82579285D01*
X101287380Y-82198333D01*
X101335000Y-82103095D01*
X101382619Y-82055476D01*
X101477857Y-82007857D01*
X101620714Y-82007857D01*
X101715952Y-82055476D01*
X101763571Y-82103095D01*
X101811190Y-82198333D01*
X101811190Y-82579285D01*
X102239761Y-81626904D02*
X102287380Y-81484047D01*
X102287380Y-81245952D01*
X102239761Y-81150714D01*
X102192142Y-81103095D01*
X102096904Y-81055476D01*
X102001666Y-81055476D01*
X101906428Y-81103095D01*
X101858809Y-81150714D01*
X101811190Y-81245952D01*
X101763571Y-81436428D01*
X101715952Y-81531666D01*
X101668333Y-81579285D01*
X101573095Y-81626904D01*
X101477857Y-81626904D01*
X101382619Y-81579285D01*
X101335000Y-81531666D01*
X101287380Y-81436428D01*
X101287380Y-81198333D01*
X101335000Y-81055476D01*
X102287380Y-80103095D02*
X102287380Y-80674523D01*
X102287380Y-80388809D02*
X101287380Y-80388809D01*
X101430238Y-80484047D01*
X101525476Y-80579285D01*
X101573095Y-80674523D01*
%TO.C,T1*%
X119618095Y-94702380D02*
X120189523Y-94702380D01*
X119903809Y-95702380D02*
X119903809Y-94702380D01*
X121046666Y-95702380D02*
X120475238Y-95702380D01*
X120760952Y-95702380D02*
X120760952Y-94702380D01*
X120665714Y-94845238D01*
X120570476Y-94940476D01*
X120475238Y-94988095D01*
%TO.C,R11*%
X140884642Y-119112380D02*
X140551309Y-118636190D01*
X140313214Y-119112380D02*
X140313214Y-118112380D01*
X140694166Y-118112380D01*
X140789404Y-118160000D01*
X140837023Y-118207619D01*
X140884642Y-118302857D01*
X140884642Y-118445714D01*
X140837023Y-118540952D01*
X140789404Y-118588571D01*
X140694166Y-118636190D01*
X140313214Y-118636190D01*
X141837023Y-119112380D02*
X141265595Y-119112380D01*
X141551309Y-119112380D02*
X141551309Y-118112380D01*
X141456071Y-118255238D01*
X141360833Y-118350476D01*
X141265595Y-118398095D01*
X142789404Y-119112380D02*
X142217976Y-119112380D01*
X142503690Y-119112380D02*
X142503690Y-118112380D01*
X142408452Y-118255238D01*
X142313214Y-118350476D01*
X142217976Y-118398095D01*
%TO.C,R10*%
X140692142Y-107767380D02*
X140358809Y-107291190D01*
X140120714Y-107767380D02*
X140120714Y-106767380D01*
X140501666Y-106767380D01*
X140596904Y-106815000D01*
X140644523Y-106862619D01*
X140692142Y-106957857D01*
X140692142Y-107100714D01*
X140644523Y-107195952D01*
X140596904Y-107243571D01*
X140501666Y-107291190D01*
X140120714Y-107291190D01*
X141644523Y-107767380D02*
X141073095Y-107767380D01*
X141358809Y-107767380D02*
X141358809Y-106767380D01*
X141263571Y-106910238D01*
X141168333Y-107005476D01*
X141073095Y-107053095D01*
X142263571Y-106767380D02*
X142358809Y-106767380D01*
X142454047Y-106815000D01*
X142501666Y-106862619D01*
X142549285Y-106957857D01*
X142596904Y-107148333D01*
X142596904Y-107386428D01*
X142549285Y-107576904D01*
X142501666Y-107672142D01*
X142454047Y-107719761D01*
X142358809Y-107767380D01*
X142263571Y-107767380D01*
X142168333Y-107719761D01*
X142120714Y-107672142D01*
X142073095Y-107576904D01*
X142025476Y-107386428D01*
X142025476Y-107148333D01*
X142073095Y-106957857D01*
X142120714Y-106862619D01*
X142168333Y-106815000D01*
X142263571Y-106767380D01*
%TO.C,R13*%
X147234642Y-115302380D02*
X146901309Y-114826190D01*
X146663214Y-115302380D02*
X146663214Y-114302380D01*
X147044166Y-114302380D01*
X147139404Y-114350000D01*
X147187023Y-114397619D01*
X147234642Y-114492857D01*
X147234642Y-114635714D01*
X147187023Y-114730952D01*
X147139404Y-114778571D01*
X147044166Y-114826190D01*
X146663214Y-114826190D01*
X148187023Y-115302380D02*
X147615595Y-115302380D01*
X147901309Y-115302380D02*
X147901309Y-114302380D01*
X147806071Y-114445238D01*
X147710833Y-114540476D01*
X147615595Y-114588095D01*
X148520357Y-114302380D02*
X149139404Y-114302380D01*
X148806071Y-114683333D01*
X148948928Y-114683333D01*
X149044166Y-114730952D01*
X149091785Y-114778571D01*
X149139404Y-114873809D01*
X149139404Y-115111904D01*
X149091785Y-115207142D01*
X149044166Y-115254761D01*
X148948928Y-115302380D01*
X148663214Y-115302380D01*
X148567976Y-115254761D01*
X148520357Y-115207142D01*
%TO.C,R12*%
X147234642Y-111492380D02*
X146901309Y-111016190D01*
X146663214Y-111492380D02*
X146663214Y-110492380D01*
X147044166Y-110492380D01*
X147139404Y-110540000D01*
X147187023Y-110587619D01*
X147234642Y-110682857D01*
X147234642Y-110825714D01*
X147187023Y-110920952D01*
X147139404Y-110968571D01*
X147044166Y-111016190D01*
X146663214Y-111016190D01*
X148187023Y-111492380D02*
X147615595Y-111492380D01*
X147901309Y-111492380D02*
X147901309Y-110492380D01*
X147806071Y-110635238D01*
X147710833Y-110730476D01*
X147615595Y-110778095D01*
X148567976Y-110587619D02*
X148615595Y-110540000D01*
X148710833Y-110492380D01*
X148948928Y-110492380D01*
X149044166Y-110540000D01*
X149091785Y-110587619D01*
X149139404Y-110682857D01*
X149139404Y-110778095D01*
X149091785Y-110920952D01*
X148520357Y-111492380D01*
X149139404Y-111492380D01*
%TO.C,C4*%
X141460833Y-111427142D02*
X141413214Y-111474761D01*
X141270357Y-111522380D01*
X141175119Y-111522380D01*
X141032261Y-111474761D01*
X140937023Y-111379523D01*
X140889404Y-111284285D01*
X140841785Y-111093809D01*
X140841785Y-110950952D01*
X140889404Y-110760476D01*
X140937023Y-110665238D01*
X141032261Y-110570000D01*
X141175119Y-110522380D01*
X141270357Y-110522380D01*
X141413214Y-110570000D01*
X141460833Y-110617619D01*
X142317976Y-110855714D02*
X142317976Y-111522380D01*
X142079880Y-110474761D02*
X141841785Y-111189047D01*
X142460833Y-111189047D01*
%TO.C,C5*%
X141460833Y-115237142D02*
X141413214Y-115284761D01*
X141270357Y-115332380D01*
X141175119Y-115332380D01*
X141032261Y-115284761D01*
X140937023Y-115189523D01*
X140889404Y-115094285D01*
X140841785Y-114903809D01*
X140841785Y-114760952D01*
X140889404Y-114570476D01*
X140937023Y-114475238D01*
X141032261Y-114380000D01*
X141175119Y-114332380D01*
X141270357Y-114332380D01*
X141413214Y-114380000D01*
X141460833Y-114427619D01*
X142365595Y-114332380D02*
X141889404Y-114332380D01*
X141841785Y-114808571D01*
X141889404Y-114760952D01*
X141984642Y-114713333D01*
X142222738Y-114713333D01*
X142317976Y-114760952D01*
X142365595Y-114808571D01*
X142413214Y-114903809D01*
X142413214Y-115141904D01*
X142365595Y-115237142D01*
X142317976Y-115284761D01*
X142222738Y-115332380D01*
X141984642Y-115332380D01*
X141889404Y-115284761D01*
X141841785Y-115237142D01*
%TO.C,J2*%
X101417380Y-105108333D02*
X102131666Y-105108333D01*
X102274523Y-105155952D01*
X102369761Y-105251190D01*
X102417380Y-105394047D01*
X102417380Y-105489285D01*
X101512619Y-104679761D02*
X101465000Y-104632142D01*
X101417380Y-104536904D01*
X101417380Y-104298809D01*
X101465000Y-104203571D01*
X101512619Y-104155952D01*
X101607857Y-104108333D01*
X101703095Y-104108333D01*
X101845952Y-104155952D01*
X102417380Y-104727380D01*
X102417380Y-104108333D01*
%TO.C,C8*%
X139898333Y-87352142D02*
X139850714Y-87399761D01*
X139707857Y-87447380D01*
X139612619Y-87447380D01*
X139469761Y-87399761D01*
X139374523Y-87304523D01*
X139326904Y-87209285D01*
X139279285Y-87018809D01*
X139279285Y-86875952D01*
X139326904Y-86685476D01*
X139374523Y-86590238D01*
X139469761Y-86495000D01*
X139612619Y-86447380D01*
X139707857Y-86447380D01*
X139850714Y-86495000D01*
X139898333Y-86542619D01*
X140469761Y-86875952D02*
X140374523Y-86828333D01*
X140326904Y-86780714D01*
X140279285Y-86685476D01*
X140279285Y-86637857D01*
X140326904Y-86542619D01*
X140374523Y-86495000D01*
X140469761Y-86447380D01*
X140660238Y-86447380D01*
X140755476Y-86495000D01*
X140803095Y-86542619D01*
X140850714Y-86637857D01*
X140850714Y-86685476D01*
X140803095Y-86780714D01*
X140755476Y-86828333D01*
X140660238Y-86875952D01*
X140469761Y-86875952D01*
X140374523Y-86923571D01*
X140326904Y-86971190D01*
X140279285Y-87066428D01*
X140279285Y-87256904D01*
X140326904Y-87352142D01*
X140374523Y-87399761D01*
X140469761Y-87447380D01*
X140660238Y-87447380D01*
X140755476Y-87399761D01*
X140803095Y-87352142D01*
X140850714Y-87256904D01*
X140850714Y-87066428D01*
X140803095Y-86971190D01*
X140755476Y-86923571D01*
X140660238Y-86875952D01*
%TO.C,C3*%
X139898333Y-74652142D02*
X139850714Y-74699761D01*
X139707857Y-74747380D01*
X139612619Y-74747380D01*
X139469761Y-74699761D01*
X139374523Y-74604523D01*
X139326904Y-74509285D01*
X139279285Y-74318809D01*
X139279285Y-74175952D01*
X139326904Y-73985476D01*
X139374523Y-73890238D01*
X139469761Y-73795000D01*
X139612619Y-73747380D01*
X139707857Y-73747380D01*
X139850714Y-73795000D01*
X139898333Y-73842619D01*
X140231666Y-73747380D02*
X140850714Y-73747380D01*
X140517380Y-74128333D01*
X140660238Y-74128333D01*
X140755476Y-74175952D01*
X140803095Y-74223571D01*
X140850714Y-74318809D01*
X140850714Y-74556904D01*
X140803095Y-74652142D01*
X140755476Y-74699761D01*
X140660238Y-74747380D01*
X140374523Y-74747380D01*
X140279285Y-74699761D01*
X140231666Y-74652142D01*
%TO.C,C1*%
X131167142Y-70016666D02*
X131214761Y-70064285D01*
X131262380Y-70207142D01*
X131262380Y-70302380D01*
X131214761Y-70445238D01*
X131119523Y-70540476D01*
X131024285Y-70588095D01*
X130833809Y-70635714D01*
X130690952Y-70635714D01*
X130500476Y-70588095D01*
X130405238Y-70540476D01*
X130310000Y-70445238D01*
X130262380Y-70302380D01*
X130262380Y-70207142D01*
X130310000Y-70064285D01*
X130357619Y-70016666D01*
X131262380Y-69064285D02*
X131262380Y-69635714D01*
X131262380Y-69350000D02*
X130262380Y-69350000D01*
X130405238Y-69445238D01*
X130500476Y-69540476D01*
X130548095Y-69635714D01*
%TO.C,J1*%
X120062666Y-67016380D02*
X120062666Y-67730666D01*
X120015047Y-67873523D01*
X119919809Y-67968761D01*
X119776952Y-68016380D01*
X119681714Y-68016380D01*
X121062666Y-68016380D02*
X120491238Y-68016380D01*
X120776952Y-68016380D02*
X120776952Y-67016380D01*
X120681714Y-67159238D01*
X120586476Y-67254476D01*
X120491238Y-67302095D01*
%TO.C,J3*%
X189658666Y-74636380D02*
X189658666Y-75350666D01*
X189611047Y-75493523D01*
X189515809Y-75588761D01*
X189372952Y-75636380D01*
X189277714Y-75636380D01*
X190039619Y-74636380D02*
X190658666Y-74636380D01*
X190325333Y-75017333D01*
X190468190Y-75017333D01*
X190563428Y-75064952D01*
X190611047Y-75112571D01*
X190658666Y-75207809D01*
X190658666Y-75445904D01*
X190611047Y-75541142D01*
X190563428Y-75588761D01*
X190468190Y-75636380D01*
X190182476Y-75636380D01*
X190087238Y-75588761D01*
X190039619Y-75541142D01*
%TO.C,R25*%
X180697142Y-88717380D02*
X180363809Y-88241190D01*
X180125714Y-88717380D02*
X180125714Y-87717380D01*
X180506666Y-87717380D01*
X180601904Y-87765000D01*
X180649523Y-87812619D01*
X180697142Y-87907857D01*
X180697142Y-88050714D01*
X180649523Y-88145952D01*
X180601904Y-88193571D01*
X180506666Y-88241190D01*
X180125714Y-88241190D01*
X181078095Y-87812619D02*
X181125714Y-87765000D01*
X181220952Y-87717380D01*
X181459047Y-87717380D01*
X181554285Y-87765000D01*
X181601904Y-87812619D01*
X181649523Y-87907857D01*
X181649523Y-88003095D01*
X181601904Y-88145952D01*
X181030476Y-88717380D01*
X181649523Y-88717380D01*
X182554285Y-87717380D02*
X182078095Y-87717380D01*
X182030476Y-88193571D01*
X182078095Y-88145952D01*
X182173333Y-88098333D01*
X182411428Y-88098333D01*
X182506666Y-88145952D01*
X182554285Y-88193571D01*
X182601904Y-88288809D01*
X182601904Y-88526904D01*
X182554285Y-88622142D01*
X182506666Y-88669761D01*
X182411428Y-88717380D01*
X182173333Y-88717380D01*
X182078095Y-88669761D01*
X182030476Y-88622142D01*
%TO.C,R24*%
X180697142Y-86177380D02*
X180363809Y-85701190D01*
X180125714Y-86177380D02*
X180125714Y-85177380D01*
X180506666Y-85177380D01*
X180601904Y-85225000D01*
X180649523Y-85272619D01*
X180697142Y-85367857D01*
X180697142Y-85510714D01*
X180649523Y-85605952D01*
X180601904Y-85653571D01*
X180506666Y-85701190D01*
X180125714Y-85701190D01*
X181078095Y-85272619D02*
X181125714Y-85225000D01*
X181220952Y-85177380D01*
X181459047Y-85177380D01*
X181554285Y-85225000D01*
X181601904Y-85272619D01*
X181649523Y-85367857D01*
X181649523Y-85463095D01*
X181601904Y-85605952D01*
X181030476Y-86177380D01*
X181649523Y-86177380D01*
X182506666Y-85510714D02*
X182506666Y-86177380D01*
X182268571Y-85129761D02*
X182030476Y-85844047D01*
X182649523Y-85844047D01*
%TO.C,R23*%
X157424380Y-94622857D02*
X156948190Y-94956190D01*
X157424380Y-95194285D02*
X156424380Y-95194285D01*
X156424380Y-94813333D01*
X156472000Y-94718095D01*
X156519619Y-94670476D01*
X156614857Y-94622857D01*
X156757714Y-94622857D01*
X156852952Y-94670476D01*
X156900571Y-94718095D01*
X156948190Y-94813333D01*
X156948190Y-95194285D01*
X156519619Y-94241904D02*
X156472000Y-94194285D01*
X156424380Y-94099047D01*
X156424380Y-93860952D01*
X156472000Y-93765714D01*
X156519619Y-93718095D01*
X156614857Y-93670476D01*
X156710095Y-93670476D01*
X156852952Y-93718095D01*
X157424380Y-94289523D01*
X157424380Y-93670476D01*
X156424380Y-93337142D02*
X156424380Y-92718095D01*
X156805333Y-93051428D01*
X156805333Y-92908571D01*
X156852952Y-92813333D01*
X156900571Y-92765714D01*
X156995809Y-92718095D01*
X157233904Y-92718095D01*
X157329142Y-92765714D01*
X157376761Y-92813333D01*
X157424380Y-92908571D01*
X157424380Y-93194285D01*
X157376761Y-93289523D01*
X157329142Y-93337142D01*
%TO.C,R22*%
X159964380Y-94622857D02*
X159488190Y-94956190D01*
X159964380Y-95194285D02*
X158964380Y-95194285D01*
X158964380Y-94813333D01*
X159012000Y-94718095D01*
X159059619Y-94670476D01*
X159154857Y-94622857D01*
X159297714Y-94622857D01*
X159392952Y-94670476D01*
X159440571Y-94718095D01*
X159488190Y-94813333D01*
X159488190Y-95194285D01*
X159059619Y-94241904D02*
X159012000Y-94194285D01*
X158964380Y-94099047D01*
X158964380Y-93860952D01*
X159012000Y-93765714D01*
X159059619Y-93718095D01*
X159154857Y-93670476D01*
X159250095Y-93670476D01*
X159392952Y-93718095D01*
X159964380Y-94289523D01*
X159964380Y-93670476D01*
X159059619Y-93289523D02*
X159012000Y-93241904D01*
X158964380Y-93146666D01*
X158964380Y-92908571D01*
X159012000Y-92813333D01*
X159059619Y-92765714D01*
X159154857Y-92718095D01*
X159250095Y-92718095D01*
X159392952Y-92765714D01*
X159964380Y-93337142D01*
X159964380Y-92718095D01*
%TO.C,R21*%
X160952380Y-115770357D02*
X160476190Y-116103690D01*
X160952380Y-116341785D02*
X159952380Y-116341785D01*
X159952380Y-115960833D01*
X160000000Y-115865595D01*
X160047619Y-115817976D01*
X160142857Y-115770357D01*
X160285714Y-115770357D01*
X160380952Y-115817976D01*
X160428571Y-115865595D01*
X160476190Y-115960833D01*
X160476190Y-116341785D01*
X160047619Y-115389404D02*
X160000000Y-115341785D01*
X159952380Y-115246547D01*
X159952380Y-115008452D01*
X160000000Y-114913214D01*
X160047619Y-114865595D01*
X160142857Y-114817976D01*
X160238095Y-114817976D01*
X160380952Y-114865595D01*
X160952380Y-115437023D01*
X160952380Y-114817976D01*
X160952380Y-113865595D02*
X160952380Y-114437023D01*
X160952380Y-114151309D02*
X159952380Y-114151309D01*
X160095238Y-114246547D01*
X160190476Y-114341785D01*
X160238095Y-114437023D01*
%TO.C,R20*%
X161996380Y-94622857D02*
X161520190Y-94956190D01*
X161996380Y-95194285D02*
X160996380Y-95194285D01*
X160996380Y-94813333D01*
X161044000Y-94718095D01*
X161091619Y-94670476D01*
X161186857Y-94622857D01*
X161329714Y-94622857D01*
X161424952Y-94670476D01*
X161472571Y-94718095D01*
X161520190Y-94813333D01*
X161520190Y-95194285D01*
X161091619Y-94241904D02*
X161044000Y-94194285D01*
X160996380Y-94099047D01*
X160996380Y-93860952D01*
X161044000Y-93765714D01*
X161091619Y-93718095D01*
X161186857Y-93670476D01*
X161282095Y-93670476D01*
X161424952Y-93718095D01*
X161996380Y-94289523D01*
X161996380Y-93670476D01*
X160996380Y-93051428D02*
X160996380Y-92956190D01*
X161044000Y-92860952D01*
X161091619Y-92813333D01*
X161186857Y-92765714D01*
X161377333Y-92718095D01*
X161615428Y-92718095D01*
X161805904Y-92765714D01*
X161901142Y-92813333D01*
X161948761Y-92860952D01*
X161996380Y-92956190D01*
X161996380Y-93051428D01*
X161948761Y-93146666D01*
X161901142Y-93194285D01*
X161805904Y-93241904D01*
X161615428Y-93289523D01*
X161377333Y-93289523D01*
X161186857Y-93241904D01*
X161091619Y-93194285D01*
X161044000Y-93146666D01*
X160996380Y-93051428D01*
%TO.C,R19*%
X147234642Y-119112380D02*
X146901309Y-118636190D01*
X146663214Y-119112380D02*
X146663214Y-118112380D01*
X147044166Y-118112380D01*
X147139404Y-118160000D01*
X147187023Y-118207619D01*
X147234642Y-118302857D01*
X147234642Y-118445714D01*
X147187023Y-118540952D01*
X147139404Y-118588571D01*
X147044166Y-118636190D01*
X146663214Y-118636190D01*
X148187023Y-119112380D02*
X147615595Y-119112380D01*
X147901309Y-119112380D02*
X147901309Y-118112380D01*
X147806071Y-118255238D01*
X147710833Y-118350476D01*
X147615595Y-118398095D01*
X148663214Y-119112380D02*
X148853690Y-119112380D01*
X148948928Y-119064761D01*
X148996547Y-119017142D01*
X149091785Y-118874285D01*
X149139404Y-118683809D01*
X149139404Y-118302857D01*
X149091785Y-118207619D01*
X149044166Y-118160000D01*
X148948928Y-118112380D01*
X148758452Y-118112380D01*
X148663214Y-118160000D01*
X148615595Y-118207619D01*
X148567976Y-118302857D01*
X148567976Y-118540952D01*
X148615595Y-118636190D01*
X148663214Y-118683809D01*
X148758452Y-118731428D01*
X148948928Y-118731428D01*
X149044166Y-118683809D01*
X149091785Y-118636190D01*
X149139404Y-118540952D01*
%TO.C,R18*%
X154219642Y-119112380D02*
X153886309Y-118636190D01*
X153648214Y-119112380D02*
X153648214Y-118112380D01*
X154029166Y-118112380D01*
X154124404Y-118160000D01*
X154172023Y-118207619D01*
X154219642Y-118302857D01*
X154219642Y-118445714D01*
X154172023Y-118540952D01*
X154124404Y-118588571D01*
X154029166Y-118636190D01*
X153648214Y-118636190D01*
X155172023Y-119112380D02*
X154600595Y-119112380D01*
X154886309Y-119112380D02*
X154886309Y-118112380D01*
X154791071Y-118255238D01*
X154695833Y-118350476D01*
X154600595Y-118398095D01*
X155743452Y-118540952D02*
X155648214Y-118493333D01*
X155600595Y-118445714D01*
X155552976Y-118350476D01*
X155552976Y-118302857D01*
X155600595Y-118207619D01*
X155648214Y-118160000D01*
X155743452Y-118112380D01*
X155933928Y-118112380D01*
X156029166Y-118160000D01*
X156076785Y-118207619D01*
X156124404Y-118302857D01*
X156124404Y-118350476D01*
X156076785Y-118445714D01*
X156029166Y-118493333D01*
X155933928Y-118540952D01*
X155743452Y-118540952D01*
X155648214Y-118588571D01*
X155600595Y-118636190D01*
X155552976Y-118731428D01*
X155552976Y-118921904D01*
X155600595Y-119017142D01*
X155648214Y-119064761D01*
X155743452Y-119112380D01*
X155933928Y-119112380D01*
X156029166Y-119064761D01*
X156076785Y-119017142D01*
X156124404Y-118921904D01*
X156124404Y-118731428D01*
X156076785Y-118636190D01*
X156029166Y-118588571D01*
X155933928Y-118540952D01*
%TO.C,C11*%
X154027142Y-99702857D02*
X154074761Y-99750476D01*
X154122380Y-99893333D01*
X154122380Y-99988571D01*
X154074761Y-100131428D01*
X153979523Y-100226666D01*
X153884285Y-100274285D01*
X153693809Y-100321904D01*
X153550952Y-100321904D01*
X153360476Y-100274285D01*
X153265238Y-100226666D01*
X153170000Y-100131428D01*
X153122380Y-99988571D01*
X153122380Y-99893333D01*
X153170000Y-99750476D01*
X153217619Y-99702857D01*
X154122380Y-98750476D02*
X154122380Y-99321904D01*
X154122380Y-99036190D02*
X153122380Y-99036190D01*
X153265238Y-99131428D01*
X153360476Y-99226666D01*
X153408095Y-99321904D01*
X154122380Y-97798095D02*
X154122380Y-98369523D01*
X154122380Y-98083809D02*
X153122380Y-98083809D01*
X153265238Y-98179047D01*
X153360476Y-98274285D01*
X153408095Y-98369523D01*
%TO.C,C10*%
X151487142Y-99702857D02*
X151534761Y-99750476D01*
X151582380Y-99893333D01*
X151582380Y-99988571D01*
X151534761Y-100131428D01*
X151439523Y-100226666D01*
X151344285Y-100274285D01*
X151153809Y-100321904D01*
X151010952Y-100321904D01*
X150820476Y-100274285D01*
X150725238Y-100226666D01*
X150630000Y-100131428D01*
X150582380Y-99988571D01*
X150582380Y-99893333D01*
X150630000Y-99750476D01*
X150677619Y-99702857D01*
X151582380Y-98750476D02*
X151582380Y-99321904D01*
X151582380Y-99036190D02*
X150582380Y-99036190D01*
X150725238Y-99131428D01*
X150820476Y-99226666D01*
X150868095Y-99321904D01*
X150582380Y-98131428D02*
X150582380Y-98036190D01*
X150630000Y-97940952D01*
X150677619Y-97893333D01*
X150772857Y-97845714D01*
X150963333Y-97798095D01*
X151201428Y-97798095D01*
X151391904Y-97845714D01*
X151487142Y-97893333D01*
X151534761Y-97940952D01*
X151582380Y-98036190D01*
X151582380Y-98131428D01*
X151534761Y-98226666D01*
X151487142Y-98274285D01*
X151391904Y-98321904D01*
X151201428Y-98369523D01*
X150963333Y-98369523D01*
X150772857Y-98321904D01*
X150677619Y-98274285D01*
X150630000Y-98226666D01*
X150582380Y-98131428D01*
%TO.C,U3*%
X176768095Y-90257380D02*
X176768095Y-91066904D01*
X176815714Y-91162142D01*
X176863333Y-91209761D01*
X176958571Y-91257380D01*
X177149047Y-91257380D01*
X177244285Y-91209761D01*
X177291904Y-91162142D01*
X177339523Y-91066904D01*
X177339523Y-90257380D01*
X177720476Y-90257380D02*
X178339523Y-90257380D01*
X178006190Y-90638333D01*
X178149047Y-90638333D01*
X178244285Y-90685952D01*
X178291904Y-90733571D01*
X178339523Y-90828809D01*
X178339523Y-91066904D01*
X178291904Y-91162142D01*
X178244285Y-91209761D01*
X178149047Y-91257380D01*
X177863333Y-91257380D01*
X177768095Y-91209761D01*
X177720476Y-91162142D01*
%TO.C,U2*%
X157083095Y-108672380D02*
X157083095Y-109481904D01*
X157130714Y-109577142D01*
X157178333Y-109624761D01*
X157273571Y-109672380D01*
X157464047Y-109672380D01*
X157559285Y-109624761D01*
X157606904Y-109577142D01*
X157654523Y-109481904D01*
X157654523Y-108672380D01*
X158083095Y-108767619D02*
X158130714Y-108720000D01*
X158225952Y-108672380D01*
X158464047Y-108672380D01*
X158559285Y-108720000D01*
X158606904Y-108767619D01*
X158654523Y-108862857D01*
X158654523Y-108958095D01*
X158606904Y-109100952D01*
X158035476Y-109672380D01*
X158654523Y-109672380D01*
%TO.C,U1*%
X150087380Y-88391904D02*
X150896904Y-88391904D01*
X150992142Y-88344285D01*
X151039761Y-88296666D01*
X151087380Y-88201428D01*
X151087380Y-88010952D01*
X151039761Y-87915714D01*
X150992142Y-87868095D01*
X150896904Y-87820476D01*
X150087380Y-87820476D01*
X151087380Y-86820476D02*
X151087380Y-87391904D01*
X151087380Y-87106190D02*
X150087380Y-87106190D01*
X150230238Y-87201428D01*
X150325476Y-87296666D01*
X150373095Y-87391904D01*
%TO.C,SW1*%
X143152761Y-128333333D02*
X143200380Y-128190476D01*
X143200380Y-127952380D01*
X143152761Y-127857142D01*
X143105142Y-127809523D01*
X143009904Y-127761904D01*
X142914666Y-127761904D01*
X142819428Y-127809523D01*
X142771809Y-127857142D01*
X142724190Y-127952380D01*
X142676571Y-128142857D01*
X142628952Y-128238095D01*
X142581333Y-128285714D01*
X142486095Y-128333333D01*
X142390857Y-128333333D01*
X142295619Y-128285714D01*
X142248000Y-128238095D01*
X142200380Y-128142857D01*
X142200380Y-127904761D01*
X142248000Y-127761904D01*
X142200380Y-127428571D02*
X143200380Y-127190476D01*
X142486095Y-127000000D01*
X143200380Y-126809523D01*
X142200380Y-126571428D01*
X143200380Y-125666666D02*
X143200380Y-126238095D01*
X143200380Y-125952380D02*
X142200380Y-125952380D01*
X142343238Y-126047619D01*
X142438476Y-126142857D01*
X142486095Y-126238095D01*
%TO.C,R9*%
X159964380Y-123549166D02*
X159488190Y-123882500D01*
X159964380Y-124120595D02*
X158964380Y-124120595D01*
X158964380Y-123739642D01*
X159012000Y-123644404D01*
X159059619Y-123596785D01*
X159154857Y-123549166D01*
X159297714Y-123549166D01*
X159392952Y-123596785D01*
X159440571Y-123644404D01*
X159488190Y-123739642D01*
X159488190Y-124120595D01*
X159964380Y-123072976D02*
X159964380Y-122882500D01*
X159916761Y-122787261D01*
X159869142Y-122739642D01*
X159726285Y-122644404D01*
X159535809Y-122596785D01*
X159154857Y-122596785D01*
X159059619Y-122644404D01*
X159012000Y-122692023D01*
X158964380Y-122787261D01*
X158964380Y-122977738D01*
X159012000Y-123072976D01*
X159059619Y-123120595D01*
X159154857Y-123168214D01*
X159392952Y-123168214D01*
X159488190Y-123120595D01*
X159535809Y-123072976D01*
X159583428Y-122977738D01*
X159583428Y-122787261D01*
X159535809Y-122692023D01*
X159488190Y-122644404D01*
X159392952Y-122596785D01*
%TO.C,R6*%
X156662380Y-128879166D02*
X156186190Y-129212500D01*
X156662380Y-129450595D02*
X155662380Y-129450595D01*
X155662380Y-129069642D01*
X155710000Y-128974404D01*
X155757619Y-128926785D01*
X155852857Y-128879166D01*
X155995714Y-128879166D01*
X156090952Y-128926785D01*
X156138571Y-128974404D01*
X156186190Y-129069642D01*
X156186190Y-129450595D01*
X155662380Y-128022023D02*
X155662380Y-128212500D01*
X155710000Y-128307738D01*
X155757619Y-128355357D01*
X155900476Y-128450595D01*
X156090952Y-128498214D01*
X156471904Y-128498214D01*
X156567142Y-128450595D01*
X156614761Y-128402976D01*
X156662380Y-128307738D01*
X156662380Y-128117261D01*
X156614761Y-128022023D01*
X156567142Y-127974404D01*
X156471904Y-127926785D01*
X156233809Y-127926785D01*
X156138571Y-127974404D01*
X156090952Y-128022023D01*
X156043333Y-128117261D01*
X156043333Y-128307738D01*
X156090952Y-128402976D01*
X156138571Y-128450595D01*
X156233809Y-128498214D01*
%TO.C,R5*%
X141168333Y-123007380D02*
X140835000Y-122531190D01*
X140596904Y-123007380D02*
X140596904Y-122007380D01*
X140977857Y-122007380D01*
X141073095Y-122055000D01*
X141120714Y-122102619D01*
X141168333Y-122197857D01*
X141168333Y-122340714D01*
X141120714Y-122435952D01*
X141073095Y-122483571D01*
X140977857Y-122531190D01*
X140596904Y-122531190D01*
X142073095Y-122007380D02*
X141596904Y-122007380D01*
X141549285Y-122483571D01*
X141596904Y-122435952D01*
X141692142Y-122388333D01*
X141930238Y-122388333D01*
X142025476Y-122435952D01*
X142073095Y-122483571D01*
X142120714Y-122578809D01*
X142120714Y-122816904D01*
X142073095Y-122912142D01*
X142025476Y-122959761D01*
X141930238Y-123007380D01*
X141692142Y-123007380D01*
X141596904Y-122959761D01*
X141549285Y-122912142D01*
%TO.C,R17*%
X154219642Y-109587380D02*
X153886309Y-109111190D01*
X153648214Y-109587380D02*
X153648214Y-108587380D01*
X154029166Y-108587380D01*
X154124404Y-108635000D01*
X154172023Y-108682619D01*
X154219642Y-108777857D01*
X154219642Y-108920714D01*
X154172023Y-109015952D01*
X154124404Y-109063571D01*
X154029166Y-109111190D01*
X153648214Y-109111190D01*
X155172023Y-109587380D02*
X154600595Y-109587380D01*
X154886309Y-109587380D02*
X154886309Y-108587380D01*
X154791071Y-108730238D01*
X154695833Y-108825476D01*
X154600595Y-108873095D01*
X155505357Y-108587380D02*
X156172023Y-108587380D01*
X155743452Y-109587380D01*
%TO.C,R15*%
X180697142Y-76017380D02*
X180363809Y-75541190D01*
X180125714Y-76017380D02*
X180125714Y-75017380D01*
X180506666Y-75017380D01*
X180601904Y-75065000D01*
X180649523Y-75112619D01*
X180697142Y-75207857D01*
X180697142Y-75350714D01*
X180649523Y-75445952D01*
X180601904Y-75493571D01*
X180506666Y-75541190D01*
X180125714Y-75541190D01*
X181649523Y-76017380D02*
X181078095Y-76017380D01*
X181363809Y-76017380D02*
X181363809Y-75017380D01*
X181268571Y-75160238D01*
X181173333Y-75255476D01*
X181078095Y-75303095D01*
X182554285Y-75017380D02*
X182078095Y-75017380D01*
X182030476Y-75493571D01*
X182078095Y-75445952D01*
X182173333Y-75398333D01*
X182411428Y-75398333D01*
X182506666Y-75445952D01*
X182554285Y-75493571D01*
X182601904Y-75588809D01*
X182601904Y-75826904D01*
X182554285Y-75922142D01*
X182506666Y-75969761D01*
X182411428Y-76017380D01*
X182173333Y-76017380D01*
X182078095Y-75969761D01*
X182030476Y-75922142D01*
%TO.C,R16*%
X180697142Y-78557380D02*
X180363809Y-78081190D01*
X180125714Y-78557380D02*
X180125714Y-77557380D01*
X180506666Y-77557380D01*
X180601904Y-77605000D01*
X180649523Y-77652619D01*
X180697142Y-77747857D01*
X180697142Y-77890714D01*
X180649523Y-77985952D01*
X180601904Y-78033571D01*
X180506666Y-78081190D01*
X180125714Y-78081190D01*
X181649523Y-78557380D02*
X181078095Y-78557380D01*
X181363809Y-78557380D02*
X181363809Y-77557380D01*
X181268571Y-77700238D01*
X181173333Y-77795476D01*
X181078095Y-77843095D01*
X182506666Y-77557380D02*
X182316190Y-77557380D01*
X182220952Y-77605000D01*
X182173333Y-77652619D01*
X182078095Y-77795476D01*
X182030476Y-77985952D01*
X182030476Y-78366904D01*
X182078095Y-78462142D01*
X182125714Y-78509761D01*
X182220952Y-78557380D01*
X182411428Y-78557380D01*
X182506666Y-78509761D01*
X182554285Y-78462142D01*
X182601904Y-78366904D01*
X182601904Y-78128809D01*
X182554285Y-78033571D01*
X182506666Y-77985952D01*
X182411428Y-77938333D01*
X182220952Y-77938333D01*
X182125714Y-77985952D01*
X182078095Y-78033571D01*
X182030476Y-78128809D01*
%TO.C,SW2*%
X131468761Y-128333333D02*
X131516380Y-128190476D01*
X131516380Y-127952380D01*
X131468761Y-127857142D01*
X131421142Y-127809523D01*
X131325904Y-127761904D01*
X131230666Y-127761904D01*
X131135428Y-127809523D01*
X131087809Y-127857142D01*
X131040190Y-127952380D01*
X130992571Y-128142857D01*
X130944952Y-128238095D01*
X130897333Y-128285714D01*
X130802095Y-128333333D01*
X130706857Y-128333333D01*
X130611619Y-128285714D01*
X130564000Y-128238095D01*
X130516380Y-128142857D01*
X130516380Y-127904761D01*
X130564000Y-127761904D01*
X130516380Y-127428571D02*
X131516380Y-127190476D01*
X130802095Y-127000000D01*
X131516380Y-126809523D01*
X130516380Y-126571428D01*
X130611619Y-126238095D02*
X130564000Y-126190476D01*
X130516380Y-126095238D01*
X130516380Y-125857142D01*
X130564000Y-125761904D01*
X130611619Y-125714285D01*
X130706857Y-125666666D01*
X130802095Y-125666666D01*
X130944952Y-125714285D01*
X131516380Y-126285714D01*
X131516380Y-125666666D01*
%TO.C,R3*%
X113420833Y-99427380D02*
X113087500Y-98951190D01*
X112849404Y-99427380D02*
X112849404Y-98427380D01*
X113230357Y-98427380D01*
X113325595Y-98475000D01*
X113373214Y-98522619D01*
X113420833Y-98617857D01*
X113420833Y-98760714D01*
X113373214Y-98855952D01*
X113325595Y-98903571D01*
X113230357Y-98951190D01*
X112849404Y-98951190D01*
X113754166Y-98427380D02*
X114373214Y-98427380D01*
X114039880Y-98808333D01*
X114182738Y-98808333D01*
X114277976Y-98855952D01*
X114325595Y-98903571D01*
X114373214Y-98998809D01*
X114373214Y-99236904D01*
X114325595Y-99332142D01*
X114277976Y-99379761D01*
X114182738Y-99427380D01*
X113897023Y-99427380D01*
X113801785Y-99379761D01*
X113754166Y-99332142D01*
%TO.C,R14*%
X157202142Y-75382380D02*
X156868809Y-74906190D01*
X156630714Y-75382380D02*
X156630714Y-74382380D01*
X157011666Y-74382380D01*
X157106904Y-74430000D01*
X157154523Y-74477619D01*
X157202142Y-74572857D01*
X157202142Y-74715714D01*
X157154523Y-74810952D01*
X157106904Y-74858571D01*
X157011666Y-74906190D01*
X156630714Y-74906190D01*
X158154523Y-75382380D02*
X157583095Y-75382380D01*
X157868809Y-75382380D02*
X157868809Y-74382380D01*
X157773571Y-74525238D01*
X157678333Y-74620476D01*
X157583095Y-74668095D01*
X159011666Y-74715714D02*
X159011666Y-75382380D01*
X158773571Y-74334761D02*
X158535476Y-75049047D01*
X159154523Y-75049047D01*
%TO.C,R8*%
X156662380Y-123549166D02*
X156186190Y-123882500D01*
X156662380Y-124120595D02*
X155662380Y-124120595D01*
X155662380Y-123739642D01*
X155710000Y-123644404D01*
X155757619Y-123596785D01*
X155852857Y-123549166D01*
X155995714Y-123549166D01*
X156090952Y-123596785D01*
X156138571Y-123644404D01*
X156186190Y-123739642D01*
X156186190Y-124120595D01*
X156090952Y-122977738D02*
X156043333Y-123072976D01*
X155995714Y-123120595D01*
X155900476Y-123168214D01*
X155852857Y-123168214D01*
X155757619Y-123120595D01*
X155710000Y-123072976D01*
X155662380Y-122977738D01*
X155662380Y-122787261D01*
X155710000Y-122692023D01*
X155757619Y-122644404D01*
X155852857Y-122596785D01*
X155900476Y-122596785D01*
X155995714Y-122644404D01*
X156043333Y-122692023D01*
X156090952Y-122787261D01*
X156090952Y-122977738D01*
X156138571Y-123072976D01*
X156186190Y-123120595D01*
X156281428Y-123168214D01*
X156471904Y-123168214D01*
X156567142Y-123120595D01*
X156614761Y-123072976D01*
X156662380Y-122977738D01*
X156662380Y-122787261D01*
X156614761Y-122692023D01*
X156567142Y-122644404D01*
X156471904Y-122596785D01*
X156281428Y-122596785D01*
X156186190Y-122644404D01*
X156138571Y-122692023D01*
X156090952Y-122787261D01*
%TO.C,R2*%
X181173333Y-81097380D02*
X180840000Y-80621190D01*
X180601904Y-81097380D02*
X180601904Y-80097380D01*
X180982857Y-80097380D01*
X181078095Y-80145000D01*
X181125714Y-80192619D01*
X181173333Y-80287857D01*
X181173333Y-80430714D01*
X181125714Y-80525952D01*
X181078095Y-80573571D01*
X180982857Y-80621190D01*
X180601904Y-80621190D01*
X181554285Y-80192619D02*
X181601904Y-80145000D01*
X181697142Y-80097380D01*
X181935238Y-80097380D01*
X182030476Y-80145000D01*
X182078095Y-80192619D01*
X182125714Y-80287857D01*
X182125714Y-80383095D01*
X182078095Y-80525952D01*
X181506666Y-81097380D01*
X182125714Y-81097380D01*
%TO.C,R7*%
X159964380Y-128879166D02*
X159488190Y-129212500D01*
X159964380Y-129450595D02*
X158964380Y-129450595D01*
X158964380Y-129069642D01*
X159012000Y-128974404D01*
X159059619Y-128926785D01*
X159154857Y-128879166D01*
X159297714Y-128879166D01*
X159392952Y-128926785D01*
X159440571Y-128974404D01*
X159488190Y-129069642D01*
X159488190Y-129450595D01*
X158964380Y-128545833D02*
X158964380Y-127879166D01*
X159964380Y-128307738D01*
%TO.C,R4*%
X141168333Y-103957380D02*
X140835000Y-103481190D01*
X140596904Y-103957380D02*
X140596904Y-102957380D01*
X140977857Y-102957380D01*
X141073095Y-103005000D01*
X141120714Y-103052619D01*
X141168333Y-103147857D01*
X141168333Y-103290714D01*
X141120714Y-103385952D01*
X141073095Y-103433571D01*
X140977857Y-103481190D01*
X140596904Y-103481190D01*
X142025476Y-103290714D02*
X142025476Y-103957380D01*
X141787380Y-102909761D02*
X141549285Y-103624047D01*
X142168333Y-103624047D01*
%TO.C,C9*%
X154795833Y-105712142D02*
X154748214Y-105759761D01*
X154605357Y-105807380D01*
X154510119Y-105807380D01*
X154367261Y-105759761D01*
X154272023Y-105664523D01*
X154224404Y-105569285D01*
X154176785Y-105378809D01*
X154176785Y-105235952D01*
X154224404Y-105045476D01*
X154272023Y-104950238D01*
X154367261Y-104855000D01*
X154510119Y-104807380D01*
X154605357Y-104807380D01*
X154748214Y-104855000D01*
X154795833Y-104902619D01*
X155272023Y-105807380D02*
X155462500Y-105807380D01*
X155557738Y-105759761D01*
X155605357Y-105712142D01*
X155700595Y-105569285D01*
X155748214Y-105378809D01*
X155748214Y-104997857D01*
X155700595Y-104902619D01*
X155652976Y-104855000D01*
X155557738Y-104807380D01*
X155367261Y-104807380D01*
X155272023Y-104855000D01*
X155224404Y-104902619D01*
X155176785Y-104997857D01*
X155176785Y-105235952D01*
X155224404Y-105331190D01*
X155272023Y-105378809D01*
X155367261Y-105426428D01*
X155557738Y-105426428D01*
X155652976Y-105378809D01*
X155700595Y-105331190D01*
X155748214Y-105235952D01*
%TO.C,C6*%
X157043333Y-81637142D02*
X156995714Y-81684761D01*
X156852857Y-81732380D01*
X156757619Y-81732380D01*
X156614761Y-81684761D01*
X156519523Y-81589523D01*
X156471904Y-81494285D01*
X156424285Y-81303809D01*
X156424285Y-81160952D01*
X156471904Y-80970476D01*
X156519523Y-80875238D01*
X156614761Y-80780000D01*
X156757619Y-80732380D01*
X156852857Y-80732380D01*
X156995714Y-80780000D01*
X157043333Y-80827619D01*
X157900476Y-80732380D02*
X157710000Y-80732380D01*
X157614761Y-80780000D01*
X157567142Y-80827619D01*
X157471904Y-80970476D01*
X157424285Y-81160952D01*
X157424285Y-81541904D01*
X157471904Y-81637142D01*
X157519523Y-81684761D01*
X157614761Y-81732380D01*
X157805238Y-81732380D01*
X157900476Y-81684761D01*
X157948095Y-81637142D01*
X157995714Y-81541904D01*
X157995714Y-81303809D01*
X157948095Y-81208571D01*
X157900476Y-81160952D01*
X157805238Y-81113333D01*
X157614761Y-81113333D01*
X157519523Y-81160952D01*
X157471904Y-81208571D01*
X157424285Y-81303809D01*
%TO.C,C7*%
X147810833Y-122912142D02*
X147763214Y-122959761D01*
X147620357Y-123007380D01*
X147525119Y-123007380D01*
X147382261Y-122959761D01*
X147287023Y-122864523D01*
X147239404Y-122769285D01*
X147191785Y-122578809D01*
X147191785Y-122435952D01*
X147239404Y-122245476D01*
X147287023Y-122150238D01*
X147382261Y-122055000D01*
X147525119Y-122007380D01*
X147620357Y-122007380D01*
X147763214Y-122055000D01*
X147810833Y-122102619D01*
X148144166Y-122007380D02*
X148810833Y-122007380D01*
X148382261Y-123007380D01*
%TO.C,D1*%
X156471904Y-78557380D02*
X156471904Y-77557380D01*
X156710000Y-77557380D01*
X156852857Y-77605000D01*
X156948095Y-77700238D01*
X156995714Y-77795476D01*
X157043333Y-77985952D01*
X157043333Y-78128809D01*
X156995714Y-78319285D01*
X156948095Y-78414523D01*
X156852857Y-78509761D01*
X156710000Y-78557380D01*
X156471904Y-78557380D01*
X157995714Y-78557380D02*
X157424285Y-78557380D01*
X157710000Y-78557380D02*
X157710000Y-77557380D01*
X157614761Y-77700238D01*
X157519523Y-77795476D01*
X157424285Y-77843095D01*
%TO.C,C2*%
X137517142Y-70016666D02*
X137564761Y-70064285D01*
X137612380Y-70207142D01*
X137612380Y-70302380D01*
X137564761Y-70445238D01*
X137469523Y-70540476D01*
X137374285Y-70588095D01*
X137183809Y-70635714D01*
X137040952Y-70635714D01*
X136850476Y-70588095D01*
X136755238Y-70540476D01*
X136660000Y-70445238D01*
X136612380Y-70302380D01*
X136612380Y-70207142D01*
X136660000Y-70064285D01*
X136707619Y-70016666D01*
X136707619Y-69635714D02*
X136660000Y-69588095D01*
X136612380Y-69492857D01*
X136612380Y-69254761D01*
X136660000Y-69159523D01*
X136707619Y-69111904D01*
X136802857Y-69064285D01*
X136898095Y-69064285D01*
X137040952Y-69111904D01*
X137612380Y-69683333D01*
X137612380Y-69064285D01*
%TO.C,R1*%
X181173333Y-83637380D02*
X180840000Y-83161190D01*
X180601904Y-83637380D02*
X180601904Y-82637380D01*
X180982857Y-82637380D01*
X181078095Y-82685000D01*
X181125714Y-82732619D01*
X181173333Y-82827857D01*
X181173333Y-82970714D01*
X181125714Y-83065952D01*
X181078095Y-83113571D01*
X180982857Y-83161190D01*
X180601904Y-83161190D01*
X182125714Y-83637380D02*
X181554285Y-83637380D01*
X181840000Y-83637380D02*
X181840000Y-82637380D01*
X181744761Y-82780238D01*
X181649523Y-82875476D01*
X181554285Y-82923095D01*
%TO.C,K1*%
X178331904Y-100782380D02*
X178331904Y-99782380D01*
X178903333Y-100782380D02*
X178474761Y-100210952D01*
X178903333Y-99782380D02*
X178331904Y-100353809D01*
X179855714Y-100782380D02*
X179284285Y-100782380D01*
X179570000Y-100782380D02*
X179570000Y-99782380D01*
X179474761Y-99925238D01*
X179379523Y-100020476D01*
X179284285Y-100068095D01*
%TO.C,Q1*%
X159416761Y-102147619D02*
X159321523Y-102100000D01*
X159226285Y-102004761D01*
X159083428Y-101861904D01*
X158988190Y-101814285D01*
X158892952Y-101814285D01*
X158940571Y-102052380D02*
X158845333Y-102004761D01*
X158750095Y-101909523D01*
X158702476Y-101719047D01*
X158702476Y-101385714D01*
X158750095Y-101195238D01*
X158845333Y-101100000D01*
X158940571Y-101052380D01*
X159131047Y-101052380D01*
X159226285Y-101100000D01*
X159321523Y-101195238D01*
X159369142Y-101385714D01*
X159369142Y-101719047D01*
X159321523Y-101909523D01*
X159226285Y-102004761D01*
X159131047Y-102052380D01*
X158940571Y-102052380D01*
X160321523Y-102052380D02*
X159750095Y-102052380D01*
X160035809Y-102052380D02*
X160035809Y-101052380D01*
X159940571Y-101195238D01*
X159845333Y-101290476D01*
X159750095Y-101338095D01*
%TO.C,J7*%
X189952380Y-94313333D02*
X190666666Y-94313333D01*
X190809523Y-94360952D01*
X190904761Y-94456190D01*
X190952380Y-94599047D01*
X190952380Y-94694285D01*
X189952380Y-93932380D02*
X189952380Y-93265714D01*
X190952380Y-93694285D01*
%TO.C,J6*%
X153019166Y-71524880D02*
X153019166Y-72239166D01*
X152971547Y-72382023D01*
X152876309Y-72477261D01*
X152733452Y-72524880D01*
X152638214Y-72524880D01*
X153923928Y-71524880D02*
X153733452Y-71524880D01*
X153638214Y-71572500D01*
X153590595Y-71620119D01*
X153495357Y-71762976D01*
X153447738Y-71953452D01*
X153447738Y-72334404D01*
X153495357Y-72429642D01*
X153542976Y-72477261D01*
X153638214Y-72524880D01*
X153828690Y-72524880D01*
X153923928Y-72477261D01*
X153971547Y-72429642D01*
X154019166Y-72334404D01*
X154019166Y-72096309D01*
X153971547Y-72001071D01*
X153923928Y-71953452D01*
X153828690Y-71905833D01*
X153638214Y-71905833D01*
X153542976Y-71953452D01*
X153495357Y-72001071D01*
X153447738Y-72096309D01*
%TO.C,K2*%
X178621904Y-117977380D02*
X178621904Y-116977380D01*
X179193333Y-117977380D02*
X178764761Y-117405952D01*
X179193333Y-116977380D02*
X178621904Y-117548809D01*
X179574285Y-117072619D02*
X179621904Y-117025000D01*
X179717142Y-116977380D01*
X179955238Y-116977380D01*
X180050476Y-117025000D01*
X180098095Y-117072619D01*
X180145714Y-117167857D01*
X180145714Y-117263095D01*
X180098095Y-117405952D01*
X179526666Y-117977380D01*
X180145714Y-117977380D01*
%TO.C,D5*%
X165377904Y-123388380D02*
X165377904Y-122388380D01*
X165616000Y-122388380D01*
X165758857Y-122436000D01*
X165854095Y-122531238D01*
X165901714Y-122626476D01*
X165949333Y-122816952D01*
X165949333Y-122959809D01*
X165901714Y-123150285D01*
X165854095Y-123245523D01*
X165758857Y-123340761D01*
X165616000Y-123388380D01*
X165377904Y-123388380D01*
X166854095Y-122388380D02*
X166377904Y-122388380D01*
X166330285Y-122864571D01*
X166377904Y-122816952D01*
X166473142Y-122769333D01*
X166711238Y-122769333D01*
X166806476Y-122816952D01*
X166854095Y-122864571D01*
X166901714Y-122959809D01*
X166901714Y-123197904D01*
X166854095Y-123293142D01*
X166806476Y-123340761D01*
X166711238Y-123388380D01*
X166473142Y-123388380D01*
X166377904Y-123340761D01*
X166330285Y-123293142D01*
%TO.C,D4*%
X165377904Y-106624380D02*
X165377904Y-105624380D01*
X165616000Y-105624380D01*
X165758857Y-105672000D01*
X165854095Y-105767238D01*
X165901714Y-105862476D01*
X165949333Y-106052952D01*
X165949333Y-106195809D01*
X165901714Y-106386285D01*
X165854095Y-106481523D01*
X165758857Y-106576761D01*
X165616000Y-106624380D01*
X165377904Y-106624380D01*
X166806476Y-105957714D02*
X166806476Y-106624380D01*
X166568380Y-105576761D02*
X166330285Y-106291047D01*
X166949333Y-106291047D01*
%TO.C,D3*%
X163853904Y-109164380D02*
X163853904Y-108164380D01*
X164092000Y-108164380D01*
X164234857Y-108212000D01*
X164330095Y-108307238D01*
X164377714Y-108402476D01*
X164425333Y-108592952D01*
X164425333Y-108735809D01*
X164377714Y-108926285D01*
X164330095Y-109021523D01*
X164234857Y-109116761D01*
X164092000Y-109164380D01*
X163853904Y-109164380D01*
X164758666Y-108164380D02*
X165377714Y-108164380D01*
X165044380Y-108545333D01*
X165187238Y-108545333D01*
X165282476Y-108592952D01*
X165330095Y-108640571D01*
X165377714Y-108735809D01*
X165377714Y-108973904D01*
X165330095Y-109069142D01*
X165282476Y-109116761D01*
X165187238Y-109164380D01*
X164901523Y-109164380D01*
X164806285Y-109116761D01*
X164758666Y-109069142D01*
%TO.C,D2*%
X163853904Y-92400380D02*
X163853904Y-91400380D01*
X164092000Y-91400380D01*
X164234857Y-91448000D01*
X164330095Y-91543238D01*
X164377714Y-91638476D01*
X164425333Y-91828952D01*
X164425333Y-91971809D01*
X164377714Y-92162285D01*
X164330095Y-92257523D01*
X164234857Y-92352761D01*
X164092000Y-92400380D01*
X163853904Y-92400380D01*
X164806285Y-91495619D02*
X164853904Y-91448000D01*
X164949142Y-91400380D01*
X165187238Y-91400380D01*
X165282476Y-91448000D01*
X165330095Y-91495619D01*
X165377714Y-91590857D01*
X165377714Y-91686095D01*
X165330095Y-91828952D01*
X164758666Y-92400380D01*
X165377714Y-92400380D01*
%TD*%
%LPC*%
D14*
G36*
X168500000Y-135000000D02*
G01*
X161500000Y-135000000D01*
X161500000Y-130000000D01*
X168500000Y-130000000D01*
X168500000Y-135000000D01*
G37*
X168500000Y-135000000D02*
X161500000Y-135000000D01*
X161500000Y-130000000D01*
X168500000Y-130000000D01*
X168500000Y-135000000D01*
G36*
X108500000Y-70000000D02*
G01*
X105000000Y-73500000D01*
X100000000Y-73500000D01*
X100000000Y-65000000D01*
X108500000Y-65000000D01*
X108500000Y-70000000D01*
G37*
X108500000Y-70000000D02*
X105000000Y-73500000D01*
X100000000Y-73500000D01*
X100000000Y-65000000D01*
X108500000Y-65000000D01*
X108500000Y-70000000D01*
G36*
X200000000Y-73500000D02*
G01*
X195000000Y-73500000D01*
X191500000Y-70000000D01*
X191500000Y-65000000D01*
X200000000Y-65000000D01*
X200000000Y-73500000D01*
G37*
X200000000Y-73500000D02*
X195000000Y-73500000D01*
X191500000Y-70000000D01*
X191500000Y-65000000D01*
X200000000Y-65000000D01*
X200000000Y-73500000D01*
G36*
X200000000Y-135000000D02*
G01*
X191500000Y-135000000D01*
X191500000Y-130000000D01*
X195000000Y-126500000D01*
X200000000Y-126500000D01*
X200000000Y-135000000D01*
G37*
X200000000Y-135000000D02*
X191500000Y-135000000D01*
X191500000Y-130000000D01*
X195000000Y-126500000D01*
X200000000Y-126500000D01*
X200000000Y-135000000D01*
G36*
X108500000Y-130000000D02*
G01*
X108500000Y-135000000D01*
X100000000Y-135000000D01*
X100000000Y-126500000D01*
X105000000Y-126500000D01*
X108500000Y-130000000D01*
G37*
X108500000Y-130000000D02*
X108500000Y-135000000D01*
X100000000Y-135000000D01*
X100000000Y-126500000D01*
X105000000Y-126500000D01*
X108500000Y-130000000D01*
D19*
%TO.C,J4*%
X102465000Y-119225000D03*
D20*
X110465000Y-114025000D03*
X109265000Y-116725000D03*
D19*
X113665000Y-123325000D03*
D21*
X106365000Y-123825000D03*
%TD*%
D22*
%TO.C,REF\u002A\u002A*%
X105000000Y-70000000D03*
%TD*%
%TO.C,REF\u002A\u002A*%
X195000000Y-70000000D03*
%TD*%
%TO.C,REF\u002A\u002A*%
X195000000Y-130000000D03*
%TD*%
%TO.C,REF\u002A\u002A*%
X165000000Y-130000000D03*
%TD*%
%TO.C,REF\u002A\u002A*%
X105000000Y-130000000D03*
%TD*%
D23*
%TO.C,Q2*%
X163290000Y-120015000D03*
X161290000Y-120965000D03*
X161290000Y-119065000D03*
%TD*%
D24*
%TO.C,J5*%
X120015000Y-122555000D03*
D25*
X120015000Y-117475000D03*
%TD*%
D24*
%TO.C,J8*%
X193405000Y-112395000D03*
X193405000Y-117475000D03*
D25*
X193405000Y-122555000D03*
%TD*%
D24*
%TO.C,PS1*%
X135175000Y-92115000D03*
X105775000Y-86915000D03*
D25*
X105775000Y-81915000D03*
D24*
X135175000Y-76715000D03*
%TD*%
%TO.C,T1*%
X132365000Y-111125000D03*
X122365000Y-111125000D03*
X132365000Y-98425000D03*
D25*
X122365000Y-98425000D03*
%TD*%
%TO.C,R11*%
G36*
G01*
X140627500Y-116214998D02*
X140627500Y-117465002D01*
G75*
G02*
X140377502Y-117715000I-249998J0D01*
G01*
X139752498Y-117715000D01*
G75*
G02*
X139502500Y-117465002I0J249998D01*
G01*
X139502500Y-116214998D01*
G75*
G02*
X139752498Y-115965000I249998J0D01*
G01*
X140377502Y-115965000D01*
G75*
G02*
X140627500Y-116214998I0J-249998D01*
G01*
G37*
G36*
G01*
X143552500Y-116214998D02*
X143552500Y-117465002D01*
G75*
G02*
X143302502Y-117715000I-249998J0D01*
G01*
X142677498Y-117715000D01*
G75*
G02*
X142427500Y-117465002I0J249998D01*
G01*
X142427500Y-116214998D01*
G75*
G02*
X142677498Y-115965000I249998J0D01*
G01*
X143302502Y-115965000D01*
G75*
G02*
X143552500Y-116214998I0J-249998D01*
G01*
G37*
%TD*%
%TO.C,R10*%
G36*
G01*
X140627500Y-104784998D02*
X140627500Y-106035002D01*
G75*
G02*
X140377502Y-106285000I-249998J0D01*
G01*
X139752498Y-106285000D01*
G75*
G02*
X139502500Y-106035002I0J249998D01*
G01*
X139502500Y-104784998D01*
G75*
G02*
X139752498Y-104535000I249998J0D01*
G01*
X140377502Y-104535000D01*
G75*
G02*
X140627500Y-104784998I0J-249998D01*
G01*
G37*
G36*
G01*
X143552500Y-104784998D02*
X143552500Y-106035002D01*
G75*
G02*
X143302502Y-106285000I-249998J0D01*
G01*
X142677498Y-106285000D01*
G75*
G02*
X142427500Y-106035002I0J249998D01*
G01*
X142427500Y-104784998D01*
G75*
G02*
X142677498Y-104535000I249998J0D01*
G01*
X143302502Y-104535000D01*
G75*
G02*
X143552500Y-104784998I0J-249998D01*
G01*
G37*
%TD*%
%TO.C,R13*%
G36*
G01*
X146977500Y-112404998D02*
X146977500Y-113655002D01*
G75*
G02*
X146727502Y-113905000I-249998J0D01*
G01*
X146102498Y-113905000D01*
G75*
G02*
X145852500Y-113655002I0J249998D01*
G01*
X145852500Y-112404998D01*
G75*
G02*
X146102498Y-112155000I249998J0D01*
G01*
X146727502Y-112155000D01*
G75*
G02*
X146977500Y-112404998I0J-249998D01*
G01*
G37*
G36*
G01*
X149902500Y-112404998D02*
X149902500Y-113655002D01*
G75*
G02*
X149652502Y-113905000I-249998J0D01*
G01*
X149027498Y-113905000D01*
G75*
G02*
X148777500Y-113655002I0J249998D01*
G01*
X148777500Y-112404998D01*
G75*
G02*
X149027498Y-112155000I249998J0D01*
G01*
X149652502Y-112155000D01*
G75*
G02*
X149902500Y-112404998I0J-249998D01*
G01*
G37*
%TD*%
%TO.C,R12*%
G36*
G01*
X146977500Y-108594998D02*
X146977500Y-109845002D01*
G75*
G02*
X146727502Y-110095000I-249998J0D01*
G01*
X146102498Y-110095000D01*
G75*
G02*
X145852500Y-109845002I0J249998D01*
G01*
X145852500Y-108594998D01*
G75*
G02*
X146102498Y-108345000I249998J0D01*
G01*
X146727502Y-108345000D01*
G75*
G02*
X146977500Y-108594998I0J-249998D01*
G01*
G37*
G36*
G01*
X149902500Y-108594998D02*
X149902500Y-109845002D01*
G75*
G02*
X149652502Y-110095000I-249998J0D01*
G01*
X149027498Y-110095000D01*
G75*
G02*
X148777500Y-109845002I0J249998D01*
G01*
X148777500Y-108594998D01*
G75*
G02*
X149027498Y-108345000I249998J0D01*
G01*
X149652502Y-108345000D01*
G75*
G02*
X149902500Y-108594998I0J-249998D01*
G01*
G37*
%TD*%
%TO.C,C4*%
G36*
G01*
X140727500Y-108569998D02*
X140727500Y-109870002D01*
G75*
G02*
X140477502Y-110120000I-249998J0D01*
G01*
X139652498Y-110120000D01*
G75*
G02*
X139402500Y-109870002I0J249998D01*
G01*
X139402500Y-108569998D01*
G75*
G02*
X139652498Y-108320000I249998J0D01*
G01*
X140477502Y-108320000D01*
G75*
G02*
X140727500Y-108569998I0J-249998D01*
G01*
G37*
G36*
G01*
X143852500Y-108569998D02*
X143852500Y-109870002D01*
G75*
G02*
X143602502Y-110120000I-249998J0D01*
G01*
X142777498Y-110120000D01*
G75*
G02*
X142527500Y-109870002I0J249998D01*
G01*
X142527500Y-108569998D01*
G75*
G02*
X142777498Y-108320000I249998J0D01*
G01*
X143602502Y-108320000D01*
G75*
G02*
X143852500Y-108569998I0J-249998D01*
G01*
G37*
%TD*%
%TO.C,C5*%
G36*
G01*
X140727500Y-112379998D02*
X140727500Y-113680002D01*
G75*
G02*
X140477502Y-113930000I-249998J0D01*
G01*
X139652498Y-113930000D01*
G75*
G02*
X139402500Y-113680002I0J249998D01*
G01*
X139402500Y-112379998D01*
G75*
G02*
X139652498Y-112130000I249998J0D01*
G01*
X140477502Y-112130000D01*
G75*
G02*
X140727500Y-112379998I0J-249998D01*
G01*
G37*
G36*
G01*
X143852500Y-112379998D02*
X143852500Y-113680002D01*
G75*
G02*
X143602502Y-113930000I-249998J0D01*
G01*
X142777498Y-113930000D01*
G75*
G02*
X142527500Y-113680002I0J249998D01*
G01*
X142527500Y-112379998D01*
G75*
G02*
X142777498Y-112130000I249998J0D01*
G01*
X143602502Y-112130000D01*
G75*
G02*
X143852500Y-112379998I0J-249998D01*
G01*
G37*
%TD*%
D24*
%TO.C,J2*%
X107045000Y-102235000D03*
D25*
X107045000Y-107315000D03*
%TD*%
D26*
%TO.C,C8*%
X144510000Y-95245000D03*
D27*
X144510000Y-91445000D03*
G36*
G01*
X145510000Y-99345000D02*
X143510000Y-99345000D01*
G75*
G02*
X143260000Y-99095000I0J250000D01*
G01*
X143260000Y-95595000D01*
G75*
G02*
X143510000Y-95345000I250000J0D01*
G01*
X145510000Y-95345000D01*
G75*
G02*
X145760000Y-95595000I0J-250000D01*
G01*
X145760000Y-99095000D01*
G75*
G02*
X145510000Y-99345000I-250000J0D01*
G01*
G37*
G36*
G01*
X145510000Y-91345000D02*
X143510000Y-91345000D01*
G75*
G02*
X143260000Y-91095000I0J250000D01*
G01*
X143260000Y-87595000D01*
G75*
G02*
X143510000Y-87345000I250000J0D01*
G01*
X145510000Y-87345000D01*
G75*
G02*
X145760000Y-87595000I0J-250000D01*
G01*
X145760000Y-91095000D01*
G75*
G02*
X145510000Y-91345000I-250000J0D01*
G01*
G37*
%TD*%
D26*
%TO.C,C3*%
X144510000Y-78745000D03*
D27*
X144510000Y-82545000D03*
G36*
G01*
X143510000Y-74645000D02*
X145510000Y-74645000D01*
G75*
G02*
X145760000Y-74895000I0J-250000D01*
G01*
X145760000Y-78395000D01*
G75*
G02*
X145510000Y-78645000I-250000J0D01*
G01*
X143510000Y-78645000D01*
G75*
G02*
X143260000Y-78395000I0J250000D01*
G01*
X143260000Y-74895000D01*
G75*
G02*
X143510000Y-74645000I250000J0D01*
G01*
G37*
G36*
G01*
X143510000Y-82645000D02*
X145510000Y-82645000D01*
G75*
G02*
X145760000Y-82895000I0J-250000D01*
G01*
X145760000Y-86395000D01*
G75*
G02*
X145510000Y-86645000I-250000J0D01*
G01*
X143510000Y-86645000D01*
G75*
G02*
X143260000Y-86395000I0J250000D01*
G01*
X143260000Y-82895000D01*
G75*
G02*
X143510000Y-82645000I250000J0D01*
G01*
G37*
%TD*%
%TO.C,C1*%
G36*
G01*
X133365002Y-69022500D02*
X132064998Y-69022500D01*
G75*
G02*
X131815000Y-68772502I0J249998D01*
G01*
X131815000Y-67947498D01*
G75*
G02*
X132064998Y-67697500I249998J0D01*
G01*
X133365002Y-67697500D01*
G75*
G02*
X133615000Y-67947498I0J-249998D01*
G01*
X133615000Y-68772502D01*
G75*
G02*
X133365002Y-69022500I-249998J0D01*
G01*
G37*
G36*
G01*
X133365002Y-72147500D02*
X132064998Y-72147500D01*
G75*
G02*
X131815000Y-71897502I0J249998D01*
G01*
X131815000Y-71072498D01*
G75*
G02*
X132064998Y-70822500I249998J0D01*
G01*
X133365002Y-70822500D01*
G75*
G02*
X133615000Y-71072498I0J-249998D01*
G01*
X133615000Y-71897502D01*
G75*
G02*
X133365002Y-72147500I-249998J0D01*
G01*
G37*
%TD*%
D28*
%TO.C,J1*%
X128270000Y-69850000D03*
X125730000Y-69850000D03*
G36*
G01*
X122320000Y-70695001D02*
X122320000Y-69004999D01*
G75*
G02*
X122569999Y-68755000I249999J0D01*
G01*
X123810001Y-68755000D01*
G75*
G02*
X124060000Y-69004999I0J-249999D01*
G01*
X124060000Y-70695001D01*
G75*
G02*
X123810001Y-70945000I-249999J0D01*
G01*
X122569999Y-70945000D01*
G75*
G02*
X122320000Y-70695001I0J249999D01*
G01*
G37*
%TD*%
D29*
%TO.C,J3*%
X192024000Y-87884000D03*
X192024000Y-85344000D03*
X192024000Y-82804000D03*
X192024000Y-80264000D03*
G36*
G01*
X191178999Y-76854000D02*
X192869001Y-76854000D01*
G75*
G02*
X193119000Y-77103999I0J-249999D01*
G01*
X193119000Y-78344001D01*
G75*
G02*
X192869001Y-78594000I-249999J0D01*
G01*
X191178999Y-78594000D01*
G75*
G02*
X190929000Y-78344001I0J249999D01*
G01*
X190929000Y-77103999D01*
G75*
G02*
X191178999Y-76854000I249999J0D01*
G01*
G37*
%TD*%
%TO.C,R25*%
G36*
G01*
X186492500Y-88890002D02*
X186492500Y-87639998D01*
G75*
G02*
X186742498Y-87390000I249998J0D01*
G01*
X187367502Y-87390000D01*
G75*
G02*
X187617500Y-87639998I0J-249998D01*
G01*
X187617500Y-88890002D01*
G75*
G02*
X187367502Y-89140000I-249998J0D01*
G01*
X186742498Y-89140000D01*
G75*
G02*
X186492500Y-88890002I0J249998D01*
G01*
G37*
G36*
G01*
X183567500Y-88890002D02*
X183567500Y-87639998D01*
G75*
G02*
X183817498Y-87390000I249998J0D01*
G01*
X184442502Y-87390000D01*
G75*
G02*
X184692500Y-87639998I0J-249998D01*
G01*
X184692500Y-88890002D01*
G75*
G02*
X184442502Y-89140000I-249998J0D01*
G01*
X183817498Y-89140000D01*
G75*
G02*
X183567500Y-88890002I0J249998D01*
G01*
G37*
%TD*%
%TO.C,R24*%
G36*
G01*
X184692500Y-85099998D02*
X184692500Y-86350002D01*
G75*
G02*
X184442502Y-86600000I-249998J0D01*
G01*
X183817498Y-86600000D01*
G75*
G02*
X183567500Y-86350002I0J249998D01*
G01*
X183567500Y-85099998D01*
G75*
G02*
X183817498Y-84850000I249998J0D01*
G01*
X184442502Y-84850000D01*
G75*
G02*
X184692500Y-85099998I0J-249998D01*
G01*
G37*
G36*
G01*
X187617500Y-85099998D02*
X187617500Y-86350002D01*
G75*
G02*
X187367502Y-86600000I-249998J0D01*
G01*
X186742498Y-86600000D01*
G75*
G02*
X186492500Y-86350002I0J249998D01*
G01*
X186492500Y-85099998D01*
G75*
G02*
X186742498Y-84850000I249998J0D01*
G01*
X187367502Y-84850000D01*
G75*
G02*
X187617500Y-85099998I0J-249998D01*
G01*
G37*
%TD*%
%TO.C,R23*%
G36*
G01*
X157597002Y-97082500D02*
X156346998Y-97082500D01*
G75*
G02*
X156097000Y-96832502I0J249998D01*
G01*
X156097000Y-96207498D01*
G75*
G02*
X156346998Y-95957500I249998J0D01*
G01*
X157597002Y-95957500D01*
G75*
G02*
X157847000Y-96207498I0J-249998D01*
G01*
X157847000Y-96832502D01*
G75*
G02*
X157597002Y-97082500I-249998J0D01*
G01*
G37*
G36*
G01*
X157597002Y-100007500D02*
X156346998Y-100007500D01*
G75*
G02*
X156097000Y-99757502I0J249998D01*
G01*
X156097000Y-99132498D01*
G75*
G02*
X156346998Y-98882500I249998J0D01*
G01*
X157597002Y-98882500D01*
G75*
G02*
X157847000Y-99132498I0J-249998D01*
G01*
X157847000Y-99757502D01*
G75*
G02*
X157597002Y-100007500I-249998J0D01*
G01*
G37*
%TD*%
%TO.C,R22*%
G36*
G01*
X160137002Y-97082500D02*
X158886998Y-97082500D01*
G75*
G02*
X158637000Y-96832502I0J249998D01*
G01*
X158637000Y-96207498D01*
G75*
G02*
X158886998Y-95957500I249998J0D01*
G01*
X160137002Y-95957500D01*
G75*
G02*
X160387000Y-96207498I0J-249998D01*
G01*
X160387000Y-96832502D01*
G75*
G02*
X160137002Y-97082500I-249998J0D01*
G01*
G37*
G36*
G01*
X160137002Y-100007500D02*
X158886998Y-100007500D01*
G75*
G02*
X158637000Y-99757502I0J249998D01*
G01*
X158637000Y-99132498D01*
G75*
G02*
X158886998Y-98882500I249998J0D01*
G01*
X160137002Y-98882500D01*
G75*
G02*
X160387000Y-99132498I0J-249998D01*
G01*
X160387000Y-99757502D01*
G75*
G02*
X160137002Y-100007500I-249998J0D01*
G01*
G37*
%TD*%
%TO.C,R21*%
G36*
G01*
X161664998Y-116027500D02*
X162915002Y-116027500D01*
G75*
G02*
X163165000Y-116277498I0J-249998D01*
G01*
X163165000Y-116902502D01*
G75*
G02*
X162915002Y-117152500I-249998J0D01*
G01*
X161664998Y-117152500D01*
G75*
G02*
X161415000Y-116902502I0J249998D01*
G01*
X161415000Y-116277498D01*
G75*
G02*
X161664998Y-116027500I249998J0D01*
G01*
G37*
G36*
G01*
X161664998Y-113102500D02*
X162915002Y-113102500D01*
G75*
G02*
X163165000Y-113352498I0J-249998D01*
G01*
X163165000Y-113977502D01*
G75*
G02*
X162915002Y-114227500I-249998J0D01*
G01*
X161664998Y-114227500D01*
G75*
G02*
X161415000Y-113977502I0J249998D01*
G01*
X161415000Y-113352498D01*
G75*
G02*
X161664998Y-113102500I249998J0D01*
G01*
G37*
%TD*%
%TO.C,R20*%
G36*
G01*
X161664998Y-98882500D02*
X162915002Y-98882500D01*
G75*
G02*
X163165000Y-99132498I0J-249998D01*
G01*
X163165000Y-99757502D01*
G75*
G02*
X162915002Y-100007500I-249998J0D01*
G01*
X161664998Y-100007500D01*
G75*
G02*
X161415000Y-99757502I0J249998D01*
G01*
X161415000Y-99132498D01*
G75*
G02*
X161664998Y-98882500I249998J0D01*
G01*
G37*
G36*
G01*
X161664998Y-95957500D02*
X162915002Y-95957500D01*
G75*
G02*
X163165000Y-96207498I0J-249998D01*
G01*
X163165000Y-96832502D01*
G75*
G02*
X162915002Y-97082500I-249998J0D01*
G01*
X161664998Y-97082500D01*
G75*
G02*
X161415000Y-96832502I0J249998D01*
G01*
X161415000Y-96207498D01*
G75*
G02*
X161664998Y-95957500I249998J0D01*
G01*
G37*
%TD*%
%TO.C,R19*%
G36*
G01*
X146977500Y-116214998D02*
X146977500Y-117465002D01*
G75*
G02*
X146727502Y-117715000I-249998J0D01*
G01*
X146102498Y-117715000D01*
G75*
G02*
X145852500Y-117465002I0J249998D01*
G01*
X145852500Y-116214998D01*
G75*
G02*
X146102498Y-115965000I249998J0D01*
G01*
X146727502Y-115965000D01*
G75*
G02*
X146977500Y-116214998I0J-249998D01*
G01*
G37*
G36*
G01*
X149902500Y-116214998D02*
X149902500Y-117465002D01*
G75*
G02*
X149652502Y-117715000I-249998J0D01*
G01*
X149027498Y-117715000D01*
G75*
G02*
X148777500Y-117465002I0J249998D01*
G01*
X148777500Y-116214998D01*
G75*
G02*
X149027498Y-115965000I249998J0D01*
G01*
X149652502Y-115965000D01*
G75*
G02*
X149902500Y-116214998I0J-249998D01*
G01*
G37*
%TD*%
%TO.C,R18*%
G36*
G01*
X153962500Y-116214998D02*
X153962500Y-117465002D01*
G75*
G02*
X153712502Y-117715000I-249998J0D01*
G01*
X153087498Y-117715000D01*
G75*
G02*
X152837500Y-117465002I0J249998D01*
G01*
X152837500Y-116214998D01*
G75*
G02*
X153087498Y-115965000I249998J0D01*
G01*
X153712502Y-115965000D01*
G75*
G02*
X153962500Y-116214998I0J-249998D01*
G01*
G37*
G36*
G01*
X156887500Y-116214998D02*
X156887500Y-117465002D01*
G75*
G02*
X156637502Y-117715000I-249998J0D01*
G01*
X156012498Y-117715000D01*
G75*
G02*
X155762500Y-117465002I0J249998D01*
G01*
X155762500Y-116214998D01*
G75*
G02*
X156012498Y-115965000I249998J0D01*
G01*
X156637502Y-115965000D01*
G75*
G02*
X156887500Y-116214998I0J-249998D01*
G01*
G37*
%TD*%
%TO.C,C11*%
G36*
G01*
X153019998Y-95857500D02*
X154320002Y-95857500D01*
G75*
G02*
X154570000Y-96107498I0J-249998D01*
G01*
X154570000Y-96932502D01*
G75*
G02*
X154320002Y-97182500I-249998J0D01*
G01*
X153019998Y-97182500D01*
G75*
G02*
X152770000Y-96932502I0J249998D01*
G01*
X152770000Y-96107498D01*
G75*
G02*
X153019998Y-95857500I249998J0D01*
G01*
G37*
G36*
G01*
X153019998Y-92732500D02*
X154320002Y-92732500D01*
G75*
G02*
X154570000Y-92982498I0J-249998D01*
G01*
X154570000Y-93807502D01*
G75*
G02*
X154320002Y-94057500I-249998J0D01*
G01*
X153019998Y-94057500D01*
G75*
G02*
X152770000Y-93807502I0J249998D01*
G01*
X152770000Y-92982498D01*
G75*
G02*
X153019998Y-92732500I249998J0D01*
G01*
G37*
%TD*%
%TO.C,C10*%
G36*
G01*
X150479998Y-95857500D02*
X151780002Y-95857500D01*
G75*
G02*
X152030000Y-96107498I0J-249998D01*
G01*
X152030000Y-96932502D01*
G75*
G02*
X151780002Y-97182500I-249998J0D01*
G01*
X150479998Y-97182500D01*
G75*
G02*
X150230000Y-96932502I0J249998D01*
G01*
X150230000Y-96107498D01*
G75*
G02*
X150479998Y-95857500I249998J0D01*
G01*
G37*
G36*
G01*
X150479998Y-92732500D02*
X151780002Y-92732500D01*
G75*
G02*
X152030000Y-92982498I0J-249998D01*
G01*
X152030000Y-93807502D01*
G75*
G02*
X151780002Y-94057500I-249998J0D01*
G01*
X150479998Y-94057500D01*
G75*
G02*
X150230000Y-93807502I0J249998D01*
G01*
X150230000Y-92982498D01*
G75*
G02*
X150479998Y-92732500I249998J0D01*
G01*
G37*
%TD*%
D30*
%TO.C,U3*%
X174280000Y-89360000D03*
X172280000Y-89360000D03*
X170280000Y-89360000D03*
X168280000Y-89360000D03*
X166280000Y-89360000D03*
X164280000Y-89360000D03*
D31*
X176990000Y-73660000D03*
X176990000Y-75660000D03*
X176990000Y-77660000D03*
X176990000Y-79660000D03*
X176990000Y-81660000D03*
X176990000Y-83660000D03*
X176990000Y-85660000D03*
X176990000Y-87660000D03*
X161590000Y-87660000D03*
X161590000Y-85660000D03*
X161590000Y-83660000D03*
X161590000Y-81660000D03*
X161590000Y-79660000D03*
X161590000Y-77660000D03*
X161590000Y-75660000D03*
X161590000Y-73660000D03*
%TD*%
D32*
%TO.C,U2*%
X157455000Y-110760000D03*
X157455000Y-111260000D03*
X157455000Y-111760000D03*
X157455000Y-112260000D03*
X157455000Y-112760000D03*
X153155000Y-112760000D03*
X153155000Y-112260000D03*
X153155000Y-111760000D03*
X153155000Y-111260000D03*
X153155000Y-110760000D03*
%TD*%
%TO.C,U1*%
G36*
G01*
X152280000Y-85930000D02*
X151980000Y-85930000D01*
G75*
G02*
X151830000Y-85780000I0J150000D01*
G01*
X151830000Y-84330000D01*
G75*
G02*
X151980000Y-84180000I150000J0D01*
G01*
X152280000Y-84180000D01*
G75*
G02*
X152430000Y-84330000I0J-150000D01*
G01*
X152430000Y-85780000D01*
G75*
G02*
X152280000Y-85930000I-150000J0D01*
G01*
G37*
G36*
G01*
X153550000Y-85930000D02*
X153250000Y-85930000D01*
G75*
G02*
X153100000Y-85780000I0J150000D01*
G01*
X153100000Y-84330000D01*
G75*
G02*
X153250000Y-84180000I150000J0D01*
G01*
X153550000Y-84180000D01*
G75*
G02*
X153700000Y-84330000I0J-150000D01*
G01*
X153700000Y-85780000D01*
G75*
G02*
X153550000Y-85930000I-150000J0D01*
G01*
G37*
G36*
G01*
X154820000Y-85930000D02*
X154520000Y-85930000D01*
G75*
G02*
X154370000Y-85780000I0J150000D01*
G01*
X154370000Y-84330000D01*
G75*
G02*
X154520000Y-84180000I150000J0D01*
G01*
X154820000Y-84180000D01*
G75*
G02*
X154970000Y-84330000I0J-150000D01*
G01*
X154970000Y-85780000D01*
G75*
G02*
X154820000Y-85930000I-150000J0D01*
G01*
G37*
G36*
G01*
X156090000Y-85930000D02*
X155790000Y-85930000D01*
G75*
G02*
X155640000Y-85780000I0J150000D01*
G01*
X155640000Y-84330000D01*
G75*
G02*
X155790000Y-84180000I150000J0D01*
G01*
X156090000Y-84180000D01*
G75*
G02*
X156240000Y-84330000I0J-150000D01*
G01*
X156240000Y-85780000D01*
G75*
G02*
X156090000Y-85930000I-150000J0D01*
G01*
G37*
G36*
G01*
X156090000Y-91080000D02*
X155790000Y-91080000D01*
G75*
G02*
X155640000Y-90930000I0J150000D01*
G01*
X155640000Y-89480000D01*
G75*
G02*
X155790000Y-89330000I150000J0D01*
G01*
X156090000Y-89330000D01*
G75*
G02*
X156240000Y-89480000I0J-150000D01*
G01*
X156240000Y-90930000D01*
G75*
G02*
X156090000Y-91080000I-150000J0D01*
G01*
G37*
G36*
G01*
X154820000Y-91080000D02*
X154520000Y-91080000D01*
G75*
G02*
X154370000Y-90930000I0J150000D01*
G01*
X154370000Y-89480000D01*
G75*
G02*
X154520000Y-89330000I150000J0D01*
G01*
X154820000Y-89330000D01*
G75*
G02*
X154970000Y-89480000I0J-150000D01*
G01*
X154970000Y-90930000D01*
G75*
G02*
X154820000Y-91080000I-150000J0D01*
G01*
G37*
G36*
G01*
X153550000Y-91080000D02*
X153250000Y-91080000D01*
G75*
G02*
X153100000Y-90930000I0J150000D01*
G01*
X153100000Y-89480000D01*
G75*
G02*
X153250000Y-89330000I150000J0D01*
G01*
X153550000Y-89330000D01*
G75*
G02*
X153700000Y-89480000I0J-150000D01*
G01*
X153700000Y-90930000D01*
G75*
G02*
X153550000Y-91080000I-150000J0D01*
G01*
G37*
G36*
G01*
X152280000Y-91080000D02*
X151980000Y-91080000D01*
G75*
G02*
X151830000Y-90930000I0J150000D01*
G01*
X151830000Y-89480000D01*
G75*
G02*
X151980000Y-89330000I150000J0D01*
G01*
X152280000Y-89330000D01*
G75*
G02*
X152430000Y-89480000I0J-150000D01*
G01*
X152430000Y-90930000D01*
G75*
G02*
X152280000Y-91080000I-150000J0D01*
G01*
G37*
%TD*%
D27*
%TO.C,SW1*%
X151495000Y-125040000D03*
X151495000Y-129540000D03*
X144995000Y-125040000D03*
X144995000Y-129540000D03*
%TD*%
%TO.C,R9*%
G36*
G01*
X157219998Y-124282500D02*
X158470002Y-124282500D01*
G75*
G02*
X158720000Y-124532498I0J-249998D01*
G01*
X158720000Y-125157502D01*
G75*
G02*
X158470002Y-125407500I-249998J0D01*
G01*
X157219998Y-125407500D01*
G75*
G02*
X156970000Y-125157502I0J249998D01*
G01*
X156970000Y-124532498D01*
G75*
G02*
X157219998Y-124282500I249998J0D01*
G01*
G37*
G36*
G01*
X157219998Y-121357500D02*
X158470002Y-121357500D01*
G75*
G02*
X158720000Y-121607498I0J-249998D01*
G01*
X158720000Y-122232502D01*
G75*
G02*
X158470002Y-122482500I-249998J0D01*
G01*
X157219998Y-122482500D01*
G75*
G02*
X156970000Y-122232502I0J249998D01*
G01*
X156970000Y-121607498D01*
G75*
G02*
X157219998Y-121357500I249998J0D01*
G01*
G37*
%TD*%
%TO.C,R6*%
G36*
G01*
X154044998Y-129612500D02*
X155295002Y-129612500D01*
G75*
G02*
X155545000Y-129862498I0J-249998D01*
G01*
X155545000Y-130487502D01*
G75*
G02*
X155295002Y-130737500I-249998J0D01*
G01*
X154044998Y-130737500D01*
G75*
G02*
X153795000Y-130487502I0J249998D01*
G01*
X153795000Y-129862498D01*
G75*
G02*
X154044998Y-129612500I249998J0D01*
G01*
G37*
G36*
G01*
X154044998Y-126687500D02*
X155295002Y-126687500D01*
G75*
G02*
X155545000Y-126937498I0J-249998D01*
G01*
X155545000Y-127562502D01*
G75*
G02*
X155295002Y-127812500I-249998J0D01*
G01*
X154044998Y-127812500D01*
G75*
G02*
X153795000Y-127562502I0J249998D01*
G01*
X153795000Y-126937498D01*
G75*
G02*
X154044998Y-126687500I249998J0D01*
G01*
G37*
%TD*%
%TO.C,R5*%
G36*
G01*
X142427500Y-121275002D02*
X142427500Y-120024998D01*
G75*
G02*
X142677498Y-119775000I249998J0D01*
G01*
X143302502Y-119775000D01*
G75*
G02*
X143552500Y-120024998I0J-249998D01*
G01*
X143552500Y-121275002D01*
G75*
G02*
X143302502Y-121525000I-249998J0D01*
G01*
X142677498Y-121525000D01*
G75*
G02*
X142427500Y-121275002I0J249998D01*
G01*
G37*
G36*
G01*
X139502500Y-121275002D02*
X139502500Y-120024998D01*
G75*
G02*
X139752498Y-119775000I249998J0D01*
G01*
X140377502Y-119775000D01*
G75*
G02*
X140627500Y-120024998I0J-249998D01*
G01*
X140627500Y-121275002D01*
G75*
G02*
X140377502Y-121525000I-249998J0D01*
G01*
X139752498Y-121525000D01*
G75*
G02*
X139502500Y-121275002I0J249998D01*
G01*
G37*
%TD*%
%TO.C,R17*%
G36*
G01*
X153962500Y-106689998D02*
X153962500Y-107940002D01*
G75*
G02*
X153712502Y-108190000I-249998J0D01*
G01*
X153087498Y-108190000D01*
G75*
G02*
X152837500Y-107940002I0J249998D01*
G01*
X152837500Y-106689998D01*
G75*
G02*
X153087498Y-106440000I249998J0D01*
G01*
X153712502Y-106440000D01*
G75*
G02*
X153962500Y-106689998I0J-249998D01*
G01*
G37*
G36*
G01*
X156887500Y-106689998D02*
X156887500Y-107940002D01*
G75*
G02*
X156637502Y-108190000I-249998J0D01*
G01*
X156012498Y-108190000D01*
G75*
G02*
X155762500Y-107940002I0J249998D01*
G01*
X155762500Y-106689998D01*
G75*
G02*
X156012498Y-106440000I249998J0D01*
G01*
X156637502Y-106440000D01*
G75*
G02*
X156887500Y-106689998I0J-249998D01*
G01*
G37*
%TD*%
%TO.C,R15*%
G36*
G01*
X186492500Y-76190002D02*
X186492500Y-74939998D01*
G75*
G02*
X186742498Y-74690000I249998J0D01*
G01*
X187367502Y-74690000D01*
G75*
G02*
X187617500Y-74939998I0J-249998D01*
G01*
X187617500Y-76190002D01*
G75*
G02*
X187367502Y-76440000I-249998J0D01*
G01*
X186742498Y-76440000D01*
G75*
G02*
X186492500Y-76190002I0J249998D01*
G01*
G37*
G36*
G01*
X183567500Y-76190002D02*
X183567500Y-74939998D01*
G75*
G02*
X183817498Y-74690000I249998J0D01*
G01*
X184442502Y-74690000D01*
G75*
G02*
X184692500Y-74939998I0J-249998D01*
G01*
X184692500Y-76190002D01*
G75*
G02*
X184442502Y-76440000I-249998J0D01*
G01*
X183817498Y-76440000D01*
G75*
G02*
X183567500Y-76190002I0J249998D01*
G01*
G37*
%TD*%
%TO.C,R16*%
G36*
G01*
X186492500Y-78730002D02*
X186492500Y-77479998D01*
G75*
G02*
X186742498Y-77230000I249998J0D01*
G01*
X187367502Y-77230000D01*
G75*
G02*
X187617500Y-77479998I0J-249998D01*
G01*
X187617500Y-78730002D01*
G75*
G02*
X187367502Y-78980000I-249998J0D01*
G01*
X186742498Y-78980000D01*
G75*
G02*
X186492500Y-78730002I0J249998D01*
G01*
G37*
G36*
G01*
X183567500Y-78730002D02*
X183567500Y-77479998D01*
G75*
G02*
X183817498Y-77230000I249998J0D01*
G01*
X184442502Y-77230000D01*
G75*
G02*
X184692500Y-77479998I0J-249998D01*
G01*
X184692500Y-78730002D01*
G75*
G02*
X184442502Y-78980000I-249998J0D01*
G01*
X183817498Y-78980000D01*
G75*
G02*
X183567500Y-78730002I0J249998D01*
G01*
G37*
%TD*%
%TO.C,SW2*%
X140065000Y-125040000D03*
X140065000Y-129540000D03*
X133565000Y-125040000D03*
X133565000Y-129540000D03*
%TD*%
%TO.C,R3*%
G36*
G01*
X112687500Y-96529998D02*
X112687500Y-97780002D01*
G75*
G02*
X112437502Y-98030000I-249998J0D01*
G01*
X111812498Y-98030000D01*
G75*
G02*
X111562500Y-97780002I0J249998D01*
G01*
X111562500Y-96529998D01*
G75*
G02*
X111812498Y-96280000I249998J0D01*
G01*
X112437502Y-96280000D01*
G75*
G02*
X112687500Y-96529998I0J-249998D01*
G01*
G37*
G36*
G01*
X115612500Y-96529998D02*
X115612500Y-97780002D01*
G75*
G02*
X115362502Y-98030000I-249998J0D01*
G01*
X114737498Y-98030000D01*
G75*
G02*
X114487500Y-97780002I0J249998D01*
G01*
X114487500Y-96529998D01*
G75*
G02*
X114737498Y-96280000I249998J0D01*
G01*
X115362502Y-96280000D01*
G75*
G02*
X115612500Y-96529998I0J-249998D01*
G01*
G37*
%TD*%
%TO.C,R14*%
G36*
G01*
X152692500Y-74304998D02*
X152692500Y-75555002D01*
G75*
G02*
X152442502Y-75805000I-249998J0D01*
G01*
X151817498Y-75805000D01*
G75*
G02*
X151567500Y-75555002I0J249998D01*
G01*
X151567500Y-74304998D01*
G75*
G02*
X151817498Y-74055000I249998J0D01*
G01*
X152442502Y-74055000D01*
G75*
G02*
X152692500Y-74304998I0J-249998D01*
G01*
G37*
G36*
G01*
X155617500Y-74304998D02*
X155617500Y-75555002D01*
G75*
G02*
X155367502Y-75805000I-249998J0D01*
G01*
X154742498Y-75805000D01*
G75*
G02*
X154492500Y-75555002I0J249998D01*
G01*
X154492500Y-74304998D01*
G75*
G02*
X154742498Y-74055000I249998J0D01*
G01*
X155367502Y-74055000D01*
G75*
G02*
X155617500Y-74304998I0J-249998D01*
G01*
G37*
%TD*%
%TO.C,R8*%
G36*
G01*
X154044998Y-124282500D02*
X155295002Y-124282500D01*
G75*
G02*
X155545000Y-124532498I0J-249998D01*
G01*
X155545000Y-125157502D01*
G75*
G02*
X155295002Y-125407500I-249998J0D01*
G01*
X154044998Y-125407500D01*
G75*
G02*
X153795000Y-125157502I0J249998D01*
G01*
X153795000Y-124532498D01*
G75*
G02*
X154044998Y-124282500I249998J0D01*
G01*
G37*
G36*
G01*
X154044998Y-121357500D02*
X155295002Y-121357500D01*
G75*
G02*
X155545000Y-121607498I0J-249998D01*
G01*
X155545000Y-122232502D01*
G75*
G02*
X155295002Y-122482500I-249998J0D01*
G01*
X154044998Y-122482500D01*
G75*
G02*
X153795000Y-122232502I0J249998D01*
G01*
X153795000Y-121607498D01*
G75*
G02*
X154044998Y-121357500I249998J0D01*
G01*
G37*
%TD*%
%TO.C,R2*%
G36*
G01*
X186492500Y-81270002D02*
X186492500Y-80019998D01*
G75*
G02*
X186742498Y-79770000I249998J0D01*
G01*
X187367502Y-79770000D01*
G75*
G02*
X187617500Y-80019998I0J-249998D01*
G01*
X187617500Y-81270002D01*
G75*
G02*
X187367502Y-81520000I-249998J0D01*
G01*
X186742498Y-81520000D01*
G75*
G02*
X186492500Y-81270002I0J249998D01*
G01*
G37*
G36*
G01*
X183567500Y-81270002D02*
X183567500Y-80019998D01*
G75*
G02*
X183817498Y-79770000I249998J0D01*
G01*
X184442502Y-79770000D01*
G75*
G02*
X184692500Y-80019998I0J-249998D01*
G01*
X184692500Y-81270002D01*
G75*
G02*
X184442502Y-81520000I-249998J0D01*
G01*
X183817498Y-81520000D01*
G75*
G02*
X183567500Y-81270002I0J249998D01*
G01*
G37*
%TD*%
%TO.C,R7*%
G36*
G01*
X157219998Y-129612500D02*
X158470002Y-129612500D01*
G75*
G02*
X158720000Y-129862498I0J-249998D01*
G01*
X158720000Y-130487502D01*
G75*
G02*
X158470002Y-130737500I-249998J0D01*
G01*
X157219998Y-130737500D01*
G75*
G02*
X156970000Y-130487502I0J249998D01*
G01*
X156970000Y-129862498D01*
G75*
G02*
X157219998Y-129612500I249998J0D01*
G01*
G37*
G36*
G01*
X157219998Y-126687500D02*
X158470002Y-126687500D01*
G75*
G02*
X158720000Y-126937498I0J-249998D01*
G01*
X158720000Y-127562502D01*
G75*
G02*
X158470002Y-127812500I-249998J0D01*
G01*
X157219998Y-127812500D01*
G75*
G02*
X156970000Y-127562502I0J249998D01*
G01*
X156970000Y-126937498D01*
G75*
G02*
X157219998Y-126687500I249998J0D01*
G01*
G37*
%TD*%
%TO.C,R4*%
G36*
G01*
X140627500Y-100974998D02*
X140627500Y-102225002D01*
G75*
G02*
X140377502Y-102475000I-249998J0D01*
G01*
X139752498Y-102475000D01*
G75*
G02*
X139502500Y-102225002I0J249998D01*
G01*
X139502500Y-100974998D01*
G75*
G02*
X139752498Y-100725000I249998J0D01*
G01*
X140377502Y-100725000D01*
G75*
G02*
X140627500Y-100974998I0J-249998D01*
G01*
G37*
G36*
G01*
X143552500Y-100974998D02*
X143552500Y-102225002D01*
G75*
G02*
X143302502Y-102475000I-249998J0D01*
G01*
X142677498Y-102475000D01*
G75*
G02*
X142427500Y-102225002I0J249998D01*
G01*
X142427500Y-100974998D01*
G75*
G02*
X142677498Y-100725000I249998J0D01*
G01*
X143302502Y-100725000D01*
G75*
G02*
X143552500Y-100974998I0J-249998D01*
G01*
G37*
%TD*%
%TO.C,C9*%
G36*
G01*
X154062500Y-102854998D02*
X154062500Y-104155002D01*
G75*
G02*
X153812502Y-104405000I-249998J0D01*
G01*
X152987498Y-104405000D01*
G75*
G02*
X152737500Y-104155002I0J249998D01*
G01*
X152737500Y-102854998D01*
G75*
G02*
X152987498Y-102605000I249998J0D01*
G01*
X153812502Y-102605000D01*
G75*
G02*
X154062500Y-102854998I0J-249998D01*
G01*
G37*
G36*
G01*
X157187500Y-102854998D02*
X157187500Y-104155002D01*
G75*
G02*
X156937502Y-104405000I-249998J0D01*
G01*
X156112498Y-104405000D01*
G75*
G02*
X155862500Y-104155002I0J249998D01*
G01*
X155862500Y-102854998D01*
G75*
G02*
X156112498Y-102605000I249998J0D01*
G01*
X156937502Y-102605000D01*
G75*
G02*
X157187500Y-102854998I0J-249998D01*
G01*
G37*
%TD*%
%TO.C,C6*%
G36*
G01*
X154642500Y-81930002D02*
X154642500Y-80629998D01*
G75*
G02*
X154892498Y-80380000I249998J0D01*
G01*
X155717502Y-80380000D01*
G75*
G02*
X155967500Y-80629998I0J-249998D01*
G01*
X155967500Y-81930002D01*
G75*
G02*
X155717502Y-82180000I-249998J0D01*
G01*
X154892498Y-82180000D01*
G75*
G02*
X154642500Y-81930002I0J249998D01*
G01*
G37*
G36*
G01*
X151517500Y-81930002D02*
X151517500Y-80629998D01*
G75*
G02*
X151767498Y-80380000I249998J0D01*
G01*
X152592502Y-80380000D01*
G75*
G02*
X152842500Y-80629998I0J-249998D01*
G01*
X152842500Y-81930002D01*
G75*
G02*
X152592502Y-82180000I-249998J0D01*
G01*
X151767498Y-82180000D01*
G75*
G02*
X151517500Y-81930002I0J249998D01*
G01*
G37*
%TD*%
%TO.C,C7*%
G36*
G01*
X147077500Y-119999998D02*
X147077500Y-121300002D01*
G75*
G02*
X146827502Y-121550000I-249998J0D01*
G01*
X146002498Y-121550000D01*
G75*
G02*
X145752500Y-121300002I0J249998D01*
G01*
X145752500Y-119999998D01*
G75*
G02*
X146002498Y-119750000I249998J0D01*
G01*
X146827502Y-119750000D01*
G75*
G02*
X147077500Y-119999998I0J-249998D01*
G01*
G37*
G36*
G01*
X150202500Y-119999998D02*
X150202500Y-121300002D01*
G75*
G02*
X149952502Y-121550000I-249998J0D01*
G01*
X149127498Y-121550000D01*
G75*
G02*
X148877500Y-121300002I0J249998D01*
G01*
X148877500Y-119999998D01*
G75*
G02*
X149127498Y-119750000I249998J0D01*
G01*
X149952502Y-119750000D01*
G75*
G02*
X150202500Y-119999998I0J-249998D01*
G01*
G37*
%TD*%
%TO.C,D1*%
G36*
G01*
X152755000Y-77480000D02*
X152755000Y-78730000D01*
G75*
G02*
X152505000Y-78980000I-250000J0D01*
G01*
X151755000Y-78980000D01*
G75*
G02*
X151505000Y-78730000I0J250000D01*
G01*
X151505000Y-77480000D01*
G75*
G02*
X151755000Y-77230000I250000J0D01*
G01*
X152505000Y-77230000D01*
G75*
G02*
X152755000Y-77480000I0J-250000D01*
G01*
G37*
G36*
G01*
X155555000Y-77480000D02*
X155555000Y-78730000D01*
G75*
G02*
X155305000Y-78980000I-250000J0D01*
G01*
X154555000Y-78980000D01*
G75*
G02*
X154305000Y-78730000I0J250000D01*
G01*
X154305000Y-77480000D01*
G75*
G02*
X154555000Y-77230000I250000J0D01*
G01*
X155305000Y-77230000D01*
G75*
G02*
X155555000Y-77480000I0J-250000D01*
G01*
G37*
%TD*%
%TO.C,C2*%
G36*
G01*
X135905002Y-69022500D02*
X134604998Y-69022500D01*
G75*
G02*
X134355000Y-68772502I0J249998D01*
G01*
X134355000Y-67947498D01*
G75*
G02*
X134604998Y-67697500I249998J0D01*
G01*
X135905002Y-67697500D01*
G75*
G02*
X136155000Y-67947498I0J-249998D01*
G01*
X136155000Y-68772502D01*
G75*
G02*
X135905002Y-69022500I-249998J0D01*
G01*
G37*
G36*
G01*
X135905002Y-72147500D02*
X134604998Y-72147500D01*
G75*
G02*
X134355000Y-71897502I0J249998D01*
G01*
X134355000Y-71072498D01*
G75*
G02*
X134604998Y-70822500I249998J0D01*
G01*
X135905002Y-70822500D01*
G75*
G02*
X136155000Y-71072498I0J-249998D01*
G01*
X136155000Y-71897502D01*
G75*
G02*
X135905002Y-72147500I-249998J0D01*
G01*
G37*
%TD*%
%TO.C,R1*%
G36*
G01*
X186492500Y-83810002D02*
X186492500Y-82559998D01*
G75*
G02*
X186742498Y-82310000I249998J0D01*
G01*
X187367502Y-82310000D01*
G75*
G02*
X187617500Y-82559998I0J-249998D01*
G01*
X187617500Y-83810002D01*
G75*
G02*
X187367502Y-84060000I-249998J0D01*
G01*
X186742498Y-84060000D01*
G75*
G02*
X186492500Y-83810002I0J249998D01*
G01*
G37*
G36*
G01*
X183567500Y-83810002D02*
X183567500Y-82559998D01*
G75*
G02*
X183817498Y-82310000I249998J0D01*
G01*
X184442502Y-82310000D01*
G75*
G02*
X184692500Y-82559998I0J-249998D01*
G01*
X184692500Y-83810002D01*
G75*
G02*
X184442502Y-84060000I-249998J0D01*
G01*
X183817498Y-84060000D01*
G75*
G02*
X183567500Y-83810002I0J249998D01*
G01*
G37*
%TD*%
D24*
%TO.C,K1*%
X169910000Y-100330000D03*
D33*
X171860000Y-94380000D03*
D24*
X184110000Y-94330000D03*
X184060000Y-106380000D03*
D33*
X171860000Y-106380000D03*
%TD*%
D23*
%TO.C,Q1*%
X163290000Y-102870000D03*
X161290000Y-103820000D03*
X161290000Y-101920000D03*
%TD*%
D24*
%TO.C,J7*%
X193405000Y-95250000D03*
X193405000Y-100330000D03*
D25*
X193405000Y-105410000D03*
%TD*%
D34*
%TO.C,J6*%
X152765000Y-69850000D03*
X150225000Y-69850000D03*
X147685000Y-69850000D03*
X145145000Y-69850000D03*
X142605000Y-69850000D03*
D35*
X140065000Y-69850000D03*
%TD*%
D24*
%TO.C,K2*%
X169910000Y-117475000D03*
D33*
X171860000Y-111525000D03*
D24*
X184110000Y-111475000D03*
X184060000Y-123525000D03*
D33*
X171860000Y-123525000D03*
%TD*%
D36*
%TO.C,D5*%
X166100000Y-119975000D03*
X166100000Y-114975000D03*
%TD*%
%TO.C,D4*%
X166100000Y-102830000D03*
X166100000Y-97830000D03*
%TD*%
%TO.C,D3*%
G36*
G01*
X165475000Y-111750000D02*
X165475000Y-110500000D01*
G75*
G02*
X165725000Y-110250000I250000J0D01*
G01*
X166475000Y-110250000D01*
G75*
G02*
X166725000Y-110500000I0J-250000D01*
G01*
X166725000Y-111750000D01*
G75*
G02*
X166475000Y-112000000I-250000J0D01*
G01*
X165725000Y-112000000D01*
G75*
G02*
X165475000Y-111750000I0J250000D01*
G01*
G37*
G36*
G01*
X162675000Y-111750000D02*
X162675000Y-110500000D01*
G75*
G02*
X162925000Y-110250000I250000J0D01*
G01*
X163675000Y-110250000D01*
G75*
G02*
X163925000Y-110500000I0J-250000D01*
G01*
X163925000Y-111750000D01*
G75*
G02*
X163675000Y-112000000I-250000J0D01*
G01*
X162925000Y-112000000D01*
G75*
G02*
X162675000Y-111750000I0J250000D01*
G01*
G37*
%TD*%
%TO.C,D2*%
G36*
G01*
X165475000Y-94605000D02*
X165475000Y-93355000D01*
G75*
G02*
X165725000Y-93105000I250000J0D01*
G01*
X166475000Y-93105000D01*
G75*
G02*
X166725000Y-93355000I0J-250000D01*
G01*
X166725000Y-94605000D01*
G75*
G02*
X166475000Y-94855000I-250000J0D01*
G01*
X165725000Y-94855000D01*
G75*
G02*
X165475000Y-94605000I0J250000D01*
G01*
G37*
G36*
G01*
X162675000Y-94605000D02*
X162675000Y-93355000D01*
G75*
G02*
X162925000Y-93105000I250000J0D01*
G01*
X163675000Y-93105000D01*
G75*
G02*
X163925000Y-93355000I0J-250000D01*
G01*
X163925000Y-94605000D01*
G75*
G02*
X163675000Y-94855000I-250000J0D01*
G01*
X162925000Y-94855000D01*
G75*
G02*
X162675000Y-94605000I0J250000D01*
G01*
G37*
%TD*%
M02*
