%TF.GenerationSoftware,KiCad,Pcbnew,(5.1.10)-1*%
%TF.CreationDate,2021-10-13T22:05:38-03:00*%
%TF.ProjectId,kicad,6b696361-642e-46b6-9963-61645f706362,rev?*%
%TF.SameCoordinates,Original*%
%TF.FileFunction,Legend,Top*%
%TF.FilePolarity,Positive*%
%FSLAX46Y46*%
G04 Gerber Fmt 4.6, Leading zero omitted, Abs format (unit mm)*
G04 Created by KiCad (PCBNEW (5.1.10)-1) date 2021-10-13 22:05:38*
%MOMM*%
%LPD*%
G01*
G04 APERTURE LIST*
%ADD10C,0.200000*%
%ADD11C,0.100000*%
%ADD12C,0.120000*%
%ADD13C,0.127000*%
%ADD14C,0.150000*%
%ADD15C,0.152400*%
%ADD16C,0.254000*%
%ADD17C,0.250000*%
%ADD18C,7.000000*%
%ADD19R,0.900000X0.800000*%
%ADD20C,3.000000*%
%ADD21R,3.000000X3.000000*%
%ADD22O,2.200000X4.000000*%
%ADD23O,4.000000X2.200000*%
%ADD24R,4.000000X2.200000*%
%ADD25R,2.000000X2.000000*%
%ADD26C,2.000000*%
%ADD27O,1.740000X2.190000*%
%ADD28O,2.190000X1.740000*%
%ADD29R,1.100000X2.500000*%
%ADD30R,2.500000X1.100000*%
%ADD31R,1.100000X0.250000*%
%ADD32C,2.500000*%
%ADD33O,1.700000X1.700000*%
%ADD34R,1.700000X1.700000*%
%ADD35R,1.800000X3.500000*%
G04 APERTURE END LIST*
D10*
X146056571Y-73068571D02*
X146056571Y-71568571D01*
X147313714Y-72925714D02*
X147256571Y-72997142D01*
X147085142Y-73068571D01*
X146970857Y-73068571D01*
X146799428Y-72997142D01*
X146685142Y-72854285D01*
X146628000Y-72711428D01*
X146570857Y-72425714D01*
X146570857Y-72211428D01*
X146628000Y-71925714D01*
X146685142Y-71782857D01*
X146799428Y-71640000D01*
X146970857Y-71568571D01*
X147085142Y-71568571D01*
X147256571Y-71640000D01*
X147313714Y-71711428D01*
X147770857Y-72997142D02*
X147942285Y-73068571D01*
X148228000Y-73068571D01*
X148342285Y-72997142D01*
X148399428Y-72925714D01*
X148456571Y-72782857D01*
X148456571Y-72640000D01*
X148399428Y-72497142D01*
X148342285Y-72425714D01*
X148228000Y-72354285D01*
X147999428Y-72282857D01*
X147885142Y-72211428D01*
X147828000Y-72140000D01*
X147770857Y-71997142D01*
X147770857Y-71854285D01*
X147828000Y-71711428D01*
X147885142Y-71640000D01*
X147999428Y-71568571D01*
X148285142Y-71568571D01*
X148456571Y-71640000D01*
X148970857Y-73068571D02*
X148970857Y-71568571D01*
X149428000Y-71568571D01*
X149542285Y-71640000D01*
X149599428Y-71711428D01*
X149656571Y-71854285D01*
X149656571Y-72068571D01*
X149599428Y-72211428D01*
X149542285Y-72282857D01*
X149428000Y-72354285D01*
X148970857Y-72354285D01*
D11*
G36*
X142494000Y-73406000D02*
G01*
X139954000Y-73406000D01*
X141224000Y-71374000D01*
X142494000Y-73406000D01*
G37*
X142494000Y-73406000D02*
X139954000Y-73406000D01*
X141224000Y-71374000D01*
X142494000Y-73406000D01*
D12*
%TO.C,Q2*%
X163050000Y-121595000D02*
X163050000Y-120665000D01*
X163050000Y-118435000D02*
X163050000Y-119365000D01*
X163050000Y-118435000D02*
X160890000Y-118435000D01*
X163050000Y-121595000D02*
X161590000Y-121595000D01*
%TO.C,J5*%
X122285000Y-116205000D02*
X122285000Y-126365000D01*
X129905000Y-116205000D02*
X122285000Y-116205000D01*
X129905000Y-126365000D02*
X129905000Y-116205000D01*
X122285000Y-126365000D02*
X129905000Y-126365000D01*
X123555000Y-126365000D02*
X123555000Y-116205000D01*
%TO.C,J8*%
X197215000Y-125095000D02*
X189595000Y-125095000D01*
X197215000Y-109855000D02*
X189595000Y-109855000D01*
X195945000Y-125095000D02*
X195945000Y-109855000D01*
X189595000Y-125095000D02*
X189595000Y-109855000D01*
X197215000Y-125095000D02*
X197215000Y-109855000D01*
%TO.C,PS1*%
X103375000Y-74315000D02*
X103375000Y-94515000D01*
X103375000Y-94515000D02*
X137575000Y-94515000D01*
X137575000Y-94515000D02*
X137575000Y-74315000D01*
X137575000Y-74315000D02*
X103375000Y-74315000D01*
X102985000Y-80915000D02*
X102985000Y-82925000D01*
D13*
%TO.C,T1*%
X117765000Y-96425000D02*
X136965000Y-96425000D01*
X117765000Y-113125000D02*
X117765000Y-96425000D01*
X136965000Y-113125000D02*
X117765000Y-113125000D01*
X136965000Y-96425000D02*
X136965000Y-113125000D01*
D10*
X117265000Y-98375000D02*
G75*
G03*
X117265000Y-98375000I-100000J0D01*
G01*
D12*
%TO.C,R11*%
X142254564Y-117750000D02*
X140800436Y-117750000D01*
X142254564Y-115930000D02*
X140800436Y-115930000D01*
%TO.C,R10*%
X142254564Y-106320000D02*
X140800436Y-106320000D01*
X142254564Y-104500000D02*
X140800436Y-104500000D01*
%TO.C,R13*%
X148604564Y-113940000D02*
X147150436Y-113940000D01*
X148604564Y-112120000D02*
X147150436Y-112120000D01*
%TO.C,R12*%
X148604564Y-110130000D02*
X147150436Y-110130000D01*
X148604564Y-108310000D02*
X147150436Y-108310000D01*
%TO.C,C4*%
X142338752Y-110130000D02*
X140916248Y-110130000D01*
X142338752Y-108310000D02*
X140916248Y-108310000D01*
%TO.C,C5*%
X142338752Y-112120000D02*
X140916248Y-112120000D01*
X142338752Y-113940000D02*
X140916248Y-113940000D01*
D14*
%TO.C,J4*%
X102725000Y-124865000D02*
X106325000Y-124865000D01*
X102725000Y-118665000D02*
X102725000Y-124865000D01*
X106325000Y-118665000D02*
X102725000Y-118665000D01*
X106325000Y-127365000D02*
X106325000Y-115565000D01*
X109875000Y-127365000D02*
X106325000Y-127365000D01*
X118125000Y-127365000D02*
X114375000Y-127365000D01*
X120825000Y-127365000D02*
X120725000Y-127365000D01*
X120825000Y-115565000D02*
X120825000Y-127365000D01*
X118425000Y-115565000D02*
X120825000Y-115565000D01*
X106325000Y-115565000D02*
X114075000Y-115565000D01*
D12*
X112125000Y-127865000D02*
X111625000Y-128415000D01*
X111625000Y-128415000D02*
X112625000Y-128415000D01*
X112625000Y-128415000D02*
X112125000Y-127865000D01*
%TO.C,J2*%
X110855000Y-109855000D02*
X110855000Y-99695000D01*
X103235000Y-109855000D02*
X110855000Y-109855000D01*
X103235000Y-99695000D02*
X103235000Y-109855000D01*
X110855000Y-99695000D02*
X103235000Y-99695000D01*
X109585000Y-99695000D02*
X109585000Y-109855000D01*
%TO.C,C8*%
X148705563Y-98605000D02*
X149770000Y-97540563D01*
X141750000Y-100095000D02*
X141750000Y-98845000D01*
X149770000Y-88085000D02*
X146020000Y-88085000D01*
X139250000Y-88085000D02*
X143000000Y-88085000D01*
X141125000Y-99470000D02*
X142375000Y-99470000D01*
X139250000Y-97540563D02*
X139250000Y-88085000D01*
X149770000Y-97540563D02*
X149770000Y-88085000D01*
X148705563Y-98605000D02*
X146020000Y-98605000D01*
X140314437Y-98605000D02*
X143000000Y-98605000D01*
X140314437Y-98605000D02*
X139250000Y-97540563D01*
%TO.C,C3*%
X140314437Y-75385000D02*
X139250000Y-76449437D01*
X147270000Y-73895000D02*
X147270000Y-75145000D01*
X139250000Y-85905000D02*
X143000000Y-85905000D01*
X149770000Y-85905000D02*
X146020000Y-85905000D01*
X147895000Y-74520000D02*
X146645000Y-74520000D01*
X149770000Y-76449437D02*
X149770000Y-85905000D01*
X139250000Y-76449437D02*
X139250000Y-85905000D01*
X140314437Y-75385000D02*
X143000000Y-75385000D01*
X148705563Y-75385000D02*
X146020000Y-75385000D01*
X148705563Y-75385000D02*
X149770000Y-76449437D01*
%TO.C,C1*%
X133625000Y-70633752D02*
X133625000Y-69211248D01*
X131805000Y-70633752D02*
X131805000Y-69211248D01*
%TO.C,J1*%
X129070000Y-67420000D02*
X129070000Y-66820000D01*
X127470000Y-67420000D02*
X129070000Y-67420000D01*
X127470000Y-66820000D02*
X127470000Y-67420000D01*
X126530000Y-67420000D02*
X126530000Y-66820000D01*
X124930000Y-67420000D02*
X126530000Y-67420000D01*
X124930000Y-66820000D02*
X124930000Y-67420000D01*
X123990000Y-67420000D02*
X123990000Y-66820000D01*
X122390000Y-67420000D02*
X123990000Y-67420000D01*
X122390000Y-66820000D02*
X122390000Y-67420000D01*
X128020000Y-72840000D02*
X128020000Y-71840000D01*
X123440000Y-72840000D02*
X123440000Y-71840000D01*
X128020000Y-71310000D02*
X128270000Y-71840000D01*
X123440000Y-71310000D02*
X128020000Y-71310000D01*
X123190000Y-71840000D02*
X123440000Y-71310000D01*
X128270000Y-71840000D02*
X128270000Y-72840000D01*
X123190000Y-71840000D02*
X128270000Y-71840000D01*
X123190000Y-72840000D02*
X123190000Y-71840000D01*
X121520000Y-67850000D02*
X121520000Y-71850000D01*
X129650000Y-66820000D02*
X121810000Y-66820000D01*
X129650000Y-72840000D02*
X129650000Y-66820000D01*
X121810000Y-72840000D02*
X129650000Y-72840000D01*
X121810000Y-66820000D02*
X121810000Y-72840000D01*
%TO.C,J3*%
X194454000Y-88684000D02*
X195054000Y-88684000D01*
X194454000Y-87084000D02*
X194454000Y-88684000D01*
X195054000Y-87084000D02*
X194454000Y-87084000D01*
X194454000Y-86144000D02*
X195054000Y-86144000D01*
X194454000Y-84544000D02*
X194454000Y-86144000D01*
X195054000Y-84544000D02*
X194454000Y-84544000D01*
X194454000Y-83604000D02*
X195054000Y-83604000D01*
X194454000Y-82004000D02*
X194454000Y-83604000D01*
X195054000Y-82004000D02*
X194454000Y-82004000D01*
X194454000Y-81064000D02*
X195054000Y-81064000D01*
X194454000Y-79464000D02*
X194454000Y-81064000D01*
X195054000Y-79464000D02*
X194454000Y-79464000D01*
X194454000Y-78524000D02*
X195054000Y-78524000D01*
X194454000Y-76924000D02*
X194454000Y-78524000D01*
X195054000Y-76924000D02*
X194454000Y-76924000D01*
X189034000Y-87634000D02*
X190034000Y-87634000D01*
X189034000Y-77974000D02*
X190034000Y-77974000D01*
X190564000Y-87634000D02*
X190034000Y-87884000D01*
X190564000Y-77974000D02*
X190564000Y-87634000D01*
X190034000Y-77724000D02*
X190564000Y-77974000D01*
X190034000Y-87884000D02*
X189034000Y-87884000D01*
X190034000Y-77724000D02*
X190034000Y-87884000D01*
X189034000Y-77724000D02*
X190034000Y-77724000D01*
X194024000Y-76054000D02*
X190024000Y-76054000D01*
X195054000Y-89264000D02*
X195054000Y-76344000D01*
X189034000Y-89264000D02*
X195054000Y-89264000D01*
X189034000Y-76344000D02*
X189034000Y-89264000D01*
X195054000Y-76344000D02*
X189034000Y-76344000D01*
%TO.C,R25*%
X184865436Y-89175000D02*
X186319564Y-89175000D01*
X184865436Y-87355000D02*
X186319564Y-87355000D01*
%TO.C,R24*%
X186319564Y-84815000D02*
X184865436Y-84815000D01*
X186319564Y-86635000D02*
X184865436Y-86635000D01*
%TO.C,R23*%
X157882000Y-98709564D02*
X157882000Y-97255436D01*
X156062000Y-98709564D02*
X156062000Y-97255436D01*
%TO.C,R22*%
X160422000Y-98709564D02*
X160422000Y-97255436D01*
X158602000Y-98709564D02*
X158602000Y-97255436D01*
%TO.C,R21*%
X161380000Y-114400436D02*
X161380000Y-115854564D01*
X163200000Y-114400436D02*
X163200000Y-115854564D01*
%TO.C,R20*%
X161380000Y-97255436D02*
X161380000Y-98709564D01*
X163200000Y-97255436D02*
X163200000Y-98709564D01*
%TO.C,R19*%
X148604564Y-115930000D02*
X147150436Y-115930000D01*
X148604564Y-117750000D02*
X147150436Y-117750000D01*
%TO.C,R18*%
X155589564Y-115930000D02*
X154135436Y-115930000D01*
X155589564Y-117750000D02*
X154135436Y-117750000D01*
%TO.C,C11*%
X152760000Y-94246248D02*
X152760000Y-95668752D01*
X154580000Y-94246248D02*
X154580000Y-95668752D01*
%TO.C,C10*%
X150220000Y-94246248D02*
X150220000Y-95668752D01*
X152040000Y-94246248D02*
X152040000Y-95668752D01*
D15*
%TO.C,U3*%
X161274000Y-88519000D02*
X161274000Y-89281000D01*
X161274000Y-89281000D02*
X177276000Y-89281000D01*
X177276000Y-89281000D02*
X177276000Y-88519000D01*
D14*
%TO.C,U2*%
X153680000Y-110310000D02*
X152605000Y-110310000D01*
X153680000Y-113385000D02*
X156930000Y-113385000D01*
X153680000Y-110135000D02*
X156930000Y-110135000D01*
X153680000Y-113385000D02*
X153680000Y-113110000D01*
X156930000Y-113385000D02*
X156930000Y-113110000D01*
X156930000Y-110135000D02*
X156930000Y-110410000D01*
X153680000Y-110135000D02*
X153680000Y-110310000D01*
D12*
%TO.C,U1*%
X156595000Y-87630000D02*
X156595000Y-85680000D01*
X156595000Y-87630000D02*
X156595000Y-89580000D01*
X151475000Y-87630000D02*
X151475000Y-85680000D01*
X151475000Y-87630000D02*
X151475000Y-91080000D01*
%TO.C,SW1*%
X145995000Y-130540000D02*
X150495000Y-130540000D01*
X144745000Y-126540000D02*
X144745000Y-128040000D01*
X150495000Y-124040000D02*
X145995000Y-124040000D01*
X151745000Y-128040000D02*
X151745000Y-126540000D01*
%TO.C,R9*%
X158755000Y-122655436D02*
X158755000Y-124109564D01*
X156935000Y-122655436D02*
X156935000Y-124109564D01*
%TO.C,R6*%
X155580000Y-127985436D02*
X155580000Y-129439564D01*
X153760000Y-127985436D02*
X153760000Y-129439564D01*
%TO.C,R5*%
X140800436Y-119740000D02*
X142254564Y-119740000D01*
X140800436Y-121560000D02*
X142254564Y-121560000D01*
%TO.C,R17*%
X155589564Y-108225000D02*
X154135436Y-108225000D01*
X155589564Y-106405000D02*
X154135436Y-106405000D01*
%TO.C,R15*%
X184865436Y-74655000D02*
X186319564Y-74655000D01*
X184865436Y-76475000D02*
X186319564Y-76475000D01*
%TO.C,R16*%
X184865436Y-77195000D02*
X186319564Y-77195000D01*
X184865436Y-79015000D02*
X186319564Y-79015000D01*
%TO.C,SW2*%
X134565000Y-130540000D02*
X139065000Y-130540000D01*
X133315000Y-126540000D02*
X133315000Y-128040000D01*
X139065000Y-124040000D02*
X134565000Y-124040000D01*
X140315000Y-128040000D02*
X140315000Y-126540000D01*
%TO.C,R3*%
X114314564Y-98065000D02*
X112860436Y-98065000D01*
X114314564Y-96245000D02*
X112860436Y-96245000D01*
%TO.C,R14*%
X154319564Y-75840000D02*
X152865436Y-75840000D01*
X154319564Y-74020000D02*
X152865436Y-74020000D01*
%TO.C,R8*%
X155580000Y-122655436D02*
X155580000Y-124109564D01*
X153760000Y-122655436D02*
X153760000Y-124109564D01*
%TO.C,R2*%
X184865436Y-79735000D02*
X186319564Y-79735000D01*
X184865436Y-81555000D02*
X186319564Y-81555000D01*
%TO.C,R7*%
X158755000Y-127985436D02*
X158755000Y-129439564D01*
X156935000Y-127985436D02*
X156935000Y-129439564D01*
%TO.C,R4*%
X142254564Y-102510000D02*
X140800436Y-102510000D01*
X142254564Y-100690000D02*
X140800436Y-100690000D01*
%TO.C,C9*%
X155673752Y-104415000D02*
X154251248Y-104415000D01*
X155673752Y-102595000D02*
X154251248Y-102595000D01*
%TO.C,C6*%
X153031248Y-80370000D02*
X154453752Y-80370000D01*
X153031248Y-82190000D02*
X154453752Y-82190000D01*
%TO.C,C7*%
X148688752Y-121560000D02*
X147266248Y-121560000D01*
X148688752Y-119740000D02*
X147266248Y-119740000D01*
%TO.C,D1*%
X151930000Y-79240000D02*
X155815000Y-79240000D01*
X155815000Y-79240000D02*
X155815000Y-76970000D01*
X155815000Y-76970000D02*
X151930000Y-76970000D01*
%TO.C,C2*%
X134345000Y-70633752D02*
X134345000Y-69211248D01*
X136165000Y-70633752D02*
X136165000Y-69211248D01*
%TO.C,R1*%
X184865436Y-82275000D02*
X186319564Y-82275000D01*
X184865436Y-84095000D02*
X186319564Y-84095000D01*
%TO.C,K1*%
X168510000Y-101530000D02*
X168510000Y-108130000D01*
X168510000Y-92530000D02*
X168510000Y-99130000D01*
X168510000Y-92530000D02*
X188310000Y-92530000D01*
X188310000Y-92530000D02*
X188310000Y-108130000D01*
X188310000Y-108130000D02*
X168510000Y-108130000D01*
X184060000Y-104530000D02*
X184060000Y-102080000D01*
X184060000Y-96130000D02*
X184060000Y-98630000D01*
X173460000Y-106380000D02*
X175960000Y-106380000D01*
X172560000Y-100380000D02*
X171760000Y-100380000D01*
X175960000Y-94380000D02*
X173460000Y-94380000D01*
X179360000Y-100380000D02*
X180860000Y-100380000D01*
X180860000Y-100380000D02*
X185460000Y-97880000D01*
X179360000Y-103980000D02*
X172560000Y-103980000D01*
X179360000Y-100380000D02*
X179360000Y-103980000D01*
X172560000Y-100380000D02*
X172560000Y-103980000D01*
X175960000Y-94380000D02*
X175960000Y-98580000D01*
X175960000Y-102180000D02*
X175960000Y-106380000D01*
X177960000Y-102180000D02*
X173960000Y-98580000D01*
X173960000Y-102180000D02*
X173960000Y-98580000D01*
X173960000Y-98580000D02*
X177960000Y-98580000D01*
X177960000Y-98580000D02*
X177960000Y-102180000D01*
X177960000Y-102180000D02*
X173960000Y-102180000D01*
%TO.C,Q1*%
X163050000Y-104450000D02*
X163050000Y-103520000D01*
X163050000Y-101290000D02*
X163050000Y-102220000D01*
X163050000Y-101290000D02*
X160890000Y-101290000D01*
X163050000Y-104450000D02*
X161590000Y-104450000D01*
%TO.C,J7*%
X197215000Y-107950000D02*
X189595000Y-107950000D01*
X197215000Y-92710000D02*
X189595000Y-92710000D01*
X195945000Y-107950000D02*
X195945000Y-92710000D01*
X189595000Y-107950000D02*
X189595000Y-92710000D01*
X197215000Y-107950000D02*
X197215000Y-92710000D01*
%TO.C,J6*%
X142605000Y-71180000D02*
X142605000Y-68520000D01*
X142605000Y-71180000D02*
X155365000Y-71180000D01*
X155365000Y-71180000D02*
X155365000Y-68520000D01*
X142605000Y-68520000D02*
X155365000Y-68520000D01*
X140005000Y-68520000D02*
X141335000Y-68520000D01*
X140005000Y-69850000D02*
X140005000Y-68520000D01*
%TO.C,K2*%
X168510000Y-118675000D02*
X168510000Y-125275000D01*
X168510000Y-109675000D02*
X168510000Y-116275000D01*
X168510000Y-109675000D02*
X188310000Y-109675000D01*
X188310000Y-109675000D02*
X188310000Y-125275000D01*
X188310000Y-125275000D02*
X168510000Y-125275000D01*
X184060000Y-121675000D02*
X184060000Y-119225000D01*
X184060000Y-113275000D02*
X184060000Y-115775000D01*
X173460000Y-123525000D02*
X175960000Y-123525000D01*
X172560000Y-117525000D02*
X171760000Y-117525000D01*
X175960000Y-111525000D02*
X173460000Y-111525000D01*
X179360000Y-117525000D02*
X180860000Y-117525000D01*
X180860000Y-117525000D02*
X185460000Y-115025000D01*
X179360000Y-121125000D02*
X172560000Y-121125000D01*
X179360000Y-117525000D02*
X179360000Y-121125000D01*
X172560000Y-117525000D02*
X172560000Y-121125000D01*
X175960000Y-111525000D02*
X175960000Y-115725000D01*
X175960000Y-119325000D02*
X175960000Y-123525000D01*
X177960000Y-119325000D02*
X173960000Y-115725000D01*
X173960000Y-119325000D02*
X173960000Y-115725000D01*
X173960000Y-115725000D02*
X177960000Y-115725000D01*
X177960000Y-115725000D02*
X177960000Y-119325000D01*
X177960000Y-119325000D02*
X173960000Y-119325000D01*
%TO.C,D5*%
X167750000Y-113075000D02*
X164450000Y-113075000D01*
X164450000Y-113075000D02*
X164450000Y-119975000D01*
X167750000Y-113075000D02*
X167750000Y-119975000D01*
%TO.C,D4*%
X167750000Y-95930000D02*
X164450000Y-95930000D01*
X164450000Y-95930000D02*
X164450000Y-102830000D01*
X167750000Y-95930000D02*
X167750000Y-102830000D01*
%TO.C,D3*%
X166300000Y-109990000D02*
X162415000Y-109990000D01*
X162415000Y-109990000D02*
X162415000Y-112260000D01*
X162415000Y-112260000D02*
X166300000Y-112260000D01*
%TO.C,D2*%
X166300000Y-92845000D02*
X162415000Y-92845000D01*
X162415000Y-92845000D02*
X162415000Y-95115000D01*
X162415000Y-95115000D02*
X166300000Y-95115000D01*
%TO.C,Q2*%
D14*
X162194761Y-123102619D02*
X162099523Y-123055000D01*
X162004285Y-122959761D01*
X161861428Y-122816904D01*
X161766190Y-122769285D01*
X161670952Y-122769285D01*
X161718571Y-123007380D02*
X161623333Y-122959761D01*
X161528095Y-122864523D01*
X161480476Y-122674047D01*
X161480476Y-122340714D01*
X161528095Y-122150238D01*
X161623333Y-122055000D01*
X161718571Y-122007380D01*
X161909047Y-122007380D01*
X162004285Y-122055000D01*
X162099523Y-122150238D01*
X162147142Y-122340714D01*
X162147142Y-122674047D01*
X162099523Y-122864523D01*
X162004285Y-122959761D01*
X161909047Y-123007380D01*
X161718571Y-123007380D01*
X162528095Y-122102619D02*
X162575714Y-122055000D01*
X162670952Y-122007380D01*
X162909047Y-122007380D01*
X163004285Y-122055000D01*
X163051904Y-122102619D01*
X163099523Y-122197857D01*
X163099523Y-122293095D01*
X163051904Y-122435952D01*
X162480476Y-123007380D01*
X163099523Y-123007380D01*
%TO.C,J5*%
X130627380Y-121618333D02*
X131341666Y-121618333D01*
X131484523Y-121665952D01*
X131579761Y-121761190D01*
X131627380Y-121904047D01*
X131627380Y-121999285D01*
X130627380Y-120665952D02*
X130627380Y-121142142D01*
X131103571Y-121189761D01*
X131055952Y-121142142D01*
X131008333Y-121046904D01*
X131008333Y-120808809D01*
X131055952Y-120713571D01*
X131103571Y-120665952D01*
X131198809Y-120618333D01*
X131436904Y-120618333D01*
X131532142Y-120665952D01*
X131579761Y-120713571D01*
X131627380Y-120808809D01*
X131627380Y-121046904D01*
X131579761Y-121142142D01*
X131532142Y-121189761D01*
%TO.C,J8*%
X189952380Y-111458333D02*
X190666666Y-111458333D01*
X190809523Y-111505952D01*
X190904761Y-111601190D01*
X190952380Y-111744047D01*
X190952380Y-111839285D01*
X190380952Y-110839285D02*
X190333333Y-110934523D01*
X190285714Y-110982142D01*
X190190476Y-111029761D01*
X190142857Y-111029761D01*
X190047619Y-110982142D01*
X190000000Y-110934523D01*
X189952380Y-110839285D01*
X189952380Y-110648809D01*
X190000000Y-110553571D01*
X190047619Y-110505952D01*
X190142857Y-110458333D01*
X190190476Y-110458333D01*
X190285714Y-110505952D01*
X190333333Y-110553571D01*
X190380952Y-110648809D01*
X190380952Y-110839285D01*
X190428571Y-110934523D01*
X190476190Y-110982142D01*
X190571428Y-111029761D01*
X190761904Y-111029761D01*
X190857142Y-110982142D01*
X190904761Y-110934523D01*
X190952380Y-110839285D01*
X190952380Y-110648809D01*
X190904761Y-110553571D01*
X190857142Y-110505952D01*
X190761904Y-110458333D01*
X190571428Y-110458333D01*
X190476190Y-110505952D01*
X190428571Y-110553571D01*
X190380952Y-110648809D01*
%TO.C,PS1*%
X102287380Y-82579285D02*
X101287380Y-82579285D01*
X101287380Y-82198333D01*
X101335000Y-82103095D01*
X101382619Y-82055476D01*
X101477857Y-82007857D01*
X101620714Y-82007857D01*
X101715952Y-82055476D01*
X101763571Y-82103095D01*
X101811190Y-82198333D01*
X101811190Y-82579285D01*
X102239761Y-81626904D02*
X102287380Y-81484047D01*
X102287380Y-81245952D01*
X102239761Y-81150714D01*
X102192142Y-81103095D01*
X102096904Y-81055476D01*
X102001666Y-81055476D01*
X101906428Y-81103095D01*
X101858809Y-81150714D01*
X101811190Y-81245952D01*
X101763571Y-81436428D01*
X101715952Y-81531666D01*
X101668333Y-81579285D01*
X101573095Y-81626904D01*
X101477857Y-81626904D01*
X101382619Y-81579285D01*
X101335000Y-81531666D01*
X101287380Y-81436428D01*
X101287380Y-81198333D01*
X101335000Y-81055476D01*
X102287380Y-80103095D02*
X102287380Y-80674523D01*
X102287380Y-80388809D02*
X101287380Y-80388809D01*
X101430238Y-80484047D01*
X101525476Y-80579285D01*
X101573095Y-80674523D01*
%TO.C,T1*%
X119618095Y-94702380D02*
X120189523Y-94702380D01*
X119903809Y-95702380D02*
X119903809Y-94702380D01*
X121046666Y-95702380D02*
X120475238Y-95702380D01*
X120760952Y-95702380D02*
X120760952Y-94702380D01*
X120665714Y-94845238D01*
X120570476Y-94940476D01*
X120475238Y-94988095D01*
%TO.C,R11*%
X140884642Y-119112380D02*
X140551309Y-118636190D01*
X140313214Y-119112380D02*
X140313214Y-118112380D01*
X140694166Y-118112380D01*
X140789404Y-118160000D01*
X140837023Y-118207619D01*
X140884642Y-118302857D01*
X140884642Y-118445714D01*
X140837023Y-118540952D01*
X140789404Y-118588571D01*
X140694166Y-118636190D01*
X140313214Y-118636190D01*
X141837023Y-119112380D02*
X141265595Y-119112380D01*
X141551309Y-119112380D02*
X141551309Y-118112380D01*
X141456071Y-118255238D01*
X141360833Y-118350476D01*
X141265595Y-118398095D01*
X142789404Y-119112380D02*
X142217976Y-119112380D01*
X142503690Y-119112380D02*
X142503690Y-118112380D01*
X142408452Y-118255238D01*
X142313214Y-118350476D01*
X142217976Y-118398095D01*
%TO.C,R10*%
X140692142Y-107767380D02*
X140358809Y-107291190D01*
X140120714Y-107767380D02*
X140120714Y-106767380D01*
X140501666Y-106767380D01*
X140596904Y-106815000D01*
X140644523Y-106862619D01*
X140692142Y-106957857D01*
X140692142Y-107100714D01*
X140644523Y-107195952D01*
X140596904Y-107243571D01*
X140501666Y-107291190D01*
X140120714Y-107291190D01*
X141644523Y-107767380D02*
X141073095Y-107767380D01*
X141358809Y-107767380D02*
X141358809Y-106767380D01*
X141263571Y-106910238D01*
X141168333Y-107005476D01*
X141073095Y-107053095D01*
X142263571Y-106767380D02*
X142358809Y-106767380D01*
X142454047Y-106815000D01*
X142501666Y-106862619D01*
X142549285Y-106957857D01*
X142596904Y-107148333D01*
X142596904Y-107386428D01*
X142549285Y-107576904D01*
X142501666Y-107672142D01*
X142454047Y-107719761D01*
X142358809Y-107767380D01*
X142263571Y-107767380D01*
X142168333Y-107719761D01*
X142120714Y-107672142D01*
X142073095Y-107576904D01*
X142025476Y-107386428D01*
X142025476Y-107148333D01*
X142073095Y-106957857D01*
X142120714Y-106862619D01*
X142168333Y-106815000D01*
X142263571Y-106767380D01*
%TO.C,R13*%
X147234642Y-115302380D02*
X146901309Y-114826190D01*
X146663214Y-115302380D02*
X146663214Y-114302380D01*
X147044166Y-114302380D01*
X147139404Y-114350000D01*
X147187023Y-114397619D01*
X147234642Y-114492857D01*
X147234642Y-114635714D01*
X147187023Y-114730952D01*
X147139404Y-114778571D01*
X147044166Y-114826190D01*
X146663214Y-114826190D01*
X148187023Y-115302380D02*
X147615595Y-115302380D01*
X147901309Y-115302380D02*
X147901309Y-114302380D01*
X147806071Y-114445238D01*
X147710833Y-114540476D01*
X147615595Y-114588095D01*
X148520357Y-114302380D02*
X149139404Y-114302380D01*
X148806071Y-114683333D01*
X148948928Y-114683333D01*
X149044166Y-114730952D01*
X149091785Y-114778571D01*
X149139404Y-114873809D01*
X149139404Y-115111904D01*
X149091785Y-115207142D01*
X149044166Y-115254761D01*
X148948928Y-115302380D01*
X148663214Y-115302380D01*
X148567976Y-115254761D01*
X148520357Y-115207142D01*
%TO.C,R12*%
X147234642Y-111492380D02*
X146901309Y-111016190D01*
X146663214Y-111492380D02*
X146663214Y-110492380D01*
X147044166Y-110492380D01*
X147139404Y-110540000D01*
X147187023Y-110587619D01*
X147234642Y-110682857D01*
X147234642Y-110825714D01*
X147187023Y-110920952D01*
X147139404Y-110968571D01*
X147044166Y-111016190D01*
X146663214Y-111016190D01*
X148187023Y-111492380D02*
X147615595Y-111492380D01*
X147901309Y-111492380D02*
X147901309Y-110492380D01*
X147806071Y-110635238D01*
X147710833Y-110730476D01*
X147615595Y-110778095D01*
X148567976Y-110587619D02*
X148615595Y-110540000D01*
X148710833Y-110492380D01*
X148948928Y-110492380D01*
X149044166Y-110540000D01*
X149091785Y-110587619D01*
X149139404Y-110682857D01*
X149139404Y-110778095D01*
X149091785Y-110920952D01*
X148520357Y-111492380D01*
X149139404Y-111492380D01*
%TO.C,C4*%
X141460833Y-111427142D02*
X141413214Y-111474761D01*
X141270357Y-111522380D01*
X141175119Y-111522380D01*
X141032261Y-111474761D01*
X140937023Y-111379523D01*
X140889404Y-111284285D01*
X140841785Y-111093809D01*
X140841785Y-110950952D01*
X140889404Y-110760476D01*
X140937023Y-110665238D01*
X141032261Y-110570000D01*
X141175119Y-110522380D01*
X141270357Y-110522380D01*
X141413214Y-110570000D01*
X141460833Y-110617619D01*
X142317976Y-110855714D02*
X142317976Y-111522380D01*
X142079880Y-110474761D02*
X141841785Y-111189047D01*
X142460833Y-111189047D01*
%TO.C,C5*%
X141460833Y-115237142D02*
X141413214Y-115284761D01*
X141270357Y-115332380D01*
X141175119Y-115332380D01*
X141032261Y-115284761D01*
X140937023Y-115189523D01*
X140889404Y-115094285D01*
X140841785Y-114903809D01*
X140841785Y-114760952D01*
X140889404Y-114570476D01*
X140937023Y-114475238D01*
X141032261Y-114380000D01*
X141175119Y-114332380D01*
X141270357Y-114332380D01*
X141413214Y-114380000D01*
X141460833Y-114427619D01*
X142365595Y-114332380D02*
X141889404Y-114332380D01*
X141841785Y-114808571D01*
X141889404Y-114760952D01*
X141984642Y-114713333D01*
X142222738Y-114713333D01*
X142317976Y-114760952D01*
X142365595Y-114808571D01*
X142413214Y-114903809D01*
X142413214Y-115141904D01*
X142365595Y-115237142D01*
X142317976Y-115284761D01*
X142222738Y-115332380D01*
X141984642Y-115332380D01*
X141889404Y-115284761D01*
X141841785Y-115237142D01*
%TO.C,J4*%
X108291666Y-128117380D02*
X108291666Y-128831666D01*
X108244047Y-128974523D01*
X108148809Y-129069761D01*
X108005952Y-129117380D01*
X107910714Y-129117380D01*
X109196428Y-128450714D02*
X109196428Y-129117380D01*
X108958333Y-128069761D02*
X108720238Y-128784047D01*
X109339285Y-128784047D01*
%TO.C,J2*%
X101417380Y-105108333D02*
X102131666Y-105108333D01*
X102274523Y-105155952D01*
X102369761Y-105251190D01*
X102417380Y-105394047D01*
X102417380Y-105489285D01*
X101512619Y-104679761D02*
X101465000Y-104632142D01*
X101417380Y-104536904D01*
X101417380Y-104298809D01*
X101465000Y-104203571D01*
X101512619Y-104155952D01*
X101607857Y-104108333D01*
X101703095Y-104108333D01*
X101845952Y-104155952D01*
X102417380Y-104727380D01*
X102417380Y-104108333D01*
%TO.C,C8*%
X139898333Y-87352142D02*
X139850714Y-87399761D01*
X139707857Y-87447380D01*
X139612619Y-87447380D01*
X139469761Y-87399761D01*
X139374523Y-87304523D01*
X139326904Y-87209285D01*
X139279285Y-87018809D01*
X139279285Y-86875952D01*
X139326904Y-86685476D01*
X139374523Y-86590238D01*
X139469761Y-86495000D01*
X139612619Y-86447380D01*
X139707857Y-86447380D01*
X139850714Y-86495000D01*
X139898333Y-86542619D01*
X140469761Y-86875952D02*
X140374523Y-86828333D01*
X140326904Y-86780714D01*
X140279285Y-86685476D01*
X140279285Y-86637857D01*
X140326904Y-86542619D01*
X140374523Y-86495000D01*
X140469761Y-86447380D01*
X140660238Y-86447380D01*
X140755476Y-86495000D01*
X140803095Y-86542619D01*
X140850714Y-86637857D01*
X140850714Y-86685476D01*
X140803095Y-86780714D01*
X140755476Y-86828333D01*
X140660238Y-86875952D01*
X140469761Y-86875952D01*
X140374523Y-86923571D01*
X140326904Y-86971190D01*
X140279285Y-87066428D01*
X140279285Y-87256904D01*
X140326904Y-87352142D01*
X140374523Y-87399761D01*
X140469761Y-87447380D01*
X140660238Y-87447380D01*
X140755476Y-87399761D01*
X140803095Y-87352142D01*
X140850714Y-87256904D01*
X140850714Y-87066428D01*
X140803095Y-86971190D01*
X140755476Y-86923571D01*
X140660238Y-86875952D01*
%TO.C,C3*%
X139898333Y-74652142D02*
X139850714Y-74699761D01*
X139707857Y-74747380D01*
X139612619Y-74747380D01*
X139469761Y-74699761D01*
X139374523Y-74604523D01*
X139326904Y-74509285D01*
X139279285Y-74318809D01*
X139279285Y-74175952D01*
X139326904Y-73985476D01*
X139374523Y-73890238D01*
X139469761Y-73795000D01*
X139612619Y-73747380D01*
X139707857Y-73747380D01*
X139850714Y-73795000D01*
X139898333Y-73842619D01*
X140231666Y-73747380D02*
X140850714Y-73747380D01*
X140517380Y-74128333D01*
X140660238Y-74128333D01*
X140755476Y-74175952D01*
X140803095Y-74223571D01*
X140850714Y-74318809D01*
X140850714Y-74556904D01*
X140803095Y-74652142D01*
X140755476Y-74699761D01*
X140660238Y-74747380D01*
X140374523Y-74747380D01*
X140279285Y-74699761D01*
X140231666Y-74652142D01*
%TO.C,C1*%
X131167142Y-70016666D02*
X131214761Y-70064285D01*
X131262380Y-70207142D01*
X131262380Y-70302380D01*
X131214761Y-70445238D01*
X131119523Y-70540476D01*
X131024285Y-70588095D01*
X130833809Y-70635714D01*
X130690952Y-70635714D01*
X130500476Y-70588095D01*
X130405238Y-70540476D01*
X130310000Y-70445238D01*
X130262380Y-70302380D01*
X130262380Y-70207142D01*
X130310000Y-70064285D01*
X130357619Y-70016666D01*
X131262380Y-69064285D02*
X131262380Y-69635714D01*
X131262380Y-69350000D02*
X130262380Y-69350000D01*
X130405238Y-69445238D01*
X130500476Y-69540476D01*
X130548095Y-69635714D01*
%TO.C,J1*%
X120062666Y-67016380D02*
X120062666Y-67730666D01*
X120015047Y-67873523D01*
X119919809Y-67968761D01*
X119776952Y-68016380D01*
X119681714Y-68016380D01*
X121062666Y-68016380D02*
X120491238Y-68016380D01*
X120776952Y-68016380D02*
X120776952Y-67016380D01*
X120681714Y-67159238D01*
X120586476Y-67254476D01*
X120491238Y-67302095D01*
%TO.C,J3*%
X189658666Y-74636380D02*
X189658666Y-75350666D01*
X189611047Y-75493523D01*
X189515809Y-75588761D01*
X189372952Y-75636380D01*
X189277714Y-75636380D01*
X190039619Y-74636380D02*
X190658666Y-74636380D01*
X190325333Y-75017333D01*
X190468190Y-75017333D01*
X190563428Y-75064952D01*
X190611047Y-75112571D01*
X190658666Y-75207809D01*
X190658666Y-75445904D01*
X190611047Y-75541142D01*
X190563428Y-75588761D01*
X190468190Y-75636380D01*
X190182476Y-75636380D01*
X190087238Y-75588761D01*
X190039619Y-75541142D01*
%TO.C,R25*%
X180697142Y-88717380D02*
X180363809Y-88241190D01*
X180125714Y-88717380D02*
X180125714Y-87717380D01*
X180506666Y-87717380D01*
X180601904Y-87765000D01*
X180649523Y-87812619D01*
X180697142Y-87907857D01*
X180697142Y-88050714D01*
X180649523Y-88145952D01*
X180601904Y-88193571D01*
X180506666Y-88241190D01*
X180125714Y-88241190D01*
X181078095Y-87812619D02*
X181125714Y-87765000D01*
X181220952Y-87717380D01*
X181459047Y-87717380D01*
X181554285Y-87765000D01*
X181601904Y-87812619D01*
X181649523Y-87907857D01*
X181649523Y-88003095D01*
X181601904Y-88145952D01*
X181030476Y-88717380D01*
X181649523Y-88717380D01*
X182554285Y-87717380D02*
X182078095Y-87717380D01*
X182030476Y-88193571D01*
X182078095Y-88145952D01*
X182173333Y-88098333D01*
X182411428Y-88098333D01*
X182506666Y-88145952D01*
X182554285Y-88193571D01*
X182601904Y-88288809D01*
X182601904Y-88526904D01*
X182554285Y-88622142D01*
X182506666Y-88669761D01*
X182411428Y-88717380D01*
X182173333Y-88717380D01*
X182078095Y-88669761D01*
X182030476Y-88622142D01*
%TO.C,R24*%
X180697142Y-86177380D02*
X180363809Y-85701190D01*
X180125714Y-86177380D02*
X180125714Y-85177380D01*
X180506666Y-85177380D01*
X180601904Y-85225000D01*
X180649523Y-85272619D01*
X180697142Y-85367857D01*
X180697142Y-85510714D01*
X180649523Y-85605952D01*
X180601904Y-85653571D01*
X180506666Y-85701190D01*
X180125714Y-85701190D01*
X181078095Y-85272619D02*
X181125714Y-85225000D01*
X181220952Y-85177380D01*
X181459047Y-85177380D01*
X181554285Y-85225000D01*
X181601904Y-85272619D01*
X181649523Y-85367857D01*
X181649523Y-85463095D01*
X181601904Y-85605952D01*
X181030476Y-86177380D01*
X181649523Y-86177380D01*
X182506666Y-85510714D02*
X182506666Y-86177380D01*
X182268571Y-85129761D02*
X182030476Y-85844047D01*
X182649523Y-85844047D01*
%TO.C,R23*%
X156789380Y-94372857D02*
X156313190Y-94706190D01*
X156789380Y-94944285D02*
X155789380Y-94944285D01*
X155789380Y-94563333D01*
X155837000Y-94468095D01*
X155884619Y-94420476D01*
X155979857Y-94372857D01*
X156122714Y-94372857D01*
X156217952Y-94420476D01*
X156265571Y-94468095D01*
X156313190Y-94563333D01*
X156313190Y-94944285D01*
X155884619Y-93991904D02*
X155837000Y-93944285D01*
X155789380Y-93849047D01*
X155789380Y-93610952D01*
X155837000Y-93515714D01*
X155884619Y-93468095D01*
X155979857Y-93420476D01*
X156075095Y-93420476D01*
X156217952Y-93468095D01*
X156789380Y-94039523D01*
X156789380Y-93420476D01*
X155789380Y-93087142D02*
X155789380Y-92468095D01*
X156170333Y-92801428D01*
X156170333Y-92658571D01*
X156217952Y-92563333D01*
X156265571Y-92515714D01*
X156360809Y-92468095D01*
X156598904Y-92468095D01*
X156694142Y-92515714D01*
X156741761Y-92563333D01*
X156789380Y-92658571D01*
X156789380Y-92944285D01*
X156741761Y-93039523D01*
X156694142Y-93087142D01*
%TO.C,R22*%
X157694380Y-94372857D02*
X157218190Y-94706190D01*
X157694380Y-94944285D02*
X156694380Y-94944285D01*
X156694380Y-94563333D01*
X156742000Y-94468095D01*
X156789619Y-94420476D01*
X156884857Y-94372857D01*
X157027714Y-94372857D01*
X157122952Y-94420476D01*
X157170571Y-94468095D01*
X157218190Y-94563333D01*
X157218190Y-94944285D01*
X156789619Y-93991904D02*
X156742000Y-93944285D01*
X156694380Y-93849047D01*
X156694380Y-93610952D01*
X156742000Y-93515714D01*
X156789619Y-93468095D01*
X156884857Y-93420476D01*
X156980095Y-93420476D01*
X157122952Y-93468095D01*
X157694380Y-94039523D01*
X157694380Y-93420476D01*
X156789619Y-93039523D02*
X156742000Y-92991904D01*
X156694380Y-92896666D01*
X156694380Y-92658571D01*
X156742000Y-92563333D01*
X156789619Y-92515714D01*
X156884857Y-92468095D01*
X156980095Y-92468095D01*
X157122952Y-92515714D01*
X157694380Y-93087142D01*
X157694380Y-92468095D01*
%TO.C,R21*%
X160952380Y-115770357D02*
X160476190Y-116103690D01*
X160952380Y-116341785D02*
X159952380Y-116341785D01*
X159952380Y-115960833D01*
X160000000Y-115865595D01*
X160047619Y-115817976D01*
X160142857Y-115770357D01*
X160285714Y-115770357D01*
X160380952Y-115817976D01*
X160428571Y-115865595D01*
X160476190Y-115960833D01*
X160476190Y-116341785D01*
X160047619Y-115389404D02*
X160000000Y-115341785D01*
X159952380Y-115246547D01*
X159952380Y-115008452D01*
X160000000Y-114913214D01*
X160047619Y-114865595D01*
X160142857Y-114817976D01*
X160238095Y-114817976D01*
X160380952Y-114865595D01*
X160952380Y-115437023D01*
X160952380Y-114817976D01*
X160952380Y-113865595D02*
X160952380Y-114437023D01*
X160952380Y-114151309D02*
X159952380Y-114151309D01*
X160095238Y-114246547D01*
X160190476Y-114341785D01*
X160238095Y-114437023D01*
%TO.C,R20*%
X160837380Y-98625357D02*
X160361190Y-98958690D01*
X160837380Y-99196785D02*
X159837380Y-99196785D01*
X159837380Y-98815833D01*
X159885000Y-98720595D01*
X159932619Y-98672976D01*
X160027857Y-98625357D01*
X160170714Y-98625357D01*
X160265952Y-98672976D01*
X160313571Y-98720595D01*
X160361190Y-98815833D01*
X160361190Y-99196785D01*
X159932619Y-98244404D02*
X159885000Y-98196785D01*
X159837380Y-98101547D01*
X159837380Y-97863452D01*
X159885000Y-97768214D01*
X159932619Y-97720595D01*
X160027857Y-97672976D01*
X160123095Y-97672976D01*
X160265952Y-97720595D01*
X160837380Y-98292023D01*
X160837380Y-97672976D01*
X159837380Y-97053928D02*
X159837380Y-96958690D01*
X159885000Y-96863452D01*
X159932619Y-96815833D01*
X160027857Y-96768214D01*
X160218333Y-96720595D01*
X160456428Y-96720595D01*
X160646904Y-96768214D01*
X160742142Y-96815833D01*
X160789761Y-96863452D01*
X160837380Y-96958690D01*
X160837380Y-97053928D01*
X160789761Y-97149166D01*
X160742142Y-97196785D01*
X160646904Y-97244404D01*
X160456428Y-97292023D01*
X160218333Y-97292023D01*
X160027857Y-97244404D01*
X159932619Y-97196785D01*
X159885000Y-97149166D01*
X159837380Y-97053928D01*
%TO.C,R19*%
X147234642Y-119112380D02*
X146901309Y-118636190D01*
X146663214Y-119112380D02*
X146663214Y-118112380D01*
X147044166Y-118112380D01*
X147139404Y-118160000D01*
X147187023Y-118207619D01*
X147234642Y-118302857D01*
X147234642Y-118445714D01*
X147187023Y-118540952D01*
X147139404Y-118588571D01*
X147044166Y-118636190D01*
X146663214Y-118636190D01*
X148187023Y-119112380D02*
X147615595Y-119112380D01*
X147901309Y-119112380D02*
X147901309Y-118112380D01*
X147806071Y-118255238D01*
X147710833Y-118350476D01*
X147615595Y-118398095D01*
X148663214Y-119112380D02*
X148853690Y-119112380D01*
X148948928Y-119064761D01*
X148996547Y-119017142D01*
X149091785Y-118874285D01*
X149139404Y-118683809D01*
X149139404Y-118302857D01*
X149091785Y-118207619D01*
X149044166Y-118160000D01*
X148948928Y-118112380D01*
X148758452Y-118112380D01*
X148663214Y-118160000D01*
X148615595Y-118207619D01*
X148567976Y-118302857D01*
X148567976Y-118540952D01*
X148615595Y-118636190D01*
X148663214Y-118683809D01*
X148758452Y-118731428D01*
X148948928Y-118731428D01*
X149044166Y-118683809D01*
X149091785Y-118636190D01*
X149139404Y-118540952D01*
%TO.C,R18*%
X154219642Y-119112380D02*
X153886309Y-118636190D01*
X153648214Y-119112380D02*
X153648214Y-118112380D01*
X154029166Y-118112380D01*
X154124404Y-118160000D01*
X154172023Y-118207619D01*
X154219642Y-118302857D01*
X154219642Y-118445714D01*
X154172023Y-118540952D01*
X154124404Y-118588571D01*
X154029166Y-118636190D01*
X153648214Y-118636190D01*
X155172023Y-119112380D02*
X154600595Y-119112380D01*
X154886309Y-119112380D02*
X154886309Y-118112380D01*
X154791071Y-118255238D01*
X154695833Y-118350476D01*
X154600595Y-118398095D01*
X155743452Y-118540952D02*
X155648214Y-118493333D01*
X155600595Y-118445714D01*
X155552976Y-118350476D01*
X155552976Y-118302857D01*
X155600595Y-118207619D01*
X155648214Y-118160000D01*
X155743452Y-118112380D01*
X155933928Y-118112380D01*
X156029166Y-118160000D01*
X156076785Y-118207619D01*
X156124404Y-118302857D01*
X156124404Y-118350476D01*
X156076785Y-118445714D01*
X156029166Y-118493333D01*
X155933928Y-118540952D01*
X155743452Y-118540952D01*
X155648214Y-118588571D01*
X155600595Y-118636190D01*
X155552976Y-118731428D01*
X155552976Y-118921904D01*
X155600595Y-119017142D01*
X155648214Y-119064761D01*
X155743452Y-119112380D01*
X155933928Y-119112380D01*
X156029166Y-119064761D01*
X156076785Y-119017142D01*
X156124404Y-118921904D01*
X156124404Y-118731428D01*
X156076785Y-118636190D01*
X156029166Y-118588571D01*
X155933928Y-118540952D01*
%TO.C,C11*%
X154027142Y-99702857D02*
X154074761Y-99750476D01*
X154122380Y-99893333D01*
X154122380Y-99988571D01*
X154074761Y-100131428D01*
X153979523Y-100226666D01*
X153884285Y-100274285D01*
X153693809Y-100321904D01*
X153550952Y-100321904D01*
X153360476Y-100274285D01*
X153265238Y-100226666D01*
X153170000Y-100131428D01*
X153122380Y-99988571D01*
X153122380Y-99893333D01*
X153170000Y-99750476D01*
X153217619Y-99702857D01*
X154122380Y-98750476D02*
X154122380Y-99321904D01*
X154122380Y-99036190D02*
X153122380Y-99036190D01*
X153265238Y-99131428D01*
X153360476Y-99226666D01*
X153408095Y-99321904D01*
X154122380Y-97798095D02*
X154122380Y-98369523D01*
X154122380Y-98083809D02*
X153122380Y-98083809D01*
X153265238Y-98179047D01*
X153360476Y-98274285D01*
X153408095Y-98369523D01*
%TO.C,C10*%
X151487142Y-99702857D02*
X151534761Y-99750476D01*
X151582380Y-99893333D01*
X151582380Y-99988571D01*
X151534761Y-100131428D01*
X151439523Y-100226666D01*
X151344285Y-100274285D01*
X151153809Y-100321904D01*
X151010952Y-100321904D01*
X150820476Y-100274285D01*
X150725238Y-100226666D01*
X150630000Y-100131428D01*
X150582380Y-99988571D01*
X150582380Y-99893333D01*
X150630000Y-99750476D01*
X150677619Y-99702857D01*
X151582380Y-98750476D02*
X151582380Y-99321904D01*
X151582380Y-99036190D02*
X150582380Y-99036190D01*
X150725238Y-99131428D01*
X150820476Y-99226666D01*
X150868095Y-99321904D01*
X150582380Y-98131428D02*
X150582380Y-98036190D01*
X150630000Y-97940952D01*
X150677619Y-97893333D01*
X150772857Y-97845714D01*
X150963333Y-97798095D01*
X151201428Y-97798095D01*
X151391904Y-97845714D01*
X151487142Y-97893333D01*
X151534761Y-97940952D01*
X151582380Y-98036190D01*
X151582380Y-98131428D01*
X151534761Y-98226666D01*
X151487142Y-98274285D01*
X151391904Y-98321904D01*
X151201428Y-98369523D01*
X150963333Y-98369523D01*
X150772857Y-98321904D01*
X150677619Y-98274285D01*
X150630000Y-98226666D01*
X150582380Y-98131428D01*
%TO.C,U3*%
X176768095Y-90257380D02*
X176768095Y-91066904D01*
X176815714Y-91162142D01*
X176863333Y-91209761D01*
X176958571Y-91257380D01*
X177149047Y-91257380D01*
X177244285Y-91209761D01*
X177291904Y-91162142D01*
X177339523Y-91066904D01*
X177339523Y-90257380D01*
X177720476Y-90257380D02*
X178339523Y-90257380D01*
X178006190Y-90638333D01*
X178149047Y-90638333D01*
X178244285Y-90685952D01*
X178291904Y-90733571D01*
X178339523Y-90828809D01*
X178339523Y-91066904D01*
X178291904Y-91162142D01*
X178244285Y-91209761D01*
X178149047Y-91257380D01*
X177863333Y-91257380D01*
X177768095Y-91209761D01*
X177720476Y-91162142D01*
%TO.C,U2*%
X157083095Y-108672380D02*
X157083095Y-109481904D01*
X157130714Y-109577142D01*
X157178333Y-109624761D01*
X157273571Y-109672380D01*
X157464047Y-109672380D01*
X157559285Y-109624761D01*
X157606904Y-109577142D01*
X157654523Y-109481904D01*
X157654523Y-108672380D01*
X158083095Y-108767619D02*
X158130714Y-108720000D01*
X158225952Y-108672380D01*
X158464047Y-108672380D01*
X158559285Y-108720000D01*
X158606904Y-108767619D01*
X158654523Y-108862857D01*
X158654523Y-108958095D01*
X158606904Y-109100952D01*
X158035476Y-109672380D01*
X158654523Y-109672380D01*
%TO.C,U1*%
X150087380Y-88391904D02*
X150896904Y-88391904D01*
X150992142Y-88344285D01*
X151039761Y-88296666D01*
X151087380Y-88201428D01*
X151087380Y-88010952D01*
X151039761Y-87915714D01*
X150992142Y-87868095D01*
X150896904Y-87820476D01*
X150087380Y-87820476D01*
X151087380Y-86820476D02*
X151087380Y-87391904D01*
X151087380Y-87106190D02*
X150087380Y-87106190D01*
X150230238Y-87201428D01*
X150325476Y-87296666D01*
X150373095Y-87391904D01*
%TO.C,SW1*%
X150161666Y-122959761D02*
X150304523Y-123007380D01*
X150542619Y-123007380D01*
X150637857Y-122959761D01*
X150685476Y-122912142D01*
X150733095Y-122816904D01*
X150733095Y-122721666D01*
X150685476Y-122626428D01*
X150637857Y-122578809D01*
X150542619Y-122531190D01*
X150352142Y-122483571D01*
X150256904Y-122435952D01*
X150209285Y-122388333D01*
X150161666Y-122293095D01*
X150161666Y-122197857D01*
X150209285Y-122102619D01*
X150256904Y-122055000D01*
X150352142Y-122007380D01*
X150590238Y-122007380D01*
X150733095Y-122055000D01*
X151066428Y-122007380D02*
X151304523Y-123007380D01*
X151495000Y-122293095D01*
X151685476Y-123007380D01*
X151923571Y-122007380D01*
X152828333Y-123007380D02*
X152256904Y-123007380D01*
X152542619Y-123007380D02*
X152542619Y-122007380D01*
X152447380Y-122150238D01*
X152352142Y-122245476D01*
X152256904Y-122293095D01*
%TO.C,R9*%
X160117380Y-123549166D02*
X159641190Y-123882500D01*
X160117380Y-124120595D02*
X159117380Y-124120595D01*
X159117380Y-123739642D01*
X159165000Y-123644404D01*
X159212619Y-123596785D01*
X159307857Y-123549166D01*
X159450714Y-123549166D01*
X159545952Y-123596785D01*
X159593571Y-123644404D01*
X159641190Y-123739642D01*
X159641190Y-124120595D01*
X160117380Y-123072976D02*
X160117380Y-122882500D01*
X160069761Y-122787261D01*
X160022142Y-122739642D01*
X159879285Y-122644404D01*
X159688809Y-122596785D01*
X159307857Y-122596785D01*
X159212619Y-122644404D01*
X159165000Y-122692023D01*
X159117380Y-122787261D01*
X159117380Y-122977738D01*
X159165000Y-123072976D01*
X159212619Y-123120595D01*
X159307857Y-123168214D01*
X159545952Y-123168214D01*
X159641190Y-123120595D01*
X159688809Y-123072976D01*
X159736428Y-122977738D01*
X159736428Y-122787261D01*
X159688809Y-122692023D01*
X159641190Y-122644404D01*
X159545952Y-122596785D01*
%TO.C,R6*%
X156942380Y-128879166D02*
X156466190Y-129212500D01*
X156942380Y-129450595D02*
X155942380Y-129450595D01*
X155942380Y-129069642D01*
X155990000Y-128974404D01*
X156037619Y-128926785D01*
X156132857Y-128879166D01*
X156275714Y-128879166D01*
X156370952Y-128926785D01*
X156418571Y-128974404D01*
X156466190Y-129069642D01*
X156466190Y-129450595D01*
X155942380Y-128022023D02*
X155942380Y-128212500D01*
X155990000Y-128307738D01*
X156037619Y-128355357D01*
X156180476Y-128450595D01*
X156370952Y-128498214D01*
X156751904Y-128498214D01*
X156847142Y-128450595D01*
X156894761Y-128402976D01*
X156942380Y-128307738D01*
X156942380Y-128117261D01*
X156894761Y-128022023D01*
X156847142Y-127974404D01*
X156751904Y-127926785D01*
X156513809Y-127926785D01*
X156418571Y-127974404D01*
X156370952Y-128022023D01*
X156323333Y-128117261D01*
X156323333Y-128307738D01*
X156370952Y-128402976D01*
X156418571Y-128450595D01*
X156513809Y-128498214D01*
%TO.C,R5*%
X141168333Y-123007380D02*
X140835000Y-122531190D01*
X140596904Y-123007380D02*
X140596904Y-122007380D01*
X140977857Y-122007380D01*
X141073095Y-122055000D01*
X141120714Y-122102619D01*
X141168333Y-122197857D01*
X141168333Y-122340714D01*
X141120714Y-122435952D01*
X141073095Y-122483571D01*
X140977857Y-122531190D01*
X140596904Y-122531190D01*
X142073095Y-122007380D02*
X141596904Y-122007380D01*
X141549285Y-122483571D01*
X141596904Y-122435952D01*
X141692142Y-122388333D01*
X141930238Y-122388333D01*
X142025476Y-122435952D01*
X142073095Y-122483571D01*
X142120714Y-122578809D01*
X142120714Y-122816904D01*
X142073095Y-122912142D01*
X142025476Y-122959761D01*
X141930238Y-123007380D01*
X141692142Y-123007380D01*
X141596904Y-122959761D01*
X141549285Y-122912142D01*
%TO.C,R17*%
X154219642Y-109587380D02*
X153886309Y-109111190D01*
X153648214Y-109587380D02*
X153648214Y-108587380D01*
X154029166Y-108587380D01*
X154124404Y-108635000D01*
X154172023Y-108682619D01*
X154219642Y-108777857D01*
X154219642Y-108920714D01*
X154172023Y-109015952D01*
X154124404Y-109063571D01*
X154029166Y-109111190D01*
X153648214Y-109111190D01*
X155172023Y-109587380D02*
X154600595Y-109587380D01*
X154886309Y-109587380D02*
X154886309Y-108587380D01*
X154791071Y-108730238D01*
X154695833Y-108825476D01*
X154600595Y-108873095D01*
X155505357Y-108587380D02*
X156172023Y-108587380D01*
X155743452Y-109587380D01*
%TO.C,R15*%
X180697142Y-76017380D02*
X180363809Y-75541190D01*
X180125714Y-76017380D02*
X180125714Y-75017380D01*
X180506666Y-75017380D01*
X180601904Y-75065000D01*
X180649523Y-75112619D01*
X180697142Y-75207857D01*
X180697142Y-75350714D01*
X180649523Y-75445952D01*
X180601904Y-75493571D01*
X180506666Y-75541190D01*
X180125714Y-75541190D01*
X181649523Y-76017380D02*
X181078095Y-76017380D01*
X181363809Y-76017380D02*
X181363809Y-75017380D01*
X181268571Y-75160238D01*
X181173333Y-75255476D01*
X181078095Y-75303095D01*
X182554285Y-75017380D02*
X182078095Y-75017380D01*
X182030476Y-75493571D01*
X182078095Y-75445952D01*
X182173333Y-75398333D01*
X182411428Y-75398333D01*
X182506666Y-75445952D01*
X182554285Y-75493571D01*
X182601904Y-75588809D01*
X182601904Y-75826904D01*
X182554285Y-75922142D01*
X182506666Y-75969761D01*
X182411428Y-76017380D01*
X182173333Y-76017380D01*
X182078095Y-75969761D01*
X182030476Y-75922142D01*
%TO.C,R16*%
X180697142Y-78557380D02*
X180363809Y-78081190D01*
X180125714Y-78557380D02*
X180125714Y-77557380D01*
X180506666Y-77557380D01*
X180601904Y-77605000D01*
X180649523Y-77652619D01*
X180697142Y-77747857D01*
X180697142Y-77890714D01*
X180649523Y-77985952D01*
X180601904Y-78033571D01*
X180506666Y-78081190D01*
X180125714Y-78081190D01*
X181649523Y-78557380D02*
X181078095Y-78557380D01*
X181363809Y-78557380D02*
X181363809Y-77557380D01*
X181268571Y-77700238D01*
X181173333Y-77795476D01*
X181078095Y-77843095D01*
X182506666Y-77557380D02*
X182316190Y-77557380D01*
X182220952Y-77605000D01*
X182173333Y-77652619D01*
X182078095Y-77795476D01*
X182030476Y-77985952D01*
X182030476Y-78366904D01*
X182078095Y-78462142D01*
X182125714Y-78509761D01*
X182220952Y-78557380D01*
X182411428Y-78557380D01*
X182506666Y-78509761D01*
X182554285Y-78462142D01*
X182601904Y-78366904D01*
X182601904Y-78128809D01*
X182554285Y-78033571D01*
X182506666Y-77985952D01*
X182411428Y-77938333D01*
X182220952Y-77938333D01*
X182125714Y-77985952D01*
X182078095Y-78033571D01*
X182030476Y-78128809D01*
%TO.C,SW2*%
X132381666Y-122959761D02*
X132524523Y-123007380D01*
X132762619Y-123007380D01*
X132857857Y-122959761D01*
X132905476Y-122912142D01*
X132953095Y-122816904D01*
X132953095Y-122721666D01*
X132905476Y-122626428D01*
X132857857Y-122578809D01*
X132762619Y-122531190D01*
X132572142Y-122483571D01*
X132476904Y-122435952D01*
X132429285Y-122388333D01*
X132381666Y-122293095D01*
X132381666Y-122197857D01*
X132429285Y-122102619D01*
X132476904Y-122055000D01*
X132572142Y-122007380D01*
X132810238Y-122007380D01*
X132953095Y-122055000D01*
X133286428Y-122007380D02*
X133524523Y-123007380D01*
X133715000Y-122293095D01*
X133905476Y-123007380D01*
X134143571Y-122007380D01*
X134476904Y-122102619D02*
X134524523Y-122055000D01*
X134619761Y-122007380D01*
X134857857Y-122007380D01*
X134953095Y-122055000D01*
X135000714Y-122102619D01*
X135048333Y-122197857D01*
X135048333Y-122293095D01*
X135000714Y-122435952D01*
X134429285Y-123007380D01*
X135048333Y-123007380D01*
%TO.C,R3*%
X113420833Y-99427380D02*
X113087500Y-98951190D01*
X112849404Y-99427380D02*
X112849404Y-98427380D01*
X113230357Y-98427380D01*
X113325595Y-98475000D01*
X113373214Y-98522619D01*
X113420833Y-98617857D01*
X113420833Y-98760714D01*
X113373214Y-98855952D01*
X113325595Y-98903571D01*
X113230357Y-98951190D01*
X112849404Y-98951190D01*
X113754166Y-98427380D02*
X114373214Y-98427380D01*
X114039880Y-98808333D01*
X114182738Y-98808333D01*
X114277976Y-98855952D01*
X114325595Y-98903571D01*
X114373214Y-98998809D01*
X114373214Y-99236904D01*
X114325595Y-99332142D01*
X114277976Y-99379761D01*
X114182738Y-99427380D01*
X113897023Y-99427380D01*
X113801785Y-99379761D01*
X113754166Y-99332142D01*
%TO.C,R14*%
X157202142Y-75382380D02*
X156868809Y-74906190D01*
X156630714Y-75382380D02*
X156630714Y-74382380D01*
X157011666Y-74382380D01*
X157106904Y-74430000D01*
X157154523Y-74477619D01*
X157202142Y-74572857D01*
X157202142Y-74715714D01*
X157154523Y-74810952D01*
X157106904Y-74858571D01*
X157011666Y-74906190D01*
X156630714Y-74906190D01*
X158154523Y-75382380D02*
X157583095Y-75382380D01*
X157868809Y-75382380D02*
X157868809Y-74382380D01*
X157773571Y-74525238D01*
X157678333Y-74620476D01*
X157583095Y-74668095D01*
X159011666Y-74715714D02*
X159011666Y-75382380D01*
X158773571Y-74334761D02*
X158535476Y-75049047D01*
X159154523Y-75049047D01*
%TO.C,R8*%
X156942380Y-123549166D02*
X156466190Y-123882500D01*
X156942380Y-124120595D02*
X155942380Y-124120595D01*
X155942380Y-123739642D01*
X155990000Y-123644404D01*
X156037619Y-123596785D01*
X156132857Y-123549166D01*
X156275714Y-123549166D01*
X156370952Y-123596785D01*
X156418571Y-123644404D01*
X156466190Y-123739642D01*
X156466190Y-124120595D01*
X156370952Y-122977738D02*
X156323333Y-123072976D01*
X156275714Y-123120595D01*
X156180476Y-123168214D01*
X156132857Y-123168214D01*
X156037619Y-123120595D01*
X155990000Y-123072976D01*
X155942380Y-122977738D01*
X155942380Y-122787261D01*
X155990000Y-122692023D01*
X156037619Y-122644404D01*
X156132857Y-122596785D01*
X156180476Y-122596785D01*
X156275714Y-122644404D01*
X156323333Y-122692023D01*
X156370952Y-122787261D01*
X156370952Y-122977738D01*
X156418571Y-123072976D01*
X156466190Y-123120595D01*
X156561428Y-123168214D01*
X156751904Y-123168214D01*
X156847142Y-123120595D01*
X156894761Y-123072976D01*
X156942380Y-122977738D01*
X156942380Y-122787261D01*
X156894761Y-122692023D01*
X156847142Y-122644404D01*
X156751904Y-122596785D01*
X156561428Y-122596785D01*
X156466190Y-122644404D01*
X156418571Y-122692023D01*
X156370952Y-122787261D01*
%TO.C,R2*%
X181173333Y-81097380D02*
X180840000Y-80621190D01*
X180601904Y-81097380D02*
X180601904Y-80097380D01*
X180982857Y-80097380D01*
X181078095Y-80145000D01*
X181125714Y-80192619D01*
X181173333Y-80287857D01*
X181173333Y-80430714D01*
X181125714Y-80525952D01*
X181078095Y-80573571D01*
X180982857Y-80621190D01*
X180601904Y-80621190D01*
X181554285Y-80192619D02*
X181601904Y-80145000D01*
X181697142Y-80097380D01*
X181935238Y-80097380D01*
X182030476Y-80145000D01*
X182078095Y-80192619D01*
X182125714Y-80287857D01*
X182125714Y-80383095D01*
X182078095Y-80525952D01*
X181506666Y-81097380D01*
X182125714Y-81097380D01*
%TO.C,R7*%
X160117380Y-128879166D02*
X159641190Y-129212500D01*
X160117380Y-129450595D02*
X159117380Y-129450595D01*
X159117380Y-129069642D01*
X159165000Y-128974404D01*
X159212619Y-128926785D01*
X159307857Y-128879166D01*
X159450714Y-128879166D01*
X159545952Y-128926785D01*
X159593571Y-128974404D01*
X159641190Y-129069642D01*
X159641190Y-129450595D01*
X159117380Y-128545833D02*
X159117380Y-127879166D01*
X160117380Y-128307738D01*
%TO.C,R4*%
X141168333Y-103957380D02*
X140835000Y-103481190D01*
X140596904Y-103957380D02*
X140596904Y-102957380D01*
X140977857Y-102957380D01*
X141073095Y-103005000D01*
X141120714Y-103052619D01*
X141168333Y-103147857D01*
X141168333Y-103290714D01*
X141120714Y-103385952D01*
X141073095Y-103433571D01*
X140977857Y-103481190D01*
X140596904Y-103481190D01*
X142025476Y-103290714D02*
X142025476Y-103957380D01*
X141787380Y-102909761D02*
X141549285Y-103624047D01*
X142168333Y-103624047D01*
%TO.C,C9*%
X154795833Y-105712142D02*
X154748214Y-105759761D01*
X154605357Y-105807380D01*
X154510119Y-105807380D01*
X154367261Y-105759761D01*
X154272023Y-105664523D01*
X154224404Y-105569285D01*
X154176785Y-105378809D01*
X154176785Y-105235952D01*
X154224404Y-105045476D01*
X154272023Y-104950238D01*
X154367261Y-104855000D01*
X154510119Y-104807380D01*
X154605357Y-104807380D01*
X154748214Y-104855000D01*
X154795833Y-104902619D01*
X155272023Y-105807380D02*
X155462500Y-105807380D01*
X155557738Y-105759761D01*
X155605357Y-105712142D01*
X155700595Y-105569285D01*
X155748214Y-105378809D01*
X155748214Y-104997857D01*
X155700595Y-104902619D01*
X155652976Y-104855000D01*
X155557738Y-104807380D01*
X155367261Y-104807380D01*
X155272023Y-104855000D01*
X155224404Y-104902619D01*
X155176785Y-104997857D01*
X155176785Y-105235952D01*
X155224404Y-105331190D01*
X155272023Y-105378809D01*
X155367261Y-105426428D01*
X155557738Y-105426428D01*
X155652976Y-105378809D01*
X155700595Y-105331190D01*
X155748214Y-105235952D01*
%TO.C,C6*%
X157043333Y-81637142D02*
X156995714Y-81684761D01*
X156852857Y-81732380D01*
X156757619Y-81732380D01*
X156614761Y-81684761D01*
X156519523Y-81589523D01*
X156471904Y-81494285D01*
X156424285Y-81303809D01*
X156424285Y-81160952D01*
X156471904Y-80970476D01*
X156519523Y-80875238D01*
X156614761Y-80780000D01*
X156757619Y-80732380D01*
X156852857Y-80732380D01*
X156995714Y-80780000D01*
X157043333Y-80827619D01*
X157900476Y-80732380D02*
X157710000Y-80732380D01*
X157614761Y-80780000D01*
X157567142Y-80827619D01*
X157471904Y-80970476D01*
X157424285Y-81160952D01*
X157424285Y-81541904D01*
X157471904Y-81637142D01*
X157519523Y-81684761D01*
X157614761Y-81732380D01*
X157805238Y-81732380D01*
X157900476Y-81684761D01*
X157948095Y-81637142D01*
X157995714Y-81541904D01*
X157995714Y-81303809D01*
X157948095Y-81208571D01*
X157900476Y-81160952D01*
X157805238Y-81113333D01*
X157614761Y-81113333D01*
X157519523Y-81160952D01*
X157471904Y-81208571D01*
X157424285Y-81303809D01*
%TO.C,C7*%
X147810833Y-122912142D02*
X147763214Y-122959761D01*
X147620357Y-123007380D01*
X147525119Y-123007380D01*
X147382261Y-122959761D01*
X147287023Y-122864523D01*
X147239404Y-122769285D01*
X147191785Y-122578809D01*
X147191785Y-122435952D01*
X147239404Y-122245476D01*
X147287023Y-122150238D01*
X147382261Y-122055000D01*
X147525119Y-122007380D01*
X147620357Y-122007380D01*
X147763214Y-122055000D01*
X147810833Y-122102619D01*
X148144166Y-122007380D02*
X148810833Y-122007380D01*
X148382261Y-123007380D01*
%TO.C,D1*%
X156471904Y-78557380D02*
X156471904Y-77557380D01*
X156710000Y-77557380D01*
X156852857Y-77605000D01*
X156948095Y-77700238D01*
X156995714Y-77795476D01*
X157043333Y-77985952D01*
X157043333Y-78128809D01*
X156995714Y-78319285D01*
X156948095Y-78414523D01*
X156852857Y-78509761D01*
X156710000Y-78557380D01*
X156471904Y-78557380D01*
X157995714Y-78557380D02*
X157424285Y-78557380D01*
X157710000Y-78557380D02*
X157710000Y-77557380D01*
X157614761Y-77700238D01*
X157519523Y-77795476D01*
X157424285Y-77843095D01*
%TO.C,C2*%
X137517142Y-70016666D02*
X137564761Y-70064285D01*
X137612380Y-70207142D01*
X137612380Y-70302380D01*
X137564761Y-70445238D01*
X137469523Y-70540476D01*
X137374285Y-70588095D01*
X137183809Y-70635714D01*
X137040952Y-70635714D01*
X136850476Y-70588095D01*
X136755238Y-70540476D01*
X136660000Y-70445238D01*
X136612380Y-70302380D01*
X136612380Y-70207142D01*
X136660000Y-70064285D01*
X136707619Y-70016666D01*
X136707619Y-69635714D02*
X136660000Y-69588095D01*
X136612380Y-69492857D01*
X136612380Y-69254761D01*
X136660000Y-69159523D01*
X136707619Y-69111904D01*
X136802857Y-69064285D01*
X136898095Y-69064285D01*
X137040952Y-69111904D01*
X137612380Y-69683333D01*
X137612380Y-69064285D01*
%TO.C,R1*%
X181173333Y-83637380D02*
X180840000Y-83161190D01*
X180601904Y-83637380D02*
X180601904Y-82637380D01*
X180982857Y-82637380D01*
X181078095Y-82685000D01*
X181125714Y-82732619D01*
X181173333Y-82827857D01*
X181173333Y-82970714D01*
X181125714Y-83065952D01*
X181078095Y-83113571D01*
X180982857Y-83161190D01*
X180601904Y-83161190D01*
X182125714Y-83637380D02*
X181554285Y-83637380D01*
X181840000Y-83637380D02*
X181840000Y-82637380D01*
X181744761Y-82780238D01*
X181649523Y-82875476D01*
X181554285Y-82923095D01*
%TO.C,K1*%
X178331904Y-100782380D02*
X178331904Y-99782380D01*
X178903333Y-100782380D02*
X178474761Y-100210952D01*
X178903333Y-99782380D02*
X178331904Y-100353809D01*
X179855714Y-100782380D02*
X179284285Y-100782380D01*
X179570000Y-100782380D02*
X179570000Y-99782380D01*
X179474761Y-99925238D01*
X179379523Y-100020476D01*
X179284285Y-100068095D01*
%TO.C,Q1*%
X162194761Y-105957619D02*
X162099523Y-105910000D01*
X162004285Y-105814761D01*
X161861428Y-105671904D01*
X161766190Y-105624285D01*
X161670952Y-105624285D01*
X161718571Y-105862380D02*
X161623333Y-105814761D01*
X161528095Y-105719523D01*
X161480476Y-105529047D01*
X161480476Y-105195714D01*
X161528095Y-105005238D01*
X161623333Y-104910000D01*
X161718571Y-104862380D01*
X161909047Y-104862380D01*
X162004285Y-104910000D01*
X162099523Y-105005238D01*
X162147142Y-105195714D01*
X162147142Y-105529047D01*
X162099523Y-105719523D01*
X162004285Y-105814761D01*
X161909047Y-105862380D01*
X161718571Y-105862380D01*
X163099523Y-105862380D02*
X162528095Y-105862380D01*
X162813809Y-105862380D02*
X162813809Y-104862380D01*
X162718571Y-105005238D01*
X162623333Y-105100476D01*
X162528095Y-105148095D01*
%TO.C,J7*%
X189952380Y-94313333D02*
X190666666Y-94313333D01*
X190809523Y-94360952D01*
X190904761Y-94456190D01*
X190952380Y-94599047D01*
X190952380Y-94694285D01*
X189952380Y-93932380D02*
X189952380Y-93265714D01*
X190952380Y-93694285D01*
%TO.C,J6*%
X140636666Y-66762380D02*
X140636666Y-67476666D01*
X140589047Y-67619523D01*
X140493809Y-67714761D01*
X140350952Y-67762380D01*
X140255714Y-67762380D01*
X141541428Y-66762380D02*
X141350952Y-66762380D01*
X141255714Y-66810000D01*
X141208095Y-66857619D01*
X141112857Y-67000476D01*
X141065238Y-67190952D01*
X141065238Y-67571904D01*
X141112857Y-67667142D01*
X141160476Y-67714761D01*
X141255714Y-67762380D01*
X141446190Y-67762380D01*
X141541428Y-67714761D01*
X141589047Y-67667142D01*
X141636666Y-67571904D01*
X141636666Y-67333809D01*
X141589047Y-67238571D01*
X141541428Y-67190952D01*
X141446190Y-67143333D01*
X141255714Y-67143333D01*
X141160476Y-67190952D01*
X141112857Y-67238571D01*
X141065238Y-67333809D01*
%TO.C,K2*%
X178621904Y-117977380D02*
X178621904Y-116977380D01*
X179193333Y-117977380D02*
X178764761Y-117405952D01*
X179193333Y-116977380D02*
X178621904Y-117548809D01*
X179574285Y-117072619D02*
X179621904Y-117025000D01*
X179717142Y-116977380D01*
X179955238Y-116977380D01*
X180050476Y-117025000D01*
X180098095Y-117072619D01*
X180145714Y-117167857D01*
X180145714Y-117263095D01*
X180098095Y-117405952D01*
X179526666Y-117977380D01*
X180145714Y-117977380D01*
%TO.C,D5*%
X166822380Y-123928095D02*
X165822380Y-123928095D01*
X165822380Y-123690000D01*
X165870000Y-123547142D01*
X165965238Y-123451904D01*
X166060476Y-123404285D01*
X166250952Y-123356666D01*
X166393809Y-123356666D01*
X166584285Y-123404285D01*
X166679523Y-123451904D01*
X166774761Y-123547142D01*
X166822380Y-123690000D01*
X166822380Y-123928095D01*
X165822380Y-122451904D02*
X165822380Y-122928095D01*
X166298571Y-122975714D01*
X166250952Y-122928095D01*
X166203333Y-122832857D01*
X166203333Y-122594761D01*
X166250952Y-122499523D01*
X166298571Y-122451904D01*
X166393809Y-122404285D01*
X166631904Y-122404285D01*
X166727142Y-122451904D01*
X166774761Y-122499523D01*
X166822380Y-122594761D01*
X166822380Y-122832857D01*
X166774761Y-122928095D01*
X166727142Y-122975714D01*
%TO.C,D4*%
X166822380Y-106783095D02*
X165822380Y-106783095D01*
X165822380Y-106545000D01*
X165870000Y-106402142D01*
X165965238Y-106306904D01*
X166060476Y-106259285D01*
X166250952Y-106211666D01*
X166393809Y-106211666D01*
X166584285Y-106259285D01*
X166679523Y-106306904D01*
X166774761Y-106402142D01*
X166822380Y-106545000D01*
X166822380Y-106783095D01*
X166155714Y-105354523D02*
X166822380Y-105354523D01*
X165774761Y-105592619D02*
X166489047Y-105830714D01*
X166489047Y-105211666D01*
%TO.C,D3*%
X163961904Y-109757380D02*
X163961904Y-108757380D01*
X164200000Y-108757380D01*
X164342857Y-108805000D01*
X164438095Y-108900238D01*
X164485714Y-108995476D01*
X164533333Y-109185952D01*
X164533333Y-109328809D01*
X164485714Y-109519285D01*
X164438095Y-109614523D01*
X164342857Y-109709761D01*
X164200000Y-109757380D01*
X163961904Y-109757380D01*
X164866666Y-108757380D02*
X165485714Y-108757380D01*
X165152380Y-109138333D01*
X165295238Y-109138333D01*
X165390476Y-109185952D01*
X165438095Y-109233571D01*
X165485714Y-109328809D01*
X165485714Y-109566904D01*
X165438095Y-109662142D01*
X165390476Y-109709761D01*
X165295238Y-109757380D01*
X165009523Y-109757380D01*
X164914285Y-109709761D01*
X164866666Y-109662142D01*
%TO.C,D2*%
X163961904Y-92612380D02*
X163961904Y-91612380D01*
X164200000Y-91612380D01*
X164342857Y-91660000D01*
X164438095Y-91755238D01*
X164485714Y-91850476D01*
X164533333Y-92040952D01*
X164533333Y-92183809D01*
X164485714Y-92374285D01*
X164438095Y-92469523D01*
X164342857Y-92564761D01*
X164200000Y-92612380D01*
X163961904Y-92612380D01*
X164914285Y-91707619D02*
X164961904Y-91660000D01*
X165057142Y-91612380D01*
X165295238Y-91612380D01*
X165390476Y-91660000D01*
X165438095Y-91707619D01*
X165485714Y-91802857D01*
X165485714Y-91898095D01*
X165438095Y-92040952D01*
X164866666Y-92612380D01*
X165485714Y-92612380D01*
%TD*%
D16*
X198873000Y-89073000D02*
X194527000Y-89073000D01*
X194527000Y-76527000D01*
X198873000Y-76527000D01*
X198873000Y-89073000D01*
D11*
G36*
X198873000Y-89073000D02*
G01*
X194527000Y-89073000D01*
X194527000Y-76527000D01*
X198873000Y-76527000D01*
X198873000Y-89073000D01*
G37*
%LPC*%
D17*
X196342095Y-87384000D02*
X196246857Y-87336380D01*
X196104000Y-87336380D01*
X195961142Y-87384000D01*
X195865904Y-87479238D01*
X195818285Y-87574476D01*
X195770666Y-87764952D01*
X195770666Y-87907809D01*
X195818285Y-88098285D01*
X195865904Y-88193523D01*
X195961142Y-88288761D01*
X196104000Y-88336380D01*
X196199238Y-88336380D01*
X196342095Y-88288761D01*
X196389714Y-88241142D01*
X196389714Y-87907809D01*
X196199238Y-87907809D01*
X196818285Y-88336380D02*
X196818285Y-87336380D01*
X197389714Y-88336380D01*
X197389714Y-87336380D01*
X197865904Y-88336380D02*
X197865904Y-87336380D01*
X198104000Y-87336380D01*
X198246857Y-87384000D01*
X198342095Y-87479238D01*
X198389714Y-87574476D01*
X198437333Y-87764952D01*
X198437333Y-87907809D01*
X198389714Y-88098285D01*
X198342095Y-88193523D01*
X198246857Y-88288761D01*
X198104000Y-88336380D01*
X197865904Y-88336380D01*
X196437333Y-84796380D02*
X195961142Y-84796380D01*
X195913523Y-85272571D01*
X195961142Y-85224952D01*
X196056380Y-85177333D01*
X196294476Y-85177333D01*
X196389714Y-85224952D01*
X196437333Y-85272571D01*
X196484952Y-85367809D01*
X196484952Y-85605904D01*
X196437333Y-85701142D01*
X196389714Y-85748761D01*
X196294476Y-85796380D01*
X196056380Y-85796380D01*
X195961142Y-85748761D01*
X195913523Y-85701142D01*
X196770666Y-84796380D02*
X197104000Y-85796380D01*
X197437333Y-84796380D01*
X197961142Y-84796380D02*
X198056380Y-84796380D01*
X198151619Y-84844000D01*
X198199238Y-84891619D01*
X198246857Y-84986857D01*
X198294476Y-85177333D01*
X198294476Y-85415428D01*
X198246857Y-85605904D01*
X198199238Y-85701142D01*
X198151619Y-85748761D01*
X198056380Y-85796380D01*
X197961142Y-85796380D01*
X197865904Y-85748761D01*
X197818285Y-85701142D01*
X197770666Y-85605904D01*
X197723047Y-85415428D01*
X197723047Y-85177333D01*
X197770666Y-84986857D01*
X197818285Y-84891619D01*
X197865904Y-84844000D01*
X197961142Y-84796380D01*
X195865904Y-82256380D02*
X196484952Y-82256380D01*
X196151619Y-82637333D01*
X196294476Y-82637333D01*
X196389714Y-82684952D01*
X196437333Y-82732571D01*
X196484952Y-82827809D01*
X196484952Y-83065904D01*
X196437333Y-83161142D01*
X196389714Y-83208761D01*
X196294476Y-83256380D01*
X196008761Y-83256380D01*
X195913523Y-83208761D01*
X195865904Y-83161142D01*
X196770666Y-82256380D02*
X197104000Y-83256380D01*
X197437333Y-82256380D01*
X197675428Y-82256380D02*
X198294476Y-82256380D01*
X197961142Y-82637333D01*
X198104000Y-82637333D01*
X198199238Y-82684952D01*
X198246857Y-82732571D01*
X198294476Y-82827809D01*
X198294476Y-83065904D01*
X198246857Y-83161142D01*
X198199238Y-83208761D01*
X198104000Y-83256380D01*
X197818285Y-83256380D01*
X197723047Y-83208761D01*
X197675428Y-83161142D01*
X195889714Y-80668761D02*
X196032571Y-80716380D01*
X196270666Y-80716380D01*
X196365904Y-80668761D01*
X196413523Y-80621142D01*
X196461142Y-80525904D01*
X196461142Y-80430666D01*
X196413523Y-80335428D01*
X196365904Y-80287809D01*
X196270666Y-80240190D01*
X196080190Y-80192571D01*
X195984952Y-80144952D01*
X195937333Y-80097333D01*
X195889714Y-80002095D01*
X195889714Y-79906857D01*
X195937333Y-79811619D01*
X195984952Y-79764000D01*
X196080190Y-79716380D01*
X196318285Y-79716380D01*
X196461142Y-79764000D01*
X196889714Y-80716380D02*
X196889714Y-79716380D01*
X197127809Y-79716380D01*
X197270666Y-79764000D01*
X197365904Y-79859238D01*
X197413523Y-79954476D01*
X197461142Y-80144952D01*
X197461142Y-80287809D01*
X197413523Y-80478285D01*
X197365904Y-80573523D01*
X197270666Y-80668761D01*
X197127809Y-80716380D01*
X196889714Y-80716380D01*
X197842095Y-80430666D02*
X198318285Y-80430666D01*
X197746857Y-80716380D02*
X198080190Y-79716380D01*
X198413523Y-80716380D01*
X195913523Y-78128761D02*
X196056380Y-78176380D01*
X196294476Y-78176380D01*
X196389714Y-78128761D01*
X196437333Y-78081142D01*
X196484952Y-77985904D01*
X196484952Y-77890666D01*
X196437333Y-77795428D01*
X196389714Y-77747809D01*
X196294476Y-77700190D01*
X196104000Y-77652571D01*
X196008761Y-77604952D01*
X195961142Y-77557333D01*
X195913523Y-77462095D01*
X195913523Y-77366857D01*
X195961142Y-77271619D01*
X196008761Y-77224000D01*
X196104000Y-77176380D01*
X196342095Y-77176380D01*
X196484952Y-77224000D01*
X197484952Y-78081142D02*
X197437333Y-78128761D01*
X197294476Y-78176380D01*
X197199238Y-78176380D01*
X197056380Y-78128761D01*
X196961142Y-78033523D01*
X196913523Y-77938285D01*
X196865904Y-77747809D01*
X196865904Y-77604952D01*
X196913523Y-77414476D01*
X196961142Y-77319238D01*
X197056380Y-77224000D01*
X197199238Y-77176380D01*
X197294476Y-77176380D01*
X197437333Y-77224000D01*
X197484952Y-77271619D01*
X198389714Y-78176380D02*
X197913523Y-78176380D01*
X197913523Y-77176380D01*
D11*
G36*
X168500000Y-135000000D02*
G01*
X161500000Y-135000000D01*
X161500000Y-130000000D01*
X168500000Y-130000000D01*
X168500000Y-135000000D01*
G37*
X168500000Y-135000000D02*
X161500000Y-135000000D01*
X161500000Y-130000000D01*
X168500000Y-130000000D01*
X168500000Y-135000000D01*
G36*
X108500000Y-70000000D02*
G01*
X105000000Y-73500000D01*
X100000000Y-73500000D01*
X100000000Y-65000000D01*
X108500000Y-65000000D01*
X108500000Y-70000000D01*
G37*
X108500000Y-70000000D02*
X105000000Y-73500000D01*
X100000000Y-73500000D01*
X100000000Y-65000000D01*
X108500000Y-65000000D01*
X108500000Y-70000000D01*
G36*
X200000000Y-73500000D02*
G01*
X195000000Y-73500000D01*
X191500000Y-70000000D01*
X191500000Y-65000000D01*
X200000000Y-65000000D01*
X200000000Y-73500000D01*
G37*
X200000000Y-73500000D02*
X195000000Y-73500000D01*
X191500000Y-70000000D01*
X191500000Y-65000000D01*
X200000000Y-65000000D01*
X200000000Y-73500000D01*
G36*
X200000000Y-135000000D02*
G01*
X191500000Y-135000000D01*
X191500000Y-130000000D01*
X195000000Y-126500000D01*
X200000000Y-126500000D01*
X200000000Y-135000000D01*
G37*
X200000000Y-135000000D02*
X191500000Y-135000000D01*
X191500000Y-130000000D01*
X195000000Y-126500000D01*
X200000000Y-126500000D01*
X200000000Y-135000000D01*
G36*
X108500000Y-130000000D02*
G01*
X108500000Y-135000000D01*
X100000000Y-135000000D01*
X100000000Y-126500000D01*
X105000000Y-126500000D01*
X108500000Y-130000000D01*
G37*
X108500000Y-130000000D02*
X108500000Y-135000000D01*
X100000000Y-135000000D01*
X100000000Y-126500000D01*
X105000000Y-126500000D01*
X108500000Y-130000000D01*
D18*
%TO.C,REF\u002A\u002A*%
X165000000Y-130000000D03*
%TD*%
%TO.C,REF\u002A\u002A*%
X195000000Y-130000000D03*
%TD*%
D19*
%TO.C,Q2*%
X163290000Y-120015000D03*
X161290000Y-120965000D03*
X161290000Y-119065000D03*
%TD*%
D18*
%TO.C,REF\u002A\u002A*%
X195000000Y-70000000D03*
%TD*%
%TO.C,REF\u002A\u002A*%
X105000000Y-70000000D03*
%TD*%
%TO.C,REF\u002A\u002A*%
X105000000Y-130000000D03*
%TD*%
D20*
%TO.C,J5*%
X126095000Y-123825000D03*
D21*
X126095000Y-118745000D03*
%TD*%
D20*
%TO.C,J8*%
X193405000Y-112395000D03*
X193405000Y-117475000D03*
D21*
X193405000Y-122555000D03*
%TD*%
D20*
%TO.C,PS1*%
X135175000Y-92115000D03*
X105775000Y-86915000D03*
D21*
X105775000Y-81915000D03*
D20*
X135175000Y-76715000D03*
%TD*%
%TO.C,T1*%
X132365000Y-111125000D03*
X122365000Y-111125000D03*
X132365000Y-98425000D03*
D21*
X122365000Y-98425000D03*
%TD*%
%TO.C,R11*%
G36*
G01*
X140627500Y-116214999D02*
X140627500Y-117465001D01*
G75*
G02*
X140377501Y-117715000I-249999J0D01*
G01*
X139752499Y-117715000D01*
G75*
G02*
X139502500Y-117465001I0J249999D01*
G01*
X139502500Y-116214999D01*
G75*
G02*
X139752499Y-115965000I249999J0D01*
G01*
X140377501Y-115965000D01*
G75*
G02*
X140627500Y-116214999I0J-249999D01*
G01*
G37*
G36*
G01*
X143552500Y-116214999D02*
X143552500Y-117465001D01*
G75*
G02*
X143302501Y-117715000I-249999J0D01*
G01*
X142677499Y-117715000D01*
G75*
G02*
X142427500Y-117465001I0J249999D01*
G01*
X142427500Y-116214999D01*
G75*
G02*
X142677499Y-115965000I249999J0D01*
G01*
X143302501Y-115965000D01*
G75*
G02*
X143552500Y-116214999I0J-249999D01*
G01*
G37*
%TD*%
%TO.C,R10*%
G36*
G01*
X140627500Y-104784999D02*
X140627500Y-106035001D01*
G75*
G02*
X140377501Y-106285000I-249999J0D01*
G01*
X139752499Y-106285000D01*
G75*
G02*
X139502500Y-106035001I0J249999D01*
G01*
X139502500Y-104784999D01*
G75*
G02*
X139752499Y-104535000I249999J0D01*
G01*
X140377501Y-104535000D01*
G75*
G02*
X140627500Y-104784999I0J-249999D01*
G01*
G37*
G36*
G01*
X143552500Y-104784999D02*
X143552500Y-106035001D01*
G75*
G02*
X143302501Y-106285000I-249999J0D01*
G01*
X142677499Y-106285000D01*
G75*
G02*
X142427500Y-106035001I0J249999D01*
G01*
X142427500Y-104784999D01*
G75*
G02*
X142677499Y-104535000I249999J0D01*
G01*
X143302501Y-104535000D01*
G75*
G02*
X143552500Y-104784999I0J-249999D01*
G01*
G37*
%TD*%
%TO.C,R13*%
G36*
G01*
X146977500Y-112404999D02*
X146977500Y-113655001D01*
G75*
G02*
X146727501Y-113905000I-249999J0D01*
G01*
X146102499Y-113905000D01*
G75*
G02*
X145852500Y-113655001I0J249999D01*
G01*
X145852500Y-112404999D01*
G75*
G02*
X146102499Y-112155000I249999J0D01*
G01*
X146727501Y-112155000D01*
G75*
G02*
X146977500Y-112404999I0J-249999D01*
G01*
G37*
G36*
G01*
X149902500Y-112404999D02*
X149902500Y-113655001D01*
G75*
G02*
X149652501Y-113905000I-249999J0D01*
G01*
X149027499Y-113905000D01*
G75*
G02*
X148777500Y-113655001I0J249999D01*
G01*
X148777500Y-112404999D01*
G75*
G02*
X149027499Y-112155000I249999J0D01*
G01*
X149652501Y-112155000D01*
G75*
G02*
X149902500Y-112404999I0J-249999D01*
G01*
G37*
%TD*%
%TO.C,R12*%
G36*
G01*
X146977500Y-108594999D02*
X146977500Y-109845001D01*
G75*
G02*
X146727501Y-110095000I-249999J0D01*
G01*
X146102499Y-110095000D01*
G75*
G02*
X145852500Y-109845001I0J249999D01*
G01*
X145852500Y-108594999D01*
G75*
G02*
X146102499Y-108345000I249999J0D01*
G01*
X146727501Y-108345000D01*
G75*
G02*
X146977500Y-108594999I0J-249999D01*
G01*
G37*
G36*
G01*
X149902500Y-108594999D02*
X149902500Y-109845001D01*
G75*
G02*
X149652501Y-110095000I-249999J0D01*
G01*
X149027499Y-110095000D01*
G75*
G02*
X148777500Y-109845001I0J249999D01*
G01*
X148777500Y-108594999D01*
G75*
G02*
X149027499Y-108345000I249999J0D01*
G01*
X149652501Y-108345000D01*
G75*
G02*
X149902500Y-108594999I0J-249999D01*
G01*
G37*
%TD*%
%TO.C,C4*%
G36*
G01*
X140727500Y-108569999D02*
X140727500Y-109870001D01*
G75*
G02*
X140477501Y-110120000I-249999J0D01*
G01*
X139652499Y-110120000D01*
G75*
G02*
X139402500Y-109870001I0J249999D01*
G01*
X139402500Y-108569999D01*
G75*
G02*
X139652499Y-108320000I249999J0D01*
G01*
X140477501Y-108320000D01*
G75*
G02*
X140727500Y-108569999I0J-249999D01*
G01*
G37*
G36*
G01*
X143852500Y-108569999D02*
X143852500Y-109870001D01*
G75*
G02*
X143602501Y-110120000I-249999J0D01*
G01*
X142777499Y-110120000D01*
G75*
G02*
X142527500Y-109870001I0J249999D01*
G01*
X142527500Y-108569999D01*
G75*
G02*
X142777499Y-108320000I249999J0D01*
G01*
X143602501Y-108320000D01*
G75*
G02*
X143852500Y-108569999I0J-249999D01*
G01*
G37*
%TD*%
%TO.C,C5*%
G36*
G01*
X140727500Y-112379999D02*
X140727500Y-113680001D01*
G75*
G02*
X140477501Y-113930000I-249999J0D01*
G01*
X139652499Y-113930000D01*
G75*
G02*
X139402500Y-113680001I0J249999D01*
G01*
X139402500Y-112379999D01*
G75*
G02*
X139652499Y-112130000I249999J0D01*
G01*
X140477501Y-112130000D01*
G75*
G02*
X140727500Y-112379999I0J-249999D01*
G01*
G37*
G36*
G01*
X143852500Y-112379999D02*
X143852500Y-113680001D01*
G75*
G02*
X143602501Y-113930000I-249999J0D01*
G01*
X142777499Y-113930000D01*
G75*
G02*
X142527500Y-113680001I0J249999D01*
G01*
X142527500Y-112379999D01*
G75*
G02*
X142777499Y-112130000I249999J0D01*
G01*
X143602501Y-112130000D01*
G75*
G02*
X143852500Y-112379999I0J-249999D01*
G01*
G37*
%TD*%
D22*
%TO.C,J4*%
X108225000Y-121765000D03*
D23*
X116225000Y-116565000D03*
X115025000Y-119265000D03*
D22*
X119425000Y-125865000D03*
D24*
X112125000Y-126365000D03*
%TD*%
D20*
%TO.C,J2*%
X107045000Y-102235000D03*
D21*
X107045000Y-107315000D03*
%TD*%
D25*
%TO.C,C8*%
X144510000Y-95245000D03*
D26*
X144510000Y-91445000D03*
G36*
G01*
X145510000Y-99345000D02*
X143510000Y-99345000D01*
G75*
G02*
X143260000Y-99095000I0J250000D01*
G01*
X143260000Y-95595000D01*
G75*
G02*
X143510000Y-95345000I250000J0D01*
G01*
X145510000Y-95345000D01*
G75*
G02*
X145760000Y-95595000I0J-250000D01*
G01*
X145760000Y-99095000D01*
G75*
G02*
X145510000Y-99345000I-250000J0D01*
G01*
G37*
G36*
G01*
X145510000Y-91345000D02*
X143510000Y-91345000D01*
G75*
G02*
X143260000Y-91095000I0J250000D01*
G01*
X143260000Y-87595000D01*
G75*
G02*
X143510000Y-87345000I250000J0D01*
G01*
X145510000Y-87345000D01*
G75*
G02*
X145760000Y-87595000I0J-250000D01*
G01*
X145760000Y-91095000D01*
G75*
G02*
X145510000Y-91345000I-250000J0D01*
G01*
G37*
%TD*%
D25*
%TO.C,C3*%
X144510000Y-78745000D03*
D26*
X144510000Y-82545000D03*
G36*
G01*
X143510000Y-74645000D02*
X145510000Y-74645000D01*
G75*
G02*
X145760000Y-74895000I0J-250000D01*
G01*
X145760000Y-78395000D01*
G75*
G02*
X145510000Y-78645000I-250000J0D01*
G01*
X143510000Y-78645000D01*
G75*
G02*
X143260000Y-78395000I0J250000D01*
G01*
X143260000Y-74895000D01*
G75*
G02*
X143510000Y-74645000I250000J0D01*
G01*
G37*
G36*
G01*
X143510000Y-82645000D02*
X145510000Y-82645000D01*
G75*
G02*
X145760000Y-82895000I0J-250000D01*
G01*
X145760000Y-86395000D01*
G75*
G02*
X145510000Y-86645000I-250000J0D01*
G01*
X143510000Y-86645000D01*
G75*
G02*
X143260000Y-86395000I0J250000D01*
G01*
X143260000Y-82895000D01*
G75*
G02*
X143510000Y-82645000I250000J0D01*
G01*
G37*
%TD*%
%TO.C,C1*%
G36*
G01*
X133365001Y-69022500D02*
X132064999Y-69022500D01*
G75*
G02*
X131815000Y-68772501I0J249999D01*
G01*
X131815000Y-67947499D01*
G75*
G02*
X132064999Y-67697500I249999J0D01*
G01*
X133365001Y-67697500D01*
G75*
G02*
X133615000Y-67947499I0J-249999D01*
G01*
X133615000Y-68772501D01*
G75*
G02*
X133365001Y-69022500I-249999J0D01*
G01*
G37*
G36*
G01*
X133365001Y-72147500D02*
X132064999Y-72147500D01*
G75*
G02*
X131815000Y-71897501I0J249999D01*
G01*
X131815000Y-71072499D01*
G75*
G02*
X132064999Y-70822500I249999J0D01*
G01*
X133365001Y-70822500D01*
G75*
G02*
X133615000Y-71072499I0J-249999D01*
G01*
X133615000Y-71897501D01*
G75*
G02*
X133365001Y-72147500I-249999J0D01*
G01*
G37*
%TD*%
D27*
%TO.C,J1*%
X128270000Y-69850000D03*
X125730000Y-69850000D03*
G36*
G01*
X122320000Y-70695001D02*
X122320000Y-69004999D01*
G75*
G02*
X122569999Y-68755000I249999J0D01*
G01*
X123810001Y-68755000D01*
G75*
G02*
X124060000Y-69004999I0J-249999D01*
G01*
X124060000Y-70695001D01*
G75*
G02*
X123810001Y-70945000I-249999J0D01*
G01*
X122569999Y-70945000D01*
G75*
G02*
X122320000Y-70695001I0J249999D01*
G01*
G37*
%TD*%
D28*
%TO.C,J3*%
X192024000Y-87884000D03*
X192024000Y-85344000D03*
X192024000Y-82804000D03*
X192024000Y-80264000D03*
G36*
G01*
X191178999Y-76854000D02*
X192869001Y-76854000D01*
G75*
G02*
X193119000Y-77103999I0J-249999D01*
G01*
X193119000Y-78344001D01*
G75*
G02*
X192869001Y-78594000I-249999J0D01*
G01*
X191178999Y-78594000D01*
G75*
G02*
X190929000Y-78344001I0J249999D01*
G01*
X190929000Y-77103999D01*
G75*
G02*
X191178999Y-76854000I249999J0D01*
G01*
G37*
%TD*%
%TO.C,R25*%
G36*
G01*
X186492500Y-88890001D02*
X186492500Y-87639999D01*
G75*
G02*
X186742499Y-87390000I249999J0D01*
G01*
X187367501Y-87390000D01*
G75*
G02*
X187617500Y-87639999I0J-249999D01*
G01*
X187617500Y-88890001D01*
G75*
G02*
X187367501Y-89140000I-249999J0D01*
G01*
X186742499Y-89140000D01*
G75*
G02*
X186492500Y-88890001I0J249999D01*
G01*
G37*
G36*
G01*
X183567500Y-88890001D02*
X183567500Y-87639999D01*
G75*
G02*
X183817499Y-87390000I249999J0D01*
G01*
X184442501Y-87390000D01*
G75*
G02*
X184692500Y-87639999I0J-249999D01*
G01*
X184692500Y-88890001D01*
G75*
G02*
X184442501Y-89140000I-249999J0D01*
G01*
X183817499Y-89140000D01*
G75*
G02*
X183567500Y-88890001I0J249999D01*
G01*
G37*
%TD*%
%TO.C,R24*%
G36*
G01*
X184692500Y-85099999D02*
X184692500Y-86350001D01*
G75*
G02*
X184442501Y-86600000I-249999J0D01*
G01*
X183817499Y-86600000D01*
G75*
G02*
X183567500Y-86350001I0J249999D01*
G01*
X183567500Y-85099999D01*
G75*
G02*
X183817499Y-84850000I249999J0D01*
G01*
X184442501Y-84850000D01*
G75*
G02*
X184692500Y-85099999I0J-249999D01*
G01*
G37*
G36*
G01*
X187617500Y-85099999D02*
X187617500Y-86350001D01*
G75*
G02*
X187367501Y-86600000I-249999J0D01*
G01*
X186742499Y-86600000D01*
G75*
G02*
X186492500Y-86350001I0J249999D01*
G01*
X186492500Y-85099999D01*
G75*
G02*
X186742499Y-84850000I249999J0D01*
G01*
X187367501Y-84850000D01*
G75*
G02*
X187617500Y-85099999I0J-249999D01*
G01*
G37*
%TD*%
%TO.C,R23*%
G36*
G01*
X157597001Y-97082500D02*
X156346999Y-97082500D01*
G75*
G02*
X156097000Y-96832501I0J249999D01*
G01*
X156097000Y-96207499D01*
G75*
G02*
X156346999Y-95957500I249999J0D01*
G01*
X157597001Y-95957500D01*
G75*
G02*
X157847000Y-96207499I0J-249999D01*
G01*
X157847000Y-96832501D01*
G75*
G02*
X157597001Y-97082500I-249999J0D01*
G01*
G37*
G36*
G01*
X157597001Y-100007500D02*
X156346999Y-100007500D01*
G75*
G02*
X156097000Y-99757501I0J249999D01*
G01*
X156097000Y-99132499D01*
G75*
G02*
X156346999Y-98882500I249999J0D01*
G01*
X157597001Y-98882500D01*
G75*
G02*
X157847000Y-99132499I0J-249999D01*
G01*
X157847000Y-99757501D01*
G75*
G02*
X157597001Y-100007500I-249999J0D01*
G01*
G37*
%TD*%
%TO.C,R22*%
G36*
G01*
X160137001Y-97082500D02*
X158886999Y-97082500D01*
G75*
G02*
X158637000Y-96832501I0J249999D01*
G01*
X158637000Y-96207499D01*
G75*
G02*
X158886999Y-95957500I249999J0D01*
G01*
X160137001Y-95957500D01*
G75*
G02*
X160387000Y-96207499I0J-249999D01*
G01*
X160387000Y-96832501D01*
G75*
G02*
X160137001Y-97082500I-249999J0D01*
G01*
G37*
G36*
G01*
X160137001Y-100007500D02*
X158886999Y-100007500D01*
G75*
G02*
X158637000Y-99757501I0J249999D01*
G01*
X158637000Y-99132499D01*
G75*
G02*
X158886999Y-98882500I249999J0D01*
G01*
X160137001Y-98882500D01*
G75*
G02*
X160387000Y-99132499I0J-249999D01*
G01*
X160387000Y-99757501D01*
G75*
G02*
X160137001Y-100007500I-249999J0D01*
G01*
G37*
%TD*%
%TO.C,R21*%
G36*
G01*
X161664999Y-116027500D02*
X162915001Y-116027500D01*
G75*
G02*
X163165000Y-116277499I0J-249999D01*
G01*
X163165000Y-116902501D01*
G75*
G02*
X162915001Y-117152500I-249999J0D01*
G01*
X161664999Y-117152500D01*
G75*
G02*
X161415000Y-116902501I0J249999D01*
G01*
X161415000Y-116277499D01*
G75*
G02*
X161664999Y-116027500I249999J0D01*
G01*
G37*
G36*
G01*
X161664999Y-113102500D02*
X162915001Y-113102500D01*
G75*
G02*
X163165000Y-113352499I0J-249999D01*
G01*
X163165000Y-113977501D01*
G75*
G02*
X162915001Y-114227500I-249999J0D01*
G01*
X161664999Y-114227500D01*
G75*
G02*
X161415000Y-113977501I0J249999D01*
G01*
X161415000Y-113352499D01*
G75*
G02*
X161664999Y-113102500I249999J0D01*
G01*
G37*
%TD*%
%TO.C,R20*%
G36*
G01*
X161664999Y-98882500D02*
X162915001Y-98882500D01*
G75*
G02*
X163165000Y-99132499I0J-249999D01*
G01*
X163165000Y-99757501D01*
G75*
G02*
X162915001Y-100007500I-249999J0D01*
G01*
X161664999Y-100007500D01*
G75*
G02*
X161415000Y-99757501I0J249999D01*
G01*
X161415000Y-99132499D01*
G75*
G02*
X161664999Y-98882500I249999J0D01*
G01*
G37*
G36*
G01*
X161664999Y-95957500D02*
X162915001Y-95957500D01*
G75*
G02*
X163165000Y-96207499I0J-249999D01*
G01*
X163165000Y-96832501D01*
G75*
G02*
X162915001Y-97082500I-249999J0D01*
G01*
X161664999Y-97082500D01*
G75*
G02*
X161415000Y-96832501I0J249999D01*
G01*
X161415000Y-96207499D01*
G75*
G02*
X161664999Y-95957500I249999J0D01*
G01*
G37*
%TD*%
%TO.C,R19*%
G36*
G01*
X146977500Y-116214999D02*
X146977500Y-117465001D01*
G75*
G02*
X146727501Y-117715000I-249999J0D01*
G01*
X146102499Y-117715000D01*
G75*
G02*
X145852500Y-117465001I0J249999D01*
G01*
X145852500Y-116214999D01*
G75*
G02*
X146102499Y-115965000I249999J0D01*
G01*
X146727501Y-115965000D01*
G75*
G02*
X146977500Y-116214999I0J-249999D01*
G01*
G37*
G36*
G01*
X149902500Y-116214999D02*
X149902500Y-117465001D01*
G75*
G02*
X149652501Y-117715000I-249999J0D01*
G01*
X149027499Y-117715000D01*
G75*
G02*
X148777500Y-117465001I0J249999D01*
G01*
X148777500Y-116214999D01*
G75*
G02*
X149027499Y-115965000I249999J0D01*
G01*
X149652501Y-115965000D01*
G75*
G02*
X149902500Y-116214999I0J-249999D01*
G01*
G37*
%TD*%
%TO.C,R18*%
G36*
G01*
X153962500Y-116214999D02*
X153962500Y-117465001D01*
G75*
G02*
X153712501Y-117715000I-249999J0D01*
G01*
X153087499Y-117715000D01*
G75*
G02*
X152837500Y-117465001I0J249999D01*
G01*
X152837500Y-116214999D01*
G75*
G02*
X153087499Y-115965000I249999J0D01*
G01*
X153712501Y-115965000D01*
G75*
G02*
X153962500Y-116214999I0J-249999D01*
G01*
G37*
G36*
G01*
X156887500Y-116214999D02*
X156887500Y-117465001D01*
G75*
G02*
X156637501Y-117715000I-249999J0D01*
G01*
X156012499Y-117715000D01*
G75*
G02*
X155762500Y-117465001I0J249999D01*
G01*
X155762500Y-116214999D01*
G75*
G02*
X156012499Y-115965000I249999J0D01*
G01*
X156637501Y-115965000D01*
G75*
G02*
X156887500Y-116214999I0J-249999D01*
G01*
G37*
%TD*%
%TO.C,C11*%
G36*
G01*
X153019999Y-95857500D02*
X154320001Y-95857500D01*
G75*
G02*
X154570000Y-96107499I0J-249999D01*
G01*
X154570000Y-96932501D01*
G75*
G02*
X154320001Y-97182500I-249999J0D01*
G01*
X153019999Y-97182500D01*
G75*
G02*
X152770000Y-96932501I0J249999D01*
G01*
X152770000Y-96107499D01*
G75*
G02*
X153019999Y-95857500I249999J0D01*
G01*
G37*
G36*
G01*
X153019999Y-92732500D02*
X154320001Y-92732500D01*
G75*
G02*
X154570000Y-92982499I0J-249999D01*
G01*
X154570000Y-93807501D01*
G75*
G02*
X154320001Y-94057500I-249999J0D01*
G01*
X153019999Y-94057500D01*
G75*
G02*
X152770000Y-93807501I0J249999D01*
G01*
X152770000Y-92982499D01*
G75*
G02*
X153019999Y-92732500I249999J0D01*
G01*
G37*
%TD*%
%TO.C,C10*%
G36*
G01*
X150479999Y-95857500D02*
X151780001Y-95857500D01*
G75*
G02*
X152030000Y-96107499I0J-249999D01*
G01*
X152030000Y-96932501D01*
G75*
G02*
X151780001Y-97182500I-249999J0D01*
G01*
X150479999Y-97182500D01*
G75*
G02*
X150230000Y-96932501I0J249999D01*
G01*
X150230000Y-96107499D01*
G75*
G02*
X150479999Y-95857500I249999J0D01*
G01*
G37*
G36*
G01*
X150479999Y-92732500D02*
X151780001Y-92732500D01*
G75*
G02*
X152030000Y-92982499I0J-249999D01*
G01*
X152030000Y-93807501D01*
G75*
G02*
X151780001Y-94057500I-249999J0D01*
G01*
X150479999Y-94057500D01*
G75*
G02*
X150230000Y-93807501I0J249999D01*
G01*
X150230000Y-92982499D01*
G75*
G02*
X150479999Y-92732500I249999J0D01*
G01*
G37*
%TD*%
D29*
%TO.C,U3*%
X174280000Y-89360000D03*
X172280000Y-89360000D03*
X170280000Y-89360000D03*
X168280000Y-89360000D03*
X166280000Y-89360000D03*
X164280000Y-89360000D03*
D30*
X176990000Y-73660000D03*
X176990000Y-75660000D03*
X176990000Y-77660000D03*
X176990000Y-79660000D03*
X176990000Y-81660000D03*
X176990000Y-83660000D03*
X176990000Y-85660000D03*
X176990000Y-87660000D03*
X161590000Y-87660000D03*
X161590000Y-85660000D03*
X161590000Y-83660000D03*
X161590000Y-81660000D03*
X161590000Y-79660000D03*
X161590000Y-77660000D03*
X161590000Y-75660000D03*
X161590000Y-73660000D03*
%TD*%
D31*
%TO.C,U2*%
X157455000Y-110760000D03*
X157455000Y-111260000D03*
X157455000Y-111760000D03*
X157455000Y-112260000D03*
X157455000Y-112760000D03*
X153155000Y-112760000D03*
X153155000Y-112260000D03*
X153155000Y-111760000D03*
X153155000Y-111260000D03*
X153155000Y-110760000D03*
%TD*%
%TO.C,U1*%
G36*
G01*
X152280000Y-85930000D02*
X151980000Y-85930000D01*
G75*
G02*
X151830000Y-85780000I0J150000D01*
G01*
X151830000Y-84330000D01*
G75*
G02*
X151980000Y-84180000I150000J0D01*
G01*
X152280000Y-84180000D01*
G75*
G02*
X152430000Y-84330000I0J-150000D01*
G01*
X152430000Y-85780000D01*
G75*
G02*
X152280000Y-85930000I-150000J0D01*
G01*
G37*
G36*
G01*
X153550000Y-85930000D02*
X153250000Y-85930000D01*
G75*
G02*
X153100000Y-85780000I0J150000D01*
G01*
X153100000Y-84330000D01*
G75*
G02*
X153250000Y-84180000I150000J0D01*
G01*
X153550000Y-84180000D01*
G75*
G02*
X153700000Y-84330000I0J-150000D01*
G01*
X153700000Y-85780000D01*
G75*
G02*
X153550000Y-85930000I-150000J0D01*
G01*
G37*
G36*
G01*
X154820000Y-85930000D02*
X154520000Y-85930000D01*
G75*
G02*
X154370000Y-85780000I0J150000D01*
G01*
X154370000Y-84330000D01*
G75*
G02*
X154520000Y-84180000I150000J0D01*
G01*
X154820000Y-84180000D01*
G75*
G02*
X154970000Y-84330000I0J-150000D01*
G01*
X154970000Y-85780000D01*
G75*
G02*
X154820000Y-85930000I-150000J0D01*
G01*
G37*
G36*
G01*
X156090000Y-85930000D02*
X155790000Y-85930000D01*
G75*
G02*
X155640000Y-85780000I0J150000D01*
G01*
X155640000Y-84330000D01*
G75*
G02*
X155790000Y-84180000I150000J0D01*
G01*
X156090000Y-84180000D01*
G75*
G02*
X156240000Y-84330000I0J-150000D01*
G01*
X156240000Y-85780000D01*
G75*
G02*
X156090000Y-85930000I-150000J0D01*
G01*
G37*
G36*
G01*
X156090000Y-91080000D02*
X155790000Y-91080000D01*
G75*
G02*
X155640000Y-90930000I0J150000D01*
G01*
X155640000Y-89480000D01*
G75*
G02*
X155790000Y-89330000I150000J0D01*
G01*
X156090000Y-89330000D01*
G75*
G02*
X156240000Y-89480000I0J-150000D01*
G01*
X156240000Y-90930000D01*
G75*
G02*
X156090000Y-91080000I-150000J0D01*
G01*
G37*
G36*
G01*
X154820000Y-91080000D02*
X154520000Y-91080000D01*
G75*
G02*
X154370000Y-90930000I0J150000D01*
G01*
X154370000Y-89480000D01*
G75*
G02*
X154520000Y-89330000I150000J0D01*
G01*
X154820000Y-89330000D01*
G75*
G02*
X154970000Y-89480000I0J-150000D01*
G01*
X154970000Y-90930000D01*
G75*
G02*
X154820000Y-91080000I-150000J0D01*
G01*
G37*
G36*
G01*
X153550000Y-91080000D02*
X153250000Y-91080000D01*
G75*
G02*
X153100000Y-90930000I0J150000D01*
G01*
X153100000Y-89480000D01*
G75*
G02*
X153250000Y-89330000I150000J0D01*
G01*
X153550000Y-89330000D01*
G75*
G02*
X153700000Y-89480000I0J-150000D01*
G01*
X153700000Y-90930000D01*
G75*
G02*
X153550000Y-91080000I-150000J0D01*
G01*
G37*
G36*
G01*
X152280000Y-91080000D02*
X151980000Y-91080000D01*
G75*
G02*
X151830000Y-90930000I0J150000D01*
G01*
X151830000Y-89480000D01*
G75*
G02*
X151980000Y-89330000I150000J0D01*
G01*
X152280000Y-89330000D01*
G75*
G02*
X152430000Y-89480000I0J-150000D01*
G01*
X152430000Y-90930000D01*
G75*
G02*
X152280000Y-91080000I-150000J0D01*
G01*
G37*
%TD*%
D26*
%TO.C,SW1*%
X151495000Y-125040000D03*
X151495000Y-129540000D03*
X144995000Y-125040000D03*
X144995000Y-129540000D03*
%TD*%
%TO.C,R9*%
G36*
G01*
X157219999Y-124282500D02*
X158470001Y-124282500D01*
G75*
G02*
X158720000Y-124532499I0J-249999D01*
G01*
X158720000Y-125157501D01*
G75*
G02*
X158470001Y-125407500I-249999J0D01*
G01*
X157219999Y-125407500D01*
G75*
G02*
X156970000Y-125157501I0J249999D01*
G01*
X156970000Y-124532499D01*
G75*
G02*
X157219999Y-124282500I249999J0D01*
G01*
G37*
G36*
G01*
X157219999Y-121357500D02*
X158470001Y-121357500D01*
G75*
G02*
X158720000Y-121607499I0J-249999D01*
G01*
X158720000Y-122232501D01*
G75*
G02*
X158470001Y-122482500I-249999J0D01*
G01*
X157219999Y-122482500D01*
G75*
G02*
X156970000Y-122232501I0J249999D01*
G01*
X156970000Y-121607499D01*
G75*
G02*
X157219999Y-121357500I249999J0D01*
G01*
G37*
%TD*%
%TO.C,R6*%
G36*
G01*
X154044999Y-129612500D02*
X155295001Y-129612500D01*
G75*
G02*
X155545000Y-129862499I0J-249999D01*
G01*
X155545000Y-130487501D01*
G75*
G02*
X155295001Y-130737500I-249999J0D01*
G01*
X154044999Y-130737500D01*
G75*
G02*
X153795000Y-130487501I0J249999D01*
G01*
X153795000Y-129862499D01*
G75*
G02*
X154044999Y-129612500I249999J0D01*
G01*
G37*
G36*
G01*
X154044999Y-126687500D02*
X155295001Y-126687500D01*
G75*
G02*
X155545000Y-126937499I0J-249999D01*
G01*
X155545000Y-127562501D01*
G75*
G02*
X155295001Y-127812500I-249999J0D01*
G01*
X154044999Y-127812500D01*
G75*
G02*
X153795000Y-127562501I0J249999D01*
G01*
X153795000Y-126937499D01*
G75*
G02*
X154044999Y-126687500I249999J0D01*
G01*
G37*
%TD*%
%TO.C,R5*%
G36*
G01*
X142427500Y-121275001D02*
X142427500Y-120024999D01*
G75*
G02*
X142677499Y-119775000I249999J0D01*
G01*
X143302501Y-119775000D01*
G75*
G02*
X143552500Y-120024999I0J-249999D01*
G01*
X143552500Y-121275001D01*
G75*
G02*
X143302501Y-121525000I-249999J0D01*
G01*
X142677499Y-121525000D01*
G75*
G02*
X142427500Y-121275001I0J249999D01*
G01*
G37*
G36*
G01*
X139502500Y-121275001D02*
X139502500Y-120024999D01*
G75*
G02*
X139752499Y-119775000I249999J0D01*
G01*
X140377501Y-119775000D01*
G75*
G02*
X140627500Y-120024999I0J-249999D01*
G01*
X140627500Y-121275001D01*
G75*
G02*
X140377501Y-121525000I-249999J0D01*
G01*
X139752499Y-121525000D01*
G75*
G02*
X139502500Y-121275001I0J249999D01*
G01*
G37*
%TD*%
%TO.C,R17*%
G36*
G01*
X153962500Y-106689999D02*
X153962500Y-107940001D01*
G75*
G02*
X153712501Y-108190000I-249999J0D01*
G01*
X153087499Y-108190000D01*
G75*
G02*
X152837500Y-107940001I0J249999D01*
G01*
X152837500Y-106689999D01*
G75*
G02*
X153087499Y-106440000I249999J0D01*
G01*
X153712501Y-106440000D01*
G75*
G02*
X153962500Y-106689999I0J-249999D01*
G01*
G37*
G36*
G01*
X156887500Y-106689999D02*
X156887500Y-107940001D01*
G75*
G02*
X156637501Y-108190000I-249999J0D01*
G01*
X156012499Y-108190000D01*
G75*
G02*
X155762500Y-107940001I0J249999D01*
G01*
X155762500Y-106689999D01*
G75*
G02*
X156012499Y-106440000I249999J0D01*
G01*
X156637501Y-106440000D01*
G75*
G02*
X156887500Y-106689999I0J-249999D01*
G01*
G37*
%TD*%
%TO.C,R15*%
G36*
G01*
X186492500Y-76190001D02*
X186492500Y-74939999D01*
G75*
G02*
X186742499Y-74690000I249999J0D01*
G01*
X187367501Y-74690000D01*
G75*
G02*
X187617500Y-74939999I0J-249999D01*
G01*
X187617500Y-76190001D01*
G75*
G02*
X187367501Y-76440000I-249999J0D01*
G01*
X186742499Y-76440000D01*
G75*
G02*
X186492500Y-76190001I0J249999D01*
G01*
G37*
G36*
G01*
X183567500Y-76190001D02*
X183567500Y-74939999D01*
G75*
G02*
X183817499Y-74690000I249999J0D01*
G01*
X184442501Y-74690000D01*
G75*
G02*
X184692500Y-74939999I0J-249999D01*
G01*
X184692500Y-76190001D01*
G75*
G02*
X184442501Y-76440000I-249999J0D01*
G01*
X183817499Y-76440000D01*
G75*
G02*
X183567500Y-76190001I0J249999D01*
G01*
G37*
%TD*%
%TO.C,R16*%
G36*
G01*
X186492500Y-78730001D02*
X186492500Y-77479999D01*
G75*
G02*
X186742499Y-77230000I249999J0D01*
G01*
X187367501Y-77230000D01*
G75*
G02*
X187617500Y-77479999I0J-249999D01*
G01*
X187617500Y-78730001D01*
G75*
G02*
X187367501Y-78980000I-249999J0D01*
G01*
X186742499Y-78980000D01*
G75*
G02*
X186492500Y-78730001I0J249999D01*
G01*
G37*
G36*
G01*
X183567500Y-78730001D02*
X183567500Y-77479999D01*
G75*
G02*
X183817499Y-77230000I249999J0D01*
G01*
X184442501Y-77230000D01*
G75*
G02*
X184692500Y-77479999I0J-249999D01*
G01*
X184692500Y-78730001D01*
G75*
G02*
X184442501Y-78980000I-249999J0D01*
G01*
X183817499Y-78980000D01*
G75*
G02*
X183567500Y-78730001I0J249999D01*
G01*
G37*
%TD*%
%TO.C,SW2*%
X140065000Y-125040000D03*
X140065000Y-129540000D03*
X133565000Y-125040000D03*
X133565000Y-129540000D03*
%TD*%
%TO.C,R3*%
G36*
G01*
X112687500Y-96529999D02*
X112687500Y-97780001D01*
G75*
G02*
X112437501Y-98030000I-249999J0D01*
G01*
X111812499Y-98030000D01*
G75*
G02*
X111562500Y-97780001I0J249999D01*
G01*
X111562500Y-96529999D01*
G75*
G02*
X111812499Y-96280000I249999J0D01*
G01*
X112437501Y-96280000D01*
G75*
G02*
X112687500Y-96529999I0J-249999D01*
G01*
G37*
G36*
G01*
X115612500Y-96529999D02*
X115612500Y-97780001D01*
G75*
G02*
X115362501Y-98030000I-249999J0D01*
G01*
X114737499Y-98030000D01*
G75*
G02*
X114487500Y-97780001I0J249999D01*
G01*
X114487500Y-96529999D01*
G75*
G02*
X114737499Y-96280000I249999J0D01*
G01*
X115362501Y-96280000D01*
G75*
G02*
X115612500Y-96529999I0J-249999D01*
G01*
G37*
%TD*%
%TO.C,R14*%
G36*
G01*
X152692500Y-74304999D02*
X152692500Y-75555001D01*
G75*
G02*
X152442501Y-75805000I-249999J0D01*
G01*
X151817499Y-75805000D01*
G75*
G02*
X151567500Y-75555001I0J249999D01*
G01*
X151567500Y-74304999D01*
G75*
G02*
X151817499Y-74055000I249999J0D01*
G01*
X152442501Y-74055000D01*
G75*
G02*
X152692500Y-74304999I0J-249999D01*
G01*
G37*
G36*
G01*
X155617500Y-74304999D02*
X155617500Y-75555001D01*
G75*
G02*
X155367501Y-75805000I-249999J0D01*
G01*
X154742499Y-75805000D01*
G75*
G02*
X154492500Y-75555001I0J249999D01*
G01*
X154492500Y-74304999D01*
G75*
G02*
X154742499Y-74055000I249999J0D01*
G01*
X155367501Y-74055000D01*
G75*
G02*
X155617500Y-74304999I0J-249999D01*
G01*
G37*
%TD*%
%TO.C,R8*%
G36*
G01*
X154044999Y-124282500D02*
X155295001Y-124282500D01*
G75*
G02*
X155545000Y-124532499I0J-249999D01*
G01*
X155545000Y-125157501D01*
G75*
G02*
X155295001Y-125407500I-249999J0D01*
G01*
X154044999Y-125407500D01*
G75*
G02*
X153795000Y-125157501I0J249999D01*
G01*
X153795000Y-124532499D01*
G75*
G02*
X154044999Y-124282500I249999J0D01*
G01*
G37*
G36*
G01*
X154044999Y-121357500D02*
X155295001Y-121357500D01*
G75*
G02*
X155545000Y-121607499I0J-249999D01*
G01*
X155545000Y-122232501D01*
G75*
G02*
X155295001Y-122482500I-249999J0D01*
G01*
X154044999Y-122482500D01*
G75*
G02*
X153795000Y-122232501I0J249999D01*
G01*
X153795000Y-121607499D01*
G75*
G02*
X154044999Y-121357500I249999J0D01*
G01*
G37*
%TD*%
%TO.C,R2*%
G36*
G01*
X186492500Y-81270001D02*
X186492500Y-80019999D01*
G75*
G02*
X186742499Y-79770000I249999J0D01*
G01*
X187367501Y-79770000D01*
G75*
G02*
X187617500Y-80019999I0J-249999D01*
G01*
X187617500Y-81270001D01*
G75*
G02*
X187367501Y-81520000I-249999J0D01*
G01*
X186742499Y-81520000D01*
G75*
G02*
X186492500Y-81270001I0J249999D01*
G01*
G37*
G36*
G01*
X183567500Y-81270001D02*
X183567500Y-80019999D01*
G75*
G02*
X183817499Y-79770000I249999J0D01*
G01*
X184442501Y-79770000D01*
G75*
G02*
X184692500Y-80019999I0J-249999D01*
G01*
X184692500Y-81270001D01*
G75*
G02*
X184442501Y-81520000I-249999J0D01*
G01*
X183817499Y-81520000D01*
G75*
G02*
X183567500Y-81270001I0J249999D01*
G01*
G37*
%TD*%
%TO.C,R7*%
G36*
G01*
X157219999Y-129612500D02*
X158470001Y-129612500D01*
G75*
G02*
X158720000Y-129862499I0J-249999D01*
G01*
X158720000Y-130487501D01*
G75*
G02*
X158470001Y-130737500I-249999J0D01*
G01*
X157219999Y-130737500D01*
G75*
G02*
X156970000Y-130487501I0J249999D01*
G01*
X156970000Y-129862499D01*
G75*
G02*
X157219999Y-129612500I249999J0D01*
G01*
G37*
G36*
G01*
X157219999Y-126687500D02*
X158470001Y-126687500D01*
G75*
G02*
X158720000Y-126937499I0J-249999D01*
G01*
X158720000Y-127562501D01*
G75*
G02*
X158470001Y-127812500I-249999J0D01*
G01*
X157219999Y-127812500D01*
G75*
G02*
X156970000Y-127562501I0J249999D01*
G01*
X156970000Y-126937499D01*
G75*
G02*
X157219999Y-126687500I249999J0D01*
G01*
G37*
%TD*%
%TO.C,R4*%
G36*
G01*
X140627500Y-100974999D02*
X140627500Y-102225001D01*
G75*
G02*
X140377501Y-102475000I-249999J0D01*
G01*
X139752499Y-102475000D01*
G75*
G02*
X139502500Y-102225001I0J249999D01*
G01*
X139502500Y-100974999D01*
G75*
G02*
X139752499Y-100725000I249999J0D01*
G01*
X140377501Y-100725000D01*
G75*
G02*
X140627500Y-100974999I0J-249999D01*
G01*
G37*
G36*
G01*
X143552500Y-100974999D02*
X143552500Y-102225001D01*
G75*
G02*
X143302501Y-102475000I-249999J0D01*
G01*
X142677499Y-102475000D01*
G75*
G02*
X142427500Y-102225001I0J249999D01*
G01*
X142427500Y-100974999D01*
G75*
G02*
X142677499Y-100725000I249999J0D01*
G01*
X143302501Y-100725000D01*
G75*
G02*
X143552500Y-100974999I0J-249999D01*
G01*
G37*
%TD*%
%TO.C,C9*%
G36*
G01*
X154062500Y-102854999D02*
X154062500Y-104155001D01*
G75*
G02*
X153812501Y-104405000I-249999J0D01*
G01*
X152987499Y-104405000D01*
G75*
G02*
X152737500Y-104155001I0J249999D01*
G01*
X152737500Y-102854999D01*
G75*
G02*
X152987499Y-102605000I249999J0D01*
G01*
X153812501Y-102605000D01*
G75*
G02*
X154062500Y-102854999I0J-249999D01*
G01*
G37*
G36*
G01*
X157187500Y-102854999D02*
X157187500Y-104155001D01*
G75*
G02*
X156937501Y-104405000I-249999J0D01*
G01*
X156112499Y-104405000D01*
G75*
G02*
X155862500Y-104155001I0J249999D01*
G01*
X155862500Y-102854999D01*
G75*
G02*
X156112499Y-102605000I249999J0D01*
G01*
X156937501Y-102605000D01*
G75*
G02*
X157187500Y-102854999I0J-249999D01*
G01*
G37*
%TD*%
%TO.C,C6*%
G36*
G01*
X154642500Y-81930001D02*
X154642500Y-80629999D01*
G75*
G02*
X154892499Y-80380000I249999J0D01*
G01*
X155717501Y-80380000D01*
G75*
G02*
X155967500Y-80629999I0J-249999D01*
G01*
X155967500Y-81930001D01*
G75*
G02*
X155717501Y-82180000I-249999J0D01*
G01*
X154892499Y-82180000D01*
G75*
G02*
X154642500Y-81930001I0J249999D01*
G01*
G37*
G36*
G01*
X151517500Y-81930001D02*
X151517500Y-80629999D01*
G75*
G02*
X151767499Y-80380000I249999J0D01*
G01*
X152592501Y-80380000D01*
G75*
G02*
X152842500Y-80629999I0J-249999D01*
G01*
X152842500Y-81930001D01*
G75*
G02*
X152592501Y-82180000I-249999J0D01*
G01*
X151767499Y-82180000D01*
G75*
G02*
X151517500Y-81930001I0J249999D01*
G01*
G37*
%TD*%
%TO.C,C7*%
G36*
G01*
X147077500Y-119999999D02*
X147077500Y-121300001D01*
G75*
G02*
X146827501Y-121550000I-249999J0D01*
G01*
X146002499Y-121550000D01*
G75*
G02*
X145752500Y-121300001I0J249999D01*
G01*
X145752500Y-119999999D01*
G75*
G02*
X146002499Y-119750000I249999J0D01*
G01*
X146827501Y-119750000D01*
G75*
G02*
X147077500Y-119999999I0J-249999D01*
G01*
G37*
G36*
G01*
X150202500Y-119999999D02*
X150202500Y-121300001D01*
G75*
G02*
X149952501Y-121550000I-249999J0D01*
G01*
X149127499Y-121550000D01*
G75*
G02*
X148877500Y-121300001I0J249999D01*
G01*
X148877500Y-119999999D01*
G75*
G02*
X149127499Y-119750000I249999J0D01*
G01*
X149952501Y-119750000D01*
G75*
G02*
X150202500Y-119999999I0J-249999D01*
G01*
G37*
%TD*%
%TO.C,D1*%
G36*
G01*
X152755000Y-77480000D02*
X152755000Y-78730000D01*
G75*
G02*
X152505000Y-78980000I-250000J0D01*
G01*
X151755000Y-78980000D01*
G75*
G02*
X151505000Y-78730000I0J250000D01*
G01*
X151505000Y-77480000D01*
G75*
G02*
X151755000Y-77230000I250000J0D01*
G01*
X152505000Y-77230000D01*
G75*
G02*
X152755000Y-77480000I0J-250000D01*
G01*
G37*
G36*
G01*
X155555000Y-77480000D02*
X155555000Y-78730000D01*
G75*
G02*
X155305000Y-78980000I-250000J0D01*
G01*
X154555000Y-78980000D01*
G75*
G02*
X154305000Y-78730000I0J250000D01*
G01*
X154305000Y-77480000D01*
G75*
G02*
X154555000Y-77230000I250000J0D01*
G01*
X155305000Y-77230000D01*
G75*
G02*
X155555000Y-77480000I0J-250000D01*
G01*
G37*
%TD*%
%TO.C,C2*%
G36*
G01*
X135905001Y-69022500D02*
X134604999Y-69022500D01*
G75*
G02*
X134355000Y-68772501I0J249999D01*
G01*
X134355000Y-67947499D01*
G75*
G02*
X134604999Y-67697500I249999J0D01*
G01*
X135905001Y-67697500D01*
G75*
G02*
X136155000Y-67947499I0J-249999D01*
G01*
X136155000Y-68772501D01*
G75*
G02*
X135905001Y-69022500I-249999J0D01*
G01*
G37*
G36*
G01*
X135905001Y-72147500D02*
X134604999Y-72147500D01*
G75*
G02*
X134355000Y-71897501I0J249999D01*
G01*
X134355000Y-71072499D01*
G75*
G02*
X134604999Y-70822500I249999J0D01*
G01*
X135905001Y-70822500D01*
G75*
G02*
X136155000Y-71072499I0J-249999D01*
G01*
X136155000Y-71897501D01*
G75*
G02*
X135905001Y-72147500I-249999J0D01*
G01*
G37*
%TD*%
%TO.C,R1*%
G36*
G01*
X186492500Y-83810001D02*
X186492500Y-82559999D01*
G75*
G02*
X186742499Y-82310000I249999J0D01*
G01*
X187367501Y-82310000D01*
G75*
G02*
X187617500Y-82559999I0J-249999D01*
G01*
X187617500Y-83810001D01*
G75*
G02*
X187367501Y-84060000I-249999J0D01*
G01*
X186742499Y-84060000D01*
G75*
G02*
X186492500Y-83810001I0J249999D01*
G01*
G37*
G36*
G01*
X183567500Y-83810001D02*
X183567500Y-82559999D01*
G75*
G02*
X183817499Y-82310000I249999J0D01*
G01*
X184442501Y-82310000D01*
G75*
G02*
X184692500Y-82559999I0J-249999D01*
G01*
X184692500Y-83810001D01*
G75*
G02*
X184442501Y-84060000I-249999J0D01*
G01*
X183817499Y-84060000D01*
G75*
G02*
X183567500Y-83810001I0J249999D01*
G01*
G37*
%TD*%
D20*
%TO.C,K1*%
X169910000Y-100330000D03*
D32*
X171860000Y-94380000D03*
D20*
X184110000Y-94330000D03*
X184060000Y-106380000D03*
D32*
X171860000Y-106380000D03*
%TD*%
D19*
%TO.C,Q1*%
X163290000Y-102870000D03*
X161290000Y-103820000D03*
X161290000Y-101920000D03*
%TD*%
D20*
%TO.C,J7*%
X193405000Y-95250000D03*
X193405000Y-100330000D03*
D21*
X193405000Y-105410000D03*
%TD*%
D33*
%TO.C,J6*%
X154035000Y-69850000D03*
X151495000Y-69850000D03*
X148955000Y-69850000D03*
X146415000Y-69850000D03*
X143875000Y-69850000D03*
D34*
X141335000Y-69850000D03*
%TD*%
D20*
%TO.C,K2*%
X169910000Y-117475000D03*
D32*
X171860000Y-111525000D03*
D20*
X184110000Y-111475000D03*
X184060000Y-123525000D03*
D32*
X171860000Y-123525000D03*
%TD*%
D35*
%TO.C,D5*%
X166100000Y-119975000D03*
X166100000Y-114975000D03*
%TD*%
%TO.C,D4*%
X166100000Y-102830000D03*
X166100000Y-97830000D03*
%TD*%
%TO.C,D3*%
G36*
G01*
X165475000Y-111750000D02*
X165475000Y-110500000D01*
G75*
G02*
X165725000Y-110250000I250000J0D01*
G01*
X166475000Y-110250000D01*
G75*
G02*
X166725000Y-110500000I0J-250000D01*
G01*
X166725000Y-111750000D01*
G75*
G02*
X166475000Y-112000000I-250000J0D01*
G01*
X165725000Y-112000000D01*
G75*
G02*
X165475000Y-111750000I0J250000D01*
G01*
G37*
G36*
G01*
X162675000Y-111750000D02*
X162675000Y-110500000D01*
G75*
G02*
X162925000Y-110250000I250000J0D01*
G01*
X163675000Y-110250000D01*
G75*
G02*
X163925000Y-110500000I0J-250000D01*
G01*
X163925000Y-111750000D01*
G75*
G02*
X163675000Y-112000000I-250000J0D01*
G01*
X162925000Y-112000000D01*
G75*
G02*
X162675000Y-111750000I0J250000D01*
G01*
G37*
%TD*%
%TO.C,D2*%
G36*
G01*
X165475000Y-94605000D02*
X165475000Y-93355000D01*
G75*
G02*
X165725000Y-93105000I250000J0D01*
G01*
X166475000Y-93105000D01*
G75*
G02*
X166725000Y-93355000I0J-250000D01*
G01*
X166725000Y-94605000D01*
G75*
G02*
X166475000Y-94855000I-250000J0D01*
G01*
X165725000Y-94855000D01*
G75*
G02*
X165475000Y-94605000I0J250000D01*
G01*
G37*
G36*
G01*
X162675000Y-94605000D02*
X162675000Y-93355000D01*
G75*
G02*
X162925000Y-93105000I250000J0D01*
G01*
X163675000Y-93105000D01*
G75*
G02*
X163925000Y-93355000I0J-250000D01*
G01*
X163925000Y-94605000D01*
G75*
G02*
X163675000Y-94855000I-250000J0D01*
G01*
X162925000Y-94855000D01*
G75*
G02*
X162675000Y-94605000I0J250000D01*
G01*
G37*
%TD*%
M02*
