<?xml version="1.0" encoding="utf-8"?>
<!DOCTYPE svg PUBLIC "-//W3C//DTD SVG 20010904//EN" "http://www.w3.org/TR/2001/REC-SVG-20010904/DTD/svg10.dtd">
<svg xmlns="http://www.w3.org/2000/svg" xml:space="preserve" xmlns:xlink="http://www.w3.org/1999/xlink" width="264" height="264" viewBox="0 0 264 264">
<defs>
<mask id="qrmask"><g fill="#ffffff">
<g transform="translate(88,16) scale(1.3333333333333)"><rect width="6" height="6"/></g>
<g transform="translate(120,16) scale(1.3333333333333)"><rect width="6" height="6"/></g>
<g transform="translate(144,16) scale(1.3333333333333)"><rect width="6" height="6"/></g>
<g transform="translate(152,16) scale(1.3333333333333)"><rect width="6" height="6"/></g>
<g transform="translate(160,16) scale(1.3333333333333)"><rect width="6" height="6"/></g>
<g transform="translate(168,16) scale(1.3333333333333)"><rect width="6" height="6"/></g>
<g transform="translate(176,16) scale(1.3333333333333)"><rect width="6" height="6"/></g>
<g transform="translate(80,24) scale(1.3333333333333)"><rect width="6" height="6"/></g>
<g transform="translate(88,24) scale(1.3333333333333)"><rect width="6" height="6"/></g>
<g transform="translate(104,24) scale(1.3333333333333)"><rect width="6" height="6"/></g>
<g transform="translate(112,24) scale(1.3333333333333)"><rect width="6" height="6"/></g>
<g transform="translate(136,24) scale(1.3333333333333)"><rect width="6" height="6"/></g>
<g transform="translate(144,24) scale(1.3333333333333)"><rect width="6" height="6"/></g>
<g transform="translate(160,24) scale(1.3333333333333)"><rect width="6" height="6"/></g>
<g transform="translate(88,32) scale(1.3333333333333)"><rect width="6" height="6"/></g>
<g transform="translate(96,32) scale(1.3333333333333)"><rect width="6" height="6"/></g>
<g transform="translate(104,32) scale(1.3333333333333)"><rect width="6" height="6"/></g>
<g transform="translate(128,32) scale(1.3333333333333)"><rect width="6" height="6"/></g>
<g transform="translate(136,32) scale(1.3333333333333)"><rect width="6" height="6"/></g>
<g transform="translate(144,32) scale(1.3333333333333)"><rect width="6" height="6"/></g>
<g transform="translate(168,32) scale(1.3333333333333)"><rect width="6" height="6"/></g>
<g transform="translate(80,40) scale(1.3333333333333)"><rect width="6" height="6"/></g>
<g transform="translate(88,40) scale(1.3333333333333)"><rect width="6" height="6"/></g>
<g transform="translate(104,40) scale(1.3333333333333)"><rect width="6" height="6"/></g>
<g transform="translate(120,40) scale(1.3333333333333)"><rect width="6" height="6"/></g>
<g transform="translate(128,40) scale(1.3333333333333)"><rect width="6" height="6"/></g>
<g transform="translate(152,40) scale(1.3333333333333)"><rect width="6" height="6"/></g>
<g transform="translate(176,40) scale(1.3333333333333)"><rect width="6" height="6"/></g>
<g transform="translate(96,48) scale(1.3333333333333)"><rect width="6" height="6"/></g>
<g transform="translate(112,48) scale(1.3333333333333)"><rect width="6" height="6"/></g>
<g transform="translate(120,48) scale(1.3333333333333)"><rect width="6" height="6"/></g>
<g transform="translate(136,48) scale(1.3333333333333)"><rect width="6" height="6"/></g>
<g transform="translate(144,48) scale(1.3333333333333)"><rect width="6" height="6"/></g>
<g transform="translate(168,48) scale(1.3333333333333)"><rect width="6" height="6"/></g>
<g transform="translate(176,48) scale(1.3333333333333)"><rect width="6" height="6"/></g>
<g transform="translate(80,56) scale(1.3333333333333)"><rect width="6" height="6"/></g>
<g transform="translate(96,56) scale(1.3333333333333)"><rect width="6" height="6"/></g>
<g transform="translate(120,56) scale(1.3333333333333)"><rect width="6" height="6"/></g>
<g transform="translate(136,56) scale(1.3333333333333)"><rect width="6" height="6"/></g>
<g transform="translate(160,56) scale(1.3333333333333)"><rect width="6" height="6"/></g>
<g transform="translate(80,64) scale(1.3333333333333)"><rect width="6" height="6"/></g>
<g transform="translate(96,64) scale(1.3333333333333)"><rect width="6" height="6"/></g>
<g transform="translate(112,64) scale(1.3333333333333)"><rect width="6" height="6"/></g>
<g transform="translate(128,64) scale(1.3333333333333)"><rect width="6" height="6"/></g>
<g transform="translate(144,64) scale(1.3333333333333)"><rect width="6" height="6"/></g>
<g transform="translate(160,64) scale(1.3333333333333)"><rect width="6" height="6"/></g>
<g transform="translate(176,64) scale(1.3333333333333)"><rect width="6" height="6"/></g>
<g transform="translate(112,72) scale(1.3333333333333)"><rect width="6" height="6"/></g>
<g transform="translate(128,72) scale(1.3333333333333)"><rect width="6" height="6"/></g>
<g transform="translate(168,72) scale(1.3333333333333)"><rect width="6" height="6"/></g>
<g transform="translate(176,72) scale(1.3333333333333)"><rect width="6" height="6"/></g>
<g transform="translate(16,80) scale(1.3333333333333)"><rect width="6" height="6"/></g>
<g transform="translate(24,80) scale(1.3333333333333)"><rect width="6" height="6"/></g>
<g transform="translate(32,80) scale(1.3333333333333)"><rect width="6" height="6"/></g>
<g transform="translate(40,80) scale(1.3333333333333)"><rect width="6" height="6"/></g>
<g transform="translate(48,80) scale(1.3333333333333)"><rect width="6" height="6"/></g>
<g transform="translate(64,80) scale(1.3333333333333)"><rect width="6" height="6"/></g>
<g transform="translate(72,80) scale(1.3333333333333)"><rect width="6" height="6"/></g>
<g transform="translate(80,80) scale(1.3333333333333)"><rect width="6" height="6"/></g>
<g transform="translate(88,80) scale(1.3333333333333)"><rect width="6" height="6"/></g>
<g transform="translate(96,80) scale(1.3333333333333)"><rect width="6" height="6"/></g>
<g transform="translate(112,80) scale(1.3333333333333)"><rect width="6" height="6"/></g>
<g transform="translate(120,80) scale(1.3333333333333)"><rect width="6" height="6"/></g>
<g transform="translate(128,80) scale(1.3333333333333)"><rect width="6" height="6"/></g>
<g transform="translate(136,80) scale(1.3333333333333)"><rect width="6" height="6"/></g>
<g transform="translate(144,80) scale(1.3333333333333)"><rect width="6" height="6"/></g>
<g transform="translate(152,80) scale(1.3333333333333)"><rect width="6" height="6"/></g>
<g transform="translate(168,80) scale(1.3333333333333)"><rect width="6" height="6"/></g>
<g transform="translate(184,80) scale(1.3333333333333)"><rect width="6" height="6"/></g>
<g transform="translate(200,80) scale(1.3333333333333)"><rect width="6" height="6"/></g>
<g transform="translate(216,80) scale(1.3333333333333)"><rect width="6" height="6"/></g>
<g transform="translate(232,80) scale(1.3333333333333)"><rect width="6" height="6"/></g>
<g transform="translate(56,88) scale(1.3333333333333)"><rect width="6" height="6"/></g>
<g transform="translate(80,88) scale(1.3333333333333)"><rect width="6" height="6"/></g>
<g transform="translate(88,88) scale(1.3333333333333)"><rect width="6" height="6"/></g>
<g transform="translate(144,88) scale(1.3333333333333)"><rect width="6" height="6"/></g>
<g transform="translate(168,88) scale(1.3333333333333)"><rect width="6" height="6"/></g>
<g transform="translate(176,88) scale(1.3333333333333)"><rect width="6" height="6"/></g>
<g transform="translate(192,88) scale(1.3333333333333)"><rect width="6" height="6"/></g>
<g transform="translate(200,88) scale(1.3333333333333)"><rect width="6" height="6"/></g>
<g transform="translate(208,88) scale(1.3333333333333)"><rect width="6" height="6"/></g>
<g transform="translate(240,88) scale(1.3333333333333)"><rect width="6" height="6"/></g>
<g transform="translate(40,96) scale(1.3333333333333)"><rect width="6" height="6"/></g>
<g transform="translate(56,96) scale(1.3333333333333)"><rect width="6" height="6"/></g>
<g transform="translate(64,96) scale(1.3333333333333)"><rect width="6" height="6"/></g>
<g transform="translate(80,96) scale(1.3333333333333)"><rect width="6" height="6"/></g>
<g transform="translate(88,96) scale(1.3333333333333)"><rect width="6" height="6"/></g>
<g transform="translate(104,96) scale(1.3333333333333)"><rect width="6" height="6"/></g>
<g transform="translate(112,96) scale(1.3333333333333)"><rect width="6" height="6"/></g>
<g transform="translate(128,96) scale(1.3333333333333)"><rect width="6" height="6"/></g>
<g transform="translate(136,96) scale(1.3333333333333)"><rect width="6" height="6"/></g>
<g transform="translate(144,96) scale(1.3333333333333)"><rect width="6" height="6"/></g>
<g transform="translate(176,96) scale(1.3333333333333)"><rect width="6" height="6"/></g>
<g transform="translate(208,96) scale(1.3333333333333)"><rect width="6" height="6"/></g>
<g transform="translate(24,104) scale(1.3333333333333)"><rect width="6" height="6"/></g>
<g transform="translate(32,104) scale(1.3333333333333)"><rect width="6" height="6"/></g>
<g transform="translate(48,104) scale(1.3333333333333)"><rect width="6" height="6"/></g>
<g transform="translate(56,104) scale(1.3333333333333)"><rect width="6" height="6"/></g>
<g transform="translate(88,104) scale(1.3333333333333)"><rect width="6" height="6"/></g>
<g transform="translate(96,104) scale(1.3333333333333)"><rect width="6" height="6"/></g>
<g transform="translate(104,104) scale(1.3333333333333)"><rect width="6" height="6"/></g>
<g transform="translate(128,104) scale(1.3333333333333)"><rect width="6" height="6"/></g>
<g transform="translate(136,104) scale(1.3333333333333)"><rect width="6" height="6"/></g>
<g transform="translate(144,104) scale(1.3333333333333)"><rect width="6" height="6"/></g>
<g transform="translate(176,104) scale(1.3333333333333)"><rect width="6" height="6"/></g>
<g transform="translate(216,104) scale(1.3333333333333)"><rect width="6" height="6"/></g>
<g transform="translate(232,104) scale(1.3333333333333)"><rect width="6" height="6"/></g>
<g transform="translate(16,112) scale(1.3333333333333)"><rect width="6" height="6"/></g>
<g transform="translate(24,112) scale(1.3333333333333)"><rect width="6" height="6"/></g>
<g transform="translate(32,112) scale(1.3333333333333)"><rect width="6" height="6"/></g>
<g transform="translate(48,112) scale(1.3333333333333)"><rect width="6" height="6"/></g>
<g transform="translate(56,112) scale(1.3333333333333)"><rect width="6" height="6"/></g>
<g transform="translate(64,112) scale(1.3333333333333)"><rect width="6" height="6"/></g>
<g transform="translate(88,112) scale(1.3333333333333)"><rect width="6" height="6"/></g>
<g transform="translate(104,112) scale(1.3333333333333)"><rect width="6" height="6"/></g>
<g transform="translate(136,112) scale(1.3333333333333)"><rect width="6" height="6"/></g>
<g transform="translate(152,112) scale(1.3333333333333)"><rect width="6" height="6"/></g>
<g transform="translate(216,112) scale(1.3333333333333)"><rect width="6" height="6"/></g>
<g transform="translate(224,112) scale(1.3333333333333)"><rect width="6" height="6"/></g>
<g transform="translate(40,120) scale(1.3333333333333)"><rect width="6" height="6"/></g>
<g transform="translate(72,120) scale(1.3333333333333)"><rect width="6" height="6"/></g>
<g transform="translate(80,120) scale(1.3333333333333)"><rect width="6" height="6"/></g>
<g transform="translate(88,120) scale(1.3333333333333)"><rect width="6" height="6"/></g>
<g transform="translate(96,120) scale(1.3333333333333)"><rect width="6" height="6"/></g>
<g transform="translate(112,120) scale(1.3333333333333)"><rect width="6" height="6"/></g>
<g transform="translate(120,120) scale(1.3333333333333)"><rect width="6" height="6"/></g>
<g transform="translate(144,120) scale(1.3333333333333)"><rect width="6" height="6"/></g>
<g transform="translate(160,120) scale(1.3333333333333)"><rect width="6" height="6"/></g>
<g transform="translate(168,120) scale(1.3333333333333)"><rect width="6" height="6"/></g>
<g transform="translate(176,120) scale(1.3333333333333)"><rect width="6" height="6"/></g>
<g transform="translate(184,120) scale(1.3333333333333)"><rect width="6" height="6"/></g>
<g transform="translate(192,120) scale(1.3333333333333)"><rect width="6" height="6"/></g>
<g transform="translate(200,120) scale(1.3333333333333)"><rect width="6" height="6"/></g>
<g transform="translate(208,120) scale(1.3333333333333)"><rect width="6" height="6"/></g>
<g transform="translate(240,120) scale(1.3333333333333)"><rect width="6" height="6"/></g>
<g transform="translate(24,128) scale(1.3333333333333)"><rect width="6" height="6"/></g>
<g transform="translate(48,128) scale(1.3333333333333)"><rect width="6" height="6"/></g>
<g transform="translate(56,128) scale(1.3333333333333)"><rect width="6" height="6"/></g>
<g transform="translate(64,128) scale(1.3333333333333)"><rect width="6" height="6"/></g>
<g transform="translate(96,128) scale(1.3333333333333)"><rect width="6" height="6"/></g>
<g transform="translate(120,128) scale(1.3333333333333)"><rect width="6" height="6"/></g>
<g transform="translate(128,128) scale(1.3333333333333)"><rect width="6" height="6"/></g>
<g transform="translate(136,128) scale(1.3333333333333)"><rect width="6" height="6"/></g>
<g transform="translate(144,128) scale(1.3333333333333)"><rect width="6" height="6"/></g>
<g transform="translate(176,128) scale(1.3333333333333)"><rect width="6" height="6"/></g>
<g transform="translate(184,128) scale(1.3333333333333)"><rect width="6" height="6"/></g>
<g transform="translate(208,128) scale(1.3333333333333)"><rect width="6" height="6"/></g>
<g transform="translate(216,128) scale(1.3333333333333)"><rect width="6" height="6"/></g>
<g transform="translate(224,128) scale(1.3333333333333)"><rect width="6" height="6"/></g>
<g transform="translate(40,136) scale(1.3333333333333)"><rect width="6" height="6"/></g>
<g transform="translate(48,136) scale(1.3333333333333)"><rect width="6" height="6"/></g>
<g transform="translate(72,136) scale(1.3333333333333)"><rect width="6" height="6"/></g>
<g transform="translate(80,136) scale(1.3333333333333)"><rect width="6" height="6"/></g>
<g transform="translate(112,136) scale(1.3333333333333)"><rect width="6" height="6"/></g>
<g transform="translate(120,136) scale(1.3333333333333)"><rect width="6" height="6"/></g>
<g transform="translate(144,136) scale(1.3333333333333)"><rect width="6" height="6"/></g>
<g transform="translate(168,136) scale(1.3333333333333)"><rect width="6" height="6"/></g>
<g transform="translate(176,136) scale(1.3333333333333)"><rect width="6" height="6"/></g>
<g transform="translate(184,136) scale(1.3333333333333)"><rect width="6" height="6"/></g>
<g transform="translate(192,136) scale(1.3333333333333)"><rect width="6" height="6"/></g>
<g transform="translate(200,136) scale(1.3333333333333)"><rect width="6" height="6"/></g>
<g transform="translate(208,136) scale(1.3333333333333)"><rect width="6" height="6"/></g>
<g transform="translate(232,136) scale(1.3333333333333)"><rect width="6" height="6"/></g>
<g transform="translate(16,144) scale(1.3333333333333)"><rect width="6" height="6"/></g>
<g transform="translate(24,144) scale(1.3333333333333)"><rect width="6" height="6"/></g>
<g transform="translate(32,144) scale(1.3333333333333)"><rect width="6" height="6"/></g>
<g transform="translate(64,144) scale(1.3333333333333)"><rect width="6" height="6"/></g>
<g transform="translate(72,144) scale(1.3333333333333)"><rect width="6" height="6"/></g>
<g transform="translate(96,144) scale(1.3333333333333)"><rect width="6" height="6"/></g>
<g transform="translate(112,144) scale(1.3333333333333)"><rect width="6" height="6"/></g>
<g transform="translate(128,144) scale(1.3333333333333)"><rect width="6" height="6"/></g>
<g transform="translate(136,144) scale(1.3333333333333)"><rect width="6" height="6"/></g>
<g transform="translate(144,144) scale(1.3333333333333)"><rect width="6" height="6"/></g>
<g transform="translate(152,144) scale(1.3333333333333)"><rect width="6" height="6"/></g>
<g transform="translate(168,144) scale(1.3333333333333)"><rect width="6" height="6"/></g>
<g transform="translate(184,144) scale(1.3333333333333)"><rect width="6" height="6"/></g>
<g transform="translate(200,144) scale(1.3333333333333)"><rect width="6" height="6"/></g>
<g transform="translate(216,144) scale(1.3333333333333)"><rect width="6" height="6"/></g>
<g transform="translate(224,144) scale(1.3333333333333)"><rect width="6" height="6"/></g>
<g transform="translate(16,152) scale(1.3333333333333)"><rect width="6" height="6"/></g>
<g transform="translate(24,152) scale(1.3333333333333)"><rect width="6" height="6"/></g>
<g transform="translate(48,152) scale(1.3333333333333)"><rect width="6" height="6"/></g>
<g transform="translate(56,152) scale(1.3333333333333)"><rect width="6" height="6"/></g>
<g transform="translate(88,152) scale(1.3333333333333)"><rect width="6" height="6"/></g>
<g transform="translate(144,152) scale(1.3333333333333)"><rect width="6" height="6"/></g>
<g transform="translate(168,152) scale(1.3333333333333)"><rect width="6" height="6"/></g>
<g transform="translate(184,152) scale(1.3333333333333)"><rect width="6" height="6"/></g>
<g transform="translate(192,152) scale(1.3333333333333)"><rect width="6" height="6"/></g>
<g transform="translate(200,152) scale(1.3333333333333)"><rect width="6" height="6"/></g>
<g transform="translate(208,152) scale(1.3333333333333)"><rect width="6" height="6"/></g>
<g transform="translate(224,152) scale(1.3333333333333)"><rect width="6" height="6"/></g>
<g transform="translate(240,152) scale(1.3333333333333)"><rect width="6" height="6"/></g>
<g transform="translate(16,160) scale(1.3333333333333)"><rect width="6" height="6"/></g>
<g transform="translate(48,160) scale(1.3333333333333)"><rect width="6" height="6"/></g>
<g transform="translate(64,160) scale(1.3333333333333)"><rect width="6" height="6"/></g>
<g transform="translate(104,160) scale(1.3333333333333)"><rect width="6" height="6"/></g>
<g transform="translate(112,160) scale(1.3333333333333)"><rect width="6" height="6"/></g>
<g transform="translate(136,160) scale(1.3333333333333)"><rect width="6" height="6"/></g>
<g transform="translate(144,160) scale(1.3333333333333)"><rect width="6" height="6"/></g>
<g transform="translate(152,160) scale(1.3333333333333)"><rect width="6" height="6"/></g>
<g transform="translate(176,160) scale(1.3333333333333)"><rect width="6" height="6"/></g>
<g transform="translate(192,160) scale(1.3333333333333)"><rect width="6" height="6"/></g>
<g transform="translate(200,160) scale(1.3333333333333)"><rect width="6" height="6"/></g>
<g transform="translate(208,160) scale(1.3333333333333)"><rect width="6" height="6"/></g>
<g transform="translate(224,160) scale(1.3333333333333)"><rect width="6" height="6"/></g>
<g transform="translate(16,168) scale(1.3333333333333)"><rect width="6" height="6"/></g>
<g transform="translate(32,168) scale(1.3333333333333)"><rect width="6" height="6"/></g>
<g transform="translate(56,168) scale(1.3333333333333)"><rect width="6" height="6"/></g>
<g transform="translate(80,168) scale(1.3333333333333)"><rect width="6" height="6"/></g>
<g transform="translate(96,168) scale(1.3333333333333)"><rect width="6" height="6"/></g>
<g transform="translate(104,168) scale(1.3333333333333)"><rect width="6" height="6"/></g>
<g transform="translate(128,168) scale(1.3333333333333)"><rect width="6" height="6"/></g>
<g transform="translate(144,168) scale(1.3333333333333)"><rect width="6" height="6"/></g>
<g transform="translate(176,168) scale(1.3333333333333)"><rect width="6" height="6"/></g>
<g transform="translate(184,168) scale(1.3333333333333)"><rect width="6" height="6"/></g>
<g transform="translate(192,168) scale(1.3333333333333)"><rect width="6" height="6"/></g>
<g transform="translate(232,168) scale(1.3333333333333)"><rect width="6" height="6"/></g>
<g transform="translate(16,176) scale(1.3333333333333)"><rect width="6" height="6"/></g>
<g transform="translate(32,176) scale(1.3333333333333)"><rect width="6" height="6"/></g>
<g transform="translate(40,176) scale(1.3333333333333)"><rect width="6" height="6"/></g>
<g transform="translate(56,176) scale(1.3333333333333)"><rect width="6" height="6"/></g>
<g transform="translate(64,176) scale(1.3333333333333)"><rect width="6" height="6"/></g>
<g transform="translate(72,176) scale(1.3333333333333)"><rect width="6" height="6"/></g>
<g transform="translate(80,176) scale(1.3333333333333)"><rect width="6" height="6"/></g>
<g transform="translate(88,176) scale(1.3333333333333)"><rect width="6" height="6"/></g>
<g transform="translate(104,176) scale(1.3333333333333)"><rect width="6" height="6"/></g>
<g transform="translate(152,176) scale(1.3333333333333)"><rect width="6" height="6"/></g>
<g transform="translate(168,176) scale(1.3333333333333)"><rect width="6" height="6"/></g>
<g transform="translate(176,176) scale(1.3333333333333)"><rect width="6" height="6"/></g>
<g transform="translate(184,176) scale(1.3333333333333)"><rect width="6" height="6"/></g>
<g transform="translate(192,176) scale(1.3333333333333)"><rect width="6" height="6"/></g>
<g transform="translate(200,176) scale(1.3333333333333)"><rect width="6" height="6"/></g>
<g transform="translate(208,176) scale(1.3333333333333)"><rect width="6" height="6"/></g>
<g transform="translate(224,176) scale(1.3333333333333)"><rect width="6" height="6"/></g>
<g transform="translate(232,176) scale(1.3333333333333)"><rect width="6" height="6"/></g>
<g transform="translate(240,176) scale(1.3333333333333)"><rect width="6" height="6"/></g>
<g transform="translate(80,184) scale(1.3333333333333)"><rect width="6" height="6"/></g>
<g transform="translate(96,184) scale(1.3333333333333)"><rect width="6" height="6"/></g>
<g transform="translate(112,184) scale(1.3333333333333)"><rect width="6" height="6"/></g>
<g transform="translate(120,184) scale(1.3333333333333)"><rect width="6" height="6"/></g>
<g transform="translate(128,184) scale(1.3333333333333)"><rect width="6" height="6"/></g>
<g transform="translate(144,184) scale(1.3333333333333)"><rect width="6" height="6"/></g>
<g transform="translate(176,184) scale(1.3333333333333)"><rect width="6" height="6"/></g>
<g transform="translate(208,184) scale(1.3333333333333)"><rect width="6" height="6"/></g>
<g transform="translate(216,184) scale(1.3333333333333)"><rect width="6" height="6"/></g>
<g transform="translate(224,184) scale(1.3333333333333)"><rect width="6" height="6"/></g>
<g transform="translate(232,184) scale(1.3333333333333)"><rect width="6" height="6"/></g>
<g transform="translate(240,184) scale(1.3333333333333)"><rect width="6" height="6"/></g>
<g transform="translate(80,192) scale(1.3333333333333)"><rect width="6" height="6"/></g>
<g transform="translate(88,192) scale(1.3333333333333)"><rect width="6" height="6"/></g>
<g transform="translate(120,192) scale(1.3333333333333)"><rect width="6" height="6"/></g>
<g transform="translate(128,192) scale(1.3333333333333)"><rect width="6" height="6"/></g>
<g transform="translate(136,192) scale(1.3333333333333)"><rect width="6" height="6"/></g>
<g transform="translate(160,192) scale(1.3333333333333)"><rect width="6" height="6"/></g>
<g transform="translate(168,192) scale(1.3333333333333)"><rect width="6" height="6"/></g>
<g transform="translate(176,192) scale(1.3333333333333)"><rect width="6" height="6"/></g>
<g transform="translate(192,192) scale(1.3333333333333)"><rect width="6" height="6"/></g>
<g transform="translate(208,192) scale(1.3333333333333)"><rect width="6" height="6"/></g>
<g transform="translate(216,192) scale(1.3333333333333)"><rect width="6" height="6"/></g>
<g transform="translate(224,192) scale(1.3333333333333)"><rect width="6" height="6"/></g>
<g transform="translate(88,200) scale(1.3333333333333)"><rect width="6" height="6"/></g>
<g transform="translate(96,200) scale(1.3333333333333)"><rect width="6" height="6"/></g>
<g transform="translate(112,200) scale(1.3333333333333)"><rect width="6" height="6"/></g>
<g transform="translate(120,200) scale(1.3333333333333)"><rect width="6" height="6"/></g>
<g transform="translate(136,200) scale(1.3333333333333)"><rect width="6" height="6"/></g>
<g transform="translate(160,200) scale(1.3333333333333)"><rect width="6" height="6"/></g>
<g transform="translate(168,200) scale(1.3333333333333)"><rect width="6" height="6"/></g>
<g transform="translate(176,200) scale(1.3333333333333)"><rect width="6" height="6"/></g>
<g transform="translate(208,200) scale(1.3333333333333)"><rect width="6" height="6"/></g>
<g transform="translate(240,200) scale(1.3333333333333)"><rect width="6" height="6"/></g>
<g transform="translate(80,208) scale(1.3333333333333)"><rect width="6" height="6"/></g>
<g transform="translate(96,208) scale(1.3333333333333)"><rect width="6" height="6"/></g>
<g transform="translate(112,208) scale(1.3333333333333)"><rect width="6" height="6"/></g>
<g transform="translate(128,208) scale(1.3333333333333)"><rect width="6" height="6"/></g>
<g transform="translate(136,208) scale(1.3333333333333)"><rect width="6" height="6"/></g>
<g transform="translate(144,208) scale(1.3333333333333)"><rect width="6" height="6"/></g>
<g transform="translate(152,208) scale(1.3333333333333)"><rect width="6" height="6"/></g>
<g transform="translate(176,208) scale(1.3333333333333)"><rect width="6" height="6"/></g>
<g transform="translate(184,208) scale(1.3333333333333)"><rect width="6" height="6"/></g>
<g transform="translate(192,208) scale(1.3333333333333)"><rect width="6" height="6"/></g>
<g transform="translate(200,208) scale(1.3333333333333)"><rect width="6" height="6"/></g>
<g transform="translate(208,208) scale(1.3333333333333)"><rect width="6" height="6"/></g>
<g transform="translate(224,208) scale(1.3333333333333)"><rect width="6" height="6"/></g>
<g transform="translate(80,216) scale(1.3333333333333)"><rect width="6" height="6"/></g>
<g transform="translate(88,216) scale(1.3333333333333)"><rect width="6" height="6"/></g>
<g transform="translate(96,216) scale(1.3333333333333)"><rect width="6" height="6"/></g>
<g transform="translate(136,216) scale(1.3333333333333)"><rect width="6" height="6"/></g>
<g transform="translate(144,216) scale(1.3333333333333)"><rect width="6" height="6"/></g>
<g transform="translate(152,216) scale(1.3333333333333)"><rect width="6" height="6"/></g>
<g transform="translate(160,216) scale(1.3333333333333)"><rect width="6" height="6"/></g>
<g transform="translate(168,216) scale(1.3333333333333)"><rect width="6" height="6"/></g>
<g transform="translate(176,216) scale(1.3333333333333)"><rect width="6" height="6"/></g>
<g transform="translate(216,216) scale(1.3333333333333)"><rect width="6" height="6"/></g>
<g transform="translate(224,216) scale(1.3333333333333)"><rect width="6" height="6"/></g>
<g transform="translate(232,216) scale(1.3333333333333)"><rect width="6" height="6"/></g>
<g transform="translate(240,216) scale(1.3333333333333)"><rect width="6" height="6"/></g>
<g transform="translate(80,224) scale(1.3333333333333)"><rect width="6" height="6"/></g>
<g transform="translate(96,224) scale(1.3333333333333)"><rect width="6" height="6"/></g>
<g transform="translate(104,224) scale(1.3333333333333)"><rect width="6" height="6"/></g>
<g transform="translate(112,224) scale(1.3333333333333)"><rect width="6" height="6"/></g>
<g transform="translate(136,224) scale(1.3333333333333)"><rect width="6" height="6"/></g>
<g transform="translate(144,224) scale(1.3333333333333)"><rect width="6" height="6"/></g>
<g transform="translate(160,224) scale(1.3333333333333)"><rect width="6" height="6"/></g>
<g transform="translate(168,224) scale(1.3333333333333)"><rect width="6" height="6"/></g>
<g transform="translate(176,224) scale(1.3333333333333)"><rect width="6" height="6"/></g>
<g transform="translate(184,224) scale(1.3333333333333)"><rect width="6" height="6"/></g>
<g transform="translate(192,224) scale(1.3333333333333)"><rect width="6" height="6"/></g>
<g transform="translate(200,224) scale(1.3333333333333)"><rect width="6" height="6"/></g>
<g transform="translate(208,224) scale(1.3333333333333)"><rect width="6" height="6"/></g>
<g transform="translate(216,224) scale(1.3333333333333)"><rect width="6" height="6"/></g>
<g transform="translate(224,224) scale(1.3333333333333)"><rect width="6" height="6"/></g>
<g transform="translate(232,224) scale(1.3333333333333)"><rect width="6" height="6"/></g>
<g transform="translate(80,232) scale(1.3333333333333)"><rect width="6" height="6"/></g>
<g transform="translate(104,232) scale(1.3333333333333)"><rect width="6" height="6"/></g>
<g transform="translate(128,232) scale(1.3333333333333)"><rect width="6" height="6"/></g>
<g transform="translate(144,232) scale(1.3333333333333)"><rect width="6" height="6"/></g>
<g transform="translate(160,232) scale(1.3333333333333)"><rect width="6" height="6"/></g>
<g transform="translate(176,232) scale(1.3333333333333)"><rect width="6" height="6"/></g>
<g transform="translate(184,232) scale(1.3333333333333)"><rect width="6" height="6"/></g>
<g transform="translate(200,232) scale(1.3333333333333)"><rect width="6" height="6"/></g>
<g transform="translate(216,232) scale(1.3333333333333)"><rect width="6" height="6"/></g>
<g transform="translate(232,232) scale(1.3333333333333)"><rect width="6" height="6"/></g>
<g transform="translate(80,240) scale(1.3333333333333)"><rect width="6" height="6"/></g>
<g transform="translate(88,240) scale(1.3333333333333)"><rect width="6" height="6"/></g>
<g transform="translate(104,240) scale(1.3333333333333)"><rect width="6" height="6"/></g>
<g transform="translate(152,240) scale(1.3333333333333)"><rect width="6" height="6"/></g>
<g transform="translate(160,240) scale(1.3333333333333)"><rect width="6" height="6"/></g>
<g transform="translate(168,240) scale(1.3333333333333)"><rect width="6" height="6"/></g>
<g transform="translate(192,240) scale(1.3333333333333)"><rect width="6" height="6"/></g>
<g transform="translate(200,240) scale(1.3333333333333)"><rect width="6" height="6"/></g>
<g transform="translate(208,240) scale(1.3333333333333)"><rect width="6" height="6"/></g>
<g transform="translate(224,240) scale(1.3333333333333)"><rect width="6" height="6"/></g>
<g transform="translate(16,16)"><g transform="scale(4)"><path d="M0,0v14h14V0H0z M12,12H2V2h10V12z"/></g></g>
<g transform="translate(192,16)"><g transform="scale(4)"><path d="M0,0v14h14V0H0z M12,12H2V2h10V12z"/></g></g>
<g transform="translate(16,192)"><g transform="scale(4)"><path d="M0,0v14h14V0H0z M12,12H2V2h10V12z"/></g></g>
<g transform="translate(32,32)"><g transform="scale(4)"><rect width="6" height="6"/></g></g>
<g transform="translate(208,32)"><g transform="scale(4)"><rect width="6" height="6"/></g></g>
<g transform="translate(32,208)"><g transform="scale(4)"><rect width="6" height="6"/></g></g>
</g></mask></defs>
<rect x="0" y="0" width="264" height="264" mask="url(#qrmask)" fill="#000000" />
</svg>